<svg width="14" height="12" fill="none" xmlns="http://www.w3.org/2000/svg"><path fill-rule="evenodd" clip-rule="evenodd" d="M7 .178c-2.175 0-4.355.368-5.146 1.1-.657.608-.875 1.682-.95 2.362 0 0-.01.068-.01.096 0 .267.23.48.51.48.032 0 1.256-.093 1.994-.15.018-.003.035-.005.053-.01a.495.495 0 00.496-.48l.003-.947c0-.293.252-.529.562-.529h4.976c.31 0 .562.236.562.529l.003.946c0 .262.221.474.496.48a.247.247 0 00.053.01c.738.058 1.962.152 1.995.152.28 0 .508-.214.508-.48a.97.97 0 00-.01-.097c-.074-.68-.292-1.754-.948-2.361C11.355.546 9.175.179 7 .179zm0 6.247c-.562 0-1.018.43-1.018.96 0 .532.456.962 1.018.962s1.018-.43 1.018-.961c0-.531-.456-.961-1.018-.961zm-.763-2.162v-.601c0-.332-.285-.6-.636-.6-.351 0-.636.268-.636.6v.6L1.533 7.726a1.17 1.17 0 00-.384.86v.963c0 .531.455.961 1.018.961h.254v.601c0 .332.285.6.636.6.35 0 .636-.269.636-.6v-.6h6.614v.6c0 .332.285.6.636.6.351 0 .636-.269.636-.6v-.6h.255c.562 0 1.017-.43 1.017-.962v-.963a1.17 1.17 0 00-.384-.86L9.035 4.263v-.601c0-.332-.285-.6-.636-.6-.35 0-.636.268-.636.6v.6H6.237zM7 5.463c1.124 0 2.035.861 2.035 1.923S8.125 9.308 7 9.308c-1.124 0-2.035-.86-2.035-1.922 0-1.062.91-1.922 2.035-1.922z" fill="#fff"/></svg>