<svg width="131" height="88" fill="none" xmlns="http://www.w3.org/2000/svg"><path d="M49.519.92l-4.466 2.1-7.75-2.89-3.677.132-4.598 1.313.132 1.708s-.92.92-1.577.394c-.525-.394-1.444-1.05-1.444-1.05l-4.466 2.1s-5.386 4.073-7.487 5.912c-2.102 1.97-2.89 3.415-2.89 3.415l-.92 3.416.132 1.445-1.314 2.102-.13 1.576-1.971 1.313-3.153 5.78-.788 5.649-.788 10.246 2.102 3.284-.394 2.758s-1.182 1.314-.132 3.284c.92 1.97 2.496 3.81 2.496 3.81L8.8 60.82l5.254 8.275 4.992 6.7s2.101 1.97 3.02 1.707c.92-.131 2.496-.788 2.496-.788l4.466 1.576 3.81.132 4.86 4.992 4.86-.395 8.274-.13s6.174-.79 9.589-2.103c3.415-1.313 6.173-2.758 6.173-2.758s3.678 2.364 6.305 2.364c2.758 0 5.78.132 5.78.132l5.91 1.313 8.144-.131 12.084-.788 10.245-.394 4.86.13s2.496.92 4.992-.919c2.495-1.97 5.648-4.597 5.648-4.597s.131-3.284-.789-4.466c-.919-1.183-3.283-1.97-3.283-1.97l-1.182-1.971-3.416-.92s3.284-2.364 3.81-3.678c.525-1.313 1.576-4.203 1.576-4.203l-1.97-3.022-2.102-1.707-4.466-.394s2.102-1.314 3.284-4.992.919-5.386.919-5.386l-1.182-2.102-1.313-1.182-11.165-1.708-13.266-.788-8.67.526-4.597 1.182s-.788-1.576-.788-3.81c0-2.232.132-3.283.132-3.283s-1.183-7.357-4.072-11.56c-2.89-4.204-6.962-7.094-6.962-7.094l-.788-2.495S66.988 6.83 60.027 3.94c-6.962-2.89-7.487-1.708-7.487-1.708L49.519.92zM9.457 78.947l-1.445 2.496-.394 1.314 3.678 2.628 3.284-1.314 1.839-1.051-1.051-3.416-5.91-.657zm-4.86 4.992l1.314 1.839-1.84.525-3.808-.262.656-2.102h3.678zm14.055 1.051s-.92 0-.92.788c0 .789.789.92.789.92l.788-.394c0-.132.92-1.446-.657-1.314z" fill="#A97C50"/><path d="M82.094 34.548s1.576-.526 2.758-.132 1.97.788 1.97.788l1.708 1.84-5.648 1.313-.788-3.81zm14.054 2.102s1.839-2.365 2.496-2.628c.656-.263 1.838-1.182 1.838-1.182l6.568 2.233 4.729 2.758-15.631-1.182zM27.977 77.634l1.97 3.021s1.052 1.708 2.628 1.84c1.576.13 4.991.394 4.991.394l-4.729-4.467-4.86-.788zM6.436 58.587s-.525 2.101-.263 3.678c.263 1.577 2.233 3.81 2.233 3.81l2.759-.657-2.233-5.386-2.496-1.445z" fill="#784331"/><path d="M26.664 6.962c.263.394.525.788.657 1.182-.526-.131-1.051-.394-1.577-.526.657 1.183 1.314 2.496 1.97 3.679-.262-1.183-1.707-1.97-3.02-1.84-1.314.132-2.365.789-3.415 1.577l-3.153 1.97c-.394.263-.788.92-.394 1.183-.525-.526-1.445-.132-2.101.262a15.906 15.906 0 00-5.78 9.195c.394-.131.657-.262 1.051-.394-.263.788.92 1.051 1.576.92.788-.132 1.97 0 1.84.788-4.204 2.89-6.306 8.538-5.124 13.661-.262-.394-.656-.525-1.182-.525-1.576 5.648 1.182 11.56 3.94 16.683.395.657.658 1.313 1.314 1.839.394.262.788.525 1.051.788 1.182.788 1.839 2.102 3.021 3.021 1.051.92 3.021 1.051 3.678-.131-.525 2.627 1.313 5.123 3.546 6.436 2.233 1.314 4.86 2.233 6.962 3.81 1.182.92 2.364 2.102 3.81 2.233.656 0 1.313-.131 1.97-.263 1.05-.131 2.1-.131 3.02.394.788.526 1.314 1.84.657 2.759 2.364.394 4.729.657 7.224.394 2.365-.263 4.729-1.182 6.437-2.89.393-.525.788-1.05 1.444-1.182-.131.525-.262 1.05-.525 1.576 5.648-3.94 10.377-9.195 13.529-15.238.788-1.445 1.445-2.89 2.102-4.334.525-1.051.919-2.102 1.444-3.153.92-1.97 1.708-3.81 2.102-5.911.263-1.445.131-2.89-.131-4.204-.788 2.102-1.577 4.204-2.233 6.305 1.97-6.568.92-14.055-2.759-19.835-.262-.394-.788-.788-1.182-.525.788-1.051.526-2.365 0-3.547-1.445-3.547-5.123-6.174-8.932-6.305-.262-1.051-.788-2.102-1.313-2.89-2.102-3.153-5.78-4.73-9.195-6.306-2.233-.919-4.465-1.97-6.961-2.364-5.254-1.05-10.64.394-15.762 1.708.92.525 1.97 1.05 2.89 1.576l-2.496-1.576z" fill="#B38B64"/><path d="M42.557 8.67c-.394 0-.788 0-1.182-.13-.525 0-1.05-.132-1.313-.526-.132-.132-.132-.394-.263-.526-.131-.131-.394-.131-.657-.131-1.182-.131-2.233-.131-3.415-.131-1.313 0-2.627 0-3.678.525-.656.263-1.182.788-1.97.788-2.627.132-.525 3.81-.394 4.86-.788-1.97-3.678-2.89-5.648-1.707-.263.131-.525.394-.525.788 0 .525.525.92.525 1.314 0 .262-.263.525-.394.788-1.05.92-2.627 1.313-3.81 1.97-1.97 1.051-3.283 2.759-4.596 4.466-.395.526-.657 1.445-.132 1.708.132 0 .394 0 .526.132 1.182.525-1.84 2.89-2.233 3.415-.92 1.576-1.314 3.415-1.84 5.123-1.444 4.597-1.707 9.064-1.313 13.924 0 .394.132.92.394 1.314.394.262 1.051.262 1.183-.132 1.444 2.89 2.758 5.911 4.203 8.801.131.394.262.657.656.92.263.131.526.263.788.263 1.97.394 3.81 1.05 5.517 2.101.526.263.92.657 1.051 1.183 0 .394-.131.656-.263 1.05-.262.92.263 1.97.92 2.759 1.839 2.233 4.728 3.284 7.355 3.94 1.708.395 3.547.92 4.992 1.971.394.394 1.05.657 1.576.394.131-.131.263-.262.525-.394.526-.394 1.182 0 1.576.394.394.394.788.788 1.314 1.051.788.526 1.839.394 2.89.394.656 0 1.313-.131 1.97-.131 1.707-.131 4.072-.394 5.648-1.051 2.495-1.05 8.012-3.547 8.538-6.7-.263.263-.657 0-.657-.393 0-.395.263-.657.525-.789 1.97-1.839 4.203-3.284 5.911-5.123.525-.525 5.123-8.013 4.203-8.144-.394 0-.657-.131-1.05-.131 1.181-4.86 2.364-10.115.262-14.713-.394-.788-1.313-1.707-1.97-1.05-.132-2.628-.263-5.255-1.182-7.75-.788-1.971-2.233-4.204-3.94-5.518-.395-.262-1.052-.525-1.446-.131-.131.131-.131.263-.394.263-.131 0-.262 0-.394-.132-.525-.262-1.182-.525-1.576-.92-.394-.393-.788-.788-1.313-1.182-1.84-1.182-5.649.394-6.437-2.495a5.469 5.469 0 010-3.547v-.132a.283.283 0 00-.262-.262c-2.89-2.233-5.648-2.496-8.8-2.627zM8.012 24.17c-.131 1.182-.131 2.365-.131 3.547-.525-.263-1.05.394-1.314 1.05-1.05 2.89-1.576 6.043-1.313 9.196 0 .525.131.92-.131 1.314-.132.262-.263.525-.526.656-1.839 2.365-1.182 5.912.132 8.67-1.97-1.314-2.102-4.203-1.97-6.7.13-2.495.262-4.99.525-7.487.131-1.313.262-2.89.656-4.335.789-2.89 2.89-5.385 4.86-7.619-.262.526-.394 1.183-.788 1.708zM9.72 60.163a57.089 57.089 0 008.932 12.742c0-.263.394-.394.656-.263 2.496.394 4.466 2.364 6.7 3.678 1.838 1.05 3.94 1.708 5.91 2.233-2.89.132-5.648-1.839-8.406-1.313-.788.13-1.708.525-2.496.262-.657-.262-1.05-.788-1.445-1.445l-8.275-12.216c-.657-1.051-1.445-2.102-1.313-3.284l-.263-.394zm24.956 18.522c2.102.92 4.335 1.576 6.568 1.576.131-.788.394-1.576.525-2.364-.525.919.263 2.233 1.314 2.495 1.05.263 2.101 0 3.152-.394 4.203-1.445 8.144-3.284 11.953-5.648.525 1.313-.394 2.758-1.708 3.415-1.182.657-2.627.92-3.94 1.182-1.576.394-3.152 1.183-4.466 2.233-.394.263-.788.526-1.182.657-.657.132-1.314-.131-2.102-.263-1.445-.394-3.02-.13-4.334.657-.394.263-.92.657-1.445.657-.788.131-1.445-.394-2.102-.92a21.918 21.918 0 01-3.283-3.678c.394.132.788.132 1.313.263l-.263.132zm26.139-8.407c1.182.13 2.233-.526 3.152-1.183 1.445-.92 2.89-1.97 4.204-2.89 1.313-.92 2.626-1.839 3.152-3.284-.92-1.05 0-2.627.92-3.678.919-1.05 2.1-2.233 1.838-3.546-.131-.526-.525-1.051-.788-1.577-.92-2.364 1.314-4.86.92-7.356-2.365 6.83-4.992 13.793-9.852 19.047-2.101 2.233-4.597 4.204-6.567 6.568.788-.394 1.445-.92 2.102-1.576l.919-.525zM45.71 3.284c1.576.394 2.89 1.182 4.072 2.233.656.657 1.313 1.314 2.101 1.708.788.394 1.97.394 2.496-.394 0 .92 0 1.707.131 2.627 1.05-.132 2.102.657 2.759 1.576.656.92 1.05 1.97 1.838 2.759 1.051 1.05 2.759 1.445 4.203 2.102 2.496 1.05 4.598 3.02 6.043 5.254-.263-2.496-.92-4.992-1.84-7.356-.262-.526-.393-1.051-.919-1.445-.788-.788-2.233-.526-3.415-.263-.263-2.364-2.495-4.072-4.466-5.517-2.364-1.708-4.728-3.284-7.093-4.992-.656-.394-1.313-.92-2.101-.788-.657 0-1.182.394-1.576.788-.657.526-1.445 1.182-2.102 1.708h-.131z" fill="#D1A66F"/><path d="M83.407 40.722c-.263-1.708-.92-3.284-1.182-4.86-.263-1.446-.131-2.89-.263-4.336-.263-3.152-1.05-6.305-2.233-9.195-1.576-3.678-4.072-7.356-7.75-8.932 2.234 2.364-3.283 2.627-1.181 4.072 1.182.788 1.576 2.364 1.576 3.81 0 1.444-.263 2.89 0 4.203.131.92.656 1.839 1.05 2.758 1.183 2.496 2.233 5.123 2.89 7.882.92 4.072.788 8.144.394 12.348-.131 1.05-.263 2.233-.656 3.152-.526 1.051-1.445 1.84-2.496 1.97.92.789 1.05 2.234.657 3.416-.394 1.183-1.183 2.102-2.102 3.022-.263.262-.525.525-.657.919-.262.657.263 1.314.263 2.102 0 .394-.394.788-.657 1.182l-5.517 7.094c-.788.919-1.576 1.839-2.627 2.364-1.313.525-3.02.263-3.809 1.445 1.182.131 2.365.263 3.547.525-.263.657-.394 1.314-.657 1.97.394-.13.788-.13 1.182-.262.657.92 2.102 1.05 3.153.526 1.05-.526 1.839-1.446 2.364-2.496.657-.92 1.182-1.97 2.102-2.759.788-.657 1.838-.92 2.626-1.576 1.577-1.051 2.365-3.153 3.416-4.598a37.648 37.648 0 003.415-6.437c2.364-6.042 4.203-13.136 3.152-19.31z" fill="#965A41"/><path d="M84.326 38.357c5.255-.263 10.64.132 15.762 1.445.526.131 1.314.526 1.183 1.05 0 .264-.263.395-.394.658-3.021 2.496-7.75 1.576-10.902 3.81 4.728-1.971 10.113-1.183 14.973-.132 4.992 1.182 9.983 2.627 15.106 2.102.394 0 .788-.132 1.05-.395.263-.262.394-.525.526-.788.525-1.707.525-3.546-.132-5.123a2.04 2.04 0 00-.788-1.05c-.394-.263-.919-.395-1.313-.526-11.428-2.102-23.38-3.81-34.677-.788l-.394-.263z" fill="#D1A66F"/><path d="M84.064 52.675s6.042-1.05 9.326-.92c3.152.132 7.881.395 7.881.395l15.63.131 6.305.788 4.072 4.86s-3.809 1.314-5.385 1.183c-1.577-.131-6.305 0-6.305 0l-8.932.657-10.508.92-6.699-.395s-.657-.657-1.05-.657c-.395 0-3.284.789-3.284.789l-.788-.92-2.102 3.021-.92-.788-.919-1.707c-.263-.526 2.627-7.488 2.627-7.488h1.05v.131z" fill="#B38B64"/><path d="M90.237 52.413c2.102.656 4.335 1.05 6.568 1.313.262.788.394 1.576.656 2.496.132-.263.395-.526.526-.788.92 1.182 2.627 1.313 4.072 1.313 7.487.132 14.974.263 22.46.263.395-1.314-.525-2.758-1.838-3.415-1.314-.657-2.627-.788-4.072-.788-1.445-.132-3.021-.263-4.597-.263-8.144-.525-16.156-.92-24.3-.263l.525.132z" fill="#D1A66F"/><path d="M74.607 69.752c1.707 0 3.415.132 4.99.526 1.84.525 3.547 1.707 5.386 2.233 3.678 1.05 7.75-.394 11.296.92.92.393 1.708.787 2.627 1.05 1.182.263 2.496 0 3.678-.394 5.385-1.314 10.771-2.627 16.025-3.94 2.233-.526 4.466-1.052 6.305-2.365-2.233-1.445-4.992-2.233-7.619-2.233-.394 0-.919 0-1.313.262l-.788.788c-.526.394-1.182.526-1.839.526-3.021.263-6.174.525-9.195.657-1.313.131-2.758.262-4.072-.263-.788-.263-1.444-.657-2.232-1.05-2.627-1.052-5.648-.92-8.407-.658-4.072.394-8.275.657-12.347 1.051-.394 0-.92.132-1.182.394-.788.657-.788 2.233-1.839 2.365l.526.131z" fill="#B38B64"/><path d="M93.258 66.206c-.262.788-.525 1.576-.92 2.364 2.234.394 4.335.789 6.568 1.183 3.021.525 6.174 1.05 9.195 1.313 1.97.132 3.809.132 5.779.132 4.466 0 9.063 0 13.529.131.526 0 1.182 0 1.445-.525-1.051-1.051-2.233-2.102-3.284-3.285-.262-.263-.656-.657-1.051-.788-.525-.263-1.182-.394-1.838-.394-2.233-.263-4.466-.788-6.699-1.445-.657 1.839-2.89 2.365-4.86 2.627-3.021.263-6.042.526-9.063-.131-3.153-.657-6.436-2.102-9.589-1.314l.788.132z" fill="#D1A66F"/><path d="M69.09 75.532c3.284.526 6.567 1.182 9.851 1.708.657.131 1.314.263 1.839 0 .657-.131 1.182-.657 1.182-1.314 3.021 1.97 6.83 1.84 10.508 1.708 7.224-.394 14.317-.788 21.542-1.182 3.021-.132 6.042-.263 8.8.657-1.182 1.05-2.364 2.233-3.941 2.758-2.364.789-4.991.132-7.355 0-2.627-.13-5.123.395-7.618.657-2.496.263-5.123.394-7.75.526-2.102.131-4.335.263-6.436.263a23.88 23.88 0 01-4.335 0c-1.839-.132-3.546-.657-5.385-.789-2.364-.262-4.729 0-6.962-.262-2.364-.132-4.728-.789-6.436-2.497a30.09 30.09 0 002.89-2.89l-.394.657zm37.566-11.034c-5.123.394-10.245.657-15.5.394-1.707 0-3.414-.131-4.86-1.05 1.446-.92 3.022-1.971 4.467-2.891-.394-.657-1.183-.788-1.97-.788H83.8c-.394 1.314-1.576 2.233-2.89 2.365-.131-.789-.656-1.577-1.313-2.102-1.05 2.233-2.102 4.466-3.284 6.7 5.78-.789 11.559-1.314 17.338-1.708 1.445-.132 2.89-.132 4.204.394 1.182.525 2.101 1.576 3.415 1.84 1.97.393 3.809-1.183 5.122-2.76.263-.263.394-.657.132-.92l.131.526zm13.66-13.662c-11.558-1.313-23.38-2.627-34.939-1.182.132-3.415-.131-6.83-.525-10.246 0-.394-.132-.788-.394-1.182-.263-.263-.788-.394-1.051-.132.525 4.86.263 9.852-.92 14.581 3.678-.394 7.488-.788 11.165-1.05a50.29 50.29 0 016.174-.395c1.97 0 4.072.394 6.042.526 4.072.394 8.275.525 12.478.657 1.051 0 2.364-.394 2.233-1.314 0-.263-.657-.263-.394 0l.131-.263z" fill="#965A41"/><path opacity=".35" d="M27.977 71.855c-1.576-1.183-3.677-2.627-4.728-4.467-.92-1.839-1.314-4.466-1.445-6.568-.263-4.334.92-8.538 3.678-11.953 3.02-3.547 6.567-6.568 10.114-9.59 7.093-5.91 14.842-10.902 22.855-15.5 1.182-.657 2.495-1.445 3.94-1.576 1.445-.263 3.021.131 3.81 1.182-1.052-3.021-3.547-5.386-5.911-7.619-1.84-1.708-3.678-3.415-5.78-4.729-6.83-4.466-16.025-4.86-23.643-1.839-7.618 3.021-13.923 9.064-17.995 16.026-1.182 1.97-2.101 3.94-2.89 6.043-2.89 7.618-2.495 16.42.789 23.907 3.283 7.488 9.588 13.661 17.206 16.683z" fill="#E0C39C"/><path d="M62.523 42.298c-1.314.92-1.97 2.89-1.183 4.335.132.394.394.657.788.92.263.131.526.131.92.263.788.131 1.576.525 2.233.92.92-1.446 1.576-3.022 1.839-4.73 0-.263.131-.526 0-.788-.132-.395-.526-.789-.92-.92-.394-.132-.92-.132-1.313-.132-.92 0-1.84 0-2.627.395l.263-.263zM43.345 32.052c-.788.657-1.576 1.445-2.233 2.102-.394.394-.919.92-.919 1.444 0 .395.131.789.263 1.051.788 1.577 2.233 2.628 3.677 3.678.132.132.395.263.657.395.526.13.92-.132 1.314-.395 2.495-1.707 4.86-3.94 5.122-6.83v-.394l-.394-.394c-1.313-.92-2.627-1.708-3.94-2.628a35.867 35.867 0 01-3.94 2.759l.393-.788zm2.627 26.272c-1.05 1.182-1.839 2.627-2.495 4.072 1.445.788 2.89 1.576 4.466 2.233.131.131.394.131.525.131s.263-.13.394-.262c2.758-2.102 5.123-5.255 4.991-8.801-.92 0-1.839.262-2.627.656l-1.97.789c-1.182.394-2.495.92-3.546 1.576l.262-.394zm5.648-46.896c-.13 1.314-.13 2.628-.13 3.942 0 .131 0 .263.13.394a.407.407 0 00.263.131c1.576.526 3.152 1.051 4.729 1.445.657-2.102.394-4.598-.92-6.437-.131-.131-.131-.263-.262-.263-.263-.263-.788 0-1.051.132-.92.394-1.84.656-2.89.656.131-.262.526-.394.788-.262l-.657.262zm-10.376 2.628c-.394.919-.657 1.97-.526 3.02 0 .132 0 .395.132.526.131.394.525.525.92.657.919.131 1.97-.394 2.363-1.314.395-.92.132-1.97-.525-2.627-.394-.394-.788-.657-1.313-.657-.526 0-1.051.263-1.051.789v-.394zM27.846 22.2a10.161 10.161 0 00-1.05 4.466c0 .131 0 .394.13.525l.263.263c1.445.92 3.021 1.84 4.466 2.759.132 0 .263.131.394.131.132 0 .132 0 .263-.131 2.102-1.183 3.81-3.284 4.597-5.517-2.364-2.365-5.91-3.416-9.194-2.759-.132 0-.132 0-.263.131 0 .132 0 .263.131.132h.263zm.131 32.184c.395-2.102 1.183-4.204 2.365-5.912 0-.132.131-.132.263-.263h.393a16.248 16.248 0 016.568 4.86c-.657.658-1.182 1.315-1.839 1.971-.525.657-1.182 1.183-1.97 1.314-.394 0-.788-.131-1.182-.262a65.107 65.107 0 00-4.598-1.708.283.283 0 00-.262.262l.262-.262zM14.054 41.116c-.394 2.101-.788 4.072-1.05 6.173a1.824 1.824 0 000 1.183c.131.394.525.788.788 1.05.788.657 1.707 1.314 2.627 1.708.131.132.394.263.657.132.262 0 .393-.263.525-.526 1.313-2.233 2.627-4.466 3.546-6.83.132-.395.263-.789.263-1.183 0-.525-.525-1.05-1.05-1.313a4.044 4.044 0 00-1.708-.394c-1.314-.132-2.627-.132-3.94-.132-.264 0-.658 0-.92.263l.262-.131zm77.891-2.233c-.132-.132-.263-.132-.526-.132-1.05 0-1.838 1.051-1.576 1.97.263.92 1.445 1.577 2.364 1.183.395-.132.789-.526 1.051-.789l1.051-1.05c.526-.526.92-1.182.657-1.708-1.051.394-2.233.657-3.284.657-.131 0-.263 0-.263.131 0 .132.263 0 .132 0l.394-.262zm21.672-.789c.92 1.577 1.971 3.021 3.284 4.335.132.131.132.131.263.131s.263-.131.263-.131c.919-1.05.788-2.496.788-3.81-1.182-.525-2.496-.525-3.809-.262-.263 0-.394.132-.657 0-.263-.131-.394-.394-.132-.525v.262zm-2.758 18.785a4.696 4.696 0 00-2.496 2.758c0 .132-.131.394 0 .526.132.13.263.13.395.13 2.364 0 4.728-.262 7.092-.919-1.576-.919-3.152-1.839-4.86-2.627l-.131.132z" fill="#784331"/><path opacity=".44" d="M103.898 67.65c0-.131.262-.263.394-.131.788.131 1.576.262 2.495.525.788.132 1.576.263 2.496.263.657 0 1.313-.263 1.839-.394 1.313-.394 2.627-.788 3.94-1.051-1.445-1.576-3.546-2.102-5.648-2.627-.394-.131-.788-.131-1.051 0a1.815 1.815 0 00-.525.394c-1.182 1.05-2.233 1.97-3.415 3.021h-.525z" fill="#965A41"/><path d="M101.139 71.328c-1.051 0-1.707 1.183-1.313 2.102.657.263 1.182.394 1.839.394.656 0 1.313-.131 1.707-.657.394-.394.526-1.05.657-1.576-.657.132-1.314 0-1.839-.525-.131-.132-.131-.263-.263-.263-.394-.131-.788.263-.788.525zm-17.863-1.444c-.657.13-.92.92-.526 1.576.263.526.92.92 1.445 1.182.92.395 1.708.92 2.627 1.314.788.394 1.576.788 2.364.788 1.183 0 2.233-1.05 3.021-1.839.526-.525 1.051-1.182 1.445-1.708.263-.394.526-.657.526-1.182 0-.394-.394-.788-.788-1.051-.394-.132-.92-.132-1.314-.263-2.495 0-4.86 0-7.355.263-.657 0-1.445.131-1.84.788l.395.132z" fill="#784331"/><path d="M55.824 11.034s-.657 3.679-1.577 4.204c-.919.394-2.495.657-2.495.657s1.707.92 2.627 1.051c.92.131 2.364.657 2.364.657s1.445-4.598-.92-6.569zM40.587 36.125l4.335 1.839 3.152-3.416-1.445-4.335c0-.132-5.78 2.102-6.042 5.912zm-7.75-13.662l-.656 3.284-5.386 1.445.132-3.021.788-2.365c.131.131 4.203-.657 5.122.657zM13.398 46.896a48.395 48.395 0 013.283-2.233l4.335-.526s-.788-2.364-1.05-2.627c-1.183-.92-4.598-.526-6.043-.526 0 1.97-.657 3.941-.525 5.912zm15.368 5.384l3.283-.656 6.042 1.314-3.283-3.022-3.81-1.576c0-.131-1.182 1.576-2.232 3.94zm15.367 9.985l4.204-.394c.656-1.577 1.313-2.628 1.313-4.335 0-.132 0-.263-.131-.395-.131-.13-.394 0-.657.132-.394.263-.92.131-1.445.263a2.58 2.58 0 00-1.707 1.182c-.132.263-1.708 3.547-1.577 3.547zm17.733-15.5c.92.262 1.707-.526 2.233-1.314.394-.526.656-1.051.788-1.577.131-.525 0-1.182-.526-1.576-.525-.394-1.445-.394-1.97.131-.525.394-.92 1.051-1.182 1.708-.263.657-.525 1.314-.263 1.97.132.658.92 1.183 1.445 1.052l-.525-.394z" fill="#93533F"/><path d="M72.768 13.924c-.526 1.051-1.314 1.97-2.496 2.496a20.311 20.311 0 00-3.152-3.547c-.132 1.708.656 3.416 1.97 4.467.525.525 1.182.788 1.707 1.313.92.92 1.445 2.233 1.314 3.416 0 .788-.263 1.576-.263 2.364 0 .92.263 1.839.526 2.627.656 1.84 1.182 3.678 1.839 5.517.394 1.051.656 1.97 1.313 2.89.263.394.657.92.788 1.314.132.394.132.788.132 1.313.13 2.496.13 5.123.262 7.62.132-.264.263-.526.526-.789.656.657 1.05 1.445 1.313 2.365l1.576-4.73c.526.395 1.314.395 1.84.132 0 .525.525.92 1.05.788.131-1.839-.131-3.547-.263-5.386-.394-3.81-.788-7.487-1.707-11.165-1.182-5.123-3.547-10.378-8.013-13.136-.262-.132-.525-.263-.656 0-.132.131.262.394.262.131h.132z" fill="#A8745E"/><path d="M85.115 38.094c-1.445 2.102-.788 5.386 1.444 6.568-.656.132-1.182.92-1.182 1.708 4.466-1.445 9.195-1.839 13.792-1.05-3.546.13-7.093.262-10.508 1.313-1.839.656-3.94 1.97-3.81 3.94 1.314.263 2.628.395 3.81.657-1.445.263-2.89.657-4.335.92a7.928 7.928 0 01-.788 2.496l1.183.788c-1.97.394-3.547 2.233-3.547 4.335.657.394 1.576.525 2.233.262-.525.657-1.05 1.445-1.707 2.102-.789-.263-1.577.263-1.84.92-.262.657-.262 1.576-.262 2.233 1.576.394 3.152.657 4.728 1.05-2.626 0-5.779.395-7.224 2.628-1.05 1.839-.525 3.81-.394 5.78.132.788.394 5.648 1.576 5.648-2.364 0-5.385 0-7.618-.788-1.445-.525-2.627-1.314-4.072-1.708.92-1.313 1.84-2.627 2.627-3.94.394-.526.788-1.183 1.314-1.577.394-.394.92-.657 1.445-.92.656-.525 1.05-1.181 1.576-1.707 3.152-4.335 6.042-8.801 7.88-13.793 1.84-4.991 2.628-10.509 1.577-15.632-.131-.788-.394-1.576 0-2.233.657-.788 1.97-.92 2.102 0z" fill="#965A41"/><path d="M67.908 14.581c1.182 1.182 2.233 2.364 3.415 3.547l.788-.394c.263 1.97 2.233 3.678 4.203 3.809-1.182-.525-2.364.657-2.495 1.84-.132 1.181.525 2.364.919 3.546.788 1.708 1.182 3.678 1.445 5.517h2.364c-.525.131-1.05.394-1.707.525 1.182 3.81 0 7.488.788 11.166.262 1.182 1.707 1.97 2.758 1.445 1.314-.657 1.708-2.365 1.708-3.94.13-1.577.13-3.154.262-4.73 1.051 4.992 1.051 10.246-.131 15.238-.131-1.314-.394-2.627-1.182-3.81-.394-.525-.788-1.05-1.445-1.05-2.627-.132-3.284 4.991-3.94 6.699-1.051 2.89-2.234 5.78-3.678 8.538-.788-.394-.92-1.445-.526-2.233s1.051-1.445 1.576-2.102c.92-1.444.92-3.546 0-4.991 1.84-.394 2.627-2.627 2.89-4.598.525-3.81.788-7.619.657-11.428 0-.394 0-.788-.132-1.051-.262-.394-.656-.657-.919-1.05-.525-.526-.788-1.314-1.05-2.103l-1.971-5.91c-.394-1.052-.788-2.234-.657-3.285.132-1.05.526-2.102.394-3.021-.394-2.627-4.203-3.678-4.597-6.437l1.97-.788-1.707 1.051zM41.112 82.757c1.051-1.577 3.416-.788 5.254-.92 1.183-.131 2.233-.657 3.284-1.182l4.335-1.97c1.05-.395 2.233-.789 3.152-1.577.92-.788 1.576-1.97 1.314-3.152 3.415-.526 6.698-2.365 8.931-4.992-1.05 1.839-5.516 4.466-5.122 6.7.131.393.394.787.788 1.05 1.182.788 2.89.132 4.072-.657 1.05-.656 2.101-1.576 2.758-2.627-1.707 3.284-4.597 5.911-8.144 7.225.394-.657-.262-1.576-.92-1.84-3.02-1.181-7.092 1.709-9.85 2.628-3.153 1.182-6.7 1.97-9.983 1.182-.394.263-.657.526-1.05.788l1.181-.656z" fill="#965A41"/><path d="M22.46 32.577c1.84-.262 3.547-.656 5.255-1.313.262-.132.657-.263.92-.263.262 0 .525.131.787.263.788.394 1.708.657 2.496 1.05.263.132.525.132.657.132.131 0 .262-.131.394-.263 2.495-2.627 4.597-5.648 6.304-8.8-.919.13-1.707.787-2.232 1.575-.526.789-.92 1.708-1.445 2.496a9.206 9.206 0 01-2.759 2.759c-.525.262-1.182.525-1.707.262-.394-.262-.525-.656-.92-.919-.525-.263-1.182-.131-1.707.131-2.496 1.051-4.729 2.233-6.962 3.81l.92-.92zm18.784 6.568c-.526.263-1.051.526-1.445.788 1.97 1.445 3.94 2.89 5.91 4.204.132.131.263.131.526.263.263 0 .394-.132.526-.263 1.313-.92 2.101-2.364 2.758-3.81.92-1.97 1.445-4.203 1.576-6.436-.92 2.233-2.364 4.203-4.072 5.911-.788.788-1.839 1.576-2.89 1.05-.919-.393-1.313-1.444-2.364-1.575-.525-.132-1.182.131-1.576.525l1.05-.657zM24.825 54.383l9.851 4.336c.132.131.394.131.526.131.131 0 .262-.131.394-.394 2.233-2.496 4.334-5.124 6.567-7.62-1.97.657-3.94 1.84-5.385 3.285-.92.92-1.97 1.97-3.152 1.707-.526-.13-1.051-.394-1.577-.525-.656-.263-1.313-.131-1.97-.263-1.839 0-3.678-.394-5.385-1.05l.131.393zm-8.012-14.187c1.707 0 3.415-.131 5.122-.131.394 0 .92.131.92.525-.131 1.182.525 2.496.394 3.678-.131 1.051-.92 1.97-1.576 2.759-1.576 1.707-3.021 3.415-4.729 4.992 1.182-2.234 2.364-4.598 3.547-6.831.525-1.051 1.05-2.365.262-3.284-1.182-.394-2.364-.788-3.546-1.445-.131-.132-.263.131-.394.131-.132 0 0-.263 0-.131v-.263zM43.87 63.315a45.075 45.075 0 004.335 3.153c.132.131.263.131.526.131.131 0 .262-.13.394-.262 3.415-3.022 6.961-6.437 8.012-10.903h-2.233c-.263 0-.394 0-.657.131-.13.132-.262.263-.262.526-.657 1.707-1.051 3.415-1.84 4.991-.787 1.314-1.97 2.365-3.02 3.416-.132.131-.394.394-.657.394s-.394 0-.657-.132c-1.313-.525-2.758-1.182-4.072-1.707l.132.262zm19.966-14.449c-1.05-.788-3.021.525-3.81-.526a1.004 1.004 0 01-.262-.656c-.263-1.183-.394-2.365-.263-3.547.263-1.182.92-2.233 1.84-2.89 1.313-.788 2.889-.788 4.334-.657.263 0 .525 0 .788.131.788.395.788 1.314.788 2.234-1.182-1.314-3.415-1.577-4.991-.526-.788.526-1.445 1.445-1.576 2.365-.132.92.262 2.101 1.05 2.627.657.394 1.445.525 1.84 1.182 0 .131.13.263 0 .394-.132 0-.132-.263 0-.131h.262zM41.112 19.18c.132.393.526.656.92.787 1.576.395 3.546-.92 3.678-2.496.131-1.708-1.314-3.284-3.021-3.284.92.657 1.444 2.102 1.05 3.153-.525 1.05-2.101 1.576-3.02.788 0 .394.262.788.393 1.051zm6.042-9.985c1.708.788 2.365 2.89 2.627 4.86 0 .657.132 1.314.395 1.84.656 1.445 2.627 1.576 4.071 1.839 3.153.656 6.042 2.364 8.013 4.991-.526-1.707-1.708-3.152-3.153-4.203-2.101-1.445-4.597-1.708-6.961-2.627-.263-.132-.394-.132-.526-.263a1.004 1.004 0 01-.262-.657c-.263-1.314-.263-2.627.131-3.94-1.313-1.052-2.89-1.708-4.466-1.708.131.13.263.394.263.525l-.132-.657zM10.377 41.248c-1.051-5.78.394-12.085 3.94-16.814.394-.394.657-.92.788-1.445 0-.526-.394-1.183-.92-1.183 1.84-2.627 4.335-4.991 7.094-6.568 1.182-.656 2.495-1.707 1.97-2.89.657-1.05 1.97-1.313 3.021-1.05 1.182.262 2.102 1.05 2.89 1.839-.263-.788-.657-1.577-.92-2.365-.131-.394-.262-.788-.131-1.05.394-.263.657-.395.788-.526 4.334-2.233 9.457-2.759 14.054-1.445-3.94-.394-8.012.525-11.558 2.627-.395.263-.788.526-.92.788-.788 1.183.526 2.89.132 4.204-1.183.131-1.97-1.051-3.153-1.314-1.182-.262-2.364.394-3.284 1.183-2.627 1.839-5.122 3.94-7.618 6.042.526.394 1.05.657 1.576 1.051-5.385 4.072-8.406 10.903-8.012 17.602 0 .92.131 1.97-.657 2.496l.92-1.182z" fill="#E0C39C"/><path opacity=".47" d="M8.932 53.2s4.597 10.247 7.75 14.319c3.152 4.072 8.669 6.568 11.164 7.487 2.496.92 10.377.657 10.377.657s-10.114-1.05-17.207-6.7C14.054 63.317 8.932 53.202 8.932 53.202z" fill="#965A41"/><path opacity=".57" d="M11.69 14.712l-1.182 2.365v1.839l5.123-4.466s4.072-3.416 5.91-4.467c1.708-.92 4.729-.525 4.729-.525l-.394-1.97c.394-1.051 1.707-1.445 2.758-1.708 1.182-.394 3.021-1.314 4.203-1.314-.525 0-.788-.657-.525-1.182.263-.394.788-.657 1.314-.788 3.283-.92 6.83-.92 9.982.263C39.93.13 34.808-.394 30.736 1.445c-.526.263-1.182.657-1.314 1.182-.131.526-.131 1.051-.394 1.577-.525.13-1.839 0-2.101-.526l-.657-.92S14.448 8.145 11.69 14.713z" fill="#E0C39C"/><path d="M7.093 58.98c.394 2.366 1.313 4.599 2.627 6.57-.394.262-.92.262-1.314 0a3.07 3.07 0 01-.92-.92c-1.313-1.84-1.707-4.204-1.181-6.438.394.395.788.526 1.182.657l-.394.132z" fill="#A35C47"/><path opacity=".44" d="M83.144 70.409l5.386 1.314 5.91-2.234s-1.05 1.577-2.364 3.285c-1.182 1.708-4.072 2.102-4.072 2.102l-5.648-2.89.788-1.577zm25.219-6.437l.263 2.759s6.436-.263 6.436 0c0 .262-5.779 1.445-5.779 1.445l-3.021-.132s-4.991.394 2.101-4.072z" fill="#965A41"/><path opacity=".57" d="M122.024 75.926c2.627.394 5.254.131 7.749-.657.263-.131.395-.131.526-.394.131-.131.131-.525.131-.657 0-1.97-1.313-3.81-3.021-4.729-.525-.262-1.051-.394-1.445-.788-.262-.263-.525-.657-.788-1.05-.788-.92-2.101-1.183-3.152-1.314-1.314-.132-2.627-.394-4.072-.526-.394 0-.788-.131-1.051 0-.394.132-.657.394-.919.657-1.445 1.445-3.678 1.84-5.648 2.233 2.101.657 4.203-.394 6.305.132 1.576.394 4.334 1.313 5.253 2.758.395.394.92 4.335.132 4.335zm-5.78-22.988c1.971 1.445 3.284 3.81 3.284 6.305 1.708 0 3.809.132 4.729 1.708.262.525.657 1.182 1.182 1.05.263 0 .394-.262.525-.525.526-.92 1.182-2.101 1.051-3.152-.131-1.051-.788-1.84-1.313-2.627-.788-.92-1.577-1.97-2.627-2.365-.657-.263-1.445-.263-2.233-.263h-4.86l.262-.131z" fill="#E0C39C"/><path d="M111.122 37.7c1.313 2.233 3.021 4.729 5.648 4.992-.92-.132-1.576-.92-1.97-1.708-.394-.788-.657-1.708-1.314-2.364-.657-.657-1.707-1.051-2.364-.526V37.7z" fill="#E1C5A0"/><path opacity=".44" d="M100.22 32.84c.394 1.05.919 2.102 1.313 3.152-1.576.263-3.152.394-4.728.132.92-.92 1.707-1.84 2.627-2.89.131-.131.262-.131.262-.131.132 0-.13.262-.13.131l.656-.394z" fill="#965A41"/><path d="M14.58 79.867c-.394.656-.92 1.182-1.314 1.839-1.707.394-3.546.525-5.254.525.394-.92.657-1.707 1.051-2.627 0-.131.131-.263.263-.394.131-.131.263-.131.394-.131 1.576-.394 3.415-.132 4.86.788h.394c.131-.132-.132-.263-.132-.132l-.262.132z" fill="#D1A66F"/><path d="M26.007 2.758c-3.678.657-7.487 3.81-10.376 6.174-2.89 2.365-5.254 5.386-5.648 9.327 0 .394.656.525.788.131.656-4.072 3.02-6.962 6.305-9.458 1.444-1.05 2.89-2.101 4.465-3.152 1.576-.92 3.284-1.708 4.729-2.628.131-.13 0-.394-.263-.394z" fill="#E1C5A0"/><path d="M15.105 14.45c-1.839 1.707-3.94 3.02-5.254 5.254a11.78 11.78 0 00-1.839 6.305c0 .394.526.394.657 0 .263-2.233.788-4.466 2.102-6.436 1.313-1.84 3.02-3.284 4.597-4.86.131-.132-.131-.395-.263-.263z" fill="#E1C5A0"/><path d="M8.406 22.2c-1.182.92-1.97 2.365-2.758 3.547s-1.707 2.627-2.102 4.073c0 .262.263.525.395.262.919-1.05 1.444-2.496 2.101-3.678.788-1.314 1.839-2.496 2.496-3.942.262-.262.131-.394-.132-.262z" fill="#E1C5A0"/><path d="M3.678 29.425c-1.182 5.123-1.314 10.508-1.445 15.763 0 .525.92.525.92 0 .13-5.255.787-10.509 1.182-15.763-.132-.263-.657-.263-.657 0z" fill="#E1C5A0"/><path d="M2.233 45.713c.525.92 1.05 1.97 1.707 2.89.263.394.92 0 .657-.394-.525-.92-1.182-1.97-1.707-2.89-.263-.394-.92 0-.657.394z" fill="#E1C5A0"/><path d="M4.335 48.603c-.132.526-.263 1.182-.394 1.708-.132.525-.395 1.182-.526 1.707-.131.394.394.526.657.263.657-1.05.92-2.496.788-3.678-.131-.131-.394-.263-.525 0z" fill="#E1C5A0"/><path d="M5.648 58.587c-.394 2.496.394 5.386 2.364 7.094.263.263.657-.132.394-.394-1.707-1.97-2.364-3.942-2.101-6.569 0-.394-.526-.394-.657-.131z" fill="#653B27"/><path d="M8.406 66.074c1.051.263 2.233 0 3.153-.657.263-.131 0-.657-.263-.525-.92.657-1.839.788-2.89.788-.131 0-.262.394 0 .394z" fill="#653B27"/><path d="M8.932 60.95c1.182 2.628 2.758 5.255 4.466 7.62 1.444 2.102 3.152 4.466 5.122 6.305.263.131.657 0 .394-.263-1.576-2.233-3.546-4.203-5.122-6.568-1.576-2.364-2.89-4.86-4.335-7.224-.131-.395-.657-.132-.525.13zm9.72 14.45c1.182 2.365 4.334 3.022 6.567 1.577.525-.263 0-1.05-.394-.788-2.101 1.313-4.334.657-6.173-.788 0 0 .131-.132 0 0z" fill="#653B27"/><path d="M23.906 75.4c-.263.132-.263.132-.526.526-.131.131 0 .394.132.525 2.89 1.445 6.042 2.627 9.325 2.627.526 0 .526-.788 0-.788-1.707-.131-3.415-.394-4.99-.92-.658-.393-3.941-1.313-3.941-1.97z" fill="#653B27"/><path d="M28.372 78.684c.13.789.656 1.445 1.05 2.102.394.525.92 1.314 1.576 1.445.132 0 .395-.131.263-.263-.262-.657-.92-1.05-1.313-1.576-.526-.657-.788-1.313-1.445-1.839 0-.131-.131 0-.131.132z" fill="#653B27"/><path d="M31.13 82.363c3.546 1.838 8.275 1.707 11.821-.132.394-.262.132-.92-.262-.656-3.94 1.444-7.225 1.444-11.165.262-.526-.131-.788.394-.394.526z" fill="#653B27"/><path d="M42.557 81.837c1.182.263 2.759.526 3.94.263.264 0 .264-.525 0-.525-1.181-.395-2.626-.263-3.808-.132-.263 0-.263.263-.132.394z" fill="#653B27"/><path d="M46.104 82.626c4.203-1.445 8.406-3.547 12.347-5.649.525-.263 0-.92-.394-.657-3.94 2.102-8.013 3.941-12.085 5.78-.262.132-.131.526.132.526z" fill="#653B27"/><path d="M58.32 76.714c.262-.788.787-1.708.787-2.627 0-.263-.394-.394-.525-.131-.394.788-.525 1.838-.788 2.627 0 .394.525.525.525.13z" fill="#653B27"/><path d="M58.713 74.087c6.436.788 9.851-7.093 13.53-11.034.393-.394-.263-1.051-.657-.657-3.678 4.072-6.568 10.903-12.873 11.166-.394 0-.394.525 0 .525z" fill="#653B27"/><path d="M71.98 62.79c-.132-.394-.263-.788-.394-1.05-.132-.264-.132-.658-.394-.789-.132-.131-.263 0-.263.131-.132.263.131.657.263.92.13.394.262.657.394.92 0 .393.394.13.394-.132z" fill="#653B27"/><path d="M70.929 61.082c.394-.263.788-.525 1.182-.92.394-.262.788-.525 1.05-.919.132-.262-.13-.394-.393-.394-.394.132-.788.526-1.051.788a4 4 0 00-1.05 1.051c-.132.263 0 .526.262.394z" fill="#653B27"/><path d="M73.03 59.243c.263-.657.657-1.314.92-1.97.263-.657.657-1.314.657-1.97 0-.263-.394-.263-.526-.132-.394.526-.525 1.182-.788 1.839s-.525 1.313-.657 2.102c0 .262.263.394.394.13z" fill="#653B27"/><path d="M74.344 55.302c-.394-.525-.657-1.05-.657-1.707 0-.394-.657-.263-.657.131s.132.788.263 1.182c.131.394.525.657.788.788.132 0 .394-.262.263-.394z" fill="#653B27"/><path d="M73.03 53.595c2.496.394 3.153-2.759 3.415-4.598.263-2.102.526-4.335.526-6.436.131-1.97.263-4.204-.131-6.174 0-.263-.526-.263-.526 0-.394 2.495-.131 5.123-.262 7.75-.132 2.364.262 8.67-3.022 9.064-.262-.132-.394.394 0 .394z" fill="#653B27"/><path d="M76.446 36.519a2.861 2.861 0 00-.657-1.052c-.131-.262-.394-.788-.788-.525-.395.263 0 .657.263.92.262.394.525.657.788 1.05.131.132.526-.13.394-.393z" fill="#653B27"/><path d="M74.738 39.67c1.707-4.728-1.05-9.983-2.89-14.318-.131-.394-.788-.13-.656.263 1.707 4.598 4.071 8.933 3.283 13.924 0 .263.263.263.263.132z" fill="#653B27"/><path d="M71.586 25.615c.525-.394.656-1.182.919-1.839.131-.657.394-1.445.263-2.102 0-.131-.263-.262-.394 0-.263.526-.263 1.314-.394 1.97-.132.657-.526 1.183-.526 1.84-.262.13 0 .13.132.13z" fill="#653B27"/><path d="M72.505 21.805c.263-.92-.525-2.233-1.05-2.89-.657-.787-1.446-1.576-2.365-1.97-.394-.131-.526.394-.263.657.92.526 1.708 1.182 2.233 1.97.526.657.657 1.708 1.182 2.233.132.132.263.132.263 0z" fill="#653B27"/><path d="M69.353 21.412c-.132-3.153-1.182-6.174-2.365-9.064-.131-.394-.788-.132-.656.263 1.182 2.89 1.97 5.78 2.758 8.8 0 .263.263.132.263 0zm-3.547-9.327h-.394c-.263 0-.394.131-.657.131-.394 0-.656-.13-1.05-.13-.132 0-.132.262-.132.262.263.394.788.394 1.182.394.263 0 .394 0 .657-.132.263 0 .263-.13.525-.262.263 0 .132-.263-.13-.263z" fill="#653B27"/><path d="M63.836 11.955c-.394-.788-.788-1.708-1.182-2.496-.394-.788-.657-1.708-1.314-2.365-.131-.131-.394 0-.262.132.13.788.656 1.576 1.05 2.364.394.789.788 1.708 1.314 2.496.131.263.525.132.394-.13z" fill="#653B27"/><path d="M60.946 7.094c-.788.263-2.364-1.05-3.02-1.445-1.183-.92-2.365-1.97-3.547-2.89-1.314-1.051-3.153-2.234-4.991-1.84-.132 0-.132.263 0 .395 1.576.525 3.152.92 4.597 1.97 1.182.92 2.364 1.97 3.546 2.89.526.395 3.021 2.497 3.547 1.052.131-.132 0-.132-.132-.132z" fill="#E1C5A0"/><path d="M45.184 3.152c.92-.131 1.708-.525 2.496-.92.788-.393 1.708-.656 2.364-1.313.132-.13 0-.394-.262-.394-.92.132-1.708.657-2.496 1.051-.788.394-1.576.788-2.102 1.576-.131 0-.131-.131 0 0z" fill="#E1C5A0"/><path d="M46.892 3.81C41.638.656 34.808-1.709 29.16 1.707c-.394.262 0 .919.394.656 5.78-3.415 11.558-.525 17.075 1.708.394.131.526-.132.263-.263z" fill="#E1C5A0"/><path d="M26.007 3.415c.394-.131 1.051.657 1.445.788.394.132.92.132 1.314 0 .656-.394.919-1.182.525-1.839-.263-.394-.657 0-.525.263.13.394 0 .788-.394.92-.526.13-.92-.132-1.183-.395-.394-.262-.788-.525-1.313-.394-.526 0-.394.788.131.657zm.788 3.547c3.547-1.97 8.538-2.627 12.61-2.627 4.334 0 8.144.919 11.821 3.152.263.131.394-.131.132-.263-3.415-2.627-7.881-3.415-12.084-3.415-4.466 0-8.8.657-12.61 3.021 0 0 0 .132.131.132z" fill="#E1C5A0"/><path d="M32.575 78.684c1.182 1.577 2.89 2.89 4.466 4.072.262.132.656-.262.394-.525-.788-.657-1.445-1.182-2.233-1.839-.657-.657-1.314-1.445-2.102-2.102-.263-.13-.657.132-.525.394zm18.257-2.101c.92-.394 1.97-.788 2.759-1.445.131-.132 0-.263-.132-.263-.92.263-1.839.92-2.758 1.445-.263.131-.131.394.131.263zm4.203-2.627c4.335-1.97 7.882-5.517 10.903-9.196 2.495-3.02 5.516-7.356 5.648-11.297 0-.13-.263-.262-.263-.13-.788 1.97-1.314 3.94-2.233 5.91a32.76 32.76 0 01-3.81 5.649c-2.889 3.284-6.304 7.093-10.245 9.064zm17.076-21.412c.132-.262.132-.394.263-.657.131-.131.131-.262.131-.525 0-.132-.131-.132-.131 0-.131.131-.263.263-.263.394-.131.131-.131.394-.263.526-.131.263.132.394.263.263zm-65.806-7.75C7.618 52.938 11.69 60.688 17.6 66.468c5.517 5.386 13.923 9.72 21.935 9.72.526 0 .526-.656 0-.787-4.203-.526-8.143-1.314-11.953-3.153-3.677-1.708-6.961-4.072-9.85-6.962-5.649-5.648-9.195-13.005-11.166-20.624-.13-.13-.262 0-.262.132z" fill="#653B27"/><path d="M9.326 32.315c.525-1.576 1.05-3.021 1.97-4.335.788-1.182 1.839-2.102 2.758-3.284.132-.132-.13-.263-.262-.263-2.496 1.445-4.203 4.992-4.729 7.751-.131.263.263.263.263.131z" fill="#965A41"/><path d="M51.49 11.954c1.444-.526 2.889-.789 4.465-.657.394 0 .394-.526 0-.657-1.708-.131-3.284.131-4.729.92-.262.13 0 .525.263.394z" fill="#A97C50"/><path d="M55.692 11.166c.526 1.05 1.051 1.839 1.182 3.021.132 1.051-.262 1.97-.394 3.022 0 .131.263.263.394.131 1.314-1.708.657-5.123-.919-6.437 0-.132-.394.131-.263.263z" fill="#A97C50"/><path d="M61.472 20.492c-.263-.394-.394-.788-.657-1.182-.394-.394-.788-.788-1.182-1.051-.657-.526-1.577-1.314-2.496-1.182-.131 0-.131.262-.131.394.263.262.657.394 1.05.525.395.263.789.394 1.183.657s.788.657 1.182.92c.263.393.657.656 1.05.919 0 0-.13.131 0 0zM46.892 9.195c.788.263 1.576.394 2.364.788a10.3 10.3 0 012.364 1.445c.263.263.657-.131.395-.394-1.314-1.182-3.416-2.364-5.123-2.102-.132 0-.132.132 0 .263zM47.154 31c.657.526 1.314.92 1.97 1.314.657.394 1.314.92 1.971.92.131 0 .263-.132.131-.263-.394-.525-1.182-.788-1.838-1.182a15.68 15.68 0 00-2.102-1.05c-.132-.132-.263.13-.132.262z" fill="#B38B64"/><path d="M50.701 32.971c-.263 2.102-1.576 3.81-2.89 5.255-.92 1.182-2.233 1.707-3.283 2.758-.132.132 0 .394.13.394 1.708 0 3.153-1.839 4.073-3.02 1.182-1.577 2.627-3.285 2.495-5.387 0-.394-.525-.262-.525 0z" fill="#653B27"/><path d="M44.922 40.853c-.92-.788-1.708-1.445-2.496-2.365-.394-.394-.788-.92-1.182-1.444-.263-.395-.394-.657-.788-.789a.283.283 0 00-.263.263c0 .92 1.182 1.97 1.839 2.496.788.788 1.707 1.576 2.758 2.233 0 .262.394-.132.132-.394z" fill="#653B27"/><path d="M40.324 36.125c1.97-2.76 4.072-4.73 7.356-5.518.394-.131.263-.788-.131-.657-3.153.657-6.305 2.89-7.619 5.912-.262.263.132.526.394.263zM27.715 22.068c-.526.788-.92 1.577-1.051 2.496-.131.657-.394 1.708 0 2.233.131.131.394.131.394 0 .263-.657 0-1.445.131-2.102a8.346 8.346 0 01.788-2.364c.263-.263-.13-.394-.262-.263z" fill="#B38B64"/><path d="M32.18 30.87c2.496-1.05 4.204-3.415 4.992-5.912.131-.525-.525-.656-.657-.13-.788 2.364-2.233 4.203-4.466 5.648-.262.132-.131.526.132.394z" fill="#653B27"/><path d="M27.846 22.331c3.547-.92 6.305.131 8.932 2.627.263.263.788-.131.525-.394-2.101-2.89-6.304-3.94-9.588-2.627-.263.131-.263.525.131.394zm13.661-8.67c-.657.395-.92 1.183-1.051 1.84-.263.656-.526 1.575-.263 2.1.131.132.263.132.394 0 .394-.524.263-1.181.525-1.838l.788-1.97c-.13-.132-.262-.263-.393-.132z" fill="#B38B64"/><path d="M40.062 17.208c.394 1.314 2.101 1.97 3.283 1.182.526-.394.92-1.05 1.051-1.707.132-.526.132-1.445-.394-1.708-.131 0-.263 0-.263.131-.13.394.132.789.132 1.182 0 .526-.263 1.183-.657 1.445-.92.92-2.102.132-2.758-.656-.263-.132-.526 0-.394.131zM21.804 32.971c1.445-.657 2.758-1.313 4.203-1.839 1.314-.525 2.627-.788 3.81-1.313.262-.132.262-.657-.132-.657-2.758.263-5.91 1.839-8.012 3.546-.263.132-.132.394.131.263zm6.305 21.281c.657-1.97 1.576-3.81 2.758-5.649.263-.263-.262-.657-.525-.263-1.182 1.708-2.233 3.679-2.759 5.781 0 .263.395.394.526.131z" fill="#B38B64"/><path d="M30.736 48.34c2.627 1.183 4.991 2.76 6.961 4.861.394.395.788-.131.526-.525-2.102-2.102-4.466-3.81-7.356-4.861-.262-.131-.525.394-.131.526z" fill="#B38B64"/><path d="M43.477 62.659c1.313 1.05 3.415 2.495 5.254 2.364.131 0 .262-.263.131-.394-.788-.394-1.576-.526-2.364-.788-.92-.394-1.97-.92-2.759-1.445-.262 0-.394.131-.262.263z" fill="#653B27"/><path d="M48.862 65.154c3.021-1.707 4.86-5.122 5.123-8.406 0-.395-.657-.526-.657-.132-.525 3.284-1.97 6.043-4.729 8.144-.262.132-.131.526.263.394z" fill="#653B27"/><path d="M46.104 58.455c3.678-1.314 7.093-2.364 11.033-2.364.526 0 .526-.788 0-.788-3.809 0-7.88.788-11.165 2.89-.131 0 0 .262.132.262z" fill="#B38B64"/><path d="M60.946 43.874c-.262.788-.394 1.445-.131 2.233.131.526.394 1.445 1.05 1.576a.283.283 0 00.263-.262c-.131-.526-.525-1.051-.656-1.577-.132-.656-.263-1.313-.132-1.97-.131-.131-.394-.131-.394 0z" fill="#653B27"/><path d="M61.603 47.552c1.05.526 2.233.92 3.284 1.314.394.131.525-.526.131-.657-1.05-.394-2.233-.788-3.284-1.05-.262 0-.394.262-.131.393z" fill="#653B27"/><path d="M65.675 48.473c1.313-1.84 1.97-3.942 1.97-6.044 0-.525-.788-.525-.788 0 0 2.102-.657 4.073-1.708 5.78-.13.395.263.526.526.264z" fill="#653B27"/><path d="M67.382 42.823c-1.445-1.445-3.809-1.576-5.516-.525-.394.262 0 .92.394.657 1.576-.92 3.283-.789 4.86.13.262.132.394-.13.262-.262z" fill="#653B27"/><path d="M61.34 44.268c.263-.394.394-.788.657-1.182.263-.263.525-.657.657-.92 0-.13-.132-.262-.263-.13-.394.13-.657.656-.788.919-.263.394-.394.788-.525 1.313-.132.132.262.263.262 0z" fill="#653B27"/><path d="M13.529 41.641c-.92 2.628-1.182 5.124-.657 7.883.132.525.788.262.788-.263-.394-2.496-.394-5.124.132-7.62 0 0-.132-.131-.263 0z" fill="#B38B64"/><path d="M13.792 50.31c1.05.264 1.97.92 3.02 1.446.264.131.657-.263.395-.526-.92-.788-2.102-1.05-3.284-1.313-.263 0-.394.262-.131.394z" fill="#653B27"/><path d="M17.338 51.757c1.576-2.496 3.021-5.124 4.203-7.751.132-.394-.262-.657-.525-.263-1.445 2.496-2.89 5.255-4.072 7.883 0 .13.263.394.394.13z" fill="#653B27"/><path d="M13.66 41.247c.263-.131 1.051 0 1.314 0 .657 0 1.445 0 2.102.131 1.313.132 2.495.526 3.677.92.526.131.657-.526.263-.788-1.05-.394-2.233-.657-3.284-.788-1.05-.132-2.89-.395-3.809 0-.394.13-1.05.656-.394.919h.131s.132 0 .132-.131c.262 0 .131-.263-.132-.263z" fill="#B38B64"/><path d="M53.065 1.97c3.284.132 6.305 1.708 9.195 2.89 3.152 1.183 5.516 2.76 8.143 4.993.132.131.263 0 .132-.132-2.233-2.102-4.597-3.678-7.487-4.86-3.153-1.183-6.568-3.153-9.983-3.022-.131 0-.131.131 0 .131z" fill="#E1C5A0"/><path d="M70.666 10.115c0 .92.263 1.707.657 2.495.131.132.263 0 .263-.131-.394-.788-.657-1.576-.657-2.364 0-.132-.263-.132-.263 0zm1.314 2.758c2.627 2.627 5.254 5.123 7.093 8.539 1.707 3.284 2.495 6.83 3.283 10.377 0 .131.394.131.263-.131-.788-3.547-1.708-7.094-3.284-10.378-1.707-3.415-4.334-6.174-7.355-8.407 0-.131.131-.262 0 0z" fill="#653B27"/><path d="M81.962 32.183c-.394 3.284 1.051 6.7 1.314 10.115.262 3.547-.132 7.225-.92 10.64-1.707 6.962-5.254 13.399-9.982 18.653-.263.263.131.526.394.394 4.597-5.123 8.143-11.297 9.85-17.996.789-3.153 1.314-6.568 1.183-9.852 0-1.708-.131-3.284-.394-4.992-.394-2.364-1.182-4.597-1.05-6.962-.132-.131-.395-.262-.395 0z" fill="#462411"/><path d="M72.374 71.985c-2.759 0-2.627 2.759-4.203 4.335-1.97 2.233-5.123 3.416-7.882 4.335-2.364.788-4.99 1.445-7.486 1.708-4.729.656-9.326.394-14.055.788-.131 0-.131.263 0 .263 6.83.262 14.055-.132 20.753-2.102 2.496-.788 4.992-1.708 7.093-3.153.92-.657 1.708-1.314 2.233-2.102 1.051-1.445 1.182-3.678 3.415-3.809.263 0 .263-.263.132-.263z" fill="#462411"/><path d="M66.463 78.29c1.839 1.315 3.678 1.971 5.91 2.234 3.022.394 6.043.526 9.064 1.051 6.042 1.183 11.821.394 17.995-.131 3.152-.263 6.436-.394 9.588-.394 2.89 0 5.911-.263 8.801 0 2.364.263 4.334.394 6.567-.788 2.233-1.183 4.335-2.76 6.042-4.599.132-.131 0-.262-.131-.131-1.839 1.84-3.941 3.416-6.305 4.598-2.758 1.314-5.254.526-8.144.394-5.648-.263-11.558.263-17.075.657-2.758.263-5.385.526-8.144.657-3.152.263-6.173-.131-9.326-.657-4.86-.92-10.245-.263-14.448-3.153-.394-.131-.525.131-.394.263zm50.57-12.741c1.97 0 3.677.525 5.648.92l1.576.393c.788 0 1.313.526 1.707 1.314.132.131.263.394.526.525.919.788 1.97.92 2.889 1.97 1.051 1.314.92 2.76 1.051 4.335 0 .394.526.394.526 0 .131-1.445 0-2.89-.788-4.072-.92-1.445-2.102-1.576-3.284-2.495-.394-.395-.526-1.183-1.051-1.577-.657-.525-1.576-.525-2.233-.788-2.102-.525-4.466-1.576-6.567-1.182-.395.263-.263.657 0 .657zm-.788-.526s-.131 0-.131.132l-.132.131c-.131.131-.263.263-.263.394-.131.263-.394.526-.525.789-.132.263.262.657.525.394s.395-.526.526-.789c.131-.131.131-.262.263-.394 0-.131.131-.131.131-.263v-.131c0-.263-.263-.394-.394-.263z" fill="#653B27"/><path d="M115.588 66.6c-1.971.262-3.809.919-5.78 1.313-2.101.394-4.072-.657-6.173-.657-.394 0-.394.657 0 .657 1.97-.131 3.678 1.05 5.648.788 2.102-.263 4.466-.92 6.436-1.576.131-.132.131-.525-.131-.525z" fill="#653B27"/><path d="M104.16 67.65c.788-.525 1.576-1.182 2.233-1.708.657-.656 1.576-1.182 2.102-1.97.131-.262-.132-.394-.394-.394-.788.394-1.445 1.182-2.102 1.708-.788.656-1.576 1.313-2.233 1.97 0 .263.263.525.394.394z" fill="#653B27"/><path d="M107.838 64.235c2.627.525 5.254 1.05 7.487 2.758.263.132.525-.262.394-.394-2.102-1.839-4.991-2.364-7.618-2.758-.526-.132-.657.263-.263.394zm-5.254 3.284c-1.576.394-2.102-.788-3.284-1.314-.656-.262-1.182-.394-1.838-.394-2.102-.131-4.335-.394-6.568-.394-2.364.132-4.729.526-7.093.788-2.496.263-5.123.394-7.618.657-.526 0-.526.788 0 .788 2.758-.263 5.516-.394 8.406-.657 2.627-.262 5.254-.788 7.75-.656 2.496.131 5.648 0 7.749 1.444.92.657 1.839 1.051 2.759.263.131-.263 0-.525-.263-.525zm-19.44 1.708c-.525.525-.92 1.444-.788 2.233 0 .262.526.262.526 0 0-.394 0-.657.131-1.051.131-.394.263-.657.394-1.051.131 0 0-.263-.263-.131zm-1.05 2.627a19.582 19.582 0 005.648 3.02c.262.132.394-.262.13-.393-1.97-.92-3.808-1.84-5.647-2.89-.131-.131-.394.131-.131.263z" fill="#653B27"/><path d="M88.136 75.007c2.627-.394 6.304-2.627 6.567-5.649 0-.263-.263-.263-.394-.131-.788 1.182-1.182 2.364-2.364 3.415-1.182 1.052-2.496 1.577-3.94 1.971-.263 0-.132.526.13.394z" fill="#653B27"/><path d="M83.407 69.62c1.839-.13 3.678-.525 5.517-.525 1.839 0 3.677.394 5.516.394.263 0 .263-.394 0-.525-3.152-1.314-8.012-1.05-11.164.131-.132.132-.132.526.131.526zm16.813 1.708c-.394.263-.788.657-.92 1.183 0 .394 0 1.182.526 1.313.131 0 .262 0 .262-.131.132-.394-.13-.657-.13-1.051 0-.394.13-.788.524-1.05 0-.132-.131-.395-.262-.264z" fill="#653B27"/><path d="M99.826 73.561c1.051 0 1.576 1.182 2.758.657.92-.394 1.314-1.445 1.576-2.364.132-.263-.131-.394-.394-.263-.525.263-1.313-.92-1.839-.92-.788-.13-1.313.657-1.707 1.314-.132.263.262.525.525.263.394-.526.788-1.182 1.576-.92.263.132.526.394.788.526.395.263.657.394 1.051.131-.131-.131-.262-.131-.394-.263-.262.92-.788 2.365-2.101 2.102-.657-.131-1.051-.657-1.708-.657-.394.132-.394.394-.131.394zm4.072 4.598c4.728-.263 9.457-1.05 14.185-1.182 3.547-.132 8.407.788 11.559-1.051.394-.263.131-.788-.263-.657-4.071 1.314-8.537.92-12.872 1.051-4.203.263-8.669.394-12.741 1.445-.131 0-.131.394.132.394z" fill="#653B27"/><path d="M82.488 53.07c3.283-.264 6.436-.657 9.85-.789 3.285 0 6.7.132 9.983.263 6.831.131 13.923.131 20.754 1.05.394 0 .656-.656.131-.656-6.699-1.182-13.792-.788-20.491-1.182-6.567-.263-13.923-1.182-20.227.92-.263 0-.263.393 0 .393z" fill="#E1C5A0"/><path d="M122.943 53.595c1.182 0 2.233 1.576 2.759 2.364.656.788 1.05 1.839 1.707 2.496.132.131.394 0 .394-.132-.262-1.182-1.445-2.495-2.233-3.415-.656-.788-1.445-1.707-2.627-1.445-.131-.131-.131.132 0 .132z" fill="#653B27"/><path d="M127.278 58.192c-.526 1.314-.92 2.628-1.708 3.81-.788 1.183-1.707 2.234-2.495 3.285-.132.131.131.394.262.262 2.102-1.707 3.547-4.729 3.941-7.357.131 0 .131 0 0 0zM79.86 60.031c.395 1.051.789 1.84 1.708 2.627.132.132.263.132.394 0 1.182-.656 1.708-1.707 2.496-2.758h-.526c.263.526.657.788 1.183.788.919 0 1.97-.525 2.89-.657.787 0 1.707.132 2.495.132.263 0 .263-.263.131-.394-.788-.394-1.707-.526-2.627-.394-.788 0-3.02.92-3.415.131-.131-.263-.394-.131-.525 0-.394.525-.788 1.576-1.445 1.97-1.182.788-1.839-.788-2.233-1.707-.263-.132-.525.131-.525.262z" fill="#653B27"/><path d="M89.45 60.82c3.02.13 6.041.13 9.194.13 3.021 0 6.304-1.181 9.194-.656.263 0 .394-.394.131-.394-2.758-.788-5.91.263-8.669.394-3.283.132-6.567.132-9.85.132-.264.13-.264.393 0 .393zm18.913-1.183c.395-.525.789-1.05 1.314-1.576.263-.263.525-.394.788-.657.263-.131.525-.131.657-.394 0-.131 0-.263-.132-.263-.525-.13-1.313.526-1.707.92-.525.525-.919 1.05-1.182 1.839-.132.263.131.263.262.131z" fill="#653B27"/><path d="M111.122 57.01c1.707.788 3.284 1.708 4.86 2.759 0-.132 0-.395.131-.526a13.328 13.328 0 01-3.284.788c-1.05.132-3.546.657-4.466-.131-.131-.131-.394 0-.394.131.132 1.051 1.577.92 2.365.788 1.97 0 3.94-.394 5.91-1.05.263-.132.263-.395.132-.526-1.576-.92-3.284-1.707-4.991-2.495-.395-.132-.526.13-.263.262zm6.699 2.233c2.889.657 6.436.263 9.063-1.182.131-.131 0-.394-.132-.394-3.021 1.182-5.648 1.576-8.931 1.313-.132.132-.132.263 0 .263zm2.364-7.224c2.496-3.285 5.779-10.115.788-12.874-.131 0-.263.132-.131.132 2.101 1.839 2.758 4.072 2.101 6.83-.656 1.97-1.707 4.072-2.758 5.912-.131 0-.131 0 0 0zM97.067 36.124a6.915 6.915 0 011.577-1.84c.656-.525 1.444-.656 2.101-1.181.132-.132.132-.263-.131-.263-.788 0-1.708.657-2.364 1.05-.788.526-1.314 1.183-1.577 2.102-.131.132.263.263.394.132z" fill="#653B27"/><path d="M100.22 33.234c3.546.788 6.699 2.102 9.72 3.94.394.263.656-.262.394-.525-2.89-2.102-6.436-3.284-9.983-3.546-.263-.132-.263.131-.131.131zM88.792 45.582c10.64-3.153 21.148 1.97 31.787 1.97.263 0 .263-.394 0-.394-10.639-.394-21.279-4.991-31.918-1.839-.131.131 0 .394.131.263zM9.72 78.553c-.657.526-1.05 1.051-1.445 1.708-.263.525-.657 1.313-.394 1.97 0 .131.263.131.394 0 .394-.394.525-1.182.788-1.707.131-.657.526-1.183.92-1.708.13-.263-.132-.394-.263-.263zm-2.233 4.335c.394.657.92 1.182 1.576 1.708.526.394 1.314 1.05 2.102.919.262 0 .394-.263.131-.394-.525-.394-1.182-.525-1.707-.92-.657-.393-1.183-1.05-1.708-1.576-.263-.131-.525 0-.394.263zm4.335 2.627c1.05-.263 1.97-.525 2.758-1.182.657-.394 1.576-.92 1.839-1.708a.283.283 0 00-.263-.262c-.788.262-1.313 1.05-2.102 1.445-.788.525-1.576.919-2.364 1.313-.131.131 0 .525.132.394z" fill="#653B27"/><path d="M9.326 79.079c.788.262 1.839.13 2.758.262 1.051.132 1.97.526 3.021.92.394.131.657-.394.263-.526-1.05-.525-2.102-.92-3.152-1.05-.92-.132-2.102-.263-2.89.394 0-.132 0-.132 0 0z" fill="#653B27"/><path d="M14.974 79.867l.788 1.97c.131.525.131 1.182.525 1.708.132.131.263.131.394 0 .263-.526 0-1.314-.262-1.97-.263-.657-.526-1.314-.92-1.97-.262-.132-.657 0-.525.262zM1.313 83.413C.657 84.07.263 84.597 0 85.516c0 .131 0 .394.131.394 1.051.525 2.89 1.05 3.94.394.132-.131.132-.263 0-.394-.525-.131-1.05 0-1.575-.131-.657-.132-1.314-.263-1.97-.657 0 .131.13.263.13.394.132-.788.526-1.445.92-2.102.132 0-.131-.13-.263 0z" fill="#653B27"/><path d="M1.313 84.333c1.183 0 2.233.131 3.416 0 .394 0 .394-.525 0-.525-1.051-.132-2.233 0-3.416 0-.394 0-.394.525 0 .525z" fill="#653B27"/><path d="M4.335 84.333c.525.525 1.05 1.05 1.576 1.445v-.394c-.394.263-.657.525-1.051.657-.263.262-.657.262-.92.656 0 0 0 .263.132.263.394 0 .657-.131 1.05-.263l1.183-.788c.131-.131.262-.263 0-.394-.657-.525-1.182-.92-1.84-1.313-.13-.132-.262 0-.13.131zm13.265.526a1.407 1.407 0 00.132 1.838c.526.526 1.314.394 1.84-.131.393-.525.393-1.314-.264-1.576-.394-.263-1.445-.263-1.445.394 0 .131.132.131.132.131.263 0 .525-.263.788-.131.263.131.394.394.131.657-.262.262-.656.394-.92.131-.262-.263-.262-.525-.13-.92.394-.262 0-.656-.263-.393zm71.324-44.4c.92 1.05 1.707 1.707 3.02 2.101.132 0 .263 0 .263-.131.789-.657 1.577-1.445 2.496-2.102.394-.394 1.05-.788 1.05-1.313 0-.657-.656-1.05-1.05-.526-.131.132 0 .263.132.263 0 .263-.132.657-.132.92-.131.131-.263.131-.394.262-.131.263-.525.394-.657.526-.394.394-1.05 1.182-1.576 1.182-.788.131-2.233-1.05-2.89-1.576-.262.131-.262.262-.262.394z" fill="#653B27"/><path d="M91.945 38.751c-.657.132-1.182.263-1.708.788-.262.263-.92 1.051-.656 1.576.13.132.262.132.262 0 .132-.13.132-.262.263-.525l.394-.788c.394-.525.788-.92 1.445-1.05zm21.672-.131c.263 1.05 1.051 1.97 1.708 2.758.394.526.919 1.314 1.708 1.445.656.131.919-.131 1.05-.657.263-1.05.526-2.233.526-3.283 0-.263-.394-.395-.526-.132-.131.788-.131 1.445-.262 2.233 0 .263-.132 1.05-.263 1.182-.525.394-1.051-.262-1.314-.525-.788-1.051-1.313-2.496-2.364-3.153-.131-.13-.263 0-.263.132zm-31.655-4.204c.92.263 1.708.132 2.627.263.92.131 1.708.525 2.496.788.263.131.394-.263.131-.394-.788-.525-1.839-.657-2.758-.92-.92-.13-1.708-.393-2.627-.262-.132.131-.132.394.131.525z" fill="#653B27"/><path d="M86.954 35.467c.13.132.262.395.262.526.132.131.263.263.395.526.262.262.525.657.92.92.262.13.525 0 .394-.263a3.073 3.073 0 00-.92-.92l-.394-.395c-.132-.13-.395-.262-.526-.394-.131-.262-.263-.131-.131 0zm-60.29-7.882c.92.657 1.707 1.183 2.627 1.84.788.525 1.576 1.181 2.496 1.444.262 0 .394-.262.262-.394-.656-.657-1.576-1.182-2.364-1.576l-2.758-1.576c-.394-.263-.526.131-.263.262z" fill="#653B27"/><path d="M24.3 53.989c3.809.263 7.093 3.02 10.902 2.627.525 0 .525-.788 0-.788-3.81.131-7.093-2.759-10.902-2.364-.394.13-.394.525 0 .525z" fill="#B38B64"/><path d="M35.464 56.223c1.183-.657 1.97-1.84 3.021-2.628 1.183-1.05 2.496-1.839 3.94-2.496.395-.263 0-.92-.393-.657-1.445.657-2.627 1.577-3.94 2.496-1.051.789-2.365 1.84-2.89 3.153 0 .132.131.263.262.132z" fill="#B38B64"/><path d="M51.095 11.428c-.263 1.314-.263 2.89.131 4.203.132.263.526.263.526-.131 0-1.313-.132-2.627-.132-4.072 0-.263-.394-.394-.525 0z" fill="#653B27"/><path d="M51.358 15.895c1.313 1.05 3.809 2.101 5.385 1.313.131-.131.131-.394 0-.394-.788-.263-1.708-.131-2.496-.263-.919-.262-1.707-.656-2.627-1.05-.13-.132-.394.262-.262.394z" fill="#653B27"/><path d="M3.284 52.413c.131 3.546 2.364 6.699 5.385 8.407.525.262 1.05-.526.525-.789-3.02-1.707-4.465-4.466-5.385-7.618-.131-.263-.525-.263-.525 0zm117.032-13.531c-12.347-2.364-24.3-3.809-36.778-1.182-.525.131-.394 1.05.263.92 6.042-1.183 12.084-1.708 18.258-1.445 6.042.262 12.084 1.313 18.126 2.233.263 0 .394-.394.131-.526z" fill="#E1C5A0"/></svg>