<svg width="132" height="113" fill="none" xmlns="http://www.w3.org/2000/svg"><path d="M130.88 70.056l-13.771 9.206-13.246 8.678-23.653-8.043-9.566-4.339s-.841-2.645-.841-4.338c0-1.694.315-2.963.315-2.963l2.313-.953 1.577-2.01 1.366-.847s3.154-.74 3.364-1.164c.21-.423 2.734-1.27 2.734-1.27l2.523.635 1.576-2.434 5.677-2.117 2.418.424 1.367-2.117 4.73-2.01 9.987 2.54 1.472 1.587 1.261 2.116 3.995-2.222 10.618 3.28 1.682 3.493 1.577.317.525 4.55z" fill="#7A3D30"/><path d="M106.176 80.744l11.879-6.032 12.405-8.995-30.592-8.36-27.542 9.947-2.313.953 13.666 4.55 5.467 1.905 9.671 3.492 7.359 2.54z" fill="#9F5243"/><path d="M106.176 80.744l-.631 3.28-1.787 4.022-3.679-1.482-18.292-6.244s-11.143-4.444-11.249-4.868c-.105-.423-.525-3.492-.63-3.915-.21-.423.105-3.386.105-3.386l12.194 4.338L92.3 76.087l13.877 4.657z" fill="#5A291D"/><path d="M127.201 62.014l-4.1 2.222-17.871 9.841-19.238-6.137-8.515-2.117-2.208-1.27 3.47-1.164 2.417-1.799 2.838 1.164 1.683-2.434 3.363-1.27 2.313-.74 2.418.423 1.367-2.117 4.73-1.904 10.408 2.751 2.312 3.492 3.995-2.222 10.618 3.28z" fill="#B87160"/><path d="M105.545 78.839l-.315-4.868-29.856-9.524s-1.892.846-1.892 1.164c0 .317-1.156 2.222-1.156 2.222l13.456 4.339 1.05.106s2.314 1.058 2.629 1.164c.315 0 8.725 2.222 8.725 2.222l7.359 3.175z" fill="#5A291D"/><path d="M89.25 73.442l3.68-3.704 5.572-3.28 2.628.423 1.156-1.905 5.677-3.069s2.313 1.164 2.418.847c.105-.318.631-1.164.631-1.164l1.471-.741-2.312-3.492-4.836 2.222.42 2.857-2.207.953-1.367-2.223-5.466 2.329.21 2.963-1.262.74-1.997-.635L92.51 65.4l-6.203 2.329.316 4.55 2.628 1.164z" fill="#9F5243"/><path d="M105.335 59.685l-10.197-3.07-1.472 1.588 8.515 2.963 1.472 2.329.315.634 1.682-.952-.315-3.492zM96.82 67.41c0-.318-.105-3.916-.105-3.916l-6.728-2.116-4.205-1.058-1.577 2.434 6.412 2.222 2.103.423s.63.953 1.156 1.164c.316.318 2.839 1.8 2.944.847zm18.607 1.164v4.445l-2.313.106-1.577-2.223-6.728-2.751-3.679-1.376 1.156-1.905 5.467.741 5.151 1.482c0 .211 3.259 1.375 2.523 1.481zm7.674-4.339l.315 3.492-1.892.106-1.472-2.01-9.881-3.281.735-.53.947-1.057.841-.106c-.106.106 8.304 1.481 10.407 3.386z" fill="#5A291D"/><path d="M127.201 62.013l1.682 3.492-5.256 2.646-.526-3.916 4.1-2.222z" fill="#9F5243"/><path d="M130.46 65.717l-14.928 9.841-4.415.53 2.523-1.588 2.312-1.481 6.098-3.704-.526-1.482 2.208.212 5.256-2.646c-.105.106 1.472 0 1.472.318z" fill="#BF7867"/><path d="M118.686 78.416c-.211-.423-3.259-2.752-3.259-2.752l6.202-3.704 8.726-6.137.42 4.339-12.089 8.254z" fill="#914A3C"/><path d="M130.565 65.611c.105.74.105 1.482.105 2.222 0 .635.105 1.27.105 2.011 0 .106-.21.106-.21 0-.21-.635-.105-1.27-.21-2.01V65.61h.21z" fill="#7A3D30"/><path d="M130.985 70.162c-8.515 6.349-17.976 11.323-26.386 17.778-.105.106-.21-.106-.105-.106 8.2-6.667 17.766-11.64 26.386-17.778.105-.212.21 0 .105.106z" fill="#42180A"/><path d="M130.565 65.611c-6.938 6.561-16.084 10.9-24.389 15.45-.21.106-.421-.211-.21-.423 4.099-2.434 8.304-4.762 12.404-7.09 4.31-2.434 7.99-5.397 11.985-8.149.21.106.315.212.21.212z" fill="#C99383"/><path d="M103.968 87.834c.421-1.164.946-2.222 1.262-3.492.315-1.164.42-2.434.736-3.598 0-.106.315-.106.315 0 .105 2.222-.841 5.291-2.103 7.09-.105.212-.21.106-.21 0z" fill="#9F5243"/><path d="M103.968 87.728c-11.353-2.01-22.917-6.35-33.009-11.958-.21-.106 0-.529.21-.423 10.723 5.397 21.656 8.254 32.799 12.381 0 0 .105-.106 0 0z" fill="#42180A"/><path d="M70.854 75.664c-.736-.423-.841-1.799-1.051-2.54a10.56 10.56 0 010-4.444c0-.318.525-.212.42 0-.21 1.904-.42 4.973.841 6.666.105.212 0 .424-.21.318z" fill="#42180A"/><path d="M106.071 80.744c-5.572-1.905-10.933-3.28-16.4-5.397-6.412-2.54-13.14-4.55-19.658-6.667-.316-.106-.105-.53.21-.423 6.518 2.222 13.246 4.233 19.659 6.772 5.36 2.117 11.038 3.387 16.399 5.61 0 0 0 .21-.21.105z" fill="#42180A"/><path d="M130.355 65.823c-.526-.106-1.052-.212-1.472-.424-.105 0-.105-.211 0-.211.525 0 1.051.211 1.577.317.21.106.105.318-.105.318z" fill="#C99383"/><path d="M128.988 65.4c-.315-.424-.631-.953-.946-1.482-.316-.53-.736-1.058-.946-1.587-.105-.106.105-.318.21-.106.42.423.631.952.946 1.375l.946 1.588c.105.212-.105.423-.21.212z" fill="#42180A"/><path d="M129.303 65.4c-1.787 1.163-3.679 2.01-5.571 2.962-.211.106-.421-.317-.211-.423 1.788-.952 3.68-2.116 5.572-2.963.21 0 .421.317.21.423z" fill="#42180A"/><path d="M123.416 68.045c-.21-.53-.21-1.164-.21-1.8-.105-.634-.21-1.375-.315-2.01 0-.212.315-.317.315-.106.21.741.315 1.376.421 2.117.105.529.21 1.164 0 1.693-.106.212-.211.212-.211.106z" fill="#42180A"/><path d="M126.57 62.33c-.526.424-1.156.636-1.682.953-.631.318-1.261.74-1.997.953 0 0-.105 0 0-.106.525-.318 1.156-.635 1.682-.953.63-.317 1.261-.74 1.997-.846 0 0 0-.106 0 0z" fill="#C99383"/><path d="M123.311 64.235c-1.682-.423-3.154-1.058-4.836-1.587-2.102-.74-4.31-1.164-6.517-1.587-.211 0-.105-.318 0-.318 3.679.74 7.884 1.587 11.353 3.386.105 0 .105.106 0 .106z" fill="#42180A"/><path d="M112.063 60.955c-.316.211-.631.529-.946.846-.316.318-.421.741-.526 1.059-.105.105-.315.105-.21-.106.105-.847.841-1.693 1.682-2.01 0 0 .105.105 0 .21z" fill="#42180A"/><path d="M119.842 66.246c-.631.53-1.367.953-2.102 1.376-.736.53-1.577 1.058-2.418 1.376-.105 0-.211-.106-.105-.106.63-.53 1.471-.847 2.102-1.27.736-.423 1.472-1.058 2.313-1.481.21-.106.315 0 .21.105z" fill="#C99383"/><path d="M115.532 73.02c-.105-1.483-.21-2.858-.315-4.34 0-.211.42-.317.42-.106.105 1.482 0 2.963.105 4.445h-.21z" fill="#42180A"/><path d="M121.734 69.633c-.525.846-1.787 1.27-2.628 1.799-1.051.635-2.207 1.27-3.259 2.01-.315.212-.63-.211-.315-.423.946-.635 1.787-1.164 2.733-1.799.946-.635 2.103-1.587 3.259-1.799.21 0 .21.106.21.212z" fill="#42180A"/><path d="M121.524 69.633c-.21-.635-.315-1.164-.631-1.8-.315-.529-.736-1.058-.946-1.587 0-.106.105-.317.21-.212.526.318.841.953 1.052 1.482.315.635.525 1.27.63 1.905.211.317-.21.423-.315.212zm-5.782-1.271c-2.102-.317-3.995-1.058-5.992-1.799-2.313-.846-4.731-1.058-7.148-1.481-.211 0-.211-.424 0-.318 4.625.74 8.725 1.8 13.035 3.492.21 0 .105.106.105.106z" fill="#42180A"/><path d="M102.602 65.188c-.421.635-.841 1.164-1.157 1.799-.105.211-.42.105-.315-.106.315-.741.631-1.376 1.261-1.905.105 0 .316.106.211.212zm10.617 8.889l-.631-1.587c-.21-.53-.63-.952-.841-1.481 0-.106.106-.318.211-.212.42.317.63.952.946 1.376.21.529.525 1.164.631 1.693-.106.317-.316.317-.316.211zM92.72 70.055c-.526.53-1.051 1.164-1.577 1.588-.63.529-1.156 1.27-1.787 1.799-.105.106-.21 0-.21-.212.42-.635 1.261-1.27 1.787-1.799.525-.529 1.051-1.058 1.682-1.587 0-.106.105.106.105.211z" fill="#42180A"/><path d="M104.599 78.734c-5.151-1.8-10.092-3.916-15.453-4.868-.316-.106-.316-.53 0-.53 5.256.741 10.933 2.54 15.558 5.186.105 0 0 .212-.105.212zm8.936-4.128c-1.262 1.059-2.629 1.905-3.89 2.858-1.156.846-2.418 1.693-3.785 2.116-.21.106-.42-.317-.21-.317 1.577-.53 2.944-1.376 4.205-2.434 1.051-.847 2.208-1.905 3.469-2.328.105-.106.316 0 .211.105z" fill="#42180A"/><path d="M105.545 79.263c-.105-.847 0-1.694-.105-2.54-.105-.847-.315-1.693-.526-2.54-.105-.317.421-.423.526-.106.526 1.482 1.051 3.704.42 5.291-.105 0-.21 0-.315-.105z" fill="#42180A"/><path d="M111.432 71.22c-1.682 1.27-3.995 2.434-6.097 2.645-.105 0-.21-.105-.105-.211 1.051-.424 2.102-.635 3.153-1.059 1.052-.423 1.998-.952 2.944-1.587.105 0 .21.106.105.212z" fill="#C99383"/><path d="M105.545 73.971c-4.415-.211-8.515-2.751-12.72-3.704-.315-.105-.315-.634.105-.529 2.208.424 4.415 1.376 6.623 2.011 2.102.53 4.1 1.376 6.097 2.01.105 0 0 .212-.105.212zM90.933 70.69c-.631.424-1.367.741-2.103 1.059-.736.317-1.471.74-2.207.74-.106 0-.21-.211-.106-.317.631-.423 1.367-.53 1.998-.847a51.897 51.897 0 012.313-.952c.105.106.21.317.105.317z" fill="#42180A"/><path d="M86.307 72.596v-2.329c0-.74-.105-1.587 0-2.328 0-.211.21-.211.316 0 .42 1.376.21 3.28.105 4.657-.105.211-.42.211-.42 0z" fill="#42180A"/><path d="M86.517 68.044c-2.102-.317-4.204-.846-6.307-1.375-1.892-.423-3.784-.741-5.256-2.01-.21-.213 0-.53.315-.424 3.364 2.01 7.674 2.222 11.354 3.492.105.106.105.317-.106.317z" fill="#42180A"/><path d="M75.059 64.764c-.42.53-.946.847-1.367 1.376-.42.53-.736 1.058-1.156 1.587-.105.212-.42 0-.316-.211.526-1.164 1.577-2.434 2.629-3.07.105 0 .315.213.21.318z" fill="#42180A"/><path d="M86.412 72.49c-2.312-.212-4.31-1.059-6.412-1.906-2.628-.952-5.151-1.799-7.885-2.54-.315-.105-.105-.634.21-.528 4.836 1.27 9.252 3.492 14.087 4.656.21.106.105.317 0 .317zm7.675-4.656l-.947-1.27c-.21-.318-.63-.635-.736-1.059 0-.105.106-.211.21-.211.421.211.632.635.947 1.058.315.423.525.847.736 1.376 0 .106-.105.211-.21.106z" fill="#42180A"/><path d="M92.404 65.505c-.84.635-1.892 1.058-2.838 1.376-.946.423-1.997.847-3.049 1.058-.21 0-.315-.211-.105-.317.947-.53 2.103-.741 3.154-1.164.946-.318 1.787-.741 2.733-1.059.21 0 .21.106.105.106zm.526-.212c-3.995-.211-7.884-2.222-11.774-2.963-.315-.105-.315-.635 0-.529.841.106 1.577.424 2.313.741 1.261.423 2.523.53 3.784.847 1.998.423 4.1.846 5.677 1.904 0 0 .105-.105 0 0zm-11.984-3.069c-1.472 1.164-3.574 2.011-5.361 2.434-.316.106-.421-.423-.106-.423.947-.317 1.787-.635 2.734-.952.946-.318 1.787-.847 2.628-1.165.105-.211.21 0 .105.106z" fill="#C99383"/><path d="M103.758 63.812c-.421-.318-.631-.741-.946-1.164-.316-.424-.736-.847-.841-1.27 0-.212.105-.318.21-.212.421.212.736.847 1.051 1.27.316.423.526.846.631 1.376 0-.106-.105 0-.105 0z" fill="#42180A"/><path d="M101.971 61.272c-.841.318-1.787.74-2.628 1.058-.841.424-1.682.953-2.523 1.27-.105.106-.316-.106-.105-.211 1.471-1.165 3.469-1.905 5.256-2.329.105 0 .21.212 0 .212z" fill="#C99383"/><path d="M96.715 67.41c-.21-.635-.106-1.164-.106-1.799v-2.01c0-.212.421-.212.421 0 .105.634 0 1.27 0 1.904 0 .635 0 1.27-.105 1.905-.105.212-.21.106-.21 0z" fill="#42180A"/><path d="M96.925 63.706c-1.577-.106-3.259-1.059-4.836-1.482-2.207-.53-4.31-1.058-6.518-1.587-.21-.106-.105-.53.106-.424 1.892.424 3.89.953 5.781 1.376 1.998.53 3.68 1.27 5.572 2.01.105 0 0 .107-.105.107z" fill="#42180A"/><path d="M85.677 60.425c-.106.741-.947 1.482-1.472 2.011-.105.106-.42-.106-.316-.317a7.35 7.35 0 00.841-1.059c.21-.317.42-.529.736-.74.105 0 .21.105.21.105z" fill="#42180A"/><path d="M91.248 58.414c-1.787.847-3.68 1.376-5.466 1.905-.105 0-.21-.211 0-.211 1.892-.53 3.679-1.164 5.466-1.8 0-.105.105.106 0 .106z" fill="#C99383"/><path d="M101.971 61.167c-3.574-1.059-7.044-2.434-10.723-2.858-.21 0-.21-.317 0-.317 3.68.212 7.359 1.587 10.828 2.963.105.106 0 .212-.105.212z" fill="#C99383"/><path d="M111.853 60.214c-.106-.212-.316-.318-.526-.53-.21-.211-.315-.529-.421-.74-.21-.318-.63-.741-.63-1.164 0-.106.105-.212.21-.106.42.106.631.635.946 1.058.105.212.21.318.315.53 0 .21 0 .528.106.952 0 0 .105 0 0 0z" fill="#42180A"/><path d="M110.276 57.674c-1.787.53-3.259 1.165-4.836 2.011-.105.106-.315-.106-.105-.212 1.472-1.058 3.259-1.693 4.941-2.01.105-.106.105.106 0 .211z" fill="#C99383"/><path d="M105.755 63.177c-.21-1.164-.736-2.54-.63-3.81 0-.105.21-.211.315 0 .526 1.165.42 2.646.631 3.81 0 .106-.316.106-.316 0z" fill="#42180A"/><path d="M105.335 59.473c-3.364-.953-6.833-1.8-10.197-2.752-.21-.105-.105-.423.105-.423 3.364.74 7.043 1.376 10.197 2.857.21.106.105.423-.105.318z" fill="#42180A"/><path d="M95.243 56.722c-.21.317-.42.634-.736.952-.21.318-.42.53-.736.74a.226.226 0 01-.21-.21c.105-.318.42-.636.63-.848.21-.317.421-.529.736-.74.21-.106.421-.106.316.106z" fill="#42180A"/><path d="M100.184 54.817l-2.523.953c-.736.317-1.472.634-2.208.846-.105 0-.105-.106-.105-.106 1.261-.952 3.259-1.587 4.836-1.693 0 0 0-.106 0 0z" fill="#C99383"/><path d="M110.276 57.673c-3.575-.952-7.044-1.904-10.618-2.645-.315-.106-.21-.53 0-.423 3.574.74 7.254 1.587 10.618 2.857.21.106.21.211 0 .211z" fill="#C99383"/><path d="M115.427 73.336c-.736.106-1.472 0-2.208-.106-.21 0-.21-.423 0-.423.736.106 1.472.106 2.208.317.105 0 .105.106 0 .212zm8.305-4.762c-.421 0-.946-.106-1.367-.212-.42-.105-.736-.105-1.051-.317-.21-.106-.105-.423.105-.423.42-.106.841.105 1.261.211.421.106.841.106 1.157.318.315 0 .21.423-.105.423zm-27.228-.635c-.525-.106-.946-.423-1.366-.53-.526-.105-1.052-.21-1.472-.422-.105-.106-.105-.212 0-.318.526-.106 1.156.106 1.577.318.526.211 1.051.317 1.367.74.105.106 0 .212-.106.212z" fill="#42180A"/><path d="M107.963 62.33a55.274 55.274 0 01-5.572 2.858c-.21.106-.42-.212-.21-.423 1.787-1.058 3.785-1.905 5.677-2.752.105 0 .21.212.105.318zm3.574 8.678c-4.205-1.587-7.989-3.175-12.405-4.021-.315-.106-.21-.53 0-.53 4.205.741 8.831 1.905 12.51 4.34.105.105 0 .21-.105.21z" fill="#C99383"/><path d="M99.027 66.881c-.42.318-.84.212-1.261.318-.526.211-1.051.74-1.577 1.164-1.051.635-2.313 1.27-3.574 1.587-.105 0-.21-.106-.105-.211 1.261-.741 2.628-1.165 3.784-2.011.42-.318.841-.635 1.262-.847.42-.211.946-.106 1.366-.211.105 0 .21.105.105.211zm17.451-7.725c-.736.423-1.472.635-2.208 1.058-.63.317-1.261.846-1.997 1.058-.105 0-.21-.106-.21-.212.42-.529 1.261-.952 1.892-1.27a8.895 8.895 0 012.313-.952c.315-.106.42.212.21.318z" fill="#C99383"/><path d="M127.516 62.225c-3.679-.847-7.359-2.01-11.038-3.175-.21-.106-.105-.423.105-.317 3.68 1.058 7.464 1.904 11.038 3.28.105 0 0 .212-.105.212zm-7.464 4.021c-2.312-.635-4.52-1.587-6.728-2.328-1.787-.53-3.784-.635-5.361-1.693-.315-.212 0-.53.315-.424 1.682.953 4.1 1.27 5.992 1.905 1.998.741 3.995 1.376 5.993 2.223.105.105 0 .317-.211.317z" fill="#C99383"/><path d="M2.523 41.695s-.736 7.937-.736 14.18c0 6.244 1.051 15.662 1.051 15.662l2.208 17.355.525 3.916 7.36 1.058 31.642 5.503 30.801 6.773 23.443 6.243s3.995 0 5.467-1.481c1.471-1.482 1.997-2.222 1.997-2.222l-.315-3.175-2.208-2.222s1.261-3.175 1.261-3.704v-4.974l-1.051-.53s1.472-5.29 1.051-10.37c-.315-4.974-.735-7.513-.735-7.513s-.736-6.667 0-9.736c.735-3.175 1.261-6.985 1.261-8.678 0-1.693-1.051-6.455-1.051-6.455l-38.055-6.667-59.501-7.937s-4.205-.317-4.415 4.974z" fill="#704228"/><path d="M4.94 53.864c.316-.74.947-1.481 1.683-1.905 5.466 1.164 10.828 2.328 16.294 3.493 5.361 1.164 10.828 2.328 16.19 3.386 2.417.53 4.94.952 7.358.317v2.752c.315-.635.526-1.376.84-2.01 16.82.317 32.485 8.465 49.094 10.687-.63-.952.42-2.222 1.472-2.645 1.156-.318 2.418-.212 3.364-.847.526-.317.946-.846 1.261-1.376a16.165 16.165 0 002.629-9.841c0-.847-.211-1.8-.841-2.434-.421-.423-.947-.53-1.472-.74-17.24-4.869-35.217-6.139-52.878-9.102-13.876-2.328-27.648-5.608-41.734-6.878-.631.106-1.262.106-1.788.423-.42.318-.63.847-.84 1.376-1.998 5.29-2.524 11.005-1.683 16.614.631-.423 1.157-.952 1.788-1.376l-.736.106zm18.082 35.663c5.362 1.164 10.723 2.328 16.19 3.386 2.417.53 4.94.953 7.358.318v2.752c.315-.636.526-1.376.841-2.011 9.461.211 18.607 2.857 27.648 5.503 4.415 1.27 8.936 2.645 13.456 3.703 3.574.847 8.515 3.069 11.564-.211 1.261-1.482 1.892-3.492 2.207-5.397.631-4.233.526-10.053-3.574-11.747-4.626-2.01-10.933-2.328-15.874-3.174-10.933-1.8-21.866-2.963-32.799-4.763-7.99-1.375-15.769-2.963-23.653-4.338a238.784 238.784 0 00-12.09-1.905c-1.891-.212-8.094-1.905-9.566 0-.42.529-.42 1.376-.42 2.116 0 3.598 0 7.408 1.682 10.689 2.208 4.233 12.51 4.127 17.03 5.08z" fill="#8A5335"/><path d="M4.94 88.152C3.575 80.85 3.365 73.23 2.944 65.822c-.315-5.714-.525-11.428-.21-17.143.105-2.857.315-5.926.105-8.783.105 1.376-.736 3.81-.946 5.397-.21 2.117-.42 4.127-.526 6.244-.21 4.656-.105 9.312.106 13.863.315 8.042.315 16.508 3.784 23.916a17.46 17.46 0 00-.315-1.164z" fill="#F3B279"/><path d="M4.625 87.94s4.205.211 9.146.952a344.83 344.83 0 0110.092 1.693l23.022 4.445 16.505 3.492 17.346 3.916 15.243 2.963 2.418.529 1.787-1.482 3.679-.952s2.523 1.693 2.523 2.963v3.175l-2.943 2.434-3.154.529h-1.472l-25.65-6.244-25.23-5.714-21.971-4.233-20.29-3.598-1.05-4.868z" fill="#C37B51"/><path d="M5.466 89.527l16.19 2.117 37.003 7.09s15.454 3.174 18.187 3.915c2.733.741 21.971 4.868 21.971 4.868s1.262-1.587 2.838-2.01a70.286 70.286 0 013.049-.741l-.946-.635h-3.154l-2.733 1.164-7.043-1.164-15.349-2.646-14.086-3.915-17.451-3.492-27.543-5.08L4.625 87.94l.841 1.587z" fill="#915B3A"/><path d="M98.291 105.824c.421 1.482.526 3.069.526 4.656 0 .529 0 1.059.316 1.482.525.635 1.681.317 2.417 0a101.94 101.94 0 003.364-1.587c.421-.212.841-.424 1.052-.847.105-.423 0-.741 0-1.164 0-.423.21-.847.21-1.27.105-1.058-.841-1.905-1.682-2.434a2.51 2.51 0 00-1.157-.635c-.315 0-.63 0-.946.106-.736.106-1.471 0-2.207.212a3.158 3.158 0 00-1.998 2.01l.105-.529z" fill="#AC6D47"/><path opacity=".54" d="M25.755 92.596l1.157 1.164c-.42-.317-1.157 0-1.157.53 2.523 2.116 6.098 1.798 9.357 2.221 2.523.318 4.835 1.165 7.253 2.011 7.359 2.434 15.033 4.127 22.707 5.08-.315-.212-.63-.424-.946-.741.315.106.63-.317.63-.635.106-1.587-1.787-2.434-3.363-2.857-6.939-1.588-13.772-3.07-20.71-4.656-5.046-1.165-10.092-2.223-15.138-2.646l.21.529z" fill="#D19977"/><path d="M40.157 15.344c-5.886 3.915-12.089 7.302-18.291 10.583-3.26 1.693-6.413 3.492-9.777 4.656-1.682.529-3.364 1.058-5.151 1.058-.736 0-1.472-.106-2.313-.106-.525 0-2.312.106-2.733.423 1.682-1.587 3.259-1.481 5.467-1.799 2.102-.317 4.31-.74 6.307-1.587 3.259-1.27 6.308-2.857 9.356-4.445 5.782-2.963 11.354-6.137 17.03-9.206.105-.106.316.211.105.423z" fill="#C4C3AD"/><path d="M106.491 109.528c-1.682 2.011-5.046 4.127-7.779 3.28-.21-.105-.315-.423 0-.529 1.156-.317 2.418-.317 3.574-.74 1.367-.53 2.628-1.482 3.68-2.54.315-.318.841.106.525.529z" fill="#6E4E40"/><path d="M98.502 112.491c-3.89-.423-7.78-1.693-11.564-2.645-3.785-.953-7.674-1.905-11.459-2.858-7.674-1.799-15.348-3.598-23.127-5.185-15.453-3.175-31.012-5.926-46.675-8.148-.841-.106-.526-1.482.315-1.376 24.6 3.492 48.883 8.254 73.062 14.18 3.364.847 6.728 1.693 9.986 2.646 3.154.846 6.623 1.587 9.672 2.963.105.212 0 .529-.21.423z" fill="#6B4327"/><path d="M103.863 104.448c-.946 0-1.787-.105-2.733.106-.736.212-1.367.741-2.103.741-.21 0-.315-.212-.21-.423.42-.741 1.577-1.059 2.418-1.164.946-.212 1.892-.212 2.733.105.21.212.105.635-.105.635z" fill="#6E4E40"/><path d="M98.291 105.824c-2.943-.106-5.781-.847-8.62-1.27-3.154-.529-6.202-1.058-9.356-1.693-2.838-.529-5.677-.953-8.515-1.799-2.944-.847-5.782-1.8-8.83-2.434-12.09-2.752-24.284-4.762-36.479-6.984-6.938-1.27-13.876-2.54-20.92-3.493-.63-.105-.42-1.058.21-.952 15.664 2.116 31.118 5.503 46.57 8.466 3.785.74 7.675 1.376 11.46 2.222 3.784.847 7.358 2.222 11.143 3.069 3.784.847 7.569 1.482 11.458 2.117 3.89.74 8.095 1.164 11.88 2.434.21.105.21.317 0 .317z" fill="#C37B51"/><path d="M99.027 108.576a7.13 7.13 0 010 2.116c0 .635.105 1.27 0 1.905 0 .317-.42.212-.42 0-.105-.741.105-1.482.105-2.117s0-1.269.105-1.904c0-.106.105 0 .21 0z" fill="#6E4E40"/><path d="M5.256 89.21v-1.058c-.21-.106-.526-.212-.736-.318a8.603 8.603 0 00-.525 2.857c.105.953.42 1.905 1.05 2.646.106.106.211.212.421.212v-.106c.105 0 .105.106.21.106.21 0 .421 0 .631-.212-.63-1.27-1.051-2.752-1.051-4.127z" fill="#935D3C"/><path d="M6.412 45.293c-.105 0-.105 0-.21-.106v.423c.105-.106.105-.212.21-.317z" fill="#F6D39B"/><path d="M103.443 100.956c-1.052 1.059-3.995 1.694-5.362 2.223-.105 0-.21.106-.315.106-2.208.635-6.413-.953-8.726-1.482-3.048-.635-6.097-1.164-9.04-1.905-2.839-.74-24.915-5.291-32.168-6.878-8.095-1.8-16.19-3.387-24.284-4.974-5.887-1.164-14.087-1.27-16.295-8.043C5.046 73.231 4.52 65.93 4.415 58.838 4.31 53.23 3.259 44.34 7.779 40.108c2.208-2.011 5.466-2.858 8.305-2.223a22.527 22.527 0 00-8.305-2.222c-1.367-.106-2.943 0-4.1.74-1.997 1.27-1.682 6.35-2.102 8.572-.526 4.022-.631 7.937-.526 11.853.21 8.148 1.787 16.19 2.944 24.233.21 1.482 0 5.715 1.471 6.562.316.211.631.211.946.211 2.313.318 4.52.635 6.833.953 3.785.635 7.464 1.164 11.249 1.799l20.71 4.127 21.655 4.339 5.992 2.116 7.57 1.587 13.35 2.011c1.367.423 3.785 1.376 5.151.529.631-.423 1.157-1.164 1.892-1.27.421 0 .736.106 1.157.106.736 0 1.682 0 1.997-.846.105-.424.21-.741.21-1.164.106-1.27.421-2.434.841-3.599-.42.953-.841 1.8-1.576 2.434z" fill="#F6D39B"/><path d="M1.577 35.028c-.105.212-.105.317-.21.53-.421 1.269-.421 2.645-.316 3.914 7.359-3.81 13.246-1.799 20.92-.317 7.569 1.482 15.033 2.963 22.602 4.339 13.14 2.54 26.176 5.08 39.316 7.302 2.313.423 7.36.106 9.357 1.27 2.417 1.481 2.733 6.137 3.048 8.571v-6.032c0-.634 0-1.375.42-1.904 1.262-1.8 6.623.846 7.78-1.482 0 0 1.682-3.386.631-6.244-1.157-2.857-88.83-14.815-88.83-14.815-4.626-.317-12.406-.106-14.718 4.868z" fill="#F6C899"/><path d="M46.36 16.297l-5.887-1.27-9.987 5.82-14.087 7.62-9.566 2.75 4.415 1.588 29.435 7.196 27.648 5.08c11.774 2.01 23.653 3.915 35.637 4.233.316 0 .736 0 1.051-.212.211-.106.421-.423.526-.635.736-1.27 1.156-2.645 1.051-4.021-.315-5.609-6.517-7.302-10.722-9.101-5.572-2.328-11.144-4.868-16.61-7.514-4.1-1.904-8.62-2.857-12.825-4.444-6.728-2.328-13.456-4.657-20.08-7.09z" fill="#FFF8D8"/><path d="M81.366 47.303c2.208.424 4.52.847 6.623 1.376 5.046 1.164 11.88 1.376 16.925 1.058-5.046-1.693-11.353-1.27-16.715-2.116-4.73-.741-9.356-1.059-14.086-1.905-3.154-.53-6.413-.953-9.567-1.376-6.623-.952-13.245-2.328-19.763-3.81-13.456-2.963-26.702-6.455-40.053-9.735-.42-.106-.525.529-.105.529l22.707 5.714c12.93 3.175 25.966 6.244 39.212 8.149 4.835.635 9.882 1.27 14.822 2.116z" fill="#C4C3AD"/><path d="M104.284 75.664c-.106-6.137-.106-12.275.21-18.413.105-2.54.946-4.445-1.157-5.609-1.156-.74-7.358-.74-7.989.847-.105.212-.105.423 0 .529.42 4.021 1.367 7.196.946 11.323-.105 1.376-.42 2.752-.21 4.127.105.953.42 1.905.736 2.858.736 2.645.84 5.29.946 8.042.315 8.784.315 17.567 0 26.35 1.787-1.164 3.784-2.116 5.887-2.645 1.577-9.101.841-18.308.631-27.409z" fill="#975B3B"/><path d="M105.966 41.377c.315.74.735 1.27.946 2.01.21.741.315 1.588.21 2.329 0 .74-.105 1.481-.526 2.01-.315.635-.736 1.27-.946 2.011-.21 1.27-.105 2.646-.105 4.021.105 2.223.315 4.445.105 6.667-.315 2.858-1.051 5.609-1.366 8.466-.316 3.387.63 6.561.841 9.948a87.19 87.19 0 010 10.476c-.106 1.164.105 5.715-1.682 5.926v-.952h1.576c.316 0 .421.212.526.423.21 1.376.21 2.646.105 4.022-.21 1.481-1.366 3.386-.841 4.656.421 1.164.736.741 1.577 1.481.21.212.315.318.421.53.42.846 0 1.904-.106 2.751 0 .635-.946.635-.946 0 0-.423.211-.952.211-1.482-.106-1.481-.526-1.375-1.367-1.799-.631-.317-1.156-.74-1.262-1.481-.105-1.058.841-2.434 1.052-3.387.42-1.799.525-3.597.21-5.397.21.106.315.318.526.424h-1.577c-.631 0-.631-.847 0-.953.525-.105.736-3.174.736-3.492.21-2.01.21-3.915.21-5.926 0-3.069.21-6.455-.526-9.524-.631-2.54-.736-4.974-.315-7.62.42-3.174 1.366-6.349 1.472-9.63.105-2.54-.526-5.185-.211-7.725.105-.952.316-1.904.736-2.751.631-1.058.841-1.8.946-3.069 0-.74-.21-1.905-.63-2.963z" fill="#FAF9D4"/><path d="M25.125 77.78l-1.472-2.222 3.364-1.164 1.472 4.233-3.364-.846zm16.084-12.275l-2.628.635.105-3.598 4.415.106-1.892 2.857zm-21.13-12.17l-2.208-1.587 2.733-2.328 2.839 3.386-3.364.53z" fill="#DAC397"/><path d="M65.913 90.162l-2.102-1.481 2.628-2.328 2.838 3.386-3.364.423zM84.1 63.494l-2.208-1.587 2.733-2.328 2.839 3.386-3.364.53zm-21.866 7.62l-2.103-1.588 2.628-2.328 2.944 3.387-3.47.529z" fill="#47250C"/><path d="M65.913 89.104l-2.102-1.588 2.628-2.328 2.838 3.387-3.364.529zM84.1 62.33l-2.208-1.587 2.733-2.223 2.839 3.28-3.364.53z" fill="#DAC397"/><path d="M62.234 69.95l-2.103-1.587 2.628-2.329 2.944 3.387-3.47.529z" fill="#D79060"/><path d="M88.83 95.03l-2.102-1.588 2.628-2.328 2.943 3.387-3.469.529z" fill="#DAC397"/><path d="M9.461 52.277c.946.106 1.051.317 1.682.635.42.212 1.051.212 1.577.423.946.212 1.892.635 2.838.847.526.106.736-.53.316-.741-.841-.635-1.998-.952-3.049-1.164-.42-.106-.946-.318-1.472-.212-.736-.105-1.261.106-1.892.212 0 0 0-.106 0 0zm8.62-.635c1.052 0 2.418-.952 2.313-2.116 0-.212-.42-.53-.63-.53-.526.106-.842.424-1.157.847-.316.318-.63.635-.841 1.058-.21.318 0 .741.315.741zm21.13 12.805c-.21.106.21 0 .316 0 .525.106 1.051-.53 1.051-1.058 0-.635-.42-.953-1.051-1.058a1.31 1.31 0 00-1.472 1.058c-.21.846.526 1.375 1.156 1.058zm22.182 4.233c.525-.318 1.05-.53 1.471-.847.947-.635.526-2.116-.525-2.116-.841 0-1.682.529-2.208 1.164-.315.423-.42.952-.105 1.376.315.529.946.74 1.367.423zm21.655-7.62c.736-.317 1.367-1.163 1.157-2.01-.105-.423-.526-.635-.946-.53-.841.107-1.262 1.165-1.367 1.906 0 .634.736.74 1.156.635zM64.757 87.622c.525-.106.84-.106 1.156-.423.526-.423.105-1.27-.526-1.27-.42 0-.736.106-1.05.318-.527.317-.316 1.481.42 1.375zm21.866 5.608c.21.318.525.636.84.847.737.53 1.683 0 1.893-.74.21-.847-.42-1.694-1.262-1.694-.315 0-.63 0-.946.106-.525.212-.946.953-.525 1.482zM24.389 76.828c1.471 0 1.471-2.328 0-2.328-1.472.106-1.472 2.328 0 2.328zm.631-21.376c1.471 1.164 3.048 1.375 4.835 1.693 1.367.211 2.839.529 4.1 0 .21-.106.21-.424 0-.53-1.366-.74-3.048-.529-4.415-.74-1.577-.212-2.838-.635-4.415-.53-.21-.105-.21.107-.105.107zm12.3 2.117c.84.317 1.786.423 2.627.106.105-.106 0-.212-.105-.212-.84-.106-1.682 0-2.523-.318-.21-.105-.315.318 0 .424zm9.04 2.433c.946.106 1.892.106 2.838.212.841.106 1.682.212 2.523 0 .21 0 .21-.317.105-.423-.736-.318-1.577-.318-2.418-.318-1.05-.105-1.997-.105-3.048-.211a.37.37 0 000 .74zm8.094.424c.42.105.736.211 1.157.317.105 0 .105-.106 0-.106-.316-.106-.736-.211-1.157-.317-.105-.106-.105.106 0 .106zm3.364.423C70.223 64.976 83.364 71.43 96.61 71.643c1.472 0 1.472-2.222 0-2.222-6.727 0-13.245-2.223-19.658-3.81-6.307-1.587-12.825-2.963-19.133-4.868 0-.106-.105 0 0 .106zm38.371 0c-.21.952-.841 2.222 0 3.069a.318.318 0 00.42 0c.842-.847.21-2.117 0-3.07a.318.318 0 00-.42 0z" fill="#B36C49"/><path d="M95.979 64.236c-.316 1.798-.316 3.81.105 5.608a.95.95 0 00.63.635h.21c.211.106.526 0 .632-.212.525-.846-.105-1.481-.42-2.328-.421-1.164-.421-2.328-.316-3.598.105-.423-.736-.635-.841-.105z" fill="#B36C49"/><path d="M97.976 84.66c.736-4.233 1.577-9.842.21-14.075-.315-.847-1.366-.635-1.471.212-.21 2.222.21 4.656.42 6.878.21 2.328.21 4.657.315 6.879 0 .317.42.423.526.106zM5.677 70.373c14.822 1.694 28.804 7.408 43.837 8.466 1.156.106 1.156-1.693 0-1.799-14.823-.952-29.015-6.56-43.837-7.09-.21 0-.21.317 0 .423zm63.39 10.054c-.946-.318-1.787-.635-2.839-.847-.735-.106-1.471-.212-2.312-.317-1.577-.212-2.944-.953-4.52-.741-.421.105-.421.635-.106.846 1.367.847 3.049.53 4.52.847.947.212 1.893.529 2.839.529.84.106 1.577 0 2.313 0 .21.106.315-.317.105-.317z" fill="#B36C49"/><path d="M56.557 78.415c-1.262-.317-2.418-.529-3.574-.952-1.052-.317-1.998-.847-3.154-.635-.736.212-.841 1.164-.21 1.587.946.635 2.102.424 3.153.424 1.262 0 2.523.211 3.68.317.42.106.525-.635.105-.74zm18.292 3.811c1.787.423 3.364.423 5.15.529 1.788.106 3.575 1.164 5.257.635.315-.106.42-.635.105-.741-1.472-.74-2.943-.106-4.625-.212-2.103-.105-3.89-.423-5.993-.317 0 0 0 .106.106.106zm14.191 2.222c1.577.317 3.05.211 4.626.846 1.367.53 2.523 1.27 3.995.847.736-.212 1.261-1.376.525-2.01-1.156-.953-2.418-.847-3.89-.742-1.681.212-3.363-.105-5.045.106-.526.212-.736.847-.21.953z" fill="#B36C49"/><path d="M98.081 85.4c2.418-.212 5.256-.635 7.359-1.905.631-.423.21-1.481-.526-1.164-2.312.847-4.52 1.905-6.938 2.434-.42.106-.315.74.105.635zm-1.156-14.71c1.261 0 2.523-.634 3.784-.846 1.262-.317 2.734-.317 3.785-.952.42-.212.42-.953-.105-1.058-1.262-.212-2.523.317-3.785.635-1.261.317-2.838.529-3.995 1.27-.42.211-.315.952.316.952z" fill="#B36C49"/><path d="M48.042 36.403c5.887 1.27 12.93 1.694 18.712-.105 2.523.74 5.046 1.481 7.569 1.587 2.628.212 5.256-.318 7.464-1.693.946-.635 1.892-1.694 1.577-2.858a1.94 1.94 0 00-.736-1.058c-2.838-2.857-9.04-3.175-12.825-4.127-5.992-1.587-11.985-3.069-18.292-3.492-4.415-.318-8.83-.318-13.14.317-1.472.212-11.88 1.694-7.99 4.022 2.102 1.27 4.415 1.905 6.623 2.645 2.838.847 5.782 1.8 8.725 2.223 2.103.317 5.782-.53 7.464.846-1.157.53-2.418.847-3.68 1.164-.315.106-.735.212-.84.635-.106.318.525.635.63.318l-1.261-.424z" fill="#C4C3AD"/><path d="M42.996 31.324c6.307-.74 12.51 1.481 18.607 2.963C67.7 35.769 74.638 36.509 80 33.229a89.365 89.365 0 00-7.149-3.492c-6.623-3.07-13.981-5.61-21.235-4.763-3.68.424-7.78 2.223-8.62 5.82v.53z" fill="#A38E7B"/><path d="M40.893 11.111s-.63-2.222-.525-2.963c.105-.846.42-1.904.42-1.904h1.262l.63-4.762L43.1 0l1.578 2.646.946-1.694s2.523.318 3.784 1.376c1.262.953 2.734 2.54 2.734 2.54l.84.952 1.157-.952 1.367.635 1.05 1.481-3.153 3.598-1.892 4.128s-.841-1.588-2.208-2.223c-1.366-.635-2.207-.529-2.207-.529s-4.205-1.376-6.203-.847z" fill="#8DA12F"/><path d="M63.81 3.493s-4.52 1.799-6.412 2.963c-1.787 1.164-3.364 3.492-3.364 3.492l-2.103 4.127-.42.635s.84 1.693 1.261 2.963c.42 1.376.736 3.386.736 3.386s2.944-1.587 4.73-.846a15.323 15.323 0 013.05 1.693l.63.952s1.472-.635 2.523 0a12.421 12.421 0 011.682 1.376s-.315-1.481-.21-2.434c.105-.952.63-1.905.63-1.905l4.836.212 2.629.317s1.05-2.645-.316-6.349S70.54 8.89 70.54 8.89l-1.998-1.8-1.787-.952c-.105-.106-2.208-2.54-2.944-2.645z" fill="#A85F49"/><path d="M47.2 11.958s-3.048-1.376-6.202-.846c-3.153.529-4.52 1.799-4.52 1.799l-3.89 3.386s-1.892 2.857-2.733 4.55c-.84 1.694-1.051 3.493-1.051 3.493s.21 2.222.736 3.174c.526.953 1.787 1.8 1.787 1.8s2.418 1.587 5.256 2.222c2.839.635 4.836.211 4.836.211s2.208-.211 4.73-1.27c2.524-1.058 3.785-2.116 3.785-2.116l1.156-4.127 2.523-3.28s-.21-2.858-1.366-5.08c-1.051-2.223-3.364-4.339-5.046-3.916z" fill="#A85F49"/><path d="M41.945 22.753s3.784-1.905 4.52-3.493c.736-1.587.736-2.01.42-2.963-.315-.952-.42-1.27-.21-2.222s.526-2.01.526-2.01 2.943.21 4.1 1.798c1.05 1.588 1.787 4.34 1.787 4.34l.525 2.856-1.787 2.011-.84 1.27s-1.578.529-2.524-.953c-.946-1.481-.946-1.799-1.577-2.116-.63-.423-1.366-1.376-4.94 1.482z" fill="#A97C50"/><path d="M61.918 22.858s-1.261-2.222-3.364-2.434c-2.102-.211-3.68.318-3.68.318s-2.207.635-3.363 2.54c-1.051 1.904-1.367 3.703-1.367 3.703l-.525 4.022-.42 2.645-1.367 2.858 2.733-.318s5.361.635 8.094.212c2.734-.424 5.677-2.858 5.677-2.858l.946-1.058s3.47 2.328 6.097 2.434c2.523.106 5.046-1.481 5.046-1.481s1.998-2.223 2.523-3.493c.631-1.375 1.157-3.598 1.157-3.598s.525-2.751-.63-3.81c-1.157-1.057-3.575-1.587-3.575-1.587l-5.151-1.058h-4.31l-.631 1.905.21 2.434c.105 0-1.787-2.01-4.1-1.376z" fill="#DAC397"/><path d="M55.61 8.571c-1.05 1.8-1.576 3.81-1.681 5.82 0 .53 0 1.165.315 1.694.316.529.946.846 1.577 1.058 1.892.74 3.89 1.482 5.887 1.058 2.313-.529 4.31-.846 6.308-2.434-.106.635.21 1.27.63 1.694.736.74 1.892.74 2.839.952 1.156.212 2.312.847 3.048 1.8-1.051.634-2.313-.107-3.469-.318-1.366-.318-2.733-.106-4.1 0-.105 0-.315 0-.42.105-.105.106-.21.212-.21.424-.421 1.164-.526 2.54-.421 3.81-1.156-.424-2.208-.741-3.364-1.165-.315-.105-.526-.211-.841-.317-.21-.106-.315-.318-.42-.424-1.893-1.799-4.836-2.328-7.254-1.27-.63-1.692-1.367-3.386-1.997-5.079-.106-.423-.316-.846-.316-1.27 0-.317.21-.529.316-.846 1.05-2.223 2.523-4.233 4.1-6.138l-.526.846z" fill="#7D4533"/><path d="M67.385 6.878l1.577 6.985c.21 1.164.525 2.328 1.471 3.069.42.317.946.529 1.472.74.841.424 1.682.953 2.313 1.694.42-5.292-2.733-10.689-7.464-12.911l.63.423z" fill="#BF8874"/><path d="M41.63 10.794c-.106-.846-.211-1.587-.316-2.434.315.424.736.741 1.051 1.164.736 0 1.472.212 1.997.741a14.95 14.95 0 000-3.069c.21 1.27 1.472 2.01 2.629 2.646-.106-1.27-.42-2.434-.736-3.704 1.156.74 2.312 1.376 3.469 2.116-.316-1.799-1.262-3.492-2.628-4.656 2.418 1.164 5.15 2.54 6.097 5.08.42-.424.736-.953 1.051-1.588.526.106.946.318 1.472.424-2.103 1.799-3.47 4.338-3.995 7.09-.315-1.164-1.577-1.8-2.733-2.222-2.418-.953-4.94-1.482-7.57-1.694l.211.106z" fill="#768930"/><path d="M35.006 14.18c-1.997 2.328-4.1 4.762-4.52 7.831-.105.847 0 1.905.736 2.328.315.212.63.212 1.051.212 3.89.212 7.464-2.222 10.302-4.974.841-.846 1.577-1.693 1.893-2.751.21-.53.21-1.164.315-1.8.105-.422.315-.74.315-1.163 0-.847-.946-1.376-1.787-1.693-1.366-.53-2.733-.953-4.1-.635-1.05.211-1.892.952-2.628 1.587-.84.635-1.577 1.27-2.418 1.905l.841-.847z" fill="#BF8874"/><path d="M50.04 13.757c-.421-.106-.737-.212-1.157-.106.105.424.21.741.42 1.059-.525 0-.946.529-1.05 1.058-.106.529.104 1.058.42 1.481.105.106.105.212.105.318 0 .106-.105.106-.105.211-.316.318-.526.635-.841 1.059.42.105.735.317.946.74 0 .106.105.106.105.212 0 .212-.21.317-.21.53 0 .105.105.21.21.317A10.41 10.41 0 0050.67 21.8c.63.317 1.367.423 2.102.105.21-.105.42-.211.526-.423.105-.106 0-.317 0-.423-.21-2.117-.84-4.127-1.997-5.926-.42-.635-.946-1.164-1.682-.953l.42-.423z" fill="#B98858"/><path d="M30.276 28.15c4.52 1.692 9.776 1.904 13.981-.636.736-.529 1.577-1.058 1.998-1.905.525-.74.63-1.799.21-2.645-.42-.847-1.367-1.376-2.313-1.058-.63.211-1.051.74-1.682.635 1.998-.635 3.574-2.223 4.31-4.233-.63 2.222.841 4.867 3.049 5.608.21.106.42.106.63.318 0 .105.106.211.106.317.105 1.058-.316 2.01-.946 2.858-.631.74-1.577 1.27-2.523 1.693-4.31 1.904-9.146 2.01-13.772 1.058a7.705 7.705 0 01-1.471-.423c-1.262-.635-1.998-2.117-2.208-3.598l.63 2.01z" fill="#7D4533"/><path d="M47.937 36.403c.42-.106 1.156-2.116 1.366-2.54.316-.846.316-1.587.42-2.434.211-1.904.316-4.233.947-6.032-.315 1.165-.315 2.329-.21 3.493.105.634.21 1.375.63 1.904 1.682 2.223 3.47-1.693 4.1-2.857.946-1.481 2.103-2.751 3.575-3.81.525-.423 1.261-.846 1.892-1.058.63-.317 1.577 0 2.102-.211-2.628 1.058-4.94 3.069-6.307 5.608-.42.741-.736 1.482-1.157 2.117-.525.74-1.156 1.376-.946 2.328.316 1.164 1.682 1.587 2.944 1.587 4.31 0 8.515-3.069 9.881-7.196-.42 3.598-3.153 6.456-6.202 8.36-.84.53-1.892.635-2.733.847-.42.106-.841.106-1.262 0-2.102-.106-4.31-.318-6.412-.318-.946.106-1.787.106-2.628.212zm19.448-15.344c-.21 1.376-.316 2.751-.21 4.127 0 .635.105 1.27.42 1.799a6.04 6.04 0 001.156 1.164c.526.423 1.157.74 1.787.847.526.106 1.157.106 1.683.106 2.207-.106 4.31-1.165 5.781-2.646.631-.635 1.157-1.482.947-2.328-.21-.953-1.262-1.376-2.103-1.693a26.583 26.583 0 00-9.146-1.27l-.315-.106z" fill="#E8D9BE"/><path d="M65.808 32.065c.63.74 1.577 1.058 2.418 1.375 1.051.318 2.207.635 3.364.741 1.156.106 2.313-.106 3.259-.74-.316.105-.631.21-.947.21-.315 0-.63-.317-.63-.634 0-.212.105-.318.21-.423.841-1.165 2.313-1.588 3.47-2.329a5.215 5.215 0 001.891-2.116c-1.682 1.27-3.994 2.116-6.307 2.328-.736.106-1.472 0-2.208-.106-1.156-.317-2.207-.952-3.259-1.693-.315.953-.736 1.905-1.05 2.963-.106.212-.421.53-.526.318l.315.106z" fill="#C6A462"/><path d="M56.242 34.604c.42.212.946.106 1.366.106.526-.106 1.157-.106 1.472-.529.105-.106 0-.423-.105-.423-.42 0-.946.211-1.367.317-.42.106-.946.106-1.366.318-.106 0-.106.105 0 .211z" fill="#fff"/><path d="M40.893 10.9c-.315-1.27-1.05-5.186 1.367-4.128.105 0 .105 0 .21-.106.21-1.587.21-3.174.526-4.762.42-2.222 1.156.106 1.787 1.164.105.106.21.106.21 0 .946-4.55 7.044 1.693 8.095 3.387.105.105.21.105.315 0 .526-1.482 1.472-1.27 2.944.529.105.211.42.106.315-.106-.526-1.27-1.261-1.905-2.523-2.117-.105 0-.105 0-.21.106-.631 1.059-.736.953-1.472.318-.736-.741-1.367-1.482-2.102-2.117-1.472-1.058-3.05-1.693-4.731-2.116 0 0-.105 0-.105.106-.105.317-.42 1.375-.736 1.375-.526-.105-1.262-1.799-1.577-2.328-.105-.106-.21-.106-.21.106-.105 1.27-.316 2.54-.42 3.81-.106 1.164.104 2.857-1.472 2.222-.106 0-.106 0-.106.106-.84 1.376-.946 2.857-.105 4.55 0 .106-.105.106 0 0z" fill="#768930"/><path d="M49.724 28.255c-3.049 2.328-7.043 3.704-10.933 3.28-3.47-.423-8.83-1.799-9.461-5.82-.631-3.704 2.523-7.937 4.835-10.476 3.364-3.493 8.305-4.868 12.826-3.07.315.106.63-.423.315-.634-4.415-2.117-9.566-.741-13.035 2.54-2.839 2.645-6.308 7.513-5.572 11.64.63 3.916 5.361 5.397 8.725 6.032 4.31.74 9.251-.317 12.615-3.28 0 0-.21-.318-.315-.212z" fill="#7D4533"/><path d="M47.2 12.17c0 .846-.735 1.481-.84 2.328-.105.846.315 1.27.42 2.116.631 3.28-3.048 4.762-5.046 6.455-.105.106 0 .318.21.212 1.683-1.164 4.626-2.857 5.257-4.974.315-1.058-.316-1.693-.42-2.645-.21-1.482.84-2.329.42-3.493 0-.105.105-.105 0 0zm-1.05 8.784c1.261.423 1.682 1.693 2.523 2.645.525.635 1.366 1.164 2.207.741.105-.106.105-.317-.105-.212-2.313.53-2.523-2.963-4.52-3.28-.21-.106-.21.106-.105.106z" fill="#B98858"/><path d="M47.306 11.959c4.73 1.164 4.94 5.502 5.992 9.312.105.318.526.212.526-.106-.105-3.81-1.998-9.312-6.518-9.63-.105.106-.105.424 0 .424z" fill="#592E1E"/><path d="M47.937 36.192c2.418-2.328 1.682-6.138 2.418-9.101.525-2.223 1.787-4.55 3.89-5.715 2.417-1.376 5.676-.846 7.148 1.482.315.423 1.05 0 .736-.424-2.103-3.174-6.518-3.386-9.357-1.058-4.52 3.916-2.207 10.053-4.835 14.816-.105 0-.105-.106 0 0z" fill="#C6A462"/><path d="M51.931 14.498c2.418-5.503 6.413-8.678 12.09-10.16.525-.105.42-1.057-.105-.952-5.782.635-10.933 5.397-12.51 11.006-.105.106.315.318.525.106z" fill="#BF8874"/><path d="M63.705 3.81c3.89 1.693 3.785 6.032 4.31 9.735 0 .318.526.212.526-.105-.525-3.704-.525-8.466-4.73-9.948-.106-.106-.316.318-.106.318z" fill="#7D4533"/><path d="M66.964 6.35c5.362 3.386 7.464 8.042 6.939 14.18 0 .106.21.106.21 0 1.577-5.609-1.998-11.747-7.149-14.18 0 0 0-.106 0 0z" fill="#7D4533"/><path d="M65.808 24.128c.105-.741.105-1.482.315-2.223.105-.529.316-1.164.316-1.693 0-.106-.105-.106-.21 0-.631 1.164-.631 2.752-.631 4.021.105 0 .21 0 .21-.105zm1.262-4.021c2.943.212 12.51.423 12.93 4.55.315 2.858-3.049 4.657-5.257 5.186-2.417.635-4.73.423-6.833-1.059-.315-.211-.63.318-.42.53 3.574 3.174 11.353 1.693 13.035-3.07 2.313-6.455-9.776-6.878-13.456-6.455-.21 0-.21.212 0 .318z" fill="#9E844E"/><path d="M80 27.197c-1.262 2.857-2.208 5.609-5.362 6.879-3.469 1.375-6.517.317-9.46-1.694-.211-.105-.316.106-.106.318 2.838 2.116 6.307 3.175 9.777 1.693 2.943-1.27 4.52-4.233 5.15-7.196.106 0 .106 0 0 0z" fill="#C6A462"/><path d="M53.718 31.959c2.523-1.587 3.47-4.233 5.362-6.35 1.787-2.01 5.361-3.598 7.148-.529 1.157 1.905.42 4.445-.735 6.244-1.893 2.963-5.257 4.868-8.726 5.08-3.049.105-5.887-1.165-8.935-.212-.526.106-.316.846.21.74 2.838-.74 5.466.424 8.305.318 1.787 0 3.574-.423 5.15-1.27 3.05-1.587 5.993-4.762 6.098-8.36.105-2.857-2.102-5.397-5.046-4.974-4.52.635-5.992 6.456-8.83 9.313 0 .106-.106 0 0 0z" fill="#9E844E"/><path d="M46.885 14.18c-.21.318-.42.424-.525.848 0 .317.42.423.525.211.21-.317.21-.529.21-.952.106-.106-.104-.212-.21-.106zm1.788-9.524c.315.212.735.74 1.156.74v-.105c-.21-.423-.736-.635-1.156-.847 0 0-.106.106 0 .212zM68.12 9.313c-.105 1.481.106 3.174.316 4.762 0 .106.21.211.21 0 .316-1.482.21-3.387-.525-4.762 0-.106.105-.106 0 0z" fill="#fff"/><path d="M81.472 29.207c.315.212.525.424.946.318.105 0 .21-.212.105-.317-.21-.318-.526-.212-.946-.212-.105 0-.21.212-.105.212zm2.102.741c4.205 3.281 29.225 10.795 20.184 19.049-.736.74.42 1.905 1.156 1.164 3.68-3.386 1.367-8.466-1.997-11.112-5.782-4.444-13.035-5.502-19.133-9.206-.21-.106-.315 0-.21.105z" fill="#CBBFB3"/><path d="M2.733 56.404c-.315-8.042-.736-16.614 4.205-23.387.526-.74.736-1.799 0-2.328-.42-.211-.946-.211-1.367-.106-1.261.212-2.628.53-3.574 1.27C-.736 33.97.21 41.166.105 44.235c-.105 4.974 0 9.841.42 14.815.736 9.736 3.154 18.943 4.941 28.467-1.892-10.265-2.312-20.742-2.733-31.112z" fill="#C37B51"/><path d="M68.12 55.452h.106c.84 0 .84-1.376 0-1.376h-.105c-.841 0-.841 1.376 0 1.376zm-23.968-3.916c1.787 0 1.787-2.751 0-2.751-1.682 0-1.682 2.752 0 2.752zm9.251 3.069c0-.106-.105-.106-.105-.212-.21-.423-.946-.423-1.156 0 0 .106-.105.106-.105.212-.21.529 0 1.164.63 1.164.631 0 1.052-.635.736-1.164zM36.794 83.39c.21 0 .21-.424 0-.424s-.21.424 0 .424zm9.146-3.493c0-.106.104-.106.104-.212.947-1.587-.946-3.492-2.523-2.54-.105 0-.105.106-.21.106-1.051.635-1.261 2.117-.42 2.963 1.05.953 2.418.741 3.048-.317zm5.676 3.387v-.106c.21-.953-1.261-.953-1.051 0v.106c.105.529.946.529 1.051 0zm-19.869 2.751c.105 0 .105-.105 0 0 0-.105 0 0 0 0zm5.888.529c0-.317 0-.529-.21-.74-.316-.53-.947-.53-1.262 0-.21.211-.21.423-.21.74.105 1.058 1.681 1.058 1.681 0zm-9.146-6.455c.735 0 .735-1.164 0-1.164a.584.584 0 000 1.164zm-2.103-36.086c.105 0 .21-.106.21-.106.42-.106.42-.741 0-.953-.105 0-.21-.105-.21-.105-.946-.212-.946 1.481 0 1.164zm-12.194.529c.63 0 .63-.952 0-.952-.631 0-.631.952 0 .952zm16.188 9.101v-.106c.106-.74-1.366-.74-1.26 0v.106c.21.74 1.26.74 1.26 0zM20.184 42.647c.105-.105.21-.105.21-.211.526-.424.526-1.27.315-1.8-.315-.634-.84-.952-1.471-.952h-.316c-1.261 0-2.102 1.376-1.577 2.434.526 1.164 1.893 1.27 2.839.53zM12.93 77.146h.105c.21 0 .526 0 .631-.212.105-.212.105-.317 0-.529-.105-.212-.315-.317-.63-.212h-.106c-.525.106-.525.953 0 .953zm1.577 5.503c.736 0 .736-1.164 0-1.164a.584.584 0 000 1.164zm6.203 1.27c.104 0 .21-.106.315-.106 1.156-.423 1.787-1.905.736-2.963-1.052-1.058-2.523-.423-2.944.74 0 .107-.105.212-.105.318-.315 1.058.946 2.434 1.997 2.01zm60.551-28.256c.736 0 .736-1.164 0-1.164-.736-.106-.736 1.164 0 1.164zm10.618 10.795v-.106c.42-1.376-2.103-1.376-1.682 0v.106c.315.846 1.367.846 1.682 0zM80.105 95.876c0-.211 0-.423-.105-.529-.21-.74-1.367-.74-1.472 0 0 .212-.105.424-.105.53.21.952 1.682.952 1.682 0zm-.841-8.359l-.105-.106c-.631-.635-1.893-.74-2.628 0-.631.74-.736 1.905 0 2.645l.105.106c.63.635 1.892.741 2.628 0 .63-.846.63-1.905 0-2.645zm13.456 2.116c.63 0 .63-1.058 0-1.058s-.63 1.058 0 1.058zm-34.06.424c0-.106-.106-.212-.106-.212-.21-.53-.84-.53-1.051 0 0 .106-.105.212-.105.212-.21.952 1.577.952 1.261 0zm7.989-9.419v.105c0 1.27 1.997 1.27 1.997 0v-.105c-.105-1.27-1.997-1.27-1.997 0zm34.481-2.857c.631 0 .631-1.058 0-1.058s-.631 1.058 0 1.058zm.841 13.122c.315 0 .525-.106.736-.318.21-.317.21-.529 0-.846-.211-.212-.421-.318-.736-.318-.946.106-.946 1.482 0 1.482zm.105 8.571v-.105c0-.847-1.262-.847-1.262 0v.105c0 .847 1.262.847 1.262 0zm-3.259-5.291a1.365 1.365 0 00-1.997-.106l-.105.106c-.841.953-.316 2.54 1.05 2.54 1.262 0 1.893-1.587 1.052-2.54zm2.313-33.863c.946 0 .946-1.587 0-1.587s-.946 1.587 0 1.587zm-1.472-3.175c.631-.847-.315-1.799-1.156-1.164-1.157.846.315 2.222 1.156 1.164z" fill="#B36C49"/><path d="M21.445 84.13c1.157 0 1.157-1.905 0-1.905-1.156 0-1.156 1.905 0 1.905zm6.203-7.83c.21.422.42.846.63 1.375.21.529.316.952.841 1.164.631.317 1.262-.106 1.262-.74.105-.53-.316-.953-.526-1.377-.21-.423-.42-.846-.736-1.27-.525-1.058-1.892-.211-1.471.847zm-7.569-21.483c.525.106 1.05 0 1.576 0s1.052 0 1.682-.106c.631-.105 1.052-.846.841-1.481-.21-.635-.84-.953-1.471-.847-.526.106-.946.318-1.367.53-.42.21-.946.317-1.366.528-.631.318-.631 1.27.105 1.376zM6.833 45.293c.526-.53.84-1.164 1.367-1.694a14.948 14.948 0 012.102-1.481c1.261-.847 2.838-1.27 4.31-1.482 2.208-.317 1.367-3.915-.946-3.492-2.103.424-3.89 1.27-5.361 2.857-1.157 1.165-2.418 3.281-2.523 4.868.105.53.736.847 1.05.424z" fill="#704228"/><path d="M20.5 39.472c-.316-.423-.421-.635-.842-.846-.526-.318-1.156-.423-1.682-.53a6.054 6.054 0 01-1.472-.528c-.525-.212-.84-.53-1.366-.741-1.893-.847-2.839 2.857-.42 3.069.63 0 1.26-.106 1.892 0 .42 0 .84.105 1.261.211.42.106.841.212 1.262.212.525 0 .63-.106 1.156-.318.315-.105.42-.317.21-.529zm-15.98 9.63c-.525.847-.315 2.011-.42 2.963 0 .953-.316 2.011.42 2.752.21.212.63.212.841 0 .63-.741.42-1.8.42-2.752 0-.952.106-2.116-.42-2.963-.105-.317-.63-.317-.84 0zm6.413 34.605c0-2.434-1.998-4.55-2.418-6.984-.526-2.752 0-5.82-.736-8.466-.21-.953-1.787-1.27-2.208-.318-1.261 2.752-.42 6.244.631 9.101.946 2.328 1.998 5.926 4.626 6.879 0-.106.105-.106.105-.212zm72.536.741c1.892.74 3.68.74 5.677.847 2.733.105 4.52.529 6.728 2.116 1.576 1.058 3.153-1.587 1.471-2.54-1.997-1.164-4.205-.423-6.412-.529-2.418-.106-4.941-.529-7.464.106z" fill="#704228"/><path d="M97.976 92.596c.63-1.164.42-2.434.42-3.704s.736-2.328-.315-3.386c-.63-.635-1.577-.317-1.892.53-.42 1.27.526 1.798.841 2.856.315 1.27 0 2.54.42 3.704.106.106.421.212.526 0zM23.968 40.53c21.971 6.668 45.099 11.112 67.806 14.816 2.102.318 3.048-2.963.84-3.28-22.916-3.598-45.623-8.149-68.436-12.064-.42-.106-.525.423-.21.529z" fill="#704228"/><path d="M95.874 62.754c.736-1.27.105-3.175 0-4.55a15.38 15.38 0 00-1.472-4.869c-.316-.635-1.156-.846-1.682-.74-.316.105-.42.211-.63.423-.421.423-.632 1.27-.211 1.799.84 1.27 1.577 2.434 2.313 3.81.63 1.27.525 2.963 1.366 4.127-.105.211.21.211.316 0z" fill="#704228"/><path d="M2.523 35.98c.63 0 1.261-.634 1.787-.952-.21 0-.315.106-.526.106.631-.106 1.262-.212 1.893-.53.946-.422 1.471-1.27 1.05-2.221-.315-.847-1.471-1.165-2.312-.635-.841.423-1.367 1.164-1.682 2.116-.315.635-.736 1.376-.21 2.117 0 0-.105 0 0 0zm7.464 53.23c.21 0 .42.106.63.106.316 0 .631.212 1.052.212.21 0 .42-.212.21-.424-.316-.211-.63-.317-.946-.423h-.631c-.105 0-.21.106-.315.212-.105.106-.105.317 0 .317zm8.62 1.27c2.943.423 5.992.846 8.936.528.105 0 .105-.211 0-.211-3.05-.212-5.993 0-8.936-.423v.105zm10.617.634c.421.106.947.212 1.472.212.105 0 .105-.106 0-.106-.42-.212-.946-.212-1.366-.317-.105 0-.21.211-.105.211zm4.836 1.376c.42.212.736.424 1.157.53v-.106c-.316-.212-.736-.424-1.052-.635-.105.106-.21.211-.105.211zm-1.892-71.749c1.577-1.693 2.944-3.174 5.151-3.81 1.367-.423 3.68-.21 4.626-1.27a.671.671 0 000-.952c-1.472-1.375-4.416.106-5.782 1.165-1.682 1.27-3.47 2.857-4.205 4.867.105 0 .21.106.21 0zM97.976 47.62c1.262.53 2.208.636 3.574.424a7.167 7.167 0 003.364-1.905c1.157-1.058-.525-2.646-1.682-1.693-1.471 1.164-3.364 2.116-5.15 2.751-.316 0-.316.318-.106.424z" fill="#fff"/></svg>