<svg width="132" height="86" fill="none" xmlns="http://www.w3.org/2000/svg"><path d="M19.772 49.602s-1.52-5.988.357-11.53c1.967-5.54 4.648-8.043 4.648-8.043s2.414-3.753 8.403-5.362c5.9-1.609 10.905-.358 10.905-.358s5.542 1.34 9.207 4.558c3.665 3.218 5.364 7.24 5.364 7.24s1.788 5.63 1.34 8.58c-.446 2.949-1.608 5.183-1.608 5.183L56.6 52.462l-2.056 1.877-1.073 2.323s-1.698 3.932-7.061 6.435c-5.274 2.502-6.973 1.966-6.973 1.966l-5.274-.268-14.391-15.193z" fill="#F47218"/><path d="M32.822 65.51s-2.681 3.039-9.207 4.29c-6.525 1.34-12.246-1.877-12.246-1.877s-4.29-2.592-5.9-4.647c-1.609-2.056-3.039-4.38-3.486-6.703-.447-2.324-.536-5.095-.536-5.095l.804-3.574 1.252-2.95 1.966 1.788 34.147 7.686c0-.09-1.252 7.507-6.794 11.082z" fill="#FFCB04"/><path d="M38.007 54.606l-1.698 4.38s-1.788 2.77-3.218 3.753c-1.43.983-2.95.18-2.95.18s-2.592-1.788-3.665-3.129c-1.073-1.34-5.006-7.686-5.006-7.686l.983-.626.805-.804c0-.09 14.928 3.128 14.749 3.932z" fill="#F7893B"/><path d="M27.19 63.722s.09 1.341.09 2.056c0 .715-1.877 1.788-1.877 1.788s-3.307.715-4.827.268c-1.52-.447-2.95-1.073-2.95-1.073l-.715-1.698 3.933-12.601.268 1.34s6.168 9.027 6.079 9.92zM20.308 52.73l-2.771 5.362-2.235 5.094s-.983 2.413-3.397 2.056c-2.413-.358-4.29-2.592-4.29-2.592s-1.788-1.877-1.162-3.932c.715-2.056 3.307-2.77 3.307-2.77l9.654-4.738 1.073.805-.179.715zm-1.878-2.324L8.42 55.232s-3.487 1.788-4.56-.447c-1.072-2.145-.178-4.021-.178-4.021l1.787-4.022 12.962 2.77v.894z" fill="#F47218"/><path d="M31.035 30.565c-2.235 3.396-3.308 7.508-2.95 11.53.447 4.021 2.235 7.864 5.095 10.724a59.542 59.542 0 00-10.995-3.217c-.447-.09-.983-.179-1.251-.536-.268-.269-.358-.716-.447-1.162-.537-3.754.715-7.508 2.592-10.814a33.54 33.54 0 014.738-6.346c.983-.983 2.145-2.055 3.575-2.324.268-.089.626 0 .626.268 0 .09 0 .18-.09.269-.446.715-.804 1.43-1.25 2.145l.357-.537zm4.38 33.068c1.698-.357 3.486.179 5.184-.179 1.252-.178 2.414-.804 3.486-1.34 2.593-1.34 5.364-2.77 7.062-5.184.358-.447.626-1.072.358-1.608-1.252 1.966-3.397 3.485-5.721 4.021-2.324.536-4.827.09-6.883-1.251-.626 2.145-2.056 4.111-3.665 5.72l.179-.179z" fill="#D85D1E"/><path opacity=".42" d="M39.974 54.696c.089.715.089 1.52.178 2.234.09.804.09 1.609.09 2.324-.09 1.52-.537 3.038-1.341 4.29-.268.447-.537.804-.983 1.162-.984.715-2.325.536-3.487.089 2.503-2.86 4.38-6.346 5.364-10.01l.178-.09z" fill="#D85D1E"/><path d="M43.013 26.812c3.307.268 6.346 2.413 7.687 5.362.894 1.966.805 4.647-.983 5.899-1.61 1.072-3.754.536-5.632.625-2.234.09-4.38 1.162-5.72 2.95-.537.625-.894 1.34-1.61 1.787-1.25.983-3.218.625-4.38-.447s-1.698-2.77-1.698-4.38c0-1.608.447-3.127.983-4.647.537-1.519 1.073-3.128 2.324-4.2.537-.536 1.252-.894 1.967-1.251 2.413-1.252 5.274-2.324 7.956-1.52l-.894-.178zm-10.28 17.874c2.056-.447 4.47 3.754 2.414 4.916-.358.178-.805.178-1.252 0a2.793 2.793 0 01-.983-.805c-.626-.625-1.162-1.34-1.252-2.145-.178-.804.268-1.787 1.073-1.966z" fill="#F67F2B"/><path d="M58.566 44.24c-.178.893-.715 1.876-1.609 1.876-.625 0-1.072-.447-1.43-.983-1.162-1.609-1.43-3.843-.626-5.63-.983.715-.983 2.145-.804 3.306.536 2.86 1.877 5.72 1.52 8.67 1.52-.447 2.592-1.788 3.218-3.218 1.966-4.2 1.34-9.205-.894-13.138 1.251 3.128 1.43 5.899.625 9.116z" fill="#D85D1E"/><path d="M49.091 26.186c2.593 1.788 5.453 3.575 7.151 6.256 1.61 2.592 2.414 5.72 2.235 8.759 0 .536-.09 1.161-.536 1.608-.447.447-1.162.537-1.52 0-.268-.357-.179-.804-.09-1.161.448-2.95-.357-5.899-1.787-8.49-1.52-2.593-3.486-4.827-5.453-6.972z" fill="#F67F2B"/><path d="M53.471 42.541c-.447-.715-1.162-1.072-1.966-1.34-.537-.18-1.073-.18-1.699-.358.18 0 .715-.357.894-.536a4.21 4.21 0 00.894-.894c.447-.625.805-1.34.983-2.055.358.893 1.252 1.519 2.146 1.966-.447.447-.805.804-1.073 1.43-.09.268-.179.536-.179.804-.09.268-.178.804 0 .983z" fill="#2B5A20"/><path d="M52.22 40.039c-.447 0-.805.447-1.162.625.447-.268.715-.715 1.072-1.161.18-.18.269-.447.358-.626.09-.179.268-.536.268-.715.179.715.894 1.162 1.52 1.43-.626.447-.984 1.162-1.073 1.966 0-.357 0-.715.09-1.072 0-.179-.716-.358-.805-.358-.179-.09-.268-.09-.268-.09z" fill="#9D952B"/><path d="M53.74 42.72c3.128 5.63 2.413 12.512-2.235 17.07-4.202 4.111-11.442 7.507-17.431 5.363-.447-.18-.268-.716.179-.716 6.078.805 11.71-.715 16.358-4.915 5.184-4.826 4.737-10.457 2.86-16.713 0-.178.179-.268.268-.089z" fill="#A04612"/><path d="M55.259 53.623c2.86-2.949 4.648-6.792 4.648-10.903-.09-3.754-1.877-7.24-3.933-10.367-3.397-4.916-9.207-7.418-15.017-7.865-6.168-.447-11.978 1.609-16.09 6.256-4.38 5.005-5.632 11.082-4.827 17.517 0 .268-.447.358-.537.09-1.787-6.525.894-13.943 5.364-18.68 4.47-4.647 10.637-6.524 16.984-5.809 6.704.715 12.335 4.022 15.822 9.831 4.022 6.703 4.111 14.657-2.056 20.11-.269.089-.537-.09-.358-.18z" fill="#D85D1E"/><path d="M52.488 36.91c.536 1.163 1.162 1.967 2.324 2.414.09 0 .09.178 0 .178-1.073.537-1.52 1.61-1.251 2.771 0 .09-.09.268-.18.09-1.072-1.073-2.413-1.43-3.932-1.341-.09 0-.179-.179 0-.179 1.788-.447 2.95-2.055 3.039-3.932-.09-.179.179-.179.179 0 0 1.608-.894 3.038-2.235 3.843-.09.09-.179.09-.268.178-.447.18-.268 0-.09 0 .358 0 .805 0 1.163.09.893.179 1.698.715 2.413 1.34-.09 0-.09.09-.179.09a2.219 2.219 0 010-1.52c.179-.536.626-.804.805-1.25.178 0 .268-.09.178-.18-.178-.089-.357-.178-.536-.357-.179-.09-.357-.268-.536-.447-.447-.447-.805-1.072-1.073-1.698 0-.179.179-.179.179-.09z" fill="#173D11"/><path d="M5.111 46.473c-.625-.447-1.34-.893-1.876-1.34-.179-.179 0-.536.268-.447.625.447 1.25.983 1.876 1.43.268.178 0 .536-.268.357z" fill="#FFD86B"/><path d="M37.739 55.68c-.805 2.055-3.486 9.026-6.794 7.953-4.38-1.43-7.419-7.954-9.475-11.529-.09-.09.09-.179.179-.09 2.145 3.129 3.843 6.793 6.704 9.385 1.251 1.162 1.877 1.609 3.575 1.43 1.788-.268 1.967-.715 2.861-2.145 1.073-1.609 2.056-3.307 2.771-5.094.09 0 .179.09.179.09zm-16.537-1.967c1.52 2.413 3.04 4.737 4.559 7.06.715 1.162 2.413 3.039 2.234 4.648-.268 2.144-3.307 2.591-5.005 2.68-1.788.09-4.917.09-5.9-1.787-.626-1.161.09-2.502.447-3.664.894-2.592 1.698-5.183 2.682-7.775 0-.09.178 0 .178.089-.893 2.95-2.145 5.81-2.95 8.848-.983 3.575 2.414 4.2 5.274 4.111.805 0 1.61-.09 2.414-.357 2.682-.894 2.235-3.844 1.073-5.72-1.788-2.77-3.397-5.452-5.006-8.133 0-.09-.09 0 0 0zm-1.072-.268c-1.252 2.502-2.593 4.915-3.755 7.418-.626 1.25-1.162 2.86-2.235 3.843-1.877 1.787-4.022.357-5.631-1.073-1.699-1.43-3.218-3.754-1.61-5.809 1.342-1.609 3.666-2.413 5.453-3.307a164.023 164.023 0 016.883-3.396c.09 0 .18.09.09.179a236.43 236.43 0 00-8.224 4.2c-1.162.626-4.023 1.788-4.47 3.128-.625 2.145.626 3.843 2.235 5.095 1.52 1.25 3.755 2.323 5.274.715.715-.805 1.162-1.877 1.61-2.86 1.34-2.77 2.77-5.452 4.38-8.133 0 0-.09 0 0 0zm-2.414-2.681c-2.95 2.055-6.526 3.664-9.922 4.915-1.341.447-3.04.894-4.023-.536-1.43-2.145 0-7.15 1.52-8.938.089-.089.178 0 .089.09-.894 2.324-2.324 4.915-1.788 7.507.715 3.486 4.29 1.52 6.436.626 2.682-1.162 5.185-2.413 7.688-3.664.09 0 0 0 0 0z" fill="#D85D1E"/><path d="M23.078 50.942c-.178.357-.446.536-.714.804-.268.178-.626.446-.983.446-.09 0-.09-.09-.09-.09.268-.178.536-.267.805-.446.268-.178.625-.446.804-.714.09-.178.268-.09.178 0zm-2.681 1.162c-.268 0-.447-.09-.715-.268-.179-.179-.357-.358-.357-.536 0-.09.09-.09.09 0 .088.178.178.357.357.447.178.089.446.178.625.357.09 0 .09-.09 0 0zm-1.609-1.609c-.09-.178-.178-.268-.268-.447a.57.57 0 010-.536c0-.09.268-.09.268 0v.983c0 .09.09 0 0 0z" fill="#D85D1E"/><path d="M39.169 54.249c-5.72-.715-11.352-2.413-16.894-3.664-5.632-1.252-11.263-2.592-16.895-3.843-.268-.09-.179-.536.09-.447 5.63 1.251 11.262 2.502 16.894 3.843 5.542 1.251 11.352 2.234 16.805 4.022.09 0 .09.089 0 .089z" fill="#FFCB04"/><path d="M36.309 55.232c-1.073 2.502-2.593 4.737-4.47 6.703.09-.536.268-1.072 0-1.52-.268-.446-1.072-.535-1.251-.089.09-1.787.268-3.664.357-5.451 0-.269 0-.537-.268-.537-.09 0-.179.09-.268.18-1.073 1.161-2.056 2.412-3.129 3.574-.09-1.43-.178-2.77-.357-4.2 0-.18-.09-.537-.358-.447-.09 0-.179.089-.268.178l-1.34 1.341c.089-1.162-.18-2.324-.895-3.217.984.268 1.877.625 2.86.893.627.18 1.342.447 1.52 1.073.09.268.09.536 0 .804-.089.715-.178 1.52-.268 2.234.894-1.072 1.788-2.145 2.86-3.038.18-.09.269-.268.448-.179.178.09.268.268.268.447.179 1.787-.447 3.753.357 5.452.358-.358.715-.805 1.162-1.162.18.178.269.268.447.447.358-1.341 1.252-2.592 2.503-3.307.09-.09.179-.09.268 0 .09.09-.089.179-.089.09l-.09-.269z" fill="#FA9D5B"/><path d="M25.046 65.6c-1.43.536-2.95.893-4.47.983-.447 0-.983 0-1.43-.18-.447-.178-.894-.535-.983-.982.268 0 .625 0 .804-.18-.447-.357-.357-1.072-.268-1.697a115.043 115.043 0 011.877-7.508c.179 1.877 0 3.754-.536 5.542-.179.536-.358 1.072-.268 1.608 0 .536.268 1.162.804 1.34.268.09.537.18.626.448.09.178 0 .268.09.447.089.178.267.178.446.178 1.341.18 2.771.269 4.112.269l-.804-.269zm-5.989-12.513c.089-.179.178-.447.178-.626-.447-.089-.894.18-1.34.358-3.397 1.609-6.705 3.486-9.923 5.452-.09.09-.178.09-.268.268-.09.09-.09.268 0 .447l.268 1.34c.09-.715.447-1.34 1.073-1.787 1.073 1.787 2.503 3.396 4.201 4.558-1.43-1.34-2.86-2.86-3.396-4.737 1.787-1.072 3.486-2.145 5.273-3.217.358.447.894.804 1.341 1.072-.09-.447-.268-.804-.268-1.251 1.073-.447 2.145-1.072 3.129-1.788-.18 0-.358.09-.537.09l.269-.179zm-2.235-2.77a10.208 10.208 0 01-2.324-.805c-.18.268-.358.536-.358.894-.09-.358-.447-.447-.804-.536-1.52-.358-2.95-.805-4.47-1.073a.987.987 0 00-.715 0c-.179.09-.268.358-.357.537-.358.983-.626 1.876-.984 2.86.09-1.073.18-2.146.18-3.307-.18 0-.359-.09-.537-.09a9.838 9.838 0 00-1.52 5.72c-.626-2.145.09-4.469.894-6.613 1.698.804 3.844.446 5.632 1.072.357.179.715.358 1.162.447.447.09.893 0 1.34.09.716 0 1.43.178 2.056.535.358.18.805.358 1.073 0l-.268.269z" fill="#F7893B"/><path d="M30.588 64.259c.268.268.268.804.09 1.072-.18.358-.627.536-1.074.358-.447-.09-.715-.537-.983-.894-1.162-1.698-2.413-3.486-3.575-5.184-1.52-2.145-2.95-4.379-3.755-6.881l5.095 6.97c.447.626.984 1.252 1.52 1.878.983 1.072 2.145 1.966 2.95 3.128l-.268-.447zm-10.995-8.223c-.805 1.073-1.073 2.414-1.52 3.665-.536 1.877-1.251 3.753-2.056 5.54-.09.18-.178.358-.357.358-.179.09-.447-.089-.537-.357-.089-.179 0-.447.09-.715 1.162-3.843 3.397-7.15 5.006-10.814a37.602 37.602 0 01-1.073 4.29l.447-1.967zm-.983 13.585c.089.179.357.09.357-.179 0-.178-.179-.357-.357-.446-.805-.537-1.52-1.073-2.325-1.61-.178-.089-.357-.267-.536-.267-.179-.09-.357-.09-.626-.09a33.427 33.427 0 01-5.9-.804c2.146.983 4.202 1.966 6.347 2.95.984.446 2.146.893 3.218.625l-.178-.179zM6.006 57.556c-.626.626-1.073 1.43-1.073 2.324-.804.178-1.34-.715-1.698-1.43-.626-1.699-.984-3.486-.984-5.363.447 1.609 1.341 3.307 2.86 3.843.27.09.627.179.716.447.179.268-.179.715-.447.536l.626-.357z" fill="#FFD14B"/><path d="M39.795 54.606C37.739 65.867 26.386 72.66 15.392 69.8 5.022 67.119-2.933 55.053 3.056 44.865c.268-.447.894-.09.626.357C-1.771 55.5 5.648 67.03 16.285 69.353c10.638 2.413 20.918-4.2 23.063-14.836.09-.268.536-.179.447.09z" fill="#D85D1E"/><path d="M129.809 23.237s.626 6.882.626 12.333c0 5.452-.983 13.585-.983 13.585l-1.877 15.014-.447 3.397-6.436.983-27.71 4.736-26.817 5.899-20.47 5.452s-3.487 0-4.828-1.251c-1.251-1.252-1.787-1.877-1.787-1.877l.357-2.681 1.877-1.877s-1.162-2.681-1.162-3.218v-4.29l1.073-.625s-1.252-4.647-.983-8.937c.357-4.29.625-6.525.625-6.525s.626-5.72 0-8.49c-.625-2.681-1.162-6.077-1.162-7.507 0-1.43.984-5.63.984-5.63l33.252-5.72 51.935-7.061c.09 0 3.755-.357 3.933 4.29z" fill="#F5D357"/><path d="M127.664 63.544c1.251-6.346 1.341-12.96 1.788-19.394.268-4.916.447-9.92.268-14.836-.089-2.502-.268-5.094-.089-7.597-.09 1.252.715 3.307.804 4.648.179 1.787.358 3.575.447 5.452.179 4.021.089 8.043-.089 12.065-.269 6.97-.269 14.3-3.308 20.645.09-.358.09-.626.179-.983z" fill="#F3B279"/><g opacity=".68" fill="#F1BF6F"><path opacity=".68" d="M64.555 35.213c-.089.089-.089.089-.268.178-.09 0-.178 0-.09-.089 0-.179 0-.179.18-.268.089-.179.357 0 .178.179zm-1.787-2.682c-.09 0-.09 0 0 0-.358-.178-.358-.625-.09-.714h.09c.268-.18.715 0 .715.357-.09.357-.447.536-.715.357zm-2.235 5.452c-.536 0-.536-.804 0-.804s.536.804 0 .804zm.268-2.323c-.715 0-.715-1.073 0-1.073s.715 1.072 0 1.072zm10.279-.18s-.089 0-.089-.089c-.268-.178-.268-.536 0-.625 0 0 .09 0 .09-.09.268-.178.715 0 .715.358 0 .447-.447.625-.715.447zm-.267-4.736s0-.09 0 0c.089-.09.089 0 0 0zm-1.163 2.234c-.625 0-.625-.983 0-.983.626 0 .626.983 0 .983zm-.357-2.145c0 .089 0 .089 0 0-.09.714-1.073.714-1.251.089v-.09c-.18-.981 1.43-.981 1.25 0zm-3.039 5.541c-.536 0-.536-.804 0-.804.536-.09.536.804 0 .804zm2.771 1.609l.09-.09a.418.418 0 01.714 0l.09.09c.178.358-.09.805-.447.805-.358 0-.626-.537-.447-.805zm-2.503-3.397c-.804 0-.804-1.25 0-1.25s.804 1.25 0 1.25zm-2.235 4.737c-.804 0-.804-1.25 0-1.25s.804 1.25 0 1.25zm-6.525-3.843c-.804 0-.804-1.34 0-1.34s.804 1.34 0 1.34zm-3.397 4.558c-.179-.536.179-1.072.715-1.072s.894.447.715.983v.09c-.179.714-1.251.714-1.43 0zm19.487-7.775s0-.089.09-.089c.089-.268.535-.268.625 0 0 0 0 .09.09.09.178.267 0 .714-.358.714-.447 0-.537-.447-.447-.715zm-.268-1.61c-.805 0-.805-1.25 0-1.25.804 0 .804 1.25 0 1.25zm8.492 3.04c-.447 0-.447-.715 0-.715.536 0 .536.715 0 .715zm-2.771 2.592c.089 0 .089 0 0 0 .268-.268.625-.268.893 0 .447.357.09 1.16-.447 1.16-.536 0-.893-.803-.446-1.16zm-2.771 2.77h-.09c-.357-.179-.357-.715-.09-.983.269-.267.805-.267.984.09 0 0 0 .089.089.089.179.536-.268 1.072-.894.804zm2.056-8.49s0 .09.088.09a.592.592 0 01-.804.803s-.09 0-.09-.09c-.357-.178-.357-.714-.088-.981.178-.268.714-.18.893.178zm13.855.179c-.447 0-.447-.715 0-.715s.447.715 0 .715zm-1.788 2.949c-.715 0-.715-1.072 0-1.072.625 0 .625 1.072 0 1.072zm-1.252-3.575c0 .09 0 .09 0 0-.268.358-.715.358-.893.09v-.09c-.268-.357.089-.804.446-.804.447 0 .715.447.447.804zm-1.877 2.859c-.179.447-.804.447-.983.09v-.09c-.179-.357 0-.892.536-.892.447 0 .626.446.447.892zm-1.072 2.86c-.09 0-.09 0 0 0-.626-.714.178-1.428.804-.982l.09.09c.535.535-.448 1.517-.894.892zm-.09-6.523c-.804 0-.804-1.162 0-1.162s.804 1.162 0 1.162zm16.626-1.877s0 .09 0 0c-.983.357-.983-1.43-.089-1.072h.089a.558.558 0 010 1.072zm-1.877-.178c0 .089.089.089.089.178.358.894-1.43.894-1.072 0 0-.09.09-.09.09-.178.089-.447.714-.447.893 0zm-2.592 5.451c-.09-.269-.178-.447 0-.715.09-.178.358-.268.626-.268.268.09.447.268.536.536.447.714-.804 1.25-1.162.446zm-2.146-4.737c0-.09 0-.09 0 0 0-.178 0-.268-.089-.357.626.625-.357 1.608-.983.983-.179-.179-.357-.447-.268-.804.09-1.073 1.52-.894 1.34.178zm-.536 3.665c-.625 0-.625-.983 0-.983.626.089.626.983 0 .983zm-1.072 1.43c0-.09 0-.09 0 0 .268-.268.625-.268.804 0 .447.357.09 1.071-.447 1.071-.447 0-.804-.714-.357-1.071zm18.414-9.296h-.09c-.536-.09-.625-.804-.357-1.161.357-.357 1.072-.268 1.162.357v.09c.178.446-.179.803-.715.714zm-2.95 3.398c-.357 0-.357-.537 0-.537.357.09.357.536 0 .536zm-.715-2.236c.089.09.089.09 0 0 0 .893-1.251.893-1.251.09v-.09c.089-.803 1.251-.803 1.251 0zm-2.503 3.932c-.804 0-.804-1.25 0-1.25s.804 1.25 0 1.25zm3.039.804c-.804 0-.804-1.25 0-1.25s.804 1.25 0 1.25zm3.218-2.054c0-.09 0-.09 0 0 .179-.625 1.073-.625 1.162-.09v.09c.268.983-1.43.983-1.162 0zm-.626-1.61s0-.09 0 0c-.714-.268-.714-1.16-.089-1.34h.089c.447-.178.894.269.894.715 0 .357-.447.714-.894.625zm12.515-5.094c-.894 0-.894-1.34 0-1.34.893 0 .893 1.34 0 1.34zm1.966 4.112c-.625 0-.625-1.072 0-1.072.626 0 .626 1.072 0 1.072zm-2.681-1.251c-.626 0-.626-.983 0-.983.625.09.625.983 0 .983zm-.983 3.217c-.447 0-.447-.714 0-.714.536 0 .536.714 0 .714zm3.307-4.916c-.626 0-.626-.983 0-.983.625-.09.625.983 0 .983zm-8.045 7.776c-.804 0-.804-1.162 0-1.162.804-.089.804 1.162 0 1.162zm-1.251-1.608c-.626 0-.626-.983 0-.983.625 0 .625.983 0 .983zm-3.755 2.144c0-.09 0-.09 0 0 .179-.714 1.073-.714 1.251-.09v.09c.268.982-1.519.982-1.251 0zm-6.436 1.876c-.804 0-.804-1.25 0-1.25.804.09.804 1.25 0 1.25zm-1.609-5.629c-.625 0-.625-.983 0-.983.626 0 .626.983 0 .983zm-2.503 5.899c-.446 0-.446-.715 0-.715.536 0 .536.715 0 .715zm-1.073-1.431c-.089 0-.089 0 0 0-1.072.268-1.072-1.43-.089-1.161h.089c.537.178.537.983 0 1.161zm-3.664-.805c-.983 0-.983-1.518 0-1.518s.983 1.518 0 1.518zm.536-3.306v.178c-.09.625-1.073.625-1.251 0v-.178c-.268-1.161 1.519-1.161 1.25 0zm5.542 3.306c-.894 0-.894-1.429 0-1.429s.894 1.429 0 1.429zm5.9 1.61c-.805 0-.805-1.162 0-1.162.804 0 .804 1.162 0 1.162zm-.983-4.022c-.626 0-.626-.983 0-.983.625 0 .625.983 0 .983zm-2.324-2.86s0-.09 0 0c.089-.09.089 0 0 0zM81.092 32.44c-.804 0-.804-1.25 0-1.25s.804 1.25 0 1.25zm-3.932 3.308c-.805 0-.805-1.25 0-1.25.803 0 .803 1.25 0 1.25zm-.09-3.396c.089.982-1.34.982-1.34.09v-.09c0-.893 1.25-.893 1.34 0zm-2.95 5.094c-.894 0-.894-1.34 0-1.34.804 0 .804 1.34 0 1.34zm6.168-2.77c-.447 0-.447-.715 0-.715.536-.089.536.715 0 .715zm2.95 1.252c0-.18.09-.358.178-.447.18-.179.358-.179.537 0 .178.178.178.268.178.447.268.804-1.072.804-.893 0zm7.24-7.687c-.625 0-.625-1.072 0-1.072.626.09.626 1.072 0 1.072zm2.592-.268c-.536 0-.536-.804 0-.804.537 0 .537.804 0 .804zm-.357 6.793c-.268 0-.268-.358 0-.358s.268.358 0 .358zm-2.771.983c-.179 0-.179-.358 0-.358.268 0 .268.358 0 .358zm-36.65.089c0-.09 0-.09.09-.178.09-.268.447-.268.625 0 0 .089 0 .089.09.178.09.626-1.073.626-.805 0zm-.089-2.055a.57.57 0 01-.536 0c-.447-.268-.268-.983.268-.983.625 0 .715.715.268.983zm5.184 5.003s-.09 0 0 0c-.447.358-1.072-.089-1.072-.535 0-.447.626-.893.983-.625h.09c.357.357.357.893 0 1.16zm-6.346-.624c.179-.804 1.34-.804 1.52-.09v.09c.089.536-.269.983-.805.983-.447 0-.804-.447-.715-.983zm12.872-6.972c0-.089 0-.089 0 0 .09-.714 1.162-.714 1.251-.089v.09c.09.446-.179.892-.626.892-.446-.089-.714-.446-.625-.893zm-1.609 3.396c-.894 0-.894-1.34 0-1.34.804.09.804 1.34 0 1.34zm63.287 8.134c-.357 0-.357-.536 0-.536.358 0 .358.536 0 .536zm-1.877 2.324c-.089 0-.089-.09 0 0-.268-.447 0-.894.447-.894s.715.447.536.894v.089c-.268.268-.804.268-.983-.09zm-1.52-.804c-.625 0-.625-.984 0-.984.626 0 .626.983 0 .983zm-3.486 4.735c-.804 0-.804-1.25 0-1.25s.804 1.25 0 1.25zm5.81 1.52s0 .09 0 0c.358.983-1.34.983-1.072.09v-.09c.179-.446.894-.446 1.072 0zm-1.34-3.753c.357.357.178.893-.358.893-.447 0-.625-.536-.357-.893.178-.179.536-.179.715 0zm-10.638-.179c-.268.357-.715.268-.715-.09 0-.357.537-.536.715-.178 0 0 0 .09.09.09 0 0 0 .089-.09.178zm-2.413 4.647c0-.09 0-.09 0 0 .268-.268.625-.268.894 0 .446.357.089 1.16-.447 1.16-.536-.088-.894-.803-.447-1.16zm4.738-.268v-.179c.089-.714 1.34-.714 1.519 0v.179c.089.536-.179 1.072-.804 1.072-.537-.09-.805-.536-.715-1.072zm1.43-4.917c-.983 0-.983-1.428 0-1.428.893-.09.893 1.428 0 1.428zm-14.749 4.738c-.626 0-.626-.982 0-.982.625.089.625.982 0 .982zm3.933-1.252c-.894 0-.894-1.34 0-1.34.893 0 .893 1.34 0 1.34zm-3.576 5.006c.179-.715 1.162-.715 1.341-.09v.09c.089.446-.179.892-.715.892-.447 0-.715-.446-.626-.892zm-7.687-2.951c-.983 0-.983-1.518 0-1.518.893 0 .893 1.518 0 1.518zm-1.341 3.755c-.715 0-.715-1.161 0-1.161s.715 1.161 0 1.161zm5.542-1.967c-.804 0-.804-1.25 0-1.25.804.09.804 1.25 0 1.25zm-.089-3.038c-.805 0-.805-1.25 0-1.25.804 0 .804 1.25 0 1.25zm14.659-.536c-.715 0-.715-1.161 0-1.161s.715 1.161 0 1.161zm-2.413-1.52c-.09.09-.268.09-.358.178a.591.591 0 01-.715-.714c0-.09.09-.268.179-.357.179-.357.804-.446 1.072-.178.268.357.179.892-.178 1.07zm-42.102 7.775c-.805 0-.805-1.339 0-1.339.893.09.893 1.34 0 1.34zm-2.235 6.615c-.536 0-.536-.804 0-.804s.536.804 0 .804zm-2.145-3.396c.268-.09.536-.179.804.09.357.267.357.713.09.981-.805.714-1.788-.714-.894-1.071zm-1.788-2.414c-1.073 0-1.073-1.608 0-1.608 1.072 0 1.072 1.608 0 1.608zm-8.671 7.15c-.804 0-.804-1.25 0-1.25.804.089.804 1.25 0 1.25zm5.185-3.664l-.179-.178c-.268-.269-.09-.894.357-.805.09 0 .269 0 .358.09.894.089.179 1.608-.536.893zm-6.884-3.307c0 .09 0 .09 0 0-.268.625-.982.625-1.25.09v-.09c-.18-.447.268-.804.625-.804.447 0 .804.447.626.804zm-1.072 3.307c-.447 0-.447-.715 0-.715s.447.715 0 .715zm26.906-3.843s0-.089.09-.089c.089-.268.536-.268.625 0 0 0 0 .09.09.09.178.267 0 .714-.358.714-.447 0-.536-.447-.447-.715zm7.956-3.128c-.09.09-.09.179-.18.268a.272.272 0 01-.356 0c-.09-.089-.18-.089-.18-.268-.089-.268 0-.625.358-.625.358-.09.536.268.358.625zm-1.162 2.86c-.179 0-.179-.268 0-.268.178 0 .178.268 0 .268zm3.308.625v-.536a.626.626 0 011.25 0v.536a.626.626 0 01-1.25 0zm2.591-7.417c1.073.09 1.073 1.428.09 1.518h-.09c-.447.09-.804-.357-.804-.804 0-.357.357-.803.804-.714zm-15.107 6.702c-1.43 0-1.43-2.144 0-2.144s1.43 2.144 0 2.144zm.09 2.145s.09 0 0 0c.268.18.268.626 0 .805-.358.357-.983.09-.983-.447 0-.447.625-.715.983-.357zm7.33-.09c-.09-.446 0-.625.268-.892.179-.179.536-.179.715 0 .268.267.357.535.268.892-.09.625-1.162.625-1.25 0zm-1.252-4.11h-.178c-.268-.09-.268-.447 0-.447h.178c.447-.268.447.537 0 .447zm-11.531 6.256c-.625 0-.625-.983 0-.983.626 0 .626.983 0 .983zm1.43-3.664c-.804 0-.804-1.162 0-1.162.805 0 .805 1.162 0 1.162zm-5.363 1.518c-.894 0-.894-1.34 0-1.34s.894 1.34 0 1.34zm-3.754 5.005c-.09 0-.268.09-.358.09-.804 0-.804-1.161 0-1.25.179 0 .268 0 .358.089.536.089.536.893 0 1.071zm-5.542-5.45c-.09 0-.09-.09 0 0 0-.09 0 0 0 0zm-1.609 3.663c-.18.447-1.073.358-1.162-.178-.09-.536.09-.894.625-1.072.715-.268 1.162.804.537 1.25zm-6.615.179c-1.072 0-1.072-1.608 0-1.608s1.072 1.608 0 1.608z"/><path opacity=".68" d="M58.477 57.02c0 .357-.09.625-.358.893-.536.536-1.251.09-1.34-.536 0-.268.089-.536.178-.715.536-.625 1.609-.447 1.52.357zm-8.402 9.384c0-.09 0-.09 0 0 .089-.626.804-.626.893-.09v.09c0 .536-.894.536-.894 0zm7.329-.984c-.536 0-.536-.804 0-.804s.536.805 0 .805zm4.738-.537c-.894 0-.894-1.34 0-1.34.893 0 .893 1.34 0 1.34zm-4.291-2.056c-.983 0-.983-1.517 0-1.517s.983 1.517 0 1.517z"/></g><path d="M128.022 63.365s-3.665.179-7.956.804c-4.291.626-8.76 1.43-8.76 1.43l-20.113 3.843-14.391 3.039-15.196 3.396-13.23 2.592-2.056.447-1.609-1.251-3.218-.805s-2.235 1.43-2.235 2.592v2.681l2.593 2.056 2.681.447h1.162l22.348-5.452 22.079-4.915 19.218-3.665 17.789-3.038.894-4.2z" fill="#C37B51"/><path d="M127.217 64.706l-14.123 1.876-32.36 6.167s-13.497 2.77-15.91 3.396c-2.325.626-19.13 4.29-19.13 4.29s-1.162-1.34-2.503-1.787c-1.34-.358-2.592-.626-2.592-.626l.805-.536h2.77l2.414 1.072 6.168-.983 13.409-2.234 12.246-3.396 15.285-3.039 24.046-4.38 10.28-1.071-.805 1.25z" fill="#915B3A"/><path d="M46.141 78.916c-.357 1.34-.447 2.681-.447 4.022 0 .447 0 .983-.268 1.25-.447.626-1.43.358-2.145 0l-2.95-1.34c-.358-.178-.804-.357-.894-.804-.09-.358 0-.715 0-.983 0-.358-.179-.715-.268-1.162-.09-.894.805-1.609 1.52-2.145.357-.268.625-.447 1.072-.536.268 0 .537 0 .894.09.626.088 1.252 0 1.877.178.805.268 1.52.894 1.788 1.787l-.179-.357z" fill="#AC6D47"/><path opacity=".54" d="M109.518 67.476l-.983.983c.357-.268.983 0 .983.537-2.145 1.787-5.363 1.519-8.224 1.966-2.145.268-4.201 1.072-6.346 1.698-6.436 2.145-13.14 3.575-19.845 4.379.269-.179.537-.447.805-.626-.268.09-.537-.268-.537-.536-.089-1.43 1.61-2.145 2.95-2.502 6.079-1.34 12.068-2.681 18.146-4.022 4.38-.983 8.76-1.966 13.23-2.324l-.179.447z" fill="#D19977"/><path d="M96.914.357c5.185 3.397 10.548 6.346 16.001 9.206 2.771 1.43 5.542 3.038 8.581 4.111 1.43.536 2.95.894 4.559.983.715 0 1.341-.09 1.967-.09.446 0 2.055.09 2.413.358-1.52-1.34-2.86-1.34-4.738-1.52-1.877-.267-3.754-.714-5.452-1.34-2.771-1.072-5.453-2.502-8.135-3.843C107.105 5.63 102.188 2.86 97.272.18c-.358-.268-.537 0-.358.178z" fill="#965C2E"/><path d="M38.99 82.044c1.43 1.787 4.47 3.575 6.794 2.86.179-.09.268-.447 0-.447-1.073-.268-2.145-.268-3.129-.626-1.251-.447-2.235-1.25-3.218-2.145-.268-.268-.715.09-.447.358z" fill="#6E4E40"/><path d="M45.963 84.725c3.396-.357 6.793-1.52 10.1-2.324 3.308-.804 6.705-1.608 10.012-2.413 6.704-1.608 13.408-3.128 20.202-4.468 13.498-2.77 27.085-5.094 40.761-7.06.715-.09.447-1.252-.268-1.163a648.38 648.38 0 00-63.823 12.334c-2.95.715-5.9 1.43-8.76 2.234-2.772.715-5.81 1.34-8.403 2.592-.09 0 0 .268.179.268z" fill="#6B4327"/><path d="M41.314 77.664c.805 0 1.61-.09 2.414.09.626.178 1.251.625 1.877.625.179 0 .268-.179.179-.358-.447-.714-1.43-.893-2.145-.982-.805-.179-1.699-.179-2.414.09-.268.178-.09.535.09.535z" fill="#6E4E40"/><path d="M46.141 78.916c2.503-.09 5.096-.715 7.598-1.162 2.682-.447 5.453-.983 8.135-1.43 2.503-.447 5.006-.894 7.42-1.609 2.591-.715 5.094-1.519 7.687-2.145 10.547-2.413 21.274-4.2 31.911-6.077 6.079-1.072 12.157-2.234 18.236-3.038.536-.09.357-.894-.179-.805-13.677 1.877-27.174 4.826-40.761 7.329-3.308.625-6.705 1.162-10.012 1.877-3.307.715-6.436 1.876-9.743 2.591-3.308.715-6.615 1.251-10.012 1.877-3.397.626-7.062.983-10.369 2.145-.09.179-.09.447.09.447z" fill="#C37B51"/><path d="M45.605 81.329a6.6 6.6 0 000 1.877c0 .536-.09 1.072 0 1.608 0 .269.358.18.447 0 .09-.625-.09-1.25-.09-1.876 0-.537 0-1.073-.089-1.61-.179-.088-.268-.088-.268 0z" fill="#6E4E40"/><path d="M39.437 22.969c-.268.625-.625 1.162-.804 1.787a5.196 5.196 0 00-.18 2.056c0 .625.09 1.25.448 1.787.268.536.715 1.073.804 1.698.18 1.162.18 2.324.09 3.486-.09 1.966-.268 3.843-.09 5.809.269 2.413.894 4.826 1.162 7.328.358 2.95-.536 5.72-.715 8.67a77.53 77.53 0 000 9.116c.09 1.072-.09 4.915 1.52 5.094v-.804h-1.34c-.27 0-.358.178-.448.357-.179 1.162-.179 2.324-.09 3.486.18 1.25 1.163 2.949.716 4.021-.358.983-.626.715-1.341 1.34-.179.18-.268.269-.357.537-.358.715 0 1.609.089 2.413 0 .536.804.536.804 0 0-.447-.178-.894-.178-1.251.089-1.34.447-1.162 1.162-1.609.536-.268 1.072-.625 1.162-1.251.09-.894-.715-2.145-.894-2.95-.447-1.519-.447-3.127-.179-4.647-.179.09-.268.269-.447.358h1.34c.537 0 .537-.715 0-.804-.446-.09-.625-2.771-.625-3.04-.179-1.697-.179-3.395-.179-5.093 0-2.682-.178-5.63.447-8.223.537-2.234.626-4.29.269-6.613-.358-2.77-1.163-5.541-1.252-8.401-.09-2.235.447-4.469.268-6.703-.09-.805-.268-1.609-.715-2.324-.536-.894-.715-1.609-.804-2.592-.18-1.072 0-2.055.357-3.038z" fill="#7A3E31"/><path d="M127.396 64.438v-.894c.268-.09.447-.179.626-.268.357.715.536 1.698.446 2.413-.089.804-.357 1.698-.983 2.323-.089.09-.268.18-.357.18v-.09c-.09 0-.09.09-.179.09-.179 0-.358 0-.536-.18.715-1.072.983-2.323.983-3.575z" fill="#935D3C"/><path d="M126.413 26.365c.089 0 .089-.09.178-.09v.358c0-.09-.089-.179-.178-.268zm.178-.179h.358c-.09 0-.268.09-.358.09v-.09zm-84.919 48.44c.894.894 3.486 1.43 4.738 1.877.089 0 .178.09.268.09 1.966.535 5.631-.895 7.598-1.252 2.681-.536 5.274-.983 7.955-1.609 2.503-.625 21.811-4.647 28.068-5.988 5.274-1.162 27.979-5.63 35.309-7.06 0-.09-.089-.179-.089-.268.536-.268 1.072-.626 1.34-1.162.09-.268.09-.447.09-.715.089-1.251.089-2.503.179-3.754 0-.357-.09-.804-.358-.804.983-1.251 1.252-3.128.715-4.647.09-.18.179-.358.358-.626a.85.85 0 00-.894-.358l.089.269c-.179-.269-.447-.358-.715-.269l3.486-1.608c.358.983.179 2.145.09 3.217-.358 2.413-.715 4.916-1.073 7.329-.179 1.25 0 5.005-1.251 5.72-.269.178-.537.178-.805.178-1.966.268-4.022.626-5.989.805-3.307.536-6.525 1.072-9.833 1.608l-18.146 3.486-18.95 3.754-5.274 1.876-6.615 1.34-11.62 1.788c-1.252.358-3.308 1.162-4.47.447-.536-.357-.983-1.072-1.609-1.162-.357-.089-.715.09-.983.09-.626 0-1.43 0-1.698-.715-.09-.358-.18-.715-.18-1.073-.089-1.072-.357-2.145-.714-3.128 0 .983.357 1.788.983 2.324z" fill="#F6D39B"/><path d="M130.614 17.517c.089.179.089.268.179.447.357 1.072.357 2.234.268 3.396-6.436-3.307-11.531-1.52-18.236-.268-6.614 1.251-13.14 2.502-19.755 3.843-11.441 2.145-22.883 4.469-34.414 6.345-2.056.358-6.436.09-8.135 1.073-2.145 1.251-2.413 5.273-2.592 7.507v-5.184c0-.536 0-1.161-.357-1.608-1.073-1.52-5.721.715-6.794-1.251 0 0-1.52-2.95-.536-5.363.983-2.502 77.589-12.78 77.589-12.78 3.933-.715 10.816-.536 12.783 3.843z" fill="#D19977"/><path d="M91.55 1.251L96.736.09l8.761 5.005 12.246 6.614 8.402 2.413-3.843 1.34-25.655 6.257-24.224 4.379c-10.28 1.787-20.65 3.396-31.108 3.664-.357 0-.625 0-.894-.179-.178-.178-.357-.357-.447-.625-.625-1.073-.983-2.324-.983-3.486.268-4.915 5.721-6.345 9.386-7.865 4.916-2.055 9.744-4.2 14.481-6.524C66.433 9.384 70.366 8.58 74.12 7.24c5.72-1.877 11.62-3.932 17.43-5.988z" fill="#8C2F1E"/><path d="M60.98 28.063c-1.967.357-3.933.715-5.81 1.162-4.38 1.072-10.37 1.251-14.839.893 4.47-1.43 9.922-1.072 14.66-1.787 4.112-.626 8.224-.983 12.335-1.609 2.772-.447 5.632-.804 8.403-1.25 5.81-.895 11.531-2.056 17.252-3.308 11.71-2.502 23.331-5.63 34.951-8.4.358-.09.447.446.09.536-6.615 1.698-13.23 3.306-19.845 4.915-11.263 2.77-22.705 5.452-34.236 7.06-4.29.537-8.67 1.073-12.961 1.788z" fill="#965C2E"/><path d="M98.076 19.393c.09-.358.09-.804 0-1.34-.178-.358-.357-.626-.447-.984l.268.09c-.625-2.324-2.145-5.095-2.592-6.703-.894-3.039-2.503-5.81-3.397-8.848-.089-.179.18-.268.269-.09 1.787 3.218 3.396 6.703 5.005 10.01.984 2.145 2.146 4.022 3.308 5.988.179.358.357.626.625.894l1.52.625c-.089 0-.179.09-.179.09.537.09 1.073.09 1.52.357-1.788.537-2.95 1.073-3.844.805-.179.09-.268.09-.447.178-1.072.358-2.234.358-3.307-.089.626.447 1.52-.179 1.698-.983zM67.416 9.116c2.145-.536 4.559-.626 6.347-1.251-.894.268-1.788.625-2.593 1.251-2.324 1.877-.179 4.2 1.073 6.077.447.626 2.682 4.29 4.648 6.971l3.754 2.413c.09.18-.178.268-.268.268-.357.09-.715.09-.983.18.268.178.447.267.536.178 1.61-.715 2.324-.983 2.503-3.128.179-2.592-.983-5.72-1.52-8.222-.446-2.235-1.34-5.273-.536-7.597a.661.661 0 01.358-.804c.09-.09.179-.268.268-.358.358-.447.983-.357 1.162.09 5.274 4.736 9.118 10.814 14.392 15.55.089.09 0 .18-.09.09-2.592-2.235-4.648-4.826-6.883-7.418-1.609-1.877-3.307-3.575-5.005-5.184.447.715.804 1.43 1.162 1.877 2.681 3.843 5.542 7.865 7.866 11.976.09.09-.09.268-.179.179-2.235-2.413-4.022-5.273-6.078-7.776-.805-.983-1.61-2.055-2.414-3.038-.536-.715-1.788-2.86-2.86-3.933-.358 4.469 1.251 8.938 1.34 13.406 0 1.251.269 3.218-.715 4.29-.625.715-2.324.358-2.95.536-.178 0-.268-.178-.089-.268 0 0 .09 0 .09-.09-.09-.089-.269-.178-.358-.357-1.877.268-3.754.626-5.72.894.446-.536 1.34-.626 1.966-.983.625-.358 1.162-.983 1.162-1.787 0-.269-.09-.537-.18-.894-.267-.268-.535-.626-.804-.894l.537.358c-.984-1.699-3.129-3.843-3.933-4.916-2.324-3.396-3.665-5.72-8.135-6.256.805-.715 1.877-1.162 3.129-1.43zm-6.257 13.227c-.715-2.592-1.52-5.094-2.146-7.775 0-.09.09-.09.09 0 1.162 3.038 2.592 10.993 6.525 12.065-.626-2.502-.983-5.184-1.073-7.865.805 2.324 1.43 4.737 2.056 7.15.09.268.09.536-.089.715-1.162 1.34-6.794 1.162-8.492 1.43.983-.179 1.967-.447 2.682-1.072 1.609-1.252.894-3.04.447-4.648zm-17.52-2.592c.268-.09.446-.178.715-.268.894 1.073 1.787 2.235 2.77 3.307 1.699 1.877 3.308 3.754 4.649 5.899 0 .089 0 .089-.09.089-2.234-1.52-4.022-3.396-5.9-5.362-.983-1.073-2.055-2.145-3.038-3.307.357-.09.625-.179.894-.358zm56.583-12.065c2.592 1.698 5.363 3.128 8.134 4.558 2.503 1.251 5.006 1.609 7.598 2.502.536.18 1.073.358 1.52.715.447.358.804.894.715 1.43-1.341.715-3.039.715-4.559.18-2.324-.805-3.576-2.414-5.453-3.844-2.592-1.877-5.452-3.485-8.045-5.273-.178-.179-.089-.357.09-.268z" fill="#5D1803"/><path d="M98.88 19.037c.09-.358.09-.805 0-1.341-.178-.358-.357-.626-.446-.983l.268.09c-.626-2.325-2.145-5.095-2.592-6.704-.894-3.038-2.503-5.809-3.397-8.848-.09-.178.179-.268.268-.089 1.788 3.217 3.397 6.703 5.006 10.01.983 2.145 2.145 4.021 3.307 5.988.179.357.358.625.626.893l1.52.626c-.09 0-.179.09-.179.09.536.089 1.072.089 1.519.357-1.787.536-2.949 1.072-3.843.804-.179.09-.268.09-.447.179-1.073.357-2.235.357-3.308-.09.715.448 1.61-.178 1.699-.982zM68.22 8.758c2.146-.536 4.56-.625 6.347-1.25-.894.267-1.788.625-2.592 1.25-2.324 1.877-.18 4.201 1.072 6.078.447.625 2.682 4.29 4.649 6.97l3.754 2.414c.09.179-.179.268-.268.268-.358.09-.715.09-.984.179.269.178.447.268.537.178 1.609-.714 2.324-.983 2.503-3.127.178-2.592-.984-5.72-1.52-8.223-.447-2.234-1.43-5.273-.536-7.596a.661.661 0 01.357-.805c.09-.09.18-.268.269-.357.357-.447.983-.358 1.161.09 5.275 4.736 9.118 10.813 14.392 15.55.09.09 0 .179-.09.09-2.591-2.235-4.647-4.827-6.882-7.419-1.61-1.877-3.308-3.575-5.006-5.183.447.715.805 1.43 1.162 1.877 2.682 3.843 5.542 7.864 7.866 11.976.09.089-.09.268-.178.178-2.235-2.413-4.023-5.273-6.079-7.775-.804-.983-1.609-2.056-2.413-3.039-.537-.715-1.788-2.86-2.86-3.932-.358 4.468 1.25 8.937 1.34 13.406 0 1.25.268 3.217-.715 4.29-.626.715-2.324.357-2.95.536-.179 0-.268-.179-.09-.268 0 0 .09 0 .09-.09-.09-.09-.268-.178-.358-.357-1.877.268-3.754.625-5.72.893.447-.536 1.34-.625 1.966-.983.626-.357 1.162-.983 1.162-1.787 0-.268-.09-.536-.179-.894-.268-.268-.536-.625-.804-.893l.536.357c-.983-1.698-3.128-3.843-3.933-4.915-2.324-3.397-3.665-5.72-8.134-6.257.804-.715 1.966-1.161 3.128-1.43zm-6.167 13.228c-.715-2.592-1.52-5.095-2.146-7.776 0-.09.09-.09.09 0 1.162 3.039 2.592 10.993 6.525 12.065a38.74 38.74 0 01-1.073-7.864c.805 2.323 1.43 4.736 2.056 7.15.09.268.09.536-.09.714-1.161 1.341-6.793 1.162-8.491 1.43.983-.178 1.967-.446 2.682-1.072 1.52-1.251.893-3.039.447-4.647zm-17.61-2.503c.268-.09.447-.179.715-.268.894 1.073 1.788 2.234 2.771 3.307 1.698 1.877 3.307 3.754 4.648 5.898 0 .09 0 .09-.089.09-2.235-1.52-4.023-3.396-5.9-5.363-.983-1.072-2.056-2.144-3.039-3.306.358-.18.626-.268.894-.358zm56.672-12.155c2.593 1.698 5.364 3.128 8.135 4.558 2.503 1.252 5.006 1.61 7.598 2.503.536.179 1.073.357 1.52.715.446.357.804.894.715 1.43-1.341.715-3.04.715-4.559.178-2.324-.804-3.576-2.412-5.453-3.842-2.592-1.877-5.453-3.486-8.045-5.273-.179-.09-.089-.358.089-.269z" fill="#FAF180"/><path d="M84.579 4.38l4.38-.984 7.508 4.29 10.548 5.72 7.151 2.055-3.307 1.162-21.99 5.363-20.738 3.753c-8.85 1.52-17.699 2.95-26.638 3.128-.268 0-.536 0-.804-.178-.18-.09-.269-.269-.447-.537-.537-.893-.894-1.966-.805-3.038.268-4.2 4.917-5.452 8.045-6.793 4.202-1.787 8.313-3.575 12.425-5.54 3.04-1.43 6.436-2.146 9.654-3.308A495.25 495.25 0 0084.58 4.38z" fill="url(#paint0_radial)"/><path d="M125.965 14.568c-.447-.09-.983-.447-1.34.089v.268c.357.536.893.09 1.34.09.179-.18.179-.447 0-.447zm-5.899.715c-.715-.09-1.341.09-2.056.268-.715.09-1.43.09-1.967.625-.357.358-.178.805.269.984.625.268 1.34-.09 1.966-.269.626-.178 1.43-.268 1.967-.625.268-.179.357-.894-.179-.983zm-6.436 2.144c-.626 0-1.252-.089-1.788 0-.447.09-.983.09-1.251.358-.09.09-.09.268.089.268.447.09.805-.09 1.252-.178.625-.09 1.162-.269 1.787-.269 0 0 0-.179-.089-.179zm-7.866 1.788c-7.33 1.966-14.928 2.234-22.258 4.29-.715.179-.358 1.251.268 1.072 7.42-1.877 15.017-1.966 21.99-5.362.089 0 .089 0 0 0zm-23.778 4.826c-.625-.357-1.609-.268-2.324-.179-1.162.09-.983 1.788.179 1.61.715-.09 1.609-.358 2.145-.805.268-.179.18-.537 0-.626zm-6.973 1.072c-.625-.089-1.519-.446-2.055-.089-.179.09-.179.268 0 .358.626.446 1.43.089 2.055-.09.09.09.09-.09 0-.179zm-3.485-.089c-3.755 2.056-9.833 2.235-13.856 2.592-3.843.358-7.687.09-11.53.715-.984.179-.626 1.609.267 1.698 4.38.358 8.85-.625 13.23-1.251 4.38-.626 8.224-1.34 12.246-2.95.447-.267.09-.982-.357-.804zm-28.605 3.843l-1.072-.268c-.358-.09-.715-.268-1.073-.179-.447.09-.626.626-.358.983.269.447.716.537 1.252.626.447.09.804 0 1.34-.09.448-.178.448-.982-.089-1.072z" fill="#fff"/><path d="M48.823 32.62c-.09 2.235-.715 5.363-.179 7.508.537 1.966 2.235 1.698 4.202 1.251-.716.18-1.43.358-2.235.447-.536.09-1.162.268-1.61.626-1.608 1.34-2.055 8.222.716 8.312-.894 0-2.056.536-1.61 1.608.448 1.251 2.325.626 3.308.536 2.86-.178 5.721-.446 8.582-.625-4.023.983-8.492-.09-12.068 1.966.536 2.77-.983 5.72.179 8.49.268-.446.894-.446 1.43-.357 3.665.268 7.24-.358 10.816-1.072-3.933 1.072-7.777 2.055-11.71 3.127-.268.09-.625.18-.804.447-.715.984-.537 3.933-.268 5.005.625 2.413 3.664 1.073 5.81.805-1.61.625-3.218.983-4.916.983-.18 0-.447 0-.626.089-.984.536-.984 5.541-1.162 6.703-1.61-1.072-3.665-1.43-5.542-1.072-.269-2.145-.626-4.29-.894-6.435-.09-.358-.09-.805.09-1.162.178-.358.535-.536.714-.894.268-.447.179-1.072.09-1.609-.805-4.11-1.073-8.311-.537-12.422.268-1.877.626-3.754.805-5.63.447-5.989-2.056-12.155-.447-18.054 1.966 1.966 5.542-.179 8.134.715.179.357 0 .804-.268.715z" fill="#F1BF6F"/><path d="M128.915 42.362s-46.392 7.597-56.94 9.295a1162.006 1162.006 0 01-21.454 3.396l61.857-8.49s21.811-.894 16.537-4.2zm0-12.154s-46.392 7.597-56.94 9.295C61.427 41.29 50.52 42.899 50.52 42.899l61.857-8.49s21.811-.805 16.537-4.201z" fill="#F9E3C0"/><path d="M128.915 29.135s-46.392 7.597-56.94 9.295a1162.006 1162.006 0 01-21.454 3.396l61.857-8.49s21.811-.894 16.537-4.2zm0 11.619s-46.392 7.596-56.94 9.295c-10.548 1.787-21.454 3.396-21.454 3.396l61.857-8.49s21.811-.894 16.537-4.201z" fill="#F1BF6F"/><path d="M128.379 51.3s-46.035 7.596-56.583 9.294c-10.459 1.788-21.275 3.397-21.275 3.397l61.411-8.49s21.721-.895 16.447-4.201z" fill="#F9E3C0"/><path d="M128.915 50.406s-46.392 7.597-56.94 9.295c-10.548 1.787-21.454 3.396-21.454 3.396l61.857-8.49s21.811-.894 16.537-4.2z" fill="#F1BF6F"/><path opacity=".48" d="M116.937 17.428c1.609-.268 3.397.178 4.738 1.072-1.341.804-2.95 1.34-4.559 1.609 2.145 0 4.38.178 6.436.715.268.09.626.178.805.357.268.268.357.715.447 1.162.178 1.877.357 3.664.536 5.541 0 .358.089.805-.179 1.073-.179.268-.536.357-.804.447a50.807 50.807 0 00-3.397 1.161c1.788.18 3.665.447 5.453.626v7.15c0 .357 0 .715-.179 1.072-.268.447-.715.626-1.073.805-2.324.983-4.559 2.055-6.883 3.038 2.324.536 4.827.626 7.151.358-.268 2.413-.536 4.736-.804 7.15a29.342 29.342 0 00-5.453 1.608c1.43.358 2.771.715 4.201 1.162 0 2.056-.089 4.111-.357 6.167-.09.536-.179.983-.447 1.43-.268.357-.805.625-1.252.804a172.078 172.078 0 00-5.81 2.77c3.218.984 6.615.269 9.922-.536.358-.089.715-.178.984-.446.268-.269.357-.626.446-.983 2.682-10.547 4.023-21.36 4.112-32.175 0-5.273-.357-10.814-3.128-15.372-.268-.447-.537-.893-1.073-1.072-.626-.268-1.251 0-1.877.179-2.95.983-5.9 1.966-8.76 2.949l.804.179z" fill="#F1BF6F"/><path d="M129.631 36.017c.268-6.971.625-14.389-3.665-20.288-.447-.625-.626-1.608 0-1.966.357-.178.715-.178 1.162-.09 1.072.18 2.234.448 3.128 1.073 2.414 1.877 1.609 8.044 1.609 10.725.09 4.29 0 8.58-.357 12.87-.626 8.49-2.771 16.444-4.291 24.756 1.698-8.937 2.056-18.053 2.414-27.08z" fill="#A76A45"/><path opacity=".16" d="M101.294 21.27S87.26 30.388 80.377 43.615c-6.883 13.138-12.782 31.28-12.782 31.28l-20.202 4.647-6.883-2.591-.268-5.899s1.877-.894.894-3.664c-1.073-2.77-1.341-8.49-.626-13.227.804-4.826.894-8.223.357-11.082-.536-2.771-.893-5.988-.715-8.58.18-2.592-.447-5.899-.447-5.899l61.589-7.328z" fill="#A76A45"/><path d="M46.946 76.056c.09-.805.09-1.698.179-2.503.089-.804.536-1.43.268-2.234-.09-.179-.358-.357-.537-.179-.536.715-.357 1.341-.447 2.235 0 .893 0 1.876.269 2.77.09.179.268.09.268-.09zm9.833-5.541c.089 0 .089-.09 0 0-.09-.09-.09 0 0 0zm-3.845.804c-.178-.268-.447-.626-.804-.715-.447-.09-.983.09-1.072.625-.09.447.178.715.625.715.179 0 .447-.09.626-.18.09 0 .09 0 .09-.088.088-.09.088-.09 0 0 .088 0 .088-.09.178 0 .179.089.447-.179.357-.358z" fill="#FDFCE8"/><path d="M47.84 71.23c-.18 0-.358-.09-.626-.09-.715 0-.715 1.073 0 1.073.179 0 .357 0 .625-.09.537 0 .537-.804 0-.893zm5.542-8.044h-.268c-.09 0-.09.179 0 .179h.268c.09.09.09-.179 0-.179zm-2.861-.357c-.894 0-1.966 0-2.86.268-.358.09-.179.715.179.626.447-.09.804-.268 1.251-.358.447-.09.983-.09 1.43-.09.18-.089.18-.446 0-.446zm-1.877-8.937c-.358.178-.626.357-.983.536-.179.09 0 .357.179.268.268-.268.625-.447.893-.715.09 0 0-.179-.09-.09zm-.714 5.719c0-.268.178-.536.267-.804.09-.268.09-.447.09-.715 0-.626 0-1.072-.18-1.698-.088-.358-.625-.358-.714 0-.179.536-.179 1.072-.179 1.698 0 .268 0 .536.09.715.089.268.268.536.268.804 0 .269.357.269.357 0zm-.269-6.256c.179-.983.536-1.877.536-2.86 0-.893.18-1.787-.268-2.591-.09-.18-.357-.18-.447.089-.268.804-.09 1.698-.09 2.502 0 .983.18 1.877.09 2.86 0 .09.179.09.179 0zm.268-6.345v-.268c0-.179-.357-.179-.357 0v.268c-.09.447.446.447.357 0zm.626-1.877c-.447-1.162.536-1.609 1.162-2.413.447-.536.09-1.34-.715-1.162-1.699.358-1.699 2.681-1.162 3.933.178.268.804 0 .715-.358zm.268-6.793c-.268-1.519.09-3.306.447-4.825.268-.805-1.073-1.162-1.252-.358-.446 1.877-.178 3.396.447 5.184.18.268.358.178.358 0zm80.539-8.043c-.447 2.145-.536 4.29-.715 6.524-.268 2.503-.804 5.005-.625 7.508 0 .447.625.536.804.09 1.341-4.023 1.43-10.01.715-14.122 0-.09-.179-.09-.179 0zM71.885 9.473c-.358-.089-.626-.178-1.073-.089-.446.09-.715.447-.804.893-.357.983 1.162 1.52 1.609.715 0-.09.178-.447.268-.447.536-.089.447-.893 0-1.072z" fill="#FDFCE8"/><path opacity=".34" d="M115.596 17.874c6.258.537-1.251 14.747-2.681 17.25-2.146 3.842-3.576 7.507-4.917 11.618-2.324 6.97-4.111 14.031-7.061 20.734-.537 1.251-1.252 2.503-2.324 3.396-1.43 1.073-3.397 1.162-5.185 1.252-5.006.357-9.922 1.34-14.66 3.038-.447-.625-.178-1.43 0-2.145 3.933-11.976 10.727-22.7 17.431-33.336 4.648-7.328 9.386-14.835 16.09-20.377.894-.715 2.056-1.519 3.307-1.43z" fill="#F9EBB1"/><defs><radialGradient id="paint0_radial" cx="0" cy="0" r="1" gradientUnits="userSpaceOnUse" gradientTransform="matrix(-78.0353 0 0 -78.021 31.323 29.007)"><stop stop-color="#fff"/><stop offset=".157" stop-color="#C2C2C2"/><stop offset=".325" stop-color="#878787"/><stop offset=".487" stop-color="#575757"/><stop offset=".64" stop-color="#313131"/><stop offset=".78" stop-color="#161616"/><stop offset=".905" stop-color="#060606"/><stop offset="1"/></radialGradient></defs></svg>