<svg width="132" height="97" fill="none" xmlns="http://www.w3.org/2000/svg"><path d="M32.001 65.661s1.21-4.092 6.145-5.3c4.935-1.21 8.567.65 8.567.65s2.048.28 4.283 3.348c2.234 3.069-1.21 7.812-1.21 7.812s-1.211 1.302-4.563 2.232c-3.352.93-6.518-.186-6.518-.186s.559-2.883-.465-4.929c-1.025-1.953-3.073-3.069-6.239-3.627z" fill="#E71C23"/><path d="M27.346 66.312s3.352-1.023 6.983.093c3.631 1.116 4.47 4.929 4.47 4.929s.279 2.325-1.398 4.37c-1.675 2.047-4.748 2.512-4.748 2.512l-2.793.093s.93-1.488-.28-2.79-2.7-1.953-2.7-1.953l-2.98-.28s-.465-1.86-.093-3.533c.373-1.767 2.608-3.07 3.539-3.441z" fill="#FEE53D"/><path d="M33.77 62.592s-2.514-1.023-5.4-.651c-2.887.372-3.632 1.023-3.632 1.023s-1.769.744-2.607 2.232c-.838 1.488-.279 2.79-.279 2.79l.652 1.674 1.024.837s.373-2.232 2.235-3.441c1.862-1.21 3.817-1.21 3.817-1.21l2.421-.185s.745-2.325 1.77-3.07z" fill="#69BD45"/><path d="M51.368 69.288s2.793.744 3.538 1.488c.745.65 1.304 1.953 1.304 1.953s.28 1.116-.466 2.046a4.682 4.682 0 01-1.862 1.116s-2.42.372-4.47-.651c-2.048-1.023-1.675-1.581-1.675-1.581s3.072-1.674 3.631-4.371z" fill="#B14725"/><path d="M22.038 73.659s1.863-.837 4.377-.186c2.514.65 3.258 2.046 3.258 2.046s1.21 1.58-.093 3.162c-1.303 1.674-3.352 1.86-3.352 1.86s-2.42.279-4.655-.651c-2.235-.93-2.142-2.511-2.235-2.697 0-.186 0-2.79 2.7-3.534z" fill="#3AC5F3"/><path d="M48.295 81.284s1.49.651 2.235 1.767c.652 1.023-.186 2.605-.186 2.605s-1.583 1.301-4.376 1.766c-2.794.465-5.68-.65-5.68-.65s-1.955-.651-2.607-2.605c-.652-1.86 1.862-3.162 1.862-3.162s4.097-1.208 8.752.28z" fill="#ED3895"/><path d="M10.493 67.52s1.955.187 3.072 1.675 0 3.162 0 3.162-1.49 1.488-4.376 2.046c-2.793.558-4.562-.093-4.562-.093s-1.583-.651-2.421-1.21c-.838-.557-1.118-1.58-.931-2.975.186-1.488 2.793-2.604 2.793-2.604s4.47-.651 6.425 0z" fill="#F26325"/><path d="M50.81 64.452c.186.279-.187 1.488-.28 1.767-.372 1.58-1.769 3.069-3.166 3.906-1.303.837-2.793 1.209-4.376 1.302-.465 0-4.004-.372-4.097-.744 0 0 .187 1.302.093 2.139-.186.744-.186 1.209-.186 1.209s3.725 1.395 7.45.093c3.724-1.302 4.655-3.534 4.655-3.534s1.676-4.092-.093-6.138z" fill="#B9171C"/><path d="M45.968 70.869h-.187a10.961 10.961 0 01-5.214-.186c-.558-.186-1.21-.28-1.49.093-.279.372-.186.93-.093 1.395.093.372.093.837 0 1.302 0 .279-.186.558 0 .837.093.093.187.186.373.186 2.607.65 5.4.279 7.821-.837.745-.372 1.49-.837 2.235-1.395.559-.465.652-.93.652-1.674 0-.28 0-.651-.28-.837-.279-.28-.745-.093-1.21 0-.838.279-1.676.837-2.607 1.116z" fill="url(#paint0_radial)"/><path d="M45.41 70.869c.465.558 1.023 1.116 1.675 1.395.652.279 1.49.279 2.142-.186.465-.372.838-.651 1.117-1.21a9.464 9.464 0 001.117-3.812c.093-.651 0-1.302-.093-1.86-.28-1.023-1.024-1.86-1.862-2.604-1.77-1.395-3.91-2.232-6.145-2.51-1.118-.187-2.235-.187-3.352-.094-1.21.093-2.421.186-3.539.744-.186.093-.465.28-.558.465-.093.186-.186.465 0 .744.186.186.465.28.745.28 1.49.278 2.886 1.115 4.003 2.045 1.118 1.023 2.049 2.232 2.98 3.441.652 1.116 1.117 2.232 1.77 3.162z" fill="url(#paint1_radial)"/><path d="M49.227 67.614c0-.372 0-.651.186-1.023.093-.186.28-.372.559-.372.186 0 .279.186.279.372a1.714 1.714 0 01-.466 1.488c-.838 1.023-1.862 1.953-3.072 2.51.279-.278.651-.371.93-.65l.652-.651c.187-.28.466-.465.652-.744.28-.28.28-.558.28-.93z" fill="#fff"/><path d="M55.465 71.706c.466 1.023-.28 2.232-1.21 2.604-1.025.465-2.142.279-3.166-.093-.373-.093-.652-.28-.931-.465-.373-.28-.745-.558-1.118-.744-.372-.186-1.024-.093-1.21.279-.186.279 0 .744.186.93.28.279.559.372.931.558 1.304.465 2.607.93 4.004.837.652-.093 1.304-.186 1.862-.465.28-.093.559-.28.745-.465.466-.465.652-1.116.559-1.767-.093-.651-.466-1.21-.931-1.674.186.186.279.372.279.465-.093.093-.186.093-.28.093l.28-.093z" fill="#DF6B3C"/><path d="M51.368 69.567h.373c1.676.093 3.165.93 4.003 2.418.28.465.466 1.023.373 1.488-.093.465-.466.93-.745 1.302-.373.372-.931.744-1.397.558-.558-.28-.558-1.023-.651-1.581-.28-1.116-1.304-1.953-1.956-2.976-.186-.28-.465-.837-.093-1.21 0 .094.093 0 .093 0z" fill="url(#paint2_radial)"/><path d="M54.906 73.659c0 .279-.186.837-.558.837-.466 0-.373-.372-.093-.651.186-.186.465-.28.651-.186z" fill="#fff"/><path d="M37.215 69.753c.187.465.28.93.28 1.395 0 .465-.093.837-.28 1.209-.558 1.302-1.676 2.232-2.98 2.79-.744.372-1.582.558-2.327.65-.559.094-1.303-.092-1.862 0 .186.373.372.745.372 1.21-.093.372-.186.744-.465 1.116.558.279 1.117.093 1.583.093.651 0 1.21-.093 1.862-.28.652-.185 1.21-.371 1.769-.557.372-.186.745-.372 1.117-.651.28-.186.466-.372.745-.558.559-.465 1.117-.93 1.397-1.581.186-.465.465-.93.558-1.488.56-2.325-1.117-4.557-2.98-5.673-1.023-.558-2.047-.93-3.165-1.302 1.676.558 3.725 1.767 4.376 3.627z" fill="#FDEFB1"/><path opacity=".47" d="M23.714 72.45c-.186-1.023.093-2.511.373-3.07.558-1.208 1.583-2.231 2.886-2.603.093 0 .186 0 .28.093-.28.372-.652.558-.838 1.023-.28.465-.28 1.023-.28 1.488.093 1.023.559 2.046 1.024 2.883.466.744.931 1.488 1.583 2.139-.652-.465-1.396-.837-2.141-1.023-.745-.186-1.583 0-2.235-.186-.372 0-.559-.28-.652-.744z" fill="#F29D3C"/><path d="M38.705 71.985c-.093 1.488-1.117 2.697-2.607 2.883-1.49.279-2.42-.558-3.724-.93-1.397-.465-2.887-.651-4.377-.837-.93-.093-1.862-.28-2.42-.93-.373-.558-.466-1.395-.373-2.046.28-1.395 1.304-2.511 2.514-3.162 2.328-1.21 5.4-.93 7.728.279 1.77.93 3.352 2.697 3.26 4.743z" fill="url(#paint3_radial)"/><path d="M33.49 62.499c.466-.651-3.072-.651-4.84-.465-1.77.186-3.54.65-4.563 1.302-1.583 1.116-2.607 2.604-2.235 4.65.186 1.023.745 2.046 1.49 2.79-.373-.651-.652-1.395-.745-2.14-.093-.743.186-1.58.745-1.952.93-.744 2.7-.651 3.817-.651.745 0 1.583-.093 2.328-.093l2.421-.093c.093 0 .745-2.14 1.583-3.348z" fill="url(#paint4_radial)"/><path d="M28.65 74.589a2.827 2.827 0 01-.653-.465c.652.65 1.77 2.139 1.676 3.069-.093 1.209-1.49 1.767-2.514 2.046-1.303.372-2.793.372-4.19.093-2.42-.465-3.259-1.953-3.445-2.697-.093-.651.093-.93.093-.93s-.838 1.674.745 3.255c1.583 1.58 3.818 1.674 3.818 1.674s2.886.093 4.655-1.116c1.77-1.302 1.304-3.255 1.304-3.255-.186-.372-.466-.744-.745-1.116a1.447 1.447 0 00-.745-.558z" fill="#A6DDF7"/><path opacity=".51" d="M22.97 76.077c0 .93.651 1.767 1.396 2.418.466.371.931.65 1.21 1.022.187.28.373.745 0 1.023-.093.093-.186.093-.372.093-.931.094-1.955 0-2.886-.278-1.025-.373-2.049-1.023-2.608-1.954-.558-.93-.558-2.231.094-3.068.372-.558 1.024-.93 1.676-1.21.372-.185.838-.464 1.21-.557.372-.093.838-.28 1.304-.28.186 0 .372.094.372.28 0 .093-.093.093-.093.186-.838.558-1.304 1.209-1.304 2.325z" fill="#0094D5"/><path d="M21.759 75.426c.372.372.931.558 1.49.65.745.187 1.676.466 2.234 1.024.466.465.838.93 1.49 1.209.559.279 1.117.372 1.676.186a1.678 1.678 0 001.117-1.116c.187-.465.094-1.116-.186-1.581-.186-.186-.372-.465-.558-.651-1.49-1.395-3.818-2.232-5.866-1.953-.745.279-2.328 1.023-1.397 2.232z" fill="url(#paint5_radial)"/><path opacity=".54" d="M48.575 81.656c.093 0 .931 1.023 1.024 1.116.373.558.466 1.395.093 2.14-1.024 2.231-5.4 1.86-7.263 1.487-2.514-.465-4.19-1.395-4.19-1.395s1.49 2.14 4.75 2.233c3.258.093 4.282.093 4.282.093s2.794-.837 3.26-2.14c.465-1.302-.094-2.603-.094-2.603s-1.21-1.21-1.862-.93z" fill="#F5AAA1"/><path opacity=".5" d="M42.895 83.703c1.21 1.487 4.097 1.487 4.47 2.046.279.65.558 1.394-.745 1.673-1.304.186-4.19 0-5.215-.279-1.024-.279-2.886-1.674-2.886-1.674-.652-.465-.931-1.487-.838-2.231.372-1.395 2.048-2.233 3.259-2.511 1.024-.28 2.141-.28 3.259-.187-.559.28-1.118.651-1.583 1.21-.373.465-.093 1.487.28 1.953z" fill="#A11F66"/><path d="M42.15 80.634c-.465.279-.372 1.116 0 1.487.466.373 1.024.466 1.583.651 1.21.28 2.421.651 3.259 1.488.372.372.652.837 1.117 1.21.373.371.931.65 1.49.558 1.862-.187 1.397-2.884.373-3.814-.56-.557-1.397-.836-2.142-1.022-1.49-.465-3.166-.651-4.749-.744-.372.093-.652.093-.93.186-.187.093-.373.372-.373.65l.372-.65z" fill="url(#paint6_radial)"/><path opacity=".41" d="M12.355 68.358c.28 0 .745 1.302.745 1.488.651 2.697-3.818 3.627-5.68 3.627-1.49 0-6.704-.93-5.96-3.534 0 0-.651 2.232 2.05 3.72 2.7 1.395 5.772.65 5.772.65s3.631-1.022 4.47-2.324c.837-1.302.186-3.255-1.397-3.627z" fill="#FCB11F"/><path opacity=".36" d="M7.7 67.149s-3.54 3.161-1.026 4.185c2.42.93 5.028 1.86 4.004 2.604s-4.004.93-5.587.558c-1.583-.465-2.98-1.674-2.98-1.674S.344 70.776 1.74 69.38c1.397-1.395 2.514-2.14 5.96-2.232z" fill="#ED1C24"/><path d="M11.796 67.986c.745.093 1.49.65 1.862 1.395.373.744.373 1.58.187 2.325-.094.465-.373.93-.838 1.116-.56.186-1.118 0-1.583-.372-.466-.372-.745-.837-1.118-1.21-.745-.65-1.676-1.022-2.7-1.208-1.024-.186-1.955-.28-2.98-.558-.372-.093-.93-.372-.93-.744-.094-.372.186-.651.465-.837.28-.186.652-.186.931-.28 2.607-.278 5.587-.464 7.728 1.024l-1.024-.651z" fill="url(#paint7_radial)"/><path d="M51.275 69.195c1.77.186 3.538.744 4.563 2.232.651.93.93 2.139.279 3.069-1.77 2.697-7.077 1.674-8.66-.651a.206.206 0 01.28-.28c1.117.838 2.048 1.582 3.445 1.86 1.397.28 3.259.187 4.283-.93.838-.93.559-2.138-.093-3.068-.931-1.302-2.607-1.86-4.19-2.046-.093.093 0-.186.093-.186z" fill="#722A0A"/><path d="M37.68 84.54c.28 1.115 1.398 1.953 2.422 2.325 1.303.558 2.793.65 4.19.744 2.328.093 7.355-.651 6.797-4-.466-2.696-4.19-3.161-6.332-3.254-2.234-.186-4.748-.186-6.331 1.487-.373.373-.559.838-.745 1.395-.186.466-.093.93 0 1.303zm.56-1.954c.93-1.487 3.165-1.766 4.748-1.86 1.956-.092 4.097.187 5.773 1.117.745.371 1.49.93 1.583 1.86.28 1.766-1.49 2.882-2.98 3.254-.838.187-1.676.28-2.42.28-1.21 0-2.515-.186-3.725-.465-1.676-.559-4.376-2.14-2.98-4.186z" fill="#B92976"/><path d="M33.956 62.685c-2.514-.465-5.028-.744-7.542 0-1.21.372-2.327.837-3.258 1.767-2.049 1.953-1.304 4.37.558 6.324.093.093 0 .372-.186.279-2.98-1.953-2.793-5.394 0-7.44 2.793-2.14 7.356-2.14 10.522-1.023.186-.093.093.093-.094.093z" fill="#468730"/><path d="M8.723 67.056c-1.769-.186-3.724 0-5.493.65-.931.373-1.77.93-2.142 1.86-.558 1.489.466 3.07 1.583 4 2.514 1.953 6.332 1.395 9.125.186 2.328-1.023 3.631-3.534 1.397-5.394-1.118-.93-2.98-1.21-4.47-1.302zm-3.63 6.975C3.23 73.659.715 71.985 1.74 69.753c.745-1.767 3.073-2.232 4.749-2.325 1.396-.093 2.98-.093 4.283.372.838.279 1.955.65 2.514 1.395 2.141 2.883-1.397 4.185-2.98 4.557-1.676.465-3.538.744-5.214.279z" fill="#B64B18"/><path d="M31.908 65.754c1.49-7.533 14.34-7.44 18.53-2.697 2.14 2.418 1.861 6.324-.187 8.742-2.793 3.348-7.915 3.813-11.732 2.51-.28-.092-.186-.557.093-.464 3.538.93 7.914.93 10.708-1.767 2.886-2.79 2.607-7.533-.745-9.765-4.842-3.162-14.34-2.604-16.48 3.627 0 .093-.28 0-.187-.186z" fill="#A01013"/><path d="M23.9 73.287c-3.072-7.533 8.287-9.3 12.757-5.766 2.141 1.674 3.352 4.464 1.955 7.068-1.583 3.069-5.4 4.278-8.566 3.906-.28 0-.28-.465 0-.465 2.42.186 5.028-.28 6.89-2.046 2.607-2.511 2.142-5.86-.559-7.998-1.955-1.581-4.562-2.14-6.983-1.767-4.004.65-5.866 3.069-5.214 7.068-.093 0-.186.093-.28 0z" fill="#B6A72D"/><path d="M20.455 79.425c1.863 1.487 4.842 1.674 6.984 1.023 1.955-.558 3.817-2.79 2.514-4.836-1.77-2.79-6.425-3.441-9.125-1.767-2.049 1.302-2.235 3.999-.373 5.58zm-.744-1.953c-.56-2.14 1.49-3.441 3.352-3.813 2.327-.465 5.68.279 6.89 2.51.652 1.21-.466 2.884-1.49 3.442-.745.371-1.676.557-2.607.65-1.49.094-3.073-.093-4.376-.836-.838-.465-1.49-1.116-1.77-1.953z" fill="#2D92B4"/><path d="M129.302 33.576s.652 6.975.652 12.462-.931 13.67-.931 13.67l-1.956 15.16-.465 3.348-6.425.93-27.933 4.835-27.095 5.952-20.671 5.487s-3.538 0-4.842-1.302c-1.303-1.302-1.769-1.953-1.769-1.953l.28-2.697 1.955-1.953s-1.118-2.697-1.118-3.255v-4.37l.931-.465s-1.303-4.65-.93-9.021c.279-4.371.651-6.603.651-6.603s.652-5.766 0-8.556c-.652-2.697-1.117-6.138-1.117-7.626 0-1.488.931-5.673.931-5.673l33.613-5.766 52.514-7.068c-.093.093 3.632-.186 3.725 4.464z" fill="#55261A"/><path d="M129.302 35.25l-5.494 1.767-9.869 1.767-13.967 4-14.34 1.58h-4.655l-6.424 1.581-15.55 2.418-4.19.465s-5.028-.465-6.983-1.116c-1.955-.65-6.332-2.232-6.332-2.232l.931-3.72s4.563-.65 5.029-.65c.465 0 28.398-2.698 28.585-3.256.186-.465 41.992-8.835 41.992-8.835l10.988.837.279 5.394z" fill="#F3B279"/><path d="M64.497 20.742s-2.794 1.116-3.818 2.14c-1.024.93-3.072 2.231-3.072 2.231s-1.118 1.21-5.494 2.14c-4.376.93-6.425 1.673-6.425 1.673s-3.538 1.023-5.4 2.325c-1.955 1.302-2.328 2.511-2.328 2.511s-.93 1.767-.745 3.255c.093 1.488 1.304 2.976 1.304 2.976l.372 2.976-.093 1.302 1.117 2.14s1.49 2.138 2.142 1.115c.652-1.023.931-2.325.931-2.51 0-.187 1.397-1.86 2.514-1.117 1.117.744 1.21 1.21 1.21 1.21v2.324c.094-.279.28 1.023 1.304.93 1.024-.093 1.49-.465 1.49-.465s1.303-1.488 1.955-1.395c.745.093.931.465.931.465l.373 2.418s.372 1.488 1.024 1.953c.652.372 1.49-.093 1.49-.093s1.396-1.209 1.955-2.51c.466-1.303.745-2.977 1.77-3.814 1.024-.93 1.582-1.209 1.582-1.209s1.49-.372 2.235 0c.745.372 1.024 1.21 1.024 1.21l.28 1.208s1.675 1.023 2.979-.279c1.303-1.302 2.7-2.604 2.7-2.604s1.49-1.116 3.538-1.023c2.049.093 4.004 2.79 4.004 2.79l2.235 2.511s1.583 1.116 1.955-.093c.373-1.116 1.304-4.185 1.304-4.185s1.117-2.418 3.538-2.883c2.514-.465 3.817-.279 3.817-.279l4.935.744s3.632.372 6.052-.93c2.328-1.302 4.563-3.255 4.563-3.255s2.141-1.674 4.376-1.674c2.328 0 4.097.651 4.097.651s1.676.744 1.955 1.488c.28.837.466 1.953.466 1.953l-.186 2.418s0 1.767.372 2.418c.372.651 1.024.465 1.024.465s1.676-.093 2.049-1.302c.372-1.209-.652-3.534-.652-3.534s-.373-1.86.093-3.255c.466-1.395 1.955-2.139 1.955-2.139l3.632-.744 2.793-.279s1.769-1.488 1.955-1.488c.187 0 1.676-.279 1.769-3.255.094-2.976-1.955-3.534-1.955-3.534l-2.421-.186-4.376-.65s-9.777-4-10.242-4.279c-.466-.279-16.295-9.3-16.295-9.3l-5.586 1.117-26.071 9.207z" fill="#320500"/><path d="M127.533 74.124s-3.725.186-8.101.837c-4.376.65-8.845 1.488-8.845 1.488l-20.392 3.906-14.525 3.069-15.363 3.347-13.315 2.511-2.142.466-1.583-1.303-3.258-.836s-2.235 1.488-2.235 2.604v2.696l2.607 2.14 2.7.464h1.304l22.626-5.487 22.253-5.021 19.367-3.72 17.971-3.07.931-4.091z" fill="#C37B51"/><path d="M129.861 46.69v5.3l-.373 5.3-10.987 3.535-23.557 5.208-18.715 3.348-14.246 2.139-17.133 1.767-5.773-3.534v-5.208l.932-6.138 2.793 1.488 3.073.93.93.186 1.584 1.116 30.354-3.348 23.65-4.557 14.804-3.72 12.664-3.813z" fill="#F6D39B"/><path d="M90.66 11.35l5.215-1.116 8.846 5.021 12.383 6.696 8.473 2.418-3.91 1.395-25.978 6.324-24.395 4.464-9.032 1.488s-2.514.28-3.538 1.488c-1.024 1.302-1.77 2.14-1.77 2.14s-.744 1.766-1.861 1.022c-1.118-.744-1.49-2.139-1.49-2.139s-1.676-1.395-3.445-1.023c-1.77.372-5.308-.093-8.194-1.116-2.886-1.023-3.538-2.232-3.538-2.232s-.745-2.046.745-4.092 8.566-3.906 8.566-3.906l6.424-1.302s2.7-1.116 5.215-3.44c2.514-2.233 5.866-3.163 5.866-3.163L90.66 11.35z" fill="#824F27"/><path opacity=".55" d="M119.339 26.88c2.142-.372 10.708-4.557 11.173.28.093.836-.558 1.673-1.21 2.231-.931.744-2.049 1.21-3.259 1.395-1.676.186-3.445-.186-5.121.28-1.862.557-3.166 2.324-3.259 4.277-.559-1.674-2.235-2.883-3.911-3.255-1.769-.372-3.538-.186-5.307.186-.838.186-1.676.372-2.421.744-1.396.744-2.234 2.232-3.445 3.255a7.842 7.842 0 01-4.842 2.046c-3.258.186-6.238-2.325-9.31-1.953-2.794.28-5.68 2.14-6.798 4.743-.372.837-.652 1.86-1.49 2.232-.93.372-1.862-.186-2.793-.65-2.328-1.303-5.121-1.86-7.635-1.024-1.397.372-2.607 1.21-4.004 1.302-1.303.093-2.607-.372-3.91-.837-.373-.093-.745-.279-.931-.558-.56-.744.372-1.767 1.21-2.139 2.142-1.023 4.47-1.488 6.704-1.953 4.19-.837 8.38-1.674 12.57-2.418 4.097-.837 8.1-1.116 12.197-1.58 1.863-.187 3.725-.559 5.587-1.024 3.911-.93 7.821-1.953 11.546-3.348 1.489-.558 2.886-1.116 4.376-1.395 1.583-.465 2.979-.65 4.283-.837zM55.186 47.805c-.187.28-.373.558-.652.465-.186-.093-.186-.279-.28-.372-.372-.93-.744-1.953-1.49-2.697-.744-.744-1.861-1.116-2.793-.744-.651.28-1.396.93-2.048.558-.559-.279-.559-1.116-1.024-1.58-.466-.559-1.21-.745-1.862-.93-.652-.187-1.397-.745-1.304-1.489.093-.372.466-.744.838-.837.373-.186.838-.093 1.21-.093 1.211 0 2.421.093 3.632.093 1.117 0 2.328.093 3.259.837.652.558 1.024 1.395 1.862 1.86.931.465 1.49.372 1.676 1.581.372 1.023-.466 2.418-1.024 3.348z" fill="#671F14"/><path d="M46.526 29.856c-1.862.837-3.538 1.86-5.307 2.79-.745.372-1.583.93-1.49 1.767 0 .372.187.651.373.93.28.372.558.837 1.024 1.116.559.372 1.21.465 1.862.558 3.26.465 9.125.093 11.267 2.883.372.465.744 1.023 1.303 1.023.838.093 1.21-.93 1.676-1.674.838-1.488 2.607-2.232 4.19-2.697 2.049-.558 4.004-1.488 6.052-2.046 3.911-.93 8.008-1.209 12.012-1.674 1.024-.093 9.404-1.116 7.17-3.069-1.49-1.302-4.377-.465-6.146-.279-1.118.093-6.518.372-6.89-.65-.28-.745 1.396-.93 1.303-1.675-3.445-.279-6.89.93-10.335 1.302-.559.093-1.117.093-1.583-.186-.466-.279-.652-1.023-.186-1.395-.466.28-1.024-.279-.931-.744 0-.465.465-.93.838-1.302a40.51 40.51 0 019.031-6.324c-5.4 1.581-9.962 5.673-15.177 7.812a113.768 113.768 0 01-7.914 2.79c-.838.186-1.49.465-2.142.744zm54.656-1.302c-3.072 1.21-6.424 1.581-9.683 1.953-.745.093-1.77 0-1.955-.744-.187-.744.558-1.302 1.21-1.58 1.304-.652 2.514-1.303 3.818-1.954 2.141-1.116 3.538-3.813 3.63-6.23 0-.837-.092-1.86-.744-2.418-.745-.651-1.862-.558-2.886-.465-2.421.279-4.842.558-7.356.837a2.131 2.131 0 01-.093-1.302c-4.47-.186-8.846.65-12.943 2.418 4.19-1.767 8.008-3.906 12.477-5.115 2.235-.651 4.47-1.116 6.704-1.488 2.421-.372 3.538.093 5.68 1.488 2.514 1.766 5.307 3.255 8.101 4.65 2.048 1.023 4.003 2.046 6.238 2.604 1.117.279 4.097 1.301 2.235 2.882a3.533 3.533 0 01-1.211.558c-2.141.651-4.283.28-6.424 1.023-2.514.744-4.563 2.046-6.798 2.883z" fill="#965C2E"/><path opacity=".29" d="M100.996 13.21c-.093-.093-.279-.186-.465-.28.093 0 .279 0 .372-.092l.093.372zm-62.57 19.901c1.396-1.674 4.935-3.813 4.935-3.813l7.355-1.674 4.656-1.488s1.303-.093 2.7-1.395c1.397-1.302 3.91-2.79 3.91-2.79l2.608-1.209h.186c3.073-1.767 6.611-2.976 10.056-4.091 6.518-2.14 13.129-4.743 19.833-6.324.372-.093.745-.186 1.117-.186.559 0 1.117.279 1.676.558 1.117.65 2.235 1.395 3.166 2.139-.466-.372-3.445.558-4.097.65-1.49.28-2.886.466-4.376.745-2.98.557-6.052 1.208-8.939 2.046-5.68 1.58-11.173 3.626-16.667 5.765-2.328.837-5.12 1.953-6.797 3.906-1.303 1.488-6.424 3.162-9.125 3.906-2.7.744-8.1.93-9.87 3.255-1.769 2.418-1.675 3.906-1.675 3.906s-2.049-2.232-.652-3.906z" fill="#F3F5CE"/><path d="M49.04 49.293c-.372 1.209-.279 2.697.28 3.813-.373-.186-.559.372-.559.744s-.093.93-.559.837c.28.465.187 1.023.093 1.488-.093.558 0 1.116.56 1.302-.28.65-.187 1.395.372 1.953-.559.465-.838 1.395-.466 2.046-.931-.28-1.769-.651-2.7-.93-1.583-.558-3.259-1.116-4.656-1.953-.279-.186-.558-.372-.745-.651-.186-.28-.279-.558-.372-.93-1.024-3.999-2.048-8.184-1.21-12.276.186.837.465 1.674 1.117 2.232.652.558 1.769.651 2.234 0 .187-.279.28-.744.652-.93.28-.186.652-.093.931.093 1.21.372 2.514.93 3.073 2.046l.28.558c.372.372 1.117.093 1.582-.279.28.279.373.837.186 1.209l-.093-.372zM46.247 73.38c-.372.279-.652.558-1.024.744.093.279.28.558.372.744-.558.093-.465 1.116 0 1.209-.093.279-.186.465-.279.744-.466 1.302-.931 2.604-.838 3.999 0 .93.28 1.953.465 2.883a16.996 16.996 0 010 6.137c-.372-.837-1.303-1.395-2.234-1.58-.931-.187-1.862-.094-2.794 0 .28-1.396-.558-2.79-.93-4.186a9.123 9.123 0 01-.28-3.162c.093-.465.28-1.116.745-1.209-.652-3.44-.838-7.067-.466-10.508 1.956 2.139 4.283 4.464 7.17 4.464v.93l.093-1.21z" fill="#391102"/><path opacity=".46" d="M129.674 47.991s-25.605 7.068-35.568 9.393c-9.963 2.232-46.37 6.324-46.37 6.324l.653-1.581 13.78-1.21 29.702-4.463 19.367-4.464 18.529-5.394-.093 1.395z" fill="#915B3A"/><path d="M126.788 75.426l-14.339 1.86-32.682 6.23s-13.687 2.79-16.108 3.441c-2.421.651-19.367 4.278-19.367 4.278s-1.118-1.395-2.514-1.767c-1.397-.372-2.7-.65-2.7-.65l.837-.559h2.794l2.42 1.023 6.24-1.023 13.5-2.232 12.384-3.44 15.456-3.07 24.302-4.463 10.429-1.116-.652 1.488z" fill="#915B3A"/><path d="M44.85 89.747c-.372 1.302-.465 2.697-.465 4.092 0 .465 0 .93-.28 1.302-.465.558-1.396.28-2.141 0-1.024-.465-2.048-.93-2.98-1.395-.372-.186-.745-.372-.93-.744-.094-.279 0-.65 0-1.023 0-.372-.187-.744-.187-1.116-.093-.93.745-1.58 1.49-2.139.28-.186.652-.465 1.024-.558.28 0 .559 0 .838.093.652.093 1.304 0 1.862.186.838.28 1.49.93 1.77 1.767v-.465z" fill="#AC6D47"/><path d="M47.364 63.057c-1.955-.558-3.817-1.395-5.68-2.325-.465-.28-1.024-.465-1.396-.93-.372-.372-.559-1.023-.28-1.488l2.515 1.395c.744.465 1.582.837 2.42 1.023.466.093.932.093 1.304.186.652.186 1.21.558 1.676 1.116.186.279-.093.744-.465.837l-.094.186z" fill="#EBC5B1"/><path opacity=".49" d="M45.223 73.659c-.652.093-.838 1.116-.373 1.488-.186.093-.279.279-.372.465-.186-.837-.931-1.488-1.676-1.86-.745-.465-1.583-.837-2.142-1.395-.558.837-1.024 1.767-1.21 2.697-.186-1.767-.093-3.441.093-5.208 1.77 1.488 3.631 3.069 5.773 3.906l-.093-.093zM52.3 49.758c-1.025-.465-2.142.279-2.794 1.209-.373.558-.745 1.302-.373 1.86-.465-.651-.558-1.581-.372-2.325a4.666 4.666 0 01-2.235-.837c-.186.186-.372.372-.558.65a7.6 7.6 0 01-1.118-1.859c-.465-.279-1.117-.465-1.583-.093-.186.093-.279.372-.465.465-.559.465-1.304-.186-2.048-.465-.094 0-.28-.093-.373 0-.186.093-.186.279-.28.372-.558 1.488-.837 2.976-.837 4.464-.745-2.697-.838-5.673-.28-8.463.466.744.56 1.674 1.025 2.418.465.744 1.676 1.116 2.141.465.373-.465.373-1.395.931-1.395.186 0 .28 0 .373.093.838.372 1.769.651 2.607 1.023.093 0 .28.093.28.186.092.093.092.186.092.279.187.651.931 1.209 1.676 1.116.373 0 .652-.186.931-.279.931-.279 1.956-.186 2.98-.093.093 0 .186 0 .28.093.092.093.092.186.092.372v1.116a.283.283 0 000-.372H52.3z" fill="#C37B51"/><path d="M125.95 36.738c.093 0 .093 0 .186-.093v.373c-.093-.093-.093-.187-.186-.28z" fill="#F6D39B"/><path d="M126.136 36.552h.373c-.094 0-.187.093-.373.093v-.093zm.279 10.788a8.29 8.29 0 011.49-2.046c-.372-.186-.745-.186-1.117-.186.279-.558.838-1.023 1.49-1.209a1.61 1.61 0 01-.28-1.302c-.651-.186-1.396-.186-2.048.093.745-.372 1.397-.744 2.048-1.302-.186-.186-.186-.372-.186-.65 0-1.024-.093-2.14-.093-3.163a.846.846 0 00-.931 0c.279-.186.465-.558.465-.837-.186-.093-.465-.093-.651-.093 1.024-.372 1.955-1.023 2.607-1.86 1.024 3.534 1.21 7.347.745 10.974 0 .186-.093.372-.187.558-.093.093-.186.186-.372.186a128.32 128.32 0 00-2.98.837zM40.288 85.47c.931.93 3.538 1.487 4.749 1.953.093 0 .186.093.279.093 1.955.557 5.68-.838 7.728-1.303 2.7-.557 5.4-1.022 8.008-1.673 2.514-.652 22.067-4.65 28.399-6.045 5.307-1.21 28.305-5.673 35.661-7.161 0-.093-.093-.186-.093-.28.558-.278 1.117-.557 1.303-1.115.093-.28.093-.465.093-.744.094-1.21.094-2.511.187-3.72 0-.28-.093-.744-.373-.744 1.024-1.302 1.304-3.162.745-4.743l.279-.558a.885.885 0 00-.931-.372l.093.279c-.093-.186-.465-.372-.651-.28 1.21-.557 2.327-1.115 3.538-1.673.372 1.023.186 2.139.093 3.255-.372 2.51-.745 4.929-1.117 7.44-.187 1.302 0 5.022-1.211 5.766-.279.186-.558.186-.838.186-2.048.279-4.004.558-6.052.837-3.352.558-6.611 1.023-9.963 1.58l-18.529 3.535-19.088 3.813-5.307 1.86-6.704 1.487-11.732 1.767c-1.21.372-3.352 1.21-4.562.465-.559-.372-1.025-1.022-1.676-1.115-.373 0-.652.093-1.024.093-.652 0-1.49 0-1.77-.744-.093-.372-.186-.651-.186-1.023-.093-1.023-.372-2.14-.745-3.162.373.743.838 1.487 1.397 2.045z" fill="#F6D39B"/><path d="M99.786 44.085c.372-.093.745-.186 1.117-.093-.186.28-.465.558-.652.837.559 0 .652.93.373 1.395-.373.465-.931.837-1.024 1.395 1.862.186 3.631.465 5.493.651-.372.186-.745.465-1.117.651.838-.186 1.769.186 2.234.93-2.514 1.395-5.307 2.325-8.1 2.79.372.279.745.465 1.117.558-3.073 1.395-6.425 1.953-9.683 2.51-2.328.373-4.656.838-6.89 1.21.279-.186.465-.372.744-.558h-1.583a1.383 1.383 0 01.652-1.395c-3.538-.651-7.17-.837-10.8-.465 1.768-.744 3.444-1.488 5.213-2.232-.651-.186-1.21-.465-1.862-.651a1.84 1.84 0 001.676-1.116c-1.303-.279-2.607-.744-3.724-1.488 1.676-.744 3.352-1.581 5.028-2.325a6.536 6.536 0 002.886 2.604c.186.093.466.186.745.093.652-.186.559-1.023.838-1.674.28-.744 1.024-1.209 1.676-1.302.745-.186 1.49-.093 2.235-.186 1.862-.186 3.631-1.023 5.4-1.58 2.421-.838 5.028-1.117 7.635-.838.373 0 .745.372.559.558l-.186-.279zm1.676 22.134c.558-.093 1.024-.093 1.583-.186-.373.186-.745.465-1.118.65h9.032l-10.335 3.07c.465.279.931.465 1.49.558-.373 0-.745.186-1.025.465 3.818.93 7.822 1.302 11.825.837-2.327 1.674-5.307 2.139-8.1 2.697-8.66 1.86-16.946 6.23-25.792 5.673.466-.28 1.024-.465 1.676-.558-.186-.093-.465-.093-.652-.186l6.146-2.232c-3.073-.372-6.146.744-9.218 1.209-4.284.65-8.753.093-13.036 1.302l11.173-2.511c-.558 0-1.024-.186-1.49-.465 2.7-.186 5.308-1.395 7.356-3.255.093-.093.28-.28.187-.372 0-.28-.373-.372-.559-.372-2.328-.372-4.656-.372-6.983.093 2.607-1.023 5.307-1.674 8.1-1.86-.372-.093-.651-.186-1.024-.28 6.797-2.138 13.687-3.812 20.764-4.928-.28.093-.28.65 0 .744v-.093zM51.461 49.851c-.372 0-.745.093-1.024.279-.465.279-.745.744-1.024 1.116-.28.558-.652 1.116-.373 1.674.28.093.466.186.745.372-.186 0-.465.093-.558.372 1.955.465 3.91.744 5.866.93-1.676.186-3.26.65-4.749 1.302.28.186.559.279.838.465.372.372 1.024.65 1.583.558-.466.186-.931.372-1.397.465.559.186 1.117.372 1.583.558-.931.372-1.769.744-2.7 1.116.186.279.372.465.652.465-.093.186-.187.279-.28.465.28 0 .652.093.559.372 0 .186-.28.279-.466.465-.186.093-.279.465-.093.465a10.998 10.998 0 015.773-.465c-2.7.558-5.4.744-8.1.837-.094 0-.28 0-.373-.093-.28-.28.186-.651.093-1.023 0-.093-.093-.28-.093-.372.093-.465.931-.372.931-.837-.465-.372-.559-1.116-.186-1.488a1.478 1.478 0 01-.745-.93c.28-.093.372-.465.28-.744-.094-.28-.28-.558-.187-.93.093-.28.466-.465.652-.744.372-.558.186-1.21 0-1.86a6.136 6.136 0 010-2.604c1.117-.093 2.142-.093 3.259.186-.093.093-.28.093-.373.186l-.093-.558zm6.704 23.715a100.48 100.48 0 00-12.849 1.395c.186.093.465.186.652.279 0 .837-.28 1.674-.745 2.232-.186.186-.28.372-.373.558 0 .186.187.465.373.465-.466.279-.466.93-.466 1.395.093 2.325.28 4.65.559 6.975 1.583 1.023 3.724.465 5.493-.093 1.025-.28 1.956-.651 2.98-.93l-5.307.279c.465-.28 1.024-.558 1.49-.837-.839-.28-1.677-.652-2.514-.93-.187-.094-.373-.186-.466-.373-.186-.371.093-.837 0-1.209-.093-.279-.466-.465-.466-.744 0-.743 1.77-.371 1.676-1.208 0-.28-.372-.465-.558-.651-.373-.465-.093-1.116.372-1.395.466-.28 1.024-.372 1.583-.372l-.559-1.395c.56.093 1.025-.28 1.49-.558 2.235-1.395 4.749-2.418 7.356-2.883h.28z" fill="#7A3E31"/><path d="M105.279 54.78c.093-.28.559.093.466.279-.093.279-.373.372-.652.372 2.328-.093 4.562-.186 6.89-.28-4.562 2.047-10.149 1.582-14.432 4.186.931.372 2.049.465 3.073.465-.186.558.558.837 1.117.93 2.607.279 5.214.558 7.821.93-8.938 2.139-17.97 4.37-26.909 6.51-2.514.558-5.12 1.209-7.635.558.652-.28 1.304-.558 1.862-.93-.372-.186-.837-.28-1.21-.465.931-.372 1.676-1.21 1.955-2.232-1.955-.465-3.91-.651-5.959-.465a2.537 2.537 0 011.397-1.21c-.652-.278-1.21-.464-1.862-.743.838-1.395 2.7-1.86 4.283-2.232 9.963-2.14 19.926-4.278 29.982-6.417.186 0 .279-.093.372.093.093.093-.093.372-.186.186l-.373.465zm-57.635 8.463c-.373.558-.652 1.116-1.024 1.674.465 0 .651.558.558 1.023-.186.372-.558.65-.838.93.373.186.838.279 1.21.465-.372.279-.744.558-1.024.93a5.3 5.3 0 012.98 1.86c-.931-.093-1.862.186-2.607.65a1.63 1.63 0 011.303.652c-.651.465-1.303.837-1.955 1.302-.372.186-.745.465-1.117.465-.466 0-.838-.186-1.21-.372-1.304-.744-2.608-1.488-3.818-2.232a2.827 2.827 0 01-.652-.465 1.004 1.004 0 01-.28-.651c-.558-2.14-.186-4.464.28-6.696l.838-4.185c1.583.186 2.793 1.395 4.19 1.953.652.279 1.397.372 2.048.65.652.28 1.304.745 1.583 1.396a.953.953 0 01-.558.465l.093.186z" fill="#F3B279"/><path d="M39.45 46.41c-.559.744-.466 1.953.28 2.604.186.186.558.558.279.744.651.372 1.303.837 1.955 1.209-.28.279-.745.093-1.117.093-.373 0-.838.465-.559.651.093.093.28.093.466.186.186.186 0 .558 0 .837 0 .186.093.465.186.65a4.818 4.818 0 01-.652 4.744c.093-2.046-.559-4-1.024-5.952-.466-1.953-.838-4.092-.186-6.045.093.372.186.837.279 1.209l.093-.93zm.931 24.738c-.093.558-.093 1.023-.093 1.58l.28 4.465c0 .744.092 1.58.465 2.231.28.465.652.837 1.117 1.023-.652 0-1.396.186-1.955.651.093 1.582.186 3.07.28 4.65 0 .651.092 1.395-.28 2.046a35.478 35.478 0 01-1.117-6.138c0-.372-.094-.744.093-1.116.186-.372.465-.65.838-.558-1.025-3.068-1.118-6.416-1.118-9.671.652.279 1.21.837 1.49 1.488.093.093-.186 0-.093-.093l.093-.558z" fill="#7A3E31"/><path opacity=".54" d="M108.911 78.216l-1.025 1.023c.373-.28 1.025 0 1.025.465-2.235 1.86-5.401 1.58-8.287 1.953-2.142.279-4.283 1.023-6.332 1.767a105.564 105.564 0 01-20.019 4.463c.28-.186.56-.372.745-.65-.279.092-.558-.28-.558-.559-.093-1.395 1.583-2.138 2.98-2.51 6.051-1.396 12.197-2.698 18.249-4.093 4.376-1.023 8.845-1.953 13.408-2.325l-.186.466z" fill="#D19977"/><path d="M41.405 45.852c-.465.372-1.21.28-1.396-1.116-.187-1.395-.093-2.79 0-4.092 0 1.302.186 2.697 1.21 3.534.186.093.373.28.466.465.186.465 0 .93-.28 1.21zm14.712 1.209c-.186.744-.373 1.488-.652 2.232-.093.279-.186.651-.372.837a.607.607 0 01-.838.186c-.373-1.395.372-2.976 1.676-3.441 0 .186 0 .372.093.558l.093-.372zm26.536-6.51c-1.396 1.488-1.21 3.906-1.49 5.952-.093.372-.465.93-.744.651-.093-.093-.093-.186-.186-.186-.652-1.395-1.397-2.697-2.049-4.092a5.43 5.43 0 001.397 1.023c.186.093.465.279.745.186.279-.093.372-.372.465-.651.466-1.209 1.21-2.232 2.049-3.162l-.187.28zm36.034-1.488c.559.93.931 1.953.931 2.976 0 .372-.093.837-.372 1.023-.466.28-1.024 0-1.211-.465-.186-.465-.093-1.023 0-1.488.28-1.58.559-3.069.838-4.65 0 1.21.094 2.325.094 3.534l-.28-.93zm8.939-14.229c1.117 0 2.048 1.023 2.141 2.14.094 1.115-.279 2.138-.931 3.161a11.39 11.39 0 01-2.141 2.604c.838-.372 1.583-.837 2.421-1.209.651-.372 1.303-.65 1.769-1.209.931-1.023 1.024-2.604.279-3.72-.652-1.116-2.048-1.767-3.445-1.767h-.093z" fill="#965C2E"/><path d="M129.395 33.855a20.99 20.99 0 00-6.797.837c-1.211.372-2.421.93-3.166 1.86 0-1.209 1.024-2.232 2.049-2.697 1.117-.465 2.327-.558 3.538-.65 1.21-.094 2.421-.28 3.352-.93.186-.094.465-.28.558-.094v1.767l.466-.093zm-13.874 2.511c-2.514.28-4.934.558-7.355 1.023-1.676.28-3.445.558-4.749 1.581 1.024-.837 2.049-1.58 3.073-2.418a3.905 3.905 0 011.303-.837c.559-.279 1.211-.372 1.769-.465 1.025-.093 2.049-.279 2.98-.186 1.024.093 2.048.558 2.607 1.302.186.186.279.372.466.465.186.093.465-.186.372-.372l-.466-.093zM95.13 40.644l-11.732 1.953 2.98-2.325s5.587-.558 8.752.372z" fill="#A46743"/><path d="M104.348 33.855a18.105 18.105 0 01-3.631 3.906c-.931.744-1.956 1.488-3.166 1.581-1.303.093-2.514-.65-3.724-1.209-2.049-.93-4.19-1.58-6.425-1.767 1.397-.65 2.98-.372 4.47 0 1.49.465 2.886 1.023 4.376 1.21.651.092 1.396.092 2.048-.28.465-.279.745-.65 1.117-1.023 1.863-1.953 4.377-3.255 6.984-3.906-1.211.744-2.328 1.581-3.539 2.325l1.49-.837z" fill="#965C2E"/><path d="M99.506 37.296c0 .93-1.024 1.767-1.955 1.581-.466-.465.093-1.116.559-1.488.186-.186.465-.372.745-.372.279 0 .558.28.558.558l.093-.279z" fill="#B28561"/><path d="M47.644 39.528c-1.77-.093-3.538-.65-5.215-1.302-1.582-.65-4.096-1.674-4.096-3.72.093-3.069 4.655-4.464 6.983-5.208 2.886-.93 5.773-1.488 8.752-2.232 1.397-.372 2.608-1.023 3.818-1.86 2.42-1.767 4.749-3.348 7.449-4.65.186-.093.093-.372-.093-.372-2.049.558-3.911 1.674-5.587 2.976-1.676 1.21-3.166 2.697-5.214 3.255-2.607.744-5.214 1.21-7.822 1.953-2.607.744-11.638 3.813-8.007 8.091 1.955 2.325 6.238 3.348 9.125 3.348.093.093.093-.186-.093-.279z" fill="#965C2E"/><path d="M90.475 12.094c1.303-.372 2.607-.744 4.004-1.023 1.21-.28 1.862-.558 3.072.093-1.955-3.348-8.752.65-11.08 1.58-5.214 2.046-10.615 4-16.015 5.674-.652.186-1.304.372-2.049.65-1.582.558-3.352 1.116-4.748 1.953-1.304.744-2.421 1.767-3.818 2.325l8.939-3.627c1.49-.558 2.98-1.023 4.47-1.58 3.724-1.395 7.448-2.697 11.172-4.092 1.956-.837 4.004-1.395 6.053-1.953z" fill="#965C2E"/><path d="M96.154 10.513c5.215 3.44 10.615 6.417 16.202 9.3 2.793 1.487 5.586 3.068 8.659 4.091 1.49.465 2.98.837 4.562.93.652 0 1.304-.093 1.956-.093.465 0 2.048.093 2.421.372-1.49-1.302-2.887-1.302-4.749-1.58-1.862-.28-3.724-.652-5.587-1.396-2.793-1.116-5.586-2.51-8.287-3.905-5.027-2.604-10.055-5.394-14.99-8.091-.187-.093-.373.186-.187.372z" fill="#965C2E"/><path d="M37.588 93.002c1.49 1.767 4.47 3.627 6.89 2.883.186-.093.28-.372 0-.465-1.024-.279-2.142-.279-3.166-.65a9.447 9.447 0 01-3.259-2.14c-.279-.372-.651 0-.465.372z" fill="#6E4E40"/><path d="M44.664 95.606c3.445-.372 6.89-1.488 10.15-2.325 3.351-.837 6.796-1.674 10.148-2.51 6.797-1.582 13.594-3.163 20.392-4.558 13.687-2.79 27.374-5.207 41.155-7.16.744-.093.465-1.302-.28-1.116-21.695 3.069-43.203 7.254-64.432 12.461-2.98.744-5.96 1.488-8.846 2.325-2.793.744-5.866 1.395-8.473 2.604-.093 0 0 .28.186.28z" fill="#6B4327"/><path d="M40.009 58.314c1.862 1.58 4.096 2.79 6.61 2.976.28 0 .373-.465.094-.558-2.328-.465-4.563-1.116-6.704-2.418 0-.093.093-.093 0 0zm7.821 3.999c5.214.186 10.522-.651 15.643-1.21a500.28 500.28 0 0016.48-2.231c10.708-1.674 21.323-3.906 31.844-6.603 6.052-1.581 12.104-3.348 18.157-5.208.558-.186.372-1.116-.187-.93-20.763 6.51-41.992 11.16-63.594 13.857-6.052.744-12.29.93-18.343 2.046-.186 0-.186.279 0 .279zm-9.218 7.254c1.583 1.674 4.004 3.44 6.331 3.906.28.093.466-.28.187-.465-1.025-.651-2.235-1.023-3.26-1.674-1.023-.651-1.954-1.395-2.979-2.14-.186-.185-.465.187-.279.373z" fill="#935D3C"/><path d="M44.571 73.473c5.494-.093 10.987-.744 16.388-1.395 5.68-.651 11.266-1.395 16.853-2.325 11.173-1.767 22.346-4 33.426-6.79 6.239-1.58 12.477-3.254 18.623-5.114.465-.186.372-.93-.187-.837-21.601 6.417-43.669 11.067-66.015 13.764-6.332.744-12.85 1.209-19.181 2.046-.186.186-.186.65.093.65z" fill="#C37B51"/><path d="M82.56 44.457c2.7.372 5.587-.093 8.287-.372 2.7-.279 5.4-.651 8.1-1.116 5.587-1.023 11.081-2.51 16.481-4.37.466-.187.28-.838-.186-.745a121.842 121.842 0 01-16.201 4.185c-2.7.465-5.4.93-8.1 1.21-2.794.371-5.774.278-8.474.929-.093.093 0 .186.093.279zm36.127-6.417c1.769.186 3.725-.465 5.494-.93 1.769-.558 3.631-1.209 5.214-2.232.372-.186.093-.744-.279-.558-1.769.744-3.445 1.674-5.308 2.232-1.676.465-3.445.651-5.121 1.116-.186.093-.186.372 0 .372zM57.141 48.55c3.166.092 6.61-.559 9.684-1.024 3.445-.465 6.797-1.023 10.242-1.767.465-.093.28-.837-.186-.744-3.26.651-6.611 1.21-9.87 1.767-3.26.465-6.704.651-9.87 1.395-.28.093-.28.372 0 .372zm-14.618-2.605c1.117.465 2.327 1.023 3.538 1.302.372.093.559-.372.186-.558-1.117-.558-2.42-.93-3.538-1.209-.373-.093-.466.28-.186.465z" fill="#A46743"/><path d="M47.644 39.993c1.396-.093 3.072-.279 4.47.186 1.023.372 1.489.837 2.047 1.767.187.28.28.558.56.837 1.117.93 2.14-.093 2.793-1.023.744-1.116 1.396-2.232 2.607-2.79 1.396-.558 2.98-.744 4.376-1.023 2.793-.558 5.68-.93 8.473-1.302 11.639-1.58 23.184-4.37 34.637-7.068 6.704-1.58 13.408-3.255 20.019-4.929.279-.093.186-.558-.093-.465-11.732 2.79-23.464 5.952-35.29 8.463-5.772 1.21-11.545 2.418-17.41 3.348-2.794.372-5.68.744-8.474 1.21-2.141.371-5.307.557-7.17 1.86-.651.464-1.21 1.208-1.675 1.86-.466.65-1.025 1.673-2.049 1.394-1.21-.372-1.77-2.046-3.166-2.51-1.49-.466-3.072-.187-4.562 0-.28-.094-.28.185-.093.185z" fill="#965C2E"/><path d="M40.009 88.538c.838 0 1.583-.093 2.42.093.652.186 1.211.651 1.863.651.186 0 .28-.186.186-.372-.373-.65-1.397-.93-2.142-1.023-.838-.186-1.676-.186-2.42.093-.28.186-.187.558.093.558z" fill="#6E4E40"/><path d="M44.85 89.748c2.608-.094 5.121-.745 7.636-1.117 2.7-.465 5.493-.93 8.193-1.487 2.514-.466 5.028-.838 7.542-1.582 2.607-.743 5.121-1.58 7.728-2.138 10.615-2.418 21.509-4.185 32.217-6.138 6.145-1.116 12.29-2.232 18.436-3.07.558-.092.372-.93-.187-.836-13.78 1.86-27.467 4.836-41.155 7.44-3.352.65-6.797 1.209-10.149 1.953-3.352.743-6.517 1.953-9.776 2.603-3.352.745-6.704 1.302-10.056 1.86-3.445.651-7.077 1.023-10.429 2.14-.186.185-.186.371 0 .371z" fill="#C37B51"/><path d="M44.292 92.165a6.228 6.228 0 000 1.86c0 .558-.093 1.116 0 1.674 0 .28.372.186.372 0 .093-.65-.093-1.302-.093-1.86s0-1.116-.093-1.674c-.093-.093-.186-.093-.186 0z" fill="#6E4E40"/><path d="M44.292 80.076c.372 3.069.465 6.138.28 9.207 0 .371.558.465.65 0 .094-3.07-.092-6.231-.65-9.3-.094 0-.28 0-.28.093z" fill="#C37B51"/><path d="M38.426 42.69c.465 1.581.93 4.185 2.42 5.115 1.304.93 1.77-1.395 2.235-2.232.28-.558.652-1.116 1.21-1.395 1.304-.558 1.956.558 2.142 1.581.093.651-.093 1.302.187 1.953.372 1.209 1.582 1.581 2.607.837.838-.558 2.42-3.069 3.165-1.023.28.651.093 1.488.28 2.232.28 1.116.93 2.046 2.141 1.953 1.676 0 2.328-2.046 2.794-3.348.372-1.023.745-2.139 1.396-2.976.373-.558.931-1.116 1.583-1.395 1.49-.65 3.352.186 3.259 1.953 0 .093.093.186.186.28 3.073 1.673 4.842-2.512 7.263-3.349 3.631-1.209 5.4 1.581 7.449 3.906.465.558 1.49 1.953 2.42 1.674 1.025-.279 1.211-2.325 1.397-3.069.466-1.767 1.118-3.534 2.887-4.464 1.583-.837 3.538-.744 5.214-.65 3.538.278 7.17 1.301 10.521-.187 3.259-1.488 5.587-4.836 9.405-4.836 1.117 0 2.42.186 3.538.558 1.303.465 1.955 1.21 2.234 2.604.373 1.581-.279 2.883-.093 4.371.187 1.953 2.514 2.418 3.632.837.931-1.302.186-2.79-.28-4.092-.745-2.418.093-5.115 2.701-5.859 2.42-.65 5.586.093 7.169-2.232.186-.279-.186-.558-.372-.279-1.49 1.953-4.377 1.395-6.518 1.86-1.769.372-3.073 1.488-3.538 3.348-.187.837-.28 1.767-.093 2.697.186.651.465 1.302.651 1.953.093.372.28.93.187 1.302-.28 1.674-2.514 2.604-2.887 0-.186-.93.373-2.046.279-2.976-.093-.93-.279-2.046-.744-2.883-1.025-1.767-4.284-1.953-6.146-1.86-2.234.093-4.097 1.302-5.866 2.604-2.886 2.14-5.307 3.348-9.031 3.07-2.421-.187-4.935-.838-7.356-.652-1.956.186-3.818.837-4.935 2.511-.745 1.023-1.024 2.325-1.397 3.534-.093.28-.186.558-.186.837-.186.744 0 .744-.931.744-.838 0-1.21-.65-1.77-1.209-1.116-1.395-2.14-2.976-3.817-3.72-1.676-.744-3.817-.465-5.307.651-1.024.744-1.77 1.953-2.98 2.604-.744.372-1.675.744-2.327-.093-.28-.372-.28-.93-.559-1.302-1.117-1.302-2.98-1.302-4.283-.279-1.49 1.116-2.048 3.07-2.7 4.743-.187.558-.373 1.116-.745 1.581-.652.93-2.142 1.116-2.7 0-.373-.837-.28-1.86-.466-2.697-.28-1.395-1.303-1.953-2.607-1.023-.559.465-1.024.93-1.676 1.302-.186.093-.466.279-.745.186-.28 0-.559-.279-.745-.558-.186-.372-.186-.93-.186-1.302 0-.65-.093-1.395-.559-1.953-1.024-1.302-2.7-.65-3.538.465-.186.28-.372.651-.559 1.023-.372.651-.372 1.488-1.21 1.488-1.583 0-2.235-3.348-2.607-4.557.093-.093-.186-.093-.093.093z" fill="#010000"/><path d="M38.053 33.297c-.279.651-.651 1.116-.838 1.767-.186.651-.279 1.395-.186 2.046 0 .651.093 1.302.466 1.767.279.558.651 1.116.838 1.767.186 1.116.093 2.325.093 3.534-.093 1.953-.28 3.813-.093 5.859.279 2.511.93 4.929 1.21 7.347.28 2.976-.559 5.766-.745 8.742a75.943 75.943 0 000 9.207c.093 1.023-.093 5.022 1.49 5.207v-.836h-1.397c-.279 0-.372.186-.372.372-.28 1.209-.28 2.418-.186 3.627.186 1.301 1.21 2.975.745 4.091-.373 1.023-.652.651-1.397 1.302-.186.186-.28.28-.373.465-.372.744 0 1.674.094 2.418 0 .465.838.558.838 0 0-.372-.187-.837-.187-1.302.093-1.302.466-1.209 1.21-1.58.56-.28 1.025-.652 1.118-1.303.093-.93-.745-2.138-.931-2.975-.373-1.582-.466-3.163-.186-4.743l-.373.372h1.397c.559 0 .559-.744 0-.837-.466-.093-.652-2.79-.652-3.07-.186-1.766-.186-3.44-.186-5.207 0-2.697-.186-5.673.465-8.37.56-2.232.652-4.278.28-6.603-.373-2.79-1.21-5.58-1.21-8.463-.094-2.232.465-4.464.186-6.789-.093-.837-.28-1.674-.652-2.325-.559-.93-.745-1.58-.745-2.604-.28-.93-.093-1.953.28-2.883z" fill="#7A3E31"/><path d="M127.253 74.217c1.211-6.417 1.397-13.113 1.77-19.623.279-5.022.465-9.95.279-14.973-.093-2.51-.279-5.208-.093-7.719-.093 1.21.652 3.348.838 4.743.186 1.86.372 3.627.465 5.487.187 4.092.093 8.091-.093 12.183-.279 7.068-.279 14.415-3.352 20.832 0-.186.093-.558.186-.93z" fill="#F3B279"/><path d="M126.974 75.147v-.93c.186-.093.466-.186.652-.28.279.745.559 1.675.465 2.419-.093.837-.372 1.674-.931 2.325-.093.093-.186.186-.372.186v-.094c-.093 0-.093.094-.186.094-.187 0-.373 0-.559-.186.559-1.023.931-2.232.931-3.534z" fill="#935D3C"/><path d="M130.419 26.601c-.931-1.488-2.328-1.953-3.817-1.953-1.025 0-2.049.186-2.98.465 2.887-.744 6.611-2.418 8.101 1.767.652 1.953-.28 4.092-2.049 5.115-.465.186-.931.28-1.489.372-1.025-.372-2.887.093-4.004.186 2.7 0 8.287-2.418 6.238-5.952z" fill="#C37B51"/><path d="M62.728 53.943c-.093.093-.093.093-.28.187-.093 0-.186 0-.093-.094 0-.093 0-.186.187-.279.093-.186.372.093.186.186zm-1.769-2.697c-.094 0-.094 0 0 0-.373-.186-.373-.651-.094-.744h.094c.279-.186.651 0 .651.372s-.372.558-.651.372zm-2.329 5.487c-.558 0-.558-.837 0-.837.56 0 .56.837 0 .837zm.373-2.325c-.745 0-.745-1.116 0-1.116s.745 1.116 0 1.116zm10.335-.186s-.093 0-.093-.093c-.279-.093-.279-.558 0-.651 0 0 .093 0 .093-.093.28-.186.745 0 .745.372s-.465.651-.745.465zm-1.396-2.511c-.652 0-.652-1.023 0-1.023s.652 1.023 0 1.023zm-.372-2.139c-.094.651-1.118.651-1.211.093v-.093c-.28-1.023 1.397-1.023 1.21 0zm-3.166 5.487c-.559 0-.559-.837 0-.837.558 0 .558.837 0 .837zm2.886 1.674l.093-.093a.436.436 0 01.745 0l.093.093c.186.372-.093.744-.465.744-.373 0-.652-.465-.466-.744zm-2.514-3.441c-.838 0-.838-1.21 0-1.21s.838 1.21 0 1.21zm-2.328 4.836c-.838 0-.838-1.21 0-1.21.838-.092.838 1.21 0 1.21zm-6.611-3.999c-.838 0-.838-1.302 0-1.302s.838 1.302 0 1.302zm-3.351 4.743c0-.093 0-.093 0 0-.187-.558.186-1.023.744-1.023.466 0 .838.465.745.93v.093c-.28.65-1.303.65-1.49 0zm19.646-7.905s0-.093.093-.093c.093-.279.559-.279.652 0 0 0 0 .093.093.093.093.279 0 .651-.373.651-.372 0-.558-.372-.465-.651zm-.279-1.581c-.838 0-.838-1.302 0-1.302s.838 1.302 0 1.302zm8.659 2.977c-.466 0-.466-.745 0-.745.465 0 .465.745 0 .745zm-2.793 2.603c.279-.28.651-.28.93 0 .466.372.094 1.209-.465 1.209s-.931-.744-.465-1.21zm-2.794 2.883h-.093c-.372-.186-.372-.744-.093-1.023.28-.28.838-.28 1.024.093v.093c.186.558-.28 1.023-.838.837zM76.88 49.2s0 .093.094.093a.617.617 0 01-.838.837s-.093 0-.093-.093c-.373-.186-.373-.744-.094-1.023.187-.186.745-.186.931.186zm14.06.28c-.465 0-.465-.745 0-.745.466-.093.466.745 0 .745zm-1.862 2.882c-.745 0-.745-1.116 0-1.116.745.093.745 1.116 0 1.116zm-1.21-3.534c-.28.372-.652.372-.931.093v-.093c-.28-.372.093-.837.465-.837.373 0 .745.465.466.837zm-1.956 2.79c0 .093 0 .093 0 0-.186.465-.745.465-.93.093v-.093c-.187-.372 0-.93.465-.93s.651.558.465.93zm-1.117 2.976c-.559-.651.186-1.488.838-.93l.093.093c.652.465-.372 1.488-.931.837zm0-6.603c-.745 0-.745-1.209 0-1.209s.745 1.209 0 1.209zm16.853-1.86s-.093 0 0 0c-1.024.372-1.024-1.395-.093-1.116h.093a.58.58 0 010 1.116zm-1.955-.186c0 .093.093.093.093.186.372.93-1.49.93-1.118 0 0-.093.093-.093.093-.186.094-.465.745-.465.932 0zm-2.608 5.394c-.093-.279-.186-.465 0-.744.094-.186.373-.279.56-.279a.952.952 0 01.558.465c.465.837-.838 1.488-1.118.558zm-2.235-4.743c.094 0 .094 0 0 0 0-.186 0-.279-.092-.372.558.651-.28 1.581-1.024 1.023-.187-.186-.373-.465-.28-.744.187-1.116 1.676-.93 1.397.093zm-.465 3.813c-.651 0-.651-.93 0-.93.652-.093.652.93 0 .93zm-1.117 1.302c.28-.279.559-.279.838 0 .466.372.093 1.116-.465 1.116-.466 0-.839-.744-.373-1.116zm18.622-9.3h-.093c-.559-.093-.652-.837-.279-1.209.372-.372 1.117-.279 1.21.28v.092c0 .558-.279.93-.838.837zm-2.979 3.442c-.28 0-.28-.466 0-.466.372-.093.372.466 0 .466zm-.652-2.233c0 .93-1.304.93-1.211.093v-.093c-.093-.837 1.118-.837 1.211 0zm-2.607 3.906c-.838 0-.838-1.302 0-1.302s.838 1.302 0 1.302zm3.072.837c-.838 0-.838-1.302 0-1.302s.838 1.302 0 1.302zm3.259-2.139c.186-.65 1.024-.65 1.211-.093v.093c.186 1.023-1.49 1.023-1.211 0zm-.651-1.581c-.745-.279-.745-1.116-.094-1.302h.094c.465-.186.931.28.931.651 0 .372-.466.744-.931.651zm12.663-5.115c-.932 0-.932-1.395 0-1.395.838 0 .838 1.395 0 1.395zm1.955 4.092c-.652 0-.652-1.023 0-1.023s.652 1.023 0 1.023zm-2.607-1.209c-.652 0-.652-.93 0-.93.558 0 .558.93 0 .93zm-1.024 3.256c-.466 0-.466-.745 0-.745.465 0 .465.745 0 .745zm3.258-5.023c-.651 0-.651-1.023 0-1.023.652 0 .652 1.023 0 1.023zm-8.1 7.906c-.745 0-.745-1.21 0-1.21.838-.093.838 1.21 0 1.21zm-1.304-1.675c-.652 0-.652-.93 0-.93s.652.93 0 .93zm-3.724 2.139c.186-.65 1.117-.65 1.21-.093v.093c.28 1.116-1.49 1.116-1.21 0zm-6.518 1.953c-.838 0-.838-1.209 0-1.209s.838 1.209 0 1.209zm-1.676-5.673c-.652 0-.652-1.023 0-1.023s.652 1.023 0 1.023zm-2.421 5.953c-.465 0-.465-.745 0-.745.466 0 .466.745 0 .745zm-1.21-1.489s0 .093 0 0c-1.118.28-1.118-1.488-.093-1.209h.093c.558.28.558 1.116 0 1.21zm-3.632-.744c-.93 0-.93-1.488 0-1.488 1.025-.093 1.025 1.488 0 1.488zm.559-3.441v.186c-.093.651-1.117.651-1.303 0v-.186c-.28-1.116 1.49-1.116 1.303 0zm5.587 3.348c-.931 0-.931-1.395 0-1.395s.931 1.395 0 1.395zm5.959 1.767c-.745 0-.745-1.209 0-1.209s.745 1.209 0 1.209zm-1.024-4.092c-.652 0-.652-1.023 0-1.023.651 0 .651 1.023 0 1.023zm-2.328-2.976s0-.093 0 0c.093-.093.093 0 0 0zm-26.257 7.533c-.838 0-.838-1.209 0-1.209s.838 1.209 0 1.209zm-4.004 3.348c-.838 0-.838-1.302 0-1.302s.838 1.302 0 1.302zm-.094-3.441c.094.93-1.396.93-1.303.093v-.093c0-.93 1.21-.93 1.304 0zm-2.979 5.115c-.838 0-.93-1.395 0-1.395.838 0 .838 1.395 0 1.395zm6.239-2.789c-.466 0-.466-.745 0-.745.465 0 .465.745 0 .745zm2.98 1.301a.71.71 0 01.185-.465c.187-.186.373-.186.56 0 .185.093.185.279.185.465.28.837-1.117.837-.93 0zm7.262-7.719c-.652 0-.652-1.023 0-1.023.652-.093.652 1.023 0 1.023zm2.7-.279c-.559 0-.559-.837 0-.837.466 0 .466.837 0 .837zm-.372 6.882c-.28 0-.28-.372 0-.372.279 0 .279.372 0 .372zm-2.794.93c-.186 0-.186-.372 0-.372s.186.372 0 .372zm-37.058.093c0-.093 0-.093.093-.186a.29.29 0 01.559 0c0 .093 0 .093.093.186.186.56-1.024.56-.745 0zm0-2.139c-.093 0-.093 0 0 0-.186.093-.372.093-.465 0-.466-.279-.28-1.023.279-1.023.465.093.559.744.186 1.023zm5.122 5.115c-.466.372-1.118-.093-1.118-.558 0-.465.559-.93 1.024-.558h.093c.466.279.466.837 0 1.116zm-6.332-.651c.186-.837 1.396-.837 1.49-.093v.093c.093.465-.187 1.023-.745 1.023-.56 0-.931-.465-.745-1.023zM63.1 49.851c.093-.744 1.21-.744 1.304-.093v.093c.093.465-.186.837-.652.837s-.652-.372-.652-.837zm-1.583 3.534c-.838 0-.838-1.302 0-1.302.838-.093.838 1.302 0 1.302zm63.967 8.185c-.372 0-.372-.56 0-.56.28 0 .28.56 0 .56zm-1.955 2.324c-.093-.093-.093-.093 0 0-.279-.465 0-.93.466-.93.465 0 .744.465.465.837v.093c-.186.279-.745.279-.931 0zm-1.583-.837c-.652 0-.652-.93 0-.93s.652.93 0 .93zm-3.445 4.743c-.838 0-.838-1.21 0-1.21s.838 1.21 0 1.21zm5.773 1.58s.093.094 0 0c.372.93-1.397.93-1.024.094v-.093a.55.55 0 011.024 0zm-1.304-3.812c.28.372.187.93-.372.93-.466 0-.652-.558-.373-.93.28-.186.559-.186.745 0zm-10.707-.186c-.28.373-.745.28-.745-.093 0-.372.558-.558.745-.186v.093c.093 0 .093.093 0 .186zm-2.514 4.65s.093 0 0 0c.279-.28.651-.28.931 0 .465.372.093 1.116-.466 1.116-.558 0-.931-.744-.465-1.116zm4.841-.186v-.186c.093-.744 1.397-.744 1.49 0v.186c.093.558-.186 1.023-.838 1.023-.465 0-.745-.558-.652-1.023zm1.397-5.022c-.931 0-.931-1.488 0-1.488 1.024 0 1.024 1.488 0 1.488zm-14.805 4.836c-.651 0-.651-.93 0-.93.559 0 .559.93 0 .93zm3.911-1.302c-.838 0-.838-1.395 0-1.395.931.093.931 1.395 0 1.395zm-3.631 5.115s0-.093 0 0c.186-.744 1.21-.744 1.303-.093v.093c.093.465-.186.93-.651.93-.466 0-.745-.465-.652-.93zm-7.728-3.069c-.931 0-.931-1.488 0-1.488.93 0 .93 1.488 0 1.488zm-1.304 3.813c-.745 0-.745-1.116 0-1.116.652 0 .652 1.116 0 1.116zm5.587-1.953c-.838 0-.838-1.21 0-1.21.745 0 .745 1.21 0 1.21zm-.187-3.069c-.838 0-.838-1.302 0-1.302s.838 1.302 0 1.302zm14.898-.558c-.745 0-.745-1.116 0-1.116s.745 1.116 0 1.116zm-2.514-1.488c-.093.093-.186.093-.372.186-.373.093-.838-.28-.745-.744 0-.093.093-.28.186-.372.186-.372.745-.465 1.024-.093.373.279.373.837-.093 1.023zM67.756 74.96c-.838 0-.838-1.301 0-1.301s.838 1.302 0 1.302zm-2.328 6.697c-.559 0-.559-.837 0-.837s.559.837 0 .837zm-2.142-3.441c.28-.093.559-.093.745.093.28.279.373.744.093 1.023-.744.65-1.769-.744-.838-1.116zm-1.769-2.418c-1.024 0-1.024-1.674 0-1.674s1.024 1.674 0 1.674zm-8.845 7.254c-.838 0-.838-1.21 0-1.21.838-.093.838 1.21 0 1.21zm5.214-3.72l-.186-.186c-.28-.28-.093-.837.372-.837.093 0 .28 0 .373.093.93.093.279 1.674-.56.93zm-6.89-3.348c-.28.65-1.025.65-1.304.093v-.093c-.186-.372.28-.837.652-.837.465 0 .838.465.652.837zm-1.118 3.348c-.465 0-.465-.744 0-.744.466 0 .466.745 0 .745zm27.282-3.906s0-.093.093-.093c.093-.28.559-.28.652 0 0 0 0 .093.093.093.093.279 0 .65-.373.65-.465 0-.651-.371-.465-.65zm8.007-3.162c-.093.093-.093.186-.186.186a.284.284 0 01-.372 0c-.093-.093-.186-.093-.186-.186-.094-.28 0-.651.372-.651s.465.279.372.65zm-1.21 2.883c-.186 0-.186-.28 0-.28s.186.28 0 .28zm3.352.651v-.558c.093-.837 1.117-.837 1.303 0v.558a.652.652 0 01-1.303 0zm2.607-7.533c1.024.093 1.024 1.395.093 1.58h-.093c-.372.094-.745-.371-.745-.743 0-.465.28-.93.745-.837zm-15.177 6.789c-1.397 0-1.397-2.232 0-2.232 1.397.093 1.397 2.232 0 2.232zm0 2.139c.093 0 .093 0 0 0 .28.186.28.65 0 .837-.373.372-1.024.093-1.024-.372.093-.558.651-.837 1.024-.465zm7.449-.093c-.093-.372 0-.651.28-.93.185-.186.558-.186.744 0 .28.279.373.558.28.93-.187.65-1.211.65-1.304 0zm-1.304-4.185h-.186c-.28-.093-.28-.465 0-.465h.186c.466-.187.466.651 0 .465zm-11.639 6.324c-.651 0-.651-.93 0-.93.652 0 .652.93 0 .93zm1.49-3.627c-.745 0-.745-1.21 0-1.21s.745 1.21 0 1.21zM65.242 77.1c-.838 0-.838-1.395 0-1.395.93.093.93 1.395 0 1.395zm-3.818 5.022c-.093 0-.28.093-.372.093-.838 0-.838-1.21 0-1.302.093 0 .279 0 .372.093.652.186.652.93 0 1.116zm-7.169-1.767c-.187.465-1.025.371-1.118-.187-.093-.465.093-.93.652-1.115.652-.186 1.024.837.466 1.302zm-6.705.185c-1.024 0-1.024-1.673 0-1.673 1.118.093 1.118 1.673 0 1.673zm9.125-4.556c0 .372-.093.65-.372.93-.465.558-1.21.093-1.303-.558 0-.28.093-.558.186-.744.372-.651 1.49-.465 1.49.372zm-8.565 9.392s0-.093 0 0c0-.65.837-.65.837-.093v.093c.093.558-.838.558-.838 0zm7.448-.929c-.559 0-.559-.838 0-.838.466 0 .466.838 0 .838zm4.749-.559c-.838 0-.838-1.395 0-1.395.838.094.838 1.395 0 1.395zm-4.283-2.045c-1.025 0-1.025-1.488 0-1.488.93 0 1.024 1.488 0 1.488z" fill="#7A3E31"/><path opacity=".49" d="M44.571 52.176c-.652 0-.652-.93 0-.93s.652.93 0 .93zm.839 3.813c-.839 0-.839-1.302 0-1.302.837 0 .837 1.302 0 1.302zm2.234-3.813c.28-.093.465-.093.651.093.28.186.28.651.094.93-.745.558-1.583-.651-.745-1.023zm-1.211 6.51c0-.093 0-.093 0 0 .093-.558.838-.558.931-.093v.093c.187.744-1.024.744-.93 0zm-5.121-5.766c-.465 0-.465-.744 0-.744.466-.093.466.745 0 .745zm1.024 3.72c-.651 0-.651-1.023 0-1.023.652 0 .652 1.023 0 1.023zm1.304-3.07c-.093 0-.093.094 0 0-.466.187-.931-.185-.931-.557 0-.372.372-.744.838-.651h.093c.559.279.559 1.023 0 1.209zm-.186-3.44c-.093 0-.093 0 0 0 .093.372-.187.651-.559.651-.372 0-.559-.465-.372-.744.186-.186.372-.372.651-.279.187 0 .28.186.28.372zm.838 8.835c-.652 0-.652-1.023 0-1.023.651 0 .651 1.023 0 1.023zm-.466.837c0-.093 0-.093 0 0 .186-.465.931-.465 1.117-.093v.093c.187.465 0 1.023-.558 1.023-.466 0-.745-.558-.559-1.023zm-1.862 15.81c-.838 0-.838-1.21 0-1.21s.838 1.21 0 1.21zm1.21 2.696c-.093 0-.093 0 0 0-.558-.092-.558-.93-.093-1.115h.093c.838-.093.838 1.302 0 1.115zm-2.886.372c-.745 0-.745-1.115 0-1.115s.745 1.116 0 1.116zm2.328 3.07c-.838 0-.838-1.302 0-1.302s.838 1.302 0 1.302zm-.186 3.162s0-.094 0 0c-.745-.187-.745-1.117-.094-1.303h.093c1.118-.278 1.118 1.489 0 1.303zm2.048-1.024c-.838 0-.931-1.395 0-1.395.838.094.838 1.395 0 1.395zm-.838 3.349c-.093 0-.093 0 0 0-.745-.093-.745-.93-.093-1.023h.093c.652-.093.652 1.023 0 1.023zm-3.352-3.069c-.838 0-.838-1.21 0-1.21s.838 1.21 0 1.21z" fill="#55261A"/><path d="M76.415 43.806a30.694 30.694 0 00-7.17.558c1.397-.744 2.514-2.325 4.004-2.046 1.21.186 1.862 1.395 2.887 1.953l.279-.465zm-12.849 1.395c-2.142.372-4.19 1.395-5.68 2.883.28-1.023.745-2.046 1.303-2.883.466-.65 1.025-1.302 1.863-1.58.745-.28 1.769 0 2.141.743.187.372.187.93.652 1.21l-.28-.373z" fill="#A56844"/><path d="M52.3 27.345c-.652 2.325-1.211 4.65-1.584 7.068a1.908 1.908 0 000 1.023c.187.93 1.21 1.395 2.049 2.046 1.303.93 2.141 2.604 2.234 4.185-.93-1.674-2.7-2.604-4.562-2.976-1.769-.372-3.724-.279-5.493-.465-1.583-.186-3.26-.558-4.75-1.209-.65-.279-1.303-.558-1.582-1.209-.652-1.116.093-2.604 1.117-3.44 1.397-1.21 3.26-1.768 5.028-2.419 2.142-.65 4.19-1.395 6.332-2.046.465-.186.93-.279 1.49-.465l-.28-.093z" fill="url(#paint8_radial)"/><path d="M80.884 35.064l-18.808 2.79s-2.98 1.023-3.818 2.14c-.838 1.115-1.303 2.045-1.303 2.045s-1.583 1.488-2.049.651c-.558-.837-1.21-2.604-2.048-2.79-.838-.186-3.352-.279-3.352-.279s-4.283-.093-5.214-.372-2.142-1.023-2.142-1.023c1.676.28 3.26.372 4.935.465 1.583.093 3.259-.279 4.842-.186.93.093 2.234.558 2.98 1.116.279.186.558.465.93.558.745 0 1.118-.93 1.583-1.395.559-.558 1.397-1.116 2.142-1.209 1.303-.186 2.607-.279 3.91-.465 2.7-.279 5.401-.65 8.101-.93 3.073-.372 6.239-.744 9.311-1.116z" fill="url(#paint9_radial)"/><path d="M49.04 67.707c-.093.093-.093.093-.186.093a.2.2 0 01-.186-.186c0-.093 0-.093.093-.186.28 0 .466.186.28.279zm-1.117-1.86c-.28 0-.28-.372 0-.372s.28.372 0 .372zm-.838 1.581v-.093c0-.093.186-.093.28 0v.093c.186.28-.373.28-.28 0zm7.728-1.86c-.186 0-.186-.372 0-.372.186.093.186.372 0 .372zm-1.955 3.999l.186-.186c0-.093.093-.093.186 0h.094c.093 0 .093.093.093.186 0 .186-.093.28-.28.373-.28 0-.465-.28-.28-.373zm-1.397-3.627c0 .186.093.28.093.466s-.186.186-.279.093c-.093-.093-.186-.28-.186-.373-.093-.372.28-.465.372-.186zm-.465 3.162s.093 0 .093.093c.093.093.093.186 0 .28 0 0-.093 0-.093.092-.373.187-.373-.651 0-.465zm5.121-1.023s0-.093.093-.093c0-.093.186-.093.186 0 0 0 0 .093.093.093 0 .28-.558.28-.372 0zm-2.235-.837c.186.093.186.093.28.186.093.093 0 .28-.094.186-.186 0-.186 0-.372-.093-.28-.093-.093-.465.186-.28zm1.583 3.348v-.093c.093-.186.28-.186.28 0v.093c.279.28-.373.28-.28 0zm-2.979-2.232s0 .093-.094.093c-.093.093-.186.093-.279 0 0 0 0-.093-.093-.093-.093-.372.652-.372.465 0zm-1.863 3.069s0-.093 0 0c.093-.186.28-.186.28-.093 0 0 0 .093.093.093.28.372-.652.372-.373 0zm1.397-7.161s0-.093.093-.093c0-.093.186-.093.186 0 0 0 0 .093.093.093.093.372-.465.372-.372 0zm9.497.279c-.28 0-.28-.372 0-.372s.28.372 0 .372zm-.558 3.627c-.094-.093-.187-.186-.094-.279a.2.2 0 01.187-.186c.093 0 .186 0 .279.093.186.28-.093.559-.372.372zm-1.49-2.512c-.093-.092-.093-.185 0 0 0-.092 0-.092 0 0l.093.094c0 .093-.093.28-.28.28-.092 0-.279-.094-.279-.28 0-.28.373-.372.466-.093zm-.652-1.487s0 .093-.093.093c-.093.093-.186.093-.28 0 0 0 0-.093-.093-.093 0-.28.652-.28.466 0zm0 3.907s-.093 0-.093-.094c-.093-.093-.093-.186 0-.28 0 0 .093 0 .093-.092.466-.093.466.651 0 .465zm5.866-1.582c-.186-.186-.28-.28-.372-.558-.187-.28.186-.558.465-.465.186.093.373.186.466.372.279.465-.187 1.023-.559.65zm-.559-2.418c-.279 0-.279-.465 0-.465.373 0 .373.465 0 .465zm-1.489 2.976c-.093.093-.28.093-.28.093s0-.093-.093-.093c-.093-.186-.093-.465.186-.465.28 0 .28.28.187.465zm1.583 1.674c.093-.093.186-.093.279-.186.186 0 .28.093.28.279 0 .093-.094.186-.187.28-.28.279-.652-.094-.373-.373zm3.258-1.953a.2.2 0 01.187.186c0 .186 0 .28-.094.372-.093.094-.186.094-.279.094-.28-.094-.372-.56 0-.652 0 .093.093.093.186 0-.093.093-.093.093-.186.093 0 .093 0 .186-.093.28-.093-.187.093-.373.28-.373zm-.279-2.697v.093c0 .093-.186.093-.186 0v-.093c-.28-.28.28-.28.186 0zm.838 1.581c0 .186-.186.28-.372.373-.187 0-.28 0-.373-.187-.093-.186-.093-.279 0-.465.186-.28.652-.186.652.186 0 0 0-.093-.093-.093s-.186-.093-.28-.093c.187-.28.56 0 .466.28zm-1.676-2.139c-.093.093-.186.093-.28 0h-.092c-.187-.186-.187-.558.186-.558.372 0 .372.372.186.558zm-4.935 6.975c0-.186 0-.28.093-.372.093-.093.186-.093.28 0 .093.093.186.186.093.372.093.373-.466.373-.466 0zm-2.886.465v-.372c0-.186.093-.28.279-.28h.186c.187.094.28.187.28.28v.372c-.187.279-.745.279-.745 0zm-1.676-6.975c0 .093.093.093.093.186.093.186 0 .28-.186.28-.373 0-.466-.28-.28-.56 0-.185.28-.092.373.094zm-.838 3.069s0-.093 0 0c-.187-.093-.187-.279-.093-.372 0 0 .093 0 .093-.093.186-.186.465-.093.465.186 0 .373-.28.373-.465.28zm-.373-3.069s.093 0 0 0c.373.093.186.559-.093.559-.372-.093-.465-.373-.28-.652.094-.28.373-.093.373.093zm4.749-.465c-.28 0-.28-.372 0-.372.186 0 .186.372 0 .372zm2.42-.93s0 .093-.092.093c-.093.093-.28.093-.28 0 0 0 0-.093-.093-.093-.186-.465.652-.465.466 0zm10.43 5.766s.092.093 0 0c.278.28-.094.652-.28.372 0 0 0-.093-.093-.093-.093-.186.186-.465.372-.28zm1.023-2.604c.094 0 .094-.093.187-.093.186 0 .279.093.279.28 0 .092 0 .092-.093.185-.28.373-.745-.186-.373-.372zm-1.583-.186c0 .186 0 .28-.093.466-.093.093-.186.093-.279 0-.093-.187-.093-.28-.093-.466 0-.28.466-.28.466 0zm-1.582 1.581c.186.093.279.093.372.372 0 .093 0 .186-.093.186-.186.094-.28 0-.466-.093-.279-.186-.093-.558.187-.465zm-1.49 1.395c.186 0 .28 0 .465.093.094.093.094.186 0 .28-.186.185-.279.185-.465.092-.186 0-.186-.372 0-.465zm3.166-1.023c-.094-.093-.094-.186-.187-.279 0-.186.094-.28.28-.28.093 0 .186.094.28.187.278.28-.187.652-.373.372zm-2.607-2.604c0-.28 0-.465.186-.651.093-.093.186-.093.186 0 .186.186.186.372.186.65.093.373-.558.373-.558 0zm-.094-2.697c0 .186 0 .28-.186.373h-.186c-.186-.094-.186-.187-.186-.373.093-.372.558-.372.558 0zm-1.023 1.767c0 .186.185.372.092.558 0 .093-.093.093-.186.093h-.093c-.093 0-.186-.093-.186-.093a.794.794 0 010-.651c.093-.186.372-.093.372.093zm-.466-1.023c0 .186 0 .186-.093.373-.094.093-.187.093-.28 0-.093-.094-.093-.187-.093-.373.093-.28.466-.28.466 0zm1.21 3.348c0 .186.093.372-.093.466-.093.093-.186.093-.28 0-.186-.187-.186-.28-.092-.466.093-.28.465-.28.465 0zm-1.769 3.255c0-.186-.093-.372-.093-.558 0-.093.093-.093.186-.093h.093c.093 0 .186.093.28.186a.592.592 0 010 .558c-.094.186-.466.186-.466-.093zm-1.862-.186s-.093 0 0 0c-.186 0-.28-.093-.28-.186v-.093c0-.186.094-.28.28-.28h.093a.2.2 0 01.186.187v.093c0 .186-.093.373-.28.28zm-.838-.744c0-.186 0-.186.093-.372.093-.093.186-.093.28 0 .092.093.092.186.092.372 0 .28-.465.28-.465 0zm.745-2.976c.093-.558.558-.558.651 0 0 .466-.744.466-.651 0zm-2.887.559c-.372 0-.372-.56 0-.56.373 0 .373.56 0 .56zm-.093 2.324s.093.093 0 0c.186.186.28.279.186.465 0 .093-.093.093-.093.093-.186.093-.28 0-.372-.093 0 0 0-.093-.093-.093-.187-.186.186-.465.372-.372zm.28 1.86c-.094-.186-.094-.279-.094-.465 0-.093.187-.186.28-.093a.726.726 0 01.372.372c.093.186-.372.373-.559.186zm.744-3.348c.187.279.094.65-.186.837-.093.093-.186 0-.28 0-.279-.186.187-.372.094-.558 0-.372.28-.558.372-.28zm-3.817 2.232c-.186-.093-.28-.093-.373-.279-.093-.093 0-.186.094-.28.186 0 .186 0 .372.094.28.186.186.558-.093.465zm-6.146 1.581s.094.093.094.186-.094.28-.187.28c-.372.093-.558-.187-.465-.56.093-.279.558-.185.558.094z" fill="#AC6D47"/><path d="M55.744 68.916c-.093-.372.093-.837.559-.837.186 0 .28.279.093.465-.093.093-.186.093-.186.279.186.279-.28.465-.466.093zM60.4 65.94c-.186 0-.186-.093 0 0 .093-.093.186 0 .186.093s0 .186-.093.28c-.186.093-.465.093-.559-.094-.186-.28.28-.558.466-.28zm1.21-2.14c.187.28.187.652 0 .838-.093.093-.279 0-.279-.093 0-.186.093-.372-.093-.558-.186-.186.186-.465.372-.186zm-4.096 4.279c.093-.093.093-.093.186-.093.093-.093.279.093.186.186 0 .093-.093.093-.093.186-.186.373-.559-.093-.28-.28zm66.015-10.695c.093-.093.093-.093.186-.093s.186.093.093.093c0 .093-.093.093-.093.186-.093.187-.372 0-.186-.186zm1.769-4.184c-.093-.187-.093-.373 0-.466.093-.093.186-.093.279 0 .094.186.094.28 0 .466 0 .093-.279.093-.279 0zm-5.028 2.883c-.465.186-.745-.559-.279-.745.558-.093.745.652.279.745zm-4.283.557c.093-.093.186-.186.372-.186.094 0 .28.186.28.28 0 .185-.093.279-.186.372-.28.372-.838-.187-.466-.466zm1.304-3.162h-.094c.28-.093.466.186.28.373-.28.279-.559.093-.652-.187 0-.279.372-.372.466-.186zm5.4-.558c-.372.56-.931-.093-.559-.372 0 0 .093 0 .093-.093.28-.186.652.186.466.466zm.372 2.698c-.372 0-.372-.56 0-.56.373 0 .373.56 0 .56zm-5.586 3.069s-.093 0-.093-.093c-.187-.094-.187-.28 0-.373 0 0 .093 0 .093-.093.558-.28.558.838 0 .559zm-3.538-3.256c.186-.093.279-.093.372-.093.186 0 .279.28.186.372-.093.093-.093.187-.279.187-.279.186-.559-.28-.279-.466zm5.959-2.976c0 .187 0 .28-.093.373-.094.186-.373.186-.373 0-.093-.187-.093-.187-.093-.373 0-.372.559-.372.559 0zm-5.866 4.93c-.466 0-.466-.745 0-.745.465 0 .465.745 0 .745zm-1.863 3.441c-.372 0-.558-.373-.279-.56.186-.185.652-.092.559.28v.093s-.093.187-.28.187zm-3.258-.838c0-.093-.093-.186-.187-.186-.093-.093-.093-.372.094-.465.093-.093.186-.093.372-.093s.279.186.279.372v.186c0 .279-.372.558-.558.186zm2.607-2.511c-.187.187-.373.28-.652.28-.186 0-.279-.093-.279-.186-.094-.373.372-.373.558-.466.28-.28.559.093.373.372zm-4.563 1.396c-.372 0-.372-.56 0-.56.466-.092.466.56 0 .56zm-2.048.186a.327.327 0 010-.652c.465-.093.465.652 0 .652zm6.145-4.279c0 .093-.093.093 0 0-.279.652-1.024-.186-.465-.372h.093c.186-.186.465.093.372.372zm-.559 4.557c0-.093 0-.093 0 0-.186-.186-.186-.279-.093-.372 0 0 .093 0 .093-.093.187-.186.559-.093.559.186 0 .28-.279.466-.559.28zm4.19 0c.187.186.187.559-.093.652-.372.093-.558-.186-.465-.559.093-.28.558-.28.558 0l-.093-.093h-.279l-.093.093v.093c-.093-.186.279-.465.465-.186zm-1.489-5.58c.093-.093.186-.093.372-.093s.279.28.186.372l-.279.28c-.466.186-.745-.466-.279-.559z" fill="#AC6D47"/><path d="M116.918 53.385c-.186.093-.279.093-.465 0-.094-.093-.094-.186 0-.279.186-.093.279-.093.465 0 .186 0 .186.28 0 .28zm-12.477 4.651c-.372 0-.372-.652 0-.652.373.093.373.652 0 .652zm1.397 2.511c-.279 0-.372 0-.652-.094-.186-.093-.186-.372 0-.372.186-.093.373-.093.652-.093.372 0 .372.559 0 .559zm-4.283-1.024c-.279 0-.279-.372 0-.372.186 0 .186.372 0 .372zm1.862-1.116c.279.186.093.65-.186.558-.373-.093-.559-.465-.373-.837.187-.186.652-.093.559.279zm-.559 1.953c.094-.093.187-.093.187-.28.093-.185.186-.185.279-.278h.093c.186.093.279.186.186.372-.093.279-.279.558-.558.65-.373.187-.559-.278-.187-.464zm5.028-6.324c0 .186.187.279.28.465.093.093 0 .186-.093.279-.466.279-.838-.28-.745-.651.093-.279.465-.372.558-.093zm.932 2.976s0 .093 0 0c.186.186.186.28.093.372l-.093.093c-.187.187-.559 0-.559-.186 0-.279.372-.465.559-.279zm-.28 2.418c-.186.093-.186.186-.093 0 0 0 0-.093.093 0 .093-.28.373-.093.373.093s-.093.28-.28.28c-.186 0-.279-.094-.279-.187s.093-.28.186-.186zm17.877-2.79c0 .093-.093.093 0 0-.093.093-.279.093-.279.093l-.093-.093c-.186-.186-.093-.465.186-.465.186 0 .373.372.186.465zm.373-5.022c.186-.093.186-.279.372-.279.093 0 .187 0 .187.093.186.279-.094.651-.373.744-.372.186-.652-.372-.186-.558zm-.745-2.418c.186.093.279.279.279.558 0 .093-.093.279-.186.279-.279.093-.372.093-.559-.093-.093-.093-.093-.186 0-.279.094-.186.28-.186.466-.186-.093.093-.186.093-.279.186v-.093c-.093-.186.093-.558.279-.372zm-3.911 3.441v-.093c.093-.28.466-.28.466 0v.093c.186.466-.559.466-.466 0zm2.328 2.883c.279-.093.559.372.279.559-.465.279-.744-.373-.279-.56zm.373 2.418c-.094-.372-.28-.744-.094-1.023.094-.093.187-.093.28 0 .279.186.279.65.279 1.023 0 .279-.372.279-.465 0zm-.932-6.696c-.093 0-.093 0 0 0h.187c.186 0 .372.186.279.372v.093c-.093.187-.186.28-.372.28h-.28c-.279-.186-.186-.838.186-.745zm4.284 3.999c-.28.28-.932 0-.652-.372.093-.093.186-.093.186 0l.093.093c.279-.28.559 0 .373.28zm-.28-5.487c0 .28-.093.465-.279.558-.279.186-.559-.279-.373-.465.094 0 .094-.093.094-.186.093-.279.558-.279.558.093zm-5.4 2.232s-.093 0 0 0c-.186-.186-.186-.279-.093-.372l.093-.093c.186-.186.558-.093.558.186-.093.373-.372.466-.558.28zm-2.235 2.604c.093.372.279.65.186 1.023 0 .186-.279.186-.372.093-.279-.28-.279-.651-.373-1.023-.093-.28.373-.465.559-.093zm.931 4.278c.093-.093.093-.093.093-.186 0-.465.838-.372.652.093-.093.279-.186.465-.465.558-.187.186-.559-.28-.28-.465zm1.862-2.418c-.186.093-.279.373-.558.373-.093 0-.28 0-.28-.186v-.094c0-.186 0-.279.187-.372.279-.186.465-.186.745 0 0 .093-.094.28-.094.28zm-4.655 1.674c.093-.186.093-.372.279-.558.093-.093.186-.093.186 0 .466.186.28.744-.093.93-.186.093-.465-.186-.372-.372zm-.466-3.255c-.093 0-.093-.093-.186-.186.093 0 .093.093.186.186.093 0 .093.093.093.186 0 .187-.186.28-.372.187-.093 0-.186-.187-.186-.28-.093-.372.372-.465.465-.093z" fill="#AC6D47"/><path d="M119.153 55.059c-.093.279.279.465.372.186.093-.28-.186-.372-.372-.28-.28.094-.373-.278-.186-.464.744-.465 1.676.465 1.117 1.209-.559.837-1.862.093-1.49-.837.093-.372.652-.28.559.186zm2.886-1.302c-.186.186-.372.372-.652.186-.279-.186-.279-.465-.093-.651.187-.186.559-.186.559.186 0-.093-.093-.093-.186 0 .186-.28.558 0 .372.279zm-.652-2.045c-.186 0-.372 0-.558-.187-.093-.093-.093-.186 0-.279.186-.186.279-.186.558-.186.466.093.466.652 0 .652zm-4.096 1.301v.186c0 .093-.094.187-.187.187h-.186c-.559-.187.093-.838.373-.373zm-.652 2.884c0-.187 0-.373.093-.466.186-.186.559.093.372.28v.092c0 .28-.465.373-.465.094zm.652 2.138c0-.372 0-.837.372-1.116.093-.093.186 0 .279.093.187.279 0 .744-.093 1.116-.186.186-.558.279-.558-.093z" fill="#AC6D47"/><path d="M119.805 54.222a.594.594 0 01-.559 0c-.279-.186.093-.651.372-.465l.093.093c.28 0 .28.28.094.372zm-7.729 3.163c-.372 0-.372-.56 0-.56.28 0 .28.56 0 .56zm2.328-4.651c.279.093.373.279.466.558 0 .093 0 .279-.187.372-.093.093-.186.093-.279 0-.186-.093-.093-.372-.279-.558-.28-.186 0-.465.279-.372zm1.49 1.674v.744c0 .279-.466.279-.466 0v-.744c0-.28.466-.28.466 0zm-.838 5.952c.093-.186.093-.28.093-.465.093-.186.279-.28.372-.093.28.279.094.558-.093.837-.093.279-.465 0-.372-.28zm1.769-2.139c0 .186 0 .28-.093.373-.186.279-.652 0-.373-.28 0-.28.373-.372.466-.093zm-4.469.652c-.093-.187-.093-.28-.093-.373 0 0 0-.093.093-.093.186-.186.558 0 .558.186 0 .373-.372.559-.558.28zm-1.676 2.417v-.372c0-.093.093-.28.186-.28.093-.092.186-.092.372 0 .093 0 .187.187.187.28v.372c-.094.372-.745.372-.745 0zm-2.421.559c-.186 0-.279 0-.373-.187-.093-.093-.093-.186 0-.279.094-.093.187-.093.373-.186.372 0 .372.652 0 .652zm-4.749-1.117c0-.372.186-.558.466-.651.279-.093.465.279.279.465-.093.093-.093.186-.186.279 0 .372-.559.279-.559-.093zm4.47-.93s.093 0 0 0v.187c-.094-.094-.094-.187-.094-.28 0-.186.187-.28.373-.186h.093c.186.093.093.372-.093.465-.093 0-.093.094-.186.094-.187 0-.187-.187-.093-.28zm.931.186c0-.465 0-1.023.186-1.488 0-.093.186-.186.279 0 .093.465 0 1.023-.093 1.488 0 .279-.372.279-.372 0zm2.42-5.672c-.186-.094-.186-.28-.093-.28 0 0 .093 0 .093-.093.187-.093.466-.093.466.186 0 .28-.279.373-.466.187zm-9.776 5.672s0-.093 0 0c-.186-.372.186-.558.372-.372.187.093.187.28.093.465-.093.28-.465.187-.465-.093zm-3.725 1.767c.094.28-.186.652-.465.372-.466-.279.28-.744.465-.372zm3.632.093c-.186.187-.745.28-.745-.186 0-.093.093-.093.093-.186h.186c.373-.186.652.093.466.372zm-5.214-2.046c.093 0 .186-.093.372-.186.093-.093.28 0 .372.186.094.465-.279.65-.651.65-.373-.092-.373-.557-.093-.65zm1.676-2.976c0 .279.186.65-.094.93-.093.093-.186.093-.279 0-.28-.28-.093-.651-.093-.93 0-.28.372-.28.466 0zm-6.425 4.371v-.093c0-.093 0-.279.093-.372.093-.093.186-.093.28 0 .093.093.186.186.093.372v.093c.093.28-.373.28-.466 0zM81.257 65.01c-.093-.186-.187-.28-.187-.465 0-.186.094-.28.28-.28.186.094.28.094.465.28.28.279-.186.837-.558.465zM67.29 62.406c0 .186 0 .28-.186.373-.093.093-.186.093-.186 0-.093-.094-.187-.187-.187-.373 0-.28.56-.28.56 0zm3.073-.372a.511.511 0 01-.28.465c-.093.093-.186.093-.279 0-.28-.186 0-.465 0-.651.093-.372.652-.186.559.186zm22.439 0c.094 0 .187-.093.373-.093s.28.28.186.372c-.093.093-.186.186-.28.186-.372.28-.744-.279-.279-.465zm4.19 1.766c-.372-.185-.838-.836-.372-1.208.093-.093.28-.093.372.093.093.093.094.279.187.372.093.186.093.279.186.372.093.279-.186.558-.373.372zm-6.332-.092c.094.093.094.186 0 .28v.092c-.185.28-.558.187-.558-.186 0-.372.373-.372.559-.186zm-.744-4.65c0-.093 0 .093.093.093.093.28-.28.466-.465.373a.448.448 0 01-.187-.559c0-.372.559-.28.559.093zm-2.141 4.464c0-.093 0-.186.093-.28 0-.092.186-.278.372-.278h.186c.093.093.186.279.186.372 0 .093-.093.186-.093.279-.279.465-.838.372-.745-.093zm-.652-2.697l.093.093c.186.186.093.373-.093.466-.28.093-.466-.093-.559-.28-.186-.372.373-.558.559-.28zm6.517-1.953s-.093 0 0 0v-.186c-.093 0-.186-.093-.186-.093l.093-.093c.187-.093.373 0 .373.186a.511.511 0 01-.28.465.284.284 0 01-.372 0c-.28-.186-.28-.465-.093-.744.28-.093.559.186.466.465z" fill="#AC6D47"/><path d="M97.179 57.943c-.093 0-.187.093-.28.093-.093 0-.279 0-.279-.093-.093-.093-.093-.093-.093-.187v-.093a.2.2 0 01.186-.186c.093 0 .186-.093.28-.093.465-.186.651.465.186.559zM95.317 62.5c-.187.186-.466.093-.56-.094-.092-.186 0-.279.094-.465.093-.093.28 0 .372 0l.094.093c.093.093 0 .093 0 0h-.373c.28-.186.652.186.373.465zm2.793-.56c.28-.092.558.187.372.466-.28.28-.745-.279-.372-.465z" fill="#AC6D47"/><path d="M98.39 61.94c0-.185 0-.464.185-.557.093-.093.186-.093.28 0 .093.186.186.372.186.558 0 .372-.652.372-.652 0zm-1.77-5.207c0 .093.093.186.093.279.093.186 0 .279-.093.372-.093.093-.093.093-.186.093h-.093c-.093 0-.187-.093-.187-.186s0-.186-.093-.28c-.093-.371.373-.557.559-.278zm-7.449 1.86h.093c.28.093.28.558 0 .558h-.093c-.559.28-.559-.651 0-.558zm-4.097 1.954c-.186-.094-.186-.28-.093-.373 0 0 .093 0 .093-.093.186-.186.559-.093.559.186 0 .373-.373.466-.559.28zm-2.048.279c-.373.093-.559-.373-.28-.56.466-.278.745.373.28.56zm3.538 3.719c-.186-.28-.093-.651.28-.744.186-.093.372.093.372.279v.372c0 .279-.466.372-.652.093z" fill="#AC6D47"/><path d="M87.123 64.173s.093-.093.186-.093c.093-.093.28 0 .28.093.279.559-.466.745-.839.372-.28-.279.093-.651.373-.372zm1.862-3.999c.093.093.093.093.186.093.093.093.186.186.186.372a.2.2 0 01-.186.187c-.093 0-.28 0-.372-.187 0-.093-.093-.093-.093-.186-.187-.186 0-.465.279-.279zm.465 1.488c.187.093.373.186.56.372.092.093 0 .187-.094.187-.28 0-.372-.094-.652-.28-.28-.093-.093-.372.187-.28z" fill="#AC6D47"/><path d="M89.823 62.499c0-.093-.372-.186-.28-.372a.2.2 0 01.187-.186c.372 0 .652.372.558.744 0 .279-.465.093-.465-.186zm-3.166-.093c.093-.186.093-.372.373-.372.093 0 .279.093.279.186 0 .279 0 .465-.28.65-.279.187-.558-.278-.372-.464zm1.024-3.348c.28.186.559.186.745.372.093.093.093.372-.093.465-.372.186-.745-.093-1.117-.372-.186-.28.186-.651.465-.465zm4.842-.279c.28-.093.466-.093.652 0 .093.093.093.186.093.28-.093.185-.372.279-.559.372-.465.093-.558-.559-.186-.652zm4.097-.372c-.372 0-.745.094-1.024-.093-.093-.093-.093-.186 0-.279.28-.186.652-.186 1.024-.093.372 0 .372.465 0 .465zm-12.942 1.302s.093 0 .093.093c.186.093.186.373 0 .466 0 0-.093 0-.093.093-.652.186-.652-.931 0-.652zm1.769 5.58s0 .093 0 0c-.373-.093-.187-.744.186-.651.186 0 .28.093.372.279.187.465-.372.744-.558.372z" fill="#AC6D47"/><path d="M60.4 66.405c-.186 0-.186-.372 0-.372s.186.372 0 .372zm-3.073 2.511h.093c.093 0 .093.186 0 .279h-.093c-.28.093-.28-.372 0-.28zm10.243-2.604c-.094.093-.187.093-.28.093-.093 0-.093-.093-.093-.093 0-.093 0-.186.093-.28.093-.185.466.187.28.28zm-1.677 2.138s0-.092.094-.092c0-.093.186-.093.186 0 0 0 0 .093.093.093.186.372-.559.372-.373 0zm-2.886-3.905c-.28 0-.28-.372 0-.372.186 0 .186.372 0 .372zm0 4.278c-.093 0-.093-.093 0-.093s.093.093 0 .093zm1.397-2.603s-.093 0-.093-.094c-.094-.093-.094-.186 0-.186 0 0 .093 0 .093-.093.372-.093.372.559 0 .372zm-6.518-2.047v.093c0 .186-.373.186-.373 0v-.093c-.093-.372.373-.372.373 0zm-2.049 4.092s0 .093-.093.093c0 .093-.186.093-.186 0 0 0 0-.093-.093-.093-.093-.372.559-.372.372 0zm5.96.837c-.28 0-.28-.372 0-.372.279 0 .279.372 0 .372zm-7.729-3.72c-.093.186-.093.372-.279.466h-.186c-.093-.187 0-.373.093-.56.093-.371.465-.185.372.094zm-1.396 4.836s0-.093.093-.093c.093-.093.28-.093.28 0 0 0 0 .093.092.093.093.465-.651.465-.465 0zm0-2.232c-.373 0-.373-.558 0-.558.372.093.372.558 0 .558zM49.6 67.15c-.373 0-.373-.56 0-.56.371 0 .371.56 0 .56zm-1.025-2.14c0 .279 0 .465-.093.65-.093.187-.28.187-.373 0-.093-.278-.093-.464-.093-.65 0-.28.559-.28.559 0zm0 3.162c-.093.093-.093.093-.186.093a.2.2 0 01-.187-.186c0-.093 0-.186.093-.186a.206.206 0 01.28.28zm1.49 2.418c0-.186 0-.186.093-.372.093-.093.186-.093.28 0 .092.093.092.186.092.372-.093.28-.465.28-.465 0zm.558-5.022c-.186 0-.186-.372 0-.372.28.093.28.372 0 .372zm1.025 1.302s-.094 0 0 0c-.187.186-.28.186-.373.093 0 0 0-.093-.093-.093-.28-.465.745-.465.465 0zm5.121-.279c-.093-.093-.093-.093 0 0-.187-.186-.187-.279-.093-.372 0 0 .093 0 .093-.093.465-.28.465.745 0 .465zm1.769 1.302c-.186 0-.186-.372 0-.372.279.093.279.372 0 .372zm.838 1.674s-.093 0-.093.093h-.187s-.093 0-.093-.093c-.093-.093-.093-.186 0-.186 0 0 .093 0 .093-.093h.187s.093 0 .093.093c.093 0 .093.093 0 .186zm35.754-7.161c-.186 0-.186-.28 0-.28.186.094.186.28 0 .28zm-2.793.186c-.28 0-.28-.465 0-.465.28-.093.28.465 0 .465zm-.559.93c-.186 0-.186-.28 0-.28s.186.28 0 .28zm4.283-6.789s0 .093-.093.093c-.093.093-.186.093-.28 0 0 0 0-.093-.092-.093-.28-.465.745-.465.465 0zM99.6 61.57c-.094-.094-.187-.187-.094-.28l.094-.093c.186 0 .186 0 .279.093.186.186-.093.465-.28.28zm-3.818-2.326s0-.093 0 0c.093-.093.093 0 0 0zm4.19-2.324c-.186.093-.186.093-.372.093-.094 0-.187-.094-.094-.28.094-.186.187-.186.373-.28.186 0 .279.373.093.466zm3.724 2.603s-.093 0-.093-.093c-.093 0-.093-.186 0-.186 0 0 .093 0 .093-.093.28-.093.28.465 0 .372zm-10.986.465c-.28 0-.28-.465 0-.465.279 0 .279.465 0 .465zm-3.725-.744v.093c0 .28-.466.28-.466 0v-.093c-.186-.372.559-.372.466 0zm-1.49 5.022c-.186 0-.186-.372 0-.372.28.093.28.372 0 .372zm-1.675-3.813c-.094.186-.187.465-.373.65-.187.187-.373 0-.373-.185 0-.186.093-.372.28-.558.186-.28.465-.186.465.093zm-1.677 4.557c-.28 0-.28-.465 0-.465s.28.465 0 .465zm-2.328.837c-.279 0-.279-.372 0-.372.28 0 .28.372 0 .372zm.28-3.627c-.28 0-.28-.372 0-.372s.28.372 0 .372zm1.862 1.116s-.093 0-.093-.093c-.093 0-.093-.186 0-.186 0 0 .093 0 .093-.093.28 0 .28.558 0 .372zm-3.166-3.348c0 .094 0 .094 0 0-.093.094-.28.094-.28.094l-.092-.094c-.186-.186 0-.465.186-.465.28.093.372.372.186.465zm-1.583 3.255c0 .186 0 .186-.093.28 0 .092-.186.092-.186 0-.093-.094-.093-.187-.093-.28.093-.28.372-.28.372 0zm-2.886-1.302c.093.186-.093.373-.28.186-.279-.186-.186-.558.187-.558.186 0 .28.28.093.372zm1.862 3.906v-.28c.093-.185.373-.185.373 0v.28c.093.28-.373.28-.373 0zm1.583-4.371a1.283 1.283 0 01-.373.28.206.206 0 01-.279-.28c.093-.186.186-.186.28-.372.279-.28.651.093.372.372zm-3.538 2.977c-.186 0-.28 0-.373-.187-.093-.093-.093-.186 0-.279.093-.093.187-.186.373-.186.372 0 .372.652 0 .652zm-3.539-1.21c0 .186 0 .186-.093.372-.093.094-.279.094-.279 0-.093-.093-.093-.186-.093-.372 0-.372.466-.372.466 0zm.652 3.813v-.093c0-.093.186-.093.186 0v.093c.187.28-.279.28-.186 0zm2.048-.836c-.092-.094-.279-.28-.372-.373-.186-.186.093-.465.28-.28a.732.732 0 01.372.373c.28.186-.093.559-.28.28zm-1.768-4.465c0 .186 0 .28-.094.466-.093.093-.186.093-.279 0-.186-.187-.186-.28-.093-.466 0-.28.466-.28.466 0zm52.607-9.485c-.279 0-.279-.373 0-.373.28 0 .28.372 0 .372zm-6.611 3.347v-.093c.093-.186.28-.186.28 0v.093c.279.373-.373.373-.28 0zm6.239.744c-.093-.186-.093-.186-.093-.372 0-.093.186-.186.279-.093.093.093.093.093.186.28.093.185-.186.372-.372.185zm-2.421-2.79c0-.186 0-.186.093-.279.093-.093.186-.093.279 0 .093.093.093.093.093.28 0 .372-.558.372-.465 0zm.465-3.348c0 .093 0 .186-.093.28 0 .093-.186.093-.186 0-.093-.094-.093-.187-.093-.28 0-.186.372-.186.372 0zm-1.303 5.952c0-.186 0-.279.093-.465.093-.093.186-.093.279 0 .093.186.093.28.093.465 0 .373-.465.373-.465 0zm-10.149 1.395c.093.093.093.186.093.28a.2.2 0 01-.186.185c-.187 0-.187 0-.28-.093-.186-.186.187-.558.373-.372zm2.421-4.65s0 .093 0 0c.093.093.093.28.093.28s-.093 0-.093.092c-.187.093-.466.093-.466-.186 0-.186.279-.28.466-.186zm4.748-.092c-.279 0-.279-.466 0-.466.28 0 .28.466 0 .466zm-2.886 4.928c.186.093.186.186.093.28 0 0-.093 0-.093.092-.373.187-.373-.651 0-.372zm3.073-.186c-.28 0-.28-.465 0-.465.279.093.279.465 0 .465zm-3.911-2.604c.093 0 .186 0 .279.093.093.093.093.28 0 .28-.093.093-.186.093-.279.093-.466.093-.466-.56 0-.466zm2.514-1.86c-.093.093-.186.093-.279.093-.094 0-.094-.093-.094-.093 0-.093 0-.186.094-.279.186-.186.465.093.279.28zm2.886 1.302c.093 0 .093-.093 0 0 .093-.186.28-.186.373-.093 0 0 0 .093.093.093.279.466-.745.466-.466 0zm-9.125-.558s.001.093-.093.093c-.093.093-.186.093-.279 0 0 0 0-.093-.093-.093-.279-.372.745-.372.465 0zm1.77 1.86c0 .093 0 .186-.094.28 0 .093-.186.093-.186 0 0-.094-.093-.187-.093-.28 0-.186.373-.186.373 0zm.465 3.069c.093-.093.186-.093.279-.093 0 0 0 .093.094.093.093.186.093.372-.187.372-.279 0-.372-.186-.186-.372zm-3.817 2.139c0-.093 0-.093 0 0 .093-.186.279-.186.372-.093 0 0 0 .093.093.093.186.373-.838.373-.465 0zm-1.583-2.79v.093c0 .187-.28.187-.28 0v-.093c-.186-.372.373-.372.28 0zm1.769 1.582c0-.187 0-.373.186-.466 0-.093.186-.093.186 0 .093.186.186.28.186.465 0 .373-.558.373-.558 0zm0-3.163c-.186 0-.186-.372 0-.372s.186.372 0 .372zm-.931-2.139c0 .186 0 .186-.093.373-.093.093-.187.093-.28 0-.093-.093-.093-.187-.093-.373 0-.28.466-.28.466 0zm-1.956 2.512c-.093.185-.093.185-.279.279-.093.093-.186 0-.186-.094 0-.186 0-.186.093-.372.186-.186.559 0 .372.186zm-1.862-1.303s-.093 0 0 0c-.093.094-.186.094-.279.094l-.093-.093c-.186-.187 0-.466.186-.466s.372.28.186.465zm-2.234.558c0 .093 0 .093 0 0-.094.187-.28.187-.373.093 0 0 0-.093-.093-.093-.186-.372.838-.372.466 0zM105 58.78c-.279 0-.279-.466 0-.466.372 0 .372.465 0 .465zm2.235 2.604c-.28-.093-.466-.373-.187-.56.094-.092.187-.092.28 0 0 0 0 .094.093.187.186.093 0 .466-.186.373zm-.28-2.233v-.093c0-.186.28-.186.373 0v.093c0 .28-.466.28-.373 0zm-1.396-1.674h-.093c-.187 0-.187-.28 0-.28h.093c.279-.185.279.373 0 .28zm-4.004 1.674c-.279 0-.279-.465 0-.465s.279.465 0 .465zm1.024 3.162v-.093c0-.093.186-.093.279 0v.093c.187.372-.465.372-.279 0zm2.328-1.209c-.186 0-.186-.372 0-.372.279 0 .279.372 0 .372zm-4.656-.93c.093-.093.187-.093.28-.093l.093.093c.186.093 0 .372-.186.372-.28.093-.373-.186-.187-.372zm1.304-2.232c-.186 0-.186-.372 0-.372s.186.372 0 .372zm.186-1.952c0 .092 0 .185-.093.279 0 .186-.279.186-.279 0 0-.094 0-.187-.093-.28 0-.28.465-.28.465 0zm-3.259 2.696v-.093c0-.093.186-.093.28 0v.093c.186.186-.28.186-.28 0zm-1.397.837v.093c-.093.187-.279.187-.372 0v-.093c-.186-.372.466-.372.373 0zm1.49 3.627v-.093c0-.093.093-.093.186 0v.093c.094.186-.279.186-.186 0zm-.931-1.767c-.28 0-.28-.372 0-.372.28-.093.28.372 0 .372zm-2.514 1.953s.093-.093 0 0c.093-.093.186-.093.28-.093l.093.093c.186.186 0 .372-.187.372-.186 0-.279-.279-.186-.372zm-.838-3.162c-.28 0-.28-.465 0-.465.28.093.28.465 0 .465zm-.186-2.324c0 .092.093.185.093.279.093.186-.093.279-.28.279-.278 0-.372-.373-.278-.652.186-.28.558-.186.465.093zm-1.956.743c.094 0 .094 0 0 0 .094-.093.187-.093.187 0h.093c.186.186.186.465-.093.465-.28 0-.373-.372-.186-.465zm-1.117 3.348c-.279 0-.279-.465 0-.465.28 0 .28.465 0 .465zm.373-3.534c0 .186 0 .373-.186.466 0 .093-.187.093-.187 0-.093-.187-.186-.28-.186-.466.093-.28.559-.28.559 0zM85.26 59.43c.094.093.094.186.187.28 0 .186-.093.279-.28.279-.093 0-.186-.093-.279-.186a.273.273 0 01.372-.373z" fill="#55261A"/><path d="M84.516 62.87s.093 0 .093.094a.283.283 0 010 .373s-.093 0-.093.093c-.466.279-.466-.931 0-.56zm5.494 1.303c-.373 0-.373-.558 0-.558.278 0 .278.558 0 .558zm3.165-1.395s0-.093.093-.093c.093-.093.186-.093.186 0 0 0 0 .093.093.093.187.28-.558.28-.372 0zM81.07 63.987c0 .093-.093.093 0 0-.093.093-.186.093-.279.093 0 0 0-.093-.093-.093-.093-.186-.093-.372.186-.372.186 0 .28.28.186.372zm1.025-.093c-.186 0-.186-.28 0-.28s.186.28 0 .28zm-5.401-.744c-.093 0-.093 0 0 0-.186.093-.279.093-.279 0l-.093-.093c-.186-.186 0-.372.186-.372s.28.28.186.465zm-1.396 3.255c0-.093 0-.093 0 0 .093-.093.186-.093.186 0h.093c.186.093.093.465-.093.465-.28 0-.373-.372-.186-.465zM45.037 63.15s.093.093 0 0c.186.093.186.28.093.28 0 0-.093 0-.093.092-.373.28-.373-.651 0-.372zm-.093 3.72s-.094 0 0 0c-.187-.093-.187-.28-.094-.28 0 0 .093 0 .093-.092.373-.28.373.745 0 .372zm-2.701-3.534s0 .093-.093.093c-.093.093-.186.093-.186 0 0 0 0-.093-.093-.093-.186-.372.558-.372.372 0zm-.558 3.255s0 .093-.093.093c0 .093-.187.093-.187 0 0 0 0-.093-.093-.093-.093-.372.559-.372.373 0zm.558 3.255s0-.093 0 0c.186-.186.28-.186.373-.093 0 0 0 .093.093.093.28.465-.838.465-.466 0zm2.235.372c-.093-.186-.093-.279-.093-.465 0-.093.186-.093.186-.093.186.093.186.093.28.279.186.28-.28.559-.373.28zm-1.397-3.998s0 .092-.093.092c-.093.093-.186.093-.28 0 0 0 0-.093-.092-.093-.28-.465.745-.465.465 0zm.279-1.21c-.186 0-.186-.28 0-.28.187 0 .187.28 0 .28zm-1.675-3.255s0 .093-.093.093c-.094.093-.187.093-.187 0 0 0 0-.093-.093-.093-.093-.372.652-.372.373 0zm-1.397 4.65c-.28 0-.28-.465 0-.465.28.093.28.465 0 .465zm.186 2.511v-.093c0-.372.466-.372.559 0v.093c.093.373-.559.373-.559 0zm7.449 2.511v-.093c.093-.186.28-.186.372 0v.093c.187.372-.465.372-.372 0zm1.117-2.883c-.093-.28-.186-.651 0-.93.093-.093.187-.093.28 0 .186.279.093.558 0 .93 0 .186-.187.186-.28 0zm2.7-5.208v.093c0 .093-.093.093-.093 0v-.093c-.093-.093.094-.093.094 0zm.373.372c0-.093 0-.093 0 0-.093-.186-.093-.186-.093-.279 0 0 0-.093.093-.093.186-.186.466 0 .466.186s-.28.28-.466.186z" fill="#55261A"/><path d="M126.602 24.183l-7.263-1.58-20.112-10.51c-1.862-1.115-3.352-2.045-5.68-1.394-1.582.465-2.98 1.488-4.376 2.325-3.724 2.232-8.007 3.534-12.104 4.929-6.425 2.139-12.756 4.556-18.995 7.16-4.004 1.674-8.007 2.418-12.197 3.534-1.49.372-6.425 3.07-6.611 4.092-.187 1.023 1.676 3.72 4.562 4.185 2.887.558 8.194.651 9.59 2.14 1.49 1.487 2.515 2.882 3.26 1.673.744-1.209 3.724-2.604 3.724-2.604l46.09-8.37 20.112-5.58z" fill="url(#paint10_radial)"/><path d="M61.983 32.554s-4.097-.837-5.587-2.79c-1.49-1.953-2.328-3.44-2.607-5.394-.28-1.953 0-4.929 0-4.929s.931-4.278 2.7-6.789c1.676-2.604 3.352-4.092 3.352-4.092l3.352-2.139 4.004-1.58s3.352-.652 3.91-1.582c.56-.93.746-1.58.746-1.58L71.015.654S74.087 1.957 76.6 3.91c2.514 1.953 4.19 6.231 4.19 6.231l.559 3.255 2.886.372 4.004 1.86 2.793 1.581s1.583 1.21 2.887 2.976c1.21 1.767.93 3.255.93 3.255l-.371 1.674s.093 1.581-.745 2.976-3.26 1.581-3.26 1.581l-3.444-.279-1.863-.744s-.745 2.325-2.886 2.325c-2.142 0-4.004-.744-4.935 0s-2.793 1.767-2.793 1.767-1.397.186-1.77.279c-.372.093-.93.186-.93.186s-.652.279-1.49 0c-.931-.279-1.583-.279-1.583-.279l-6.797-.372z" fill="#DEE0F1"/><path d="M94.292 12.745l-2.607-1.581-2.886-1.116-1.956 4.742 2.142.93 2.42 1.768 2.887-4.743z" fill="#9FCE61"/><path d="M84.143 13.675l.466-2.232 3.259.837-1.025 2.51-2.7-1.115z" fill="#F7ED4E"/><path d="M94.85 23.904s4.47.93 3.353 2.697c-1.024 1.767-4.749 2.697-6.145 2.883-1.397.186-8.66 1.767-8.66 1.767l-10.335 2.232s-6.145.465-7.263.93c-1.117.465-9.031 1.023-12.011-.279-2.886-1.302-3.073-3.069-3.073-3.069l-3.817-.372 2.7-2.232-.28 1.488 7.077-.186 4.004 2.511 9.497 1.023s3.073.28 5.587-1.023c2.514-1.302 4.562-1.395 4.562-1.395l1.77.28s1.862.092 2.327-.745l.931-1.674 1.397.651 2.141.465s3.446.558 5.029-1.674c1.582-2.232.744-2.976.744-2.976l.466-1.302z" fill="#55261A"/><path d="M73.901 8.746c-.186.279-.28.558-.559.744-.186.186-.745.465-1.024.65l-1.117.838c-.745.558-1.583 1.023-2.421 1.58-1.49 1.117-2.793 2.418-2.607 4.372.28 2.324 2.514 4.184 2.141 6.416-.279 1.395-1.49 2.418-2.7 2.976-1.303.651-2.793 1.023-4.283.93-3.538-.279-5.494-3.906-5.587-7.16-.093-2.883 1.304-6.231 3.166-8.463 1.118-1.395 2.421-2.604 3.725-3.627 1.117-.93 2.607-1.395 4.003-2.046 2.049-.93 5.308-2.046 5.215-4.743C73.808 2.98 75.11 6.42 73.9 8.746zm5.214 17.297c.838-.186 2.235.558 2.98 0 .465-.372.465-1.116.279-1.674-.28-.93-.745-1.86-1.49-2.51.745.65 1.49 1.394 2.049 2.231.93 1.488 1.676 5.115-.466 5.952-.372.186-.838.186-1.21.186-1.583 0-3.166.186-4.47 1.023-.745.372-1.303 1.023-2.048 1.395-.745.372-1.583.651-2.42.28 1.303-.652 2.047-2.047 2.14-3.535.094-1.395-.279-2.883-.837-4.185.279.744.838 1.302 1.396 1.767.28.186.652.372 1.118.465 1.21-.093 1.955-1.209 2.98-1.395z" fill="#B9BCDF"/><path d="M75.95 15.441c5.214.558 9.962 3.534 13.407 7.44.559.651 1.118 1.395 1.397 2.325.559 1.767-.28 2.79-1.955 3.255a9.31 9.31 0 01-3.911.28c.931-2.419-.186-5.209-1.77-7.255-1.954-2.51-4.468-4.37-7.169-6.045z" fill="#B9BCDF"/><path d="M87.681 15.906c1.583.745 3.166 1.675 4.377 2.976 1.21 1.302 1.955 3.07 1.862 4.836-2.421-1.953-5.028-3.534-7.822-4.835-1.303-.558-2.7-1.116-3.817-1.953 2.235.744 4.562 1.488 6.797 2.232.373.093.931.186 1.117-.186.094-.186 0-.28 0-.465-.372-1.302-1.769-2.046-2.98-2.697l.466.092zM77.998 5.863c.745 1.023 1.024 2.51.558 3.72-.279.744-.93 1.488-1.675 1.488s-1.304-.651-1.49-1.302c-.28-.651-.187-1.395-.28-2.046 0-.744-.093-1.488-.558-2.046.372 1.767-.373 3.72-1.77 4.836.56 1.116 1.77 1.674 2.887 2.139a16.024 16.024 0 005.866 1.116c.093-1.674-.466-3.441-1.21-4.93-.745-1.487-1.863-2.882-2.887-4.277l.559 1.302zM65.335 27.996c1.676-.65 5.493-3.348 6.518-.744.838 1.86.186 4.278-1.956 4.93-.559.185-1.117.185-1.676.185-2.141-.093-4.19-.744-6.238-1.488-1.77-.65-3.725-1.302-4.749-2.883 2.7.93 5.587.93 8.1 0z" fill="#B9BCDF"/><path d="M69.804 18.603c-.372-1.209-.372-2.604.093-3.813.093-.278 2.235-2.882 2.421-2.51 1.397 3.162 4.563 4.556 6.61 7.253.932 1.302 1.677 2.883 1.49 4.464-.558-.186-.93-.65-1.49-1.023-.465-.372-1.21-.558-1.675-.186-.559.465-.28 1.395-.745 1.953-.28.372-.838.372-1.21.28-.466-.094-.745-.373-1.118-.652-1.862-1.58-3.631-3.44-4.376-5.766zm10.708-4.091c2.607-1.302 7.076.464 8.66 2.79.185.279.185.65 0 .837-.187.186-.56.186-.839.186a7.871 7.871 0 01-1.583-.465c-1.117-.372-2.141-.744-3.259-1.116-1.024-.372-2.141-.745-2.98-1.396-.185-.186-.465-.465-.278-.743.093 0 .186 0 .279-.093zm-10.801 9.113c0-.837-.373-1.488-.652-2.232 1.397.744 2.235 1.581 2.98 2.976 1.024 1.767 1.024 4.185.372 6.045 0-.837.093-1.674-.186-2.51-.186-.838-.652-1.582-1.304-2.047-.651-.465-1.676-.65-2.42-.186.93-.372 1.303-1.302 1.21-2.046zM74.367 2.7c.93.652 1.769 1.303 2.42 2.233.652.93 1.025 2.046.745 3.069-.093.279-.186.65-.465.744-.28.093-.559-.093-.745-.28-.186-.185-.28-.464-.28-.743-.279-1.116-.465-2.232-.93-3.255-.373-1.023-1.025-2.046-1.863-2.79L74.367 2.7zM59.934 9.118c.094-.28.652-.093.652.186.093.279-.186.65-.372.837-.652.744-1.21 1.488-1.862 2.232-.466.558-.932 1.116-1.304 1.767-.745 1.394-.745 3.162-1.49 4.556-.186.28-.465.651-.838.465-.186-.093-.186-.372-.186-.558-.093-1.86.745-3.627 1.676-5.208.931-1.766 2.048-3.533 3.724-4.65v.373z" fill="#fff"/><path d="M113.101 23.997l-.559-1.86-2.328.372.559 1.674 2.328-.186z" fill="#EE64A5"/><path d="M104.628 22.23l.372-1.953-3.818-1.209v4l3.446-.838zm-36.965-6.044c0-.187-3.352-4.836-3.352-4.836l-4.656 2.046 3.724 4.928 4.284-2.139z" fill="#61C8F3"/><path d="M63.752 20.742l-1.117 2.511-3.539-1.209 1.676-2.697 2.98 1.395z" fill="#F15525"/><path d="M53.882 25.113h-3.538l-1.21 4.743 7.076.093c-.093.093-1.955-2.79-2.328-4.836z" fill="#DC62A4"/><path d="M45.782 33.018l-.745 1.86-1.863-.465.745-1.86 1.863.465z" fill="#C33B27"/><path d="M70.642.097C76.23 2.236 81.164 6.979 81.63 13.21c0 .186-.28.186-.372 0-.466-6.417-5.4-10.23-10.708-13.02-.093 0 0-.093.093-.093zM84.609 17.86c2.7 1.488 5.866 2.883 8.194 4.835 1.21 1.023 2.234 2.418 1.862 4.092-.838 4.185-6.425 3.348-9.311 2.697-.373-.093-.187-.558.186-.465 1.49.28 3.072.744 4.562.558 3.445-.279 5.4-3.627 2.421-6.324-2.328-2.046-5.4-3.44-8.007-5.114 0-.186.093-.28.093-.28z" fill="#7D82AC"/><path d="M76.508 15.627c3.725 2.511 9.87 8.091 8.66 13.3-.373 1.58-1.584 2.51-3.166 2.51-3.166 0-2.049-1.116-6.611 1.023-1.21.558-1.49 1.023-2.887.837-.186 0-.186-.279 0-.279 2.514-.186 3.26-2.046 5.308-2.51 2.514-.559 7.076 1.394 6.89-3.349-.093-4.743-5.028-8.555-8.287-11.345-.093-.094 0-.187.093-.187zM71.666.655c2.142 1.488 4.004 4.557 3.352 7.347-.279 1.302-1.024 2.046-2.141 2.697-1.956 1.302-3.91 2.511-5.773 3.813-.186.093-.28-.093-.186-.279 1.49-1.488 3.258-2.418 4.934-3.627 4.377-3.069 2.7-6.882-.279-9.95 0 .092.093 0 .093 0z" fill="#7D82AC"/><path d="M69.152 19.905c2.794 2.418 6.425 6.138 5.68 10.23-.465 2.883-3.631 4.557-6.238 3.255-.28-.093-.093-.465.186-.372 4.842.837 6.331-3.534 4.655-7.347-1.024-2.232-2.7-3.999-4.469-5.672-.093-.093.093-.186.186-.093z" fill="#7D82AC"/><path d="M71.76 27.717c-.094-.465-.28-.93-.652-1.302-.373-.279-.745-.279-1.21-.279-.373.093-.839.186-1.211.372-2.049.837-4.004 1.674-6.239 1.581-1.955 0-4.003-.65-5.493-2.046-3.26-2.883-3.631-8.37-1.49-11.996.093-.094.28 0 .186.092-1.303 3.163-1.676 6.975.186 10.044 2.98 4.743 7.822 3.627 12.012 1.953.838-.279 1.769-.65 2.607-.465 1.21.186 1.583 1.488 1.303 2.511.094-.093.094-.279 0-.465z" fill="#7D82AC"/><path d="M94.385 12.745c-.838 1.58-1.676 3.348-2.793 4.65-.093.093-.186 0-.093-.093.745-1.581 1.769-3.255 2.793-4.65 0-.093.186 0 .093.093z" fill="#729746"/><path d="M94.292 12.745L91.5 11.35c-.931-.465-1.955-.744-2.793-1.21-.094 0 0-.185.093-.185 1.862.465 4.003 1.58 5.493 2.79.093 0 .093-.093 0 0z" fill="#729746"/><path d="M88.799 10.048c-.466 1.58-1.025 3.44-1.77 4.835 0 .094-.186 0-.093-.092.373-1.582 1.025-3.348 1.77-4.93 0 .094.093.094.093.187z" fill="#729746"/><path d="M87.588 12.373c-1.024-.28-2.141-.558-3.165-.837.093 0 .093-.093.186-.093 0 .837-.093 1.58-.373 2.418-.093.186-.28.093-.28-.093.28-.744.373-1.488.373-2.325 0-.093.094-.093.187-.093 1.024.279 2.141.558 3.165.837.094 0 .094.279-.093.186z" fill="#EDB34C"/><path d="M64.497 11.35c1.117 1.488 2.328 3.162 3.165 4.836 0 .093-.093.186-.093.093-1.21-1.488-2.234-3.255-3.165-4.836 0-.093.093-.093.093-.093zm3.165 5.022c-.744.372-1.49.744-2.234 1.023-.652.279-1.304.65-1.955.836-.094 0-.187-.093-.094-.186.652-.372 1.49-.65 2.235-1.023.652-.185 1.304-.464 2.048-.65 0 0 0-.093 0 0z" fill="#4A95B5"/><path d="M64.497 11.443c-1.583.65-3.166 1.302-4.656 2.139-.186.093-.28-.186-.093-.186 1.49-.837 3.166-1.581 4.749-2.046.093-.093.093 0 0 .093z" fill="#4A95B5"/><path d="M63.473 18.324c-1.397-1.488-2.608-3.255-3.818-4.836-.093-.092.093-.278.186-.185 1.304 1.673 2.607 3.255 3.632 5.021 0 .093.093 0 0 0z" fill="#4A95B5"/><path d="M63.752 20.835c-.373.744-.652 1.581-1.024 2.325 0 .093-.093 0-.093 0 .186-.837.651-1.58 1.117-2.325 0 0 0-.093 0 0z" fill="#B54019"/><path d="M63.752 20.835a19.233 19.233 0 01-3.166-1.395c-.093-.093 0-.279.093-.186a13.75 13.75 0 013.073 1.581s.093-.093 0 0zm-1.024 2.325c-.652 0-1.304-.279-1.956-.465-.558-.186-1.21-.372-1.582-.744-.094-.093 0-.186.093-.186.558.093 1.117.465 1.676.651.558.186 1.21.372 1.769.558.093.093.093.186 0 .186z" fill="#B54019"/><path d="M60.68 19.44c-.466.837-.932 1.674-1.304 2.511-.093.093-.28 0-.28-.093.373-.93.838-1.767 1.397-2.51.093-.093.28 0 .186.093z" fill="#B54019"/><path d="M53.975 25.02c-.465.28-1.117.187-1.676.28-.651 0-1.303.093-1.955-.093-.093 0-.093-.187 0-.187.559-.186 1.21 0 1.77 0 .558 0 1.21-.186 1.768 0 .093-.093.093 0 .093 0z" fill="#913D6D"/><path d="M50.437 25.113c-.372 1.581-.838 3.07-1.024 4.65 0 .186-.28.186-.28 0 .28-1.58.838-3.069 1.304-4.65z" fill="#913D6D"/><path d="M55.93 30.043a76.085 76.085 0 01-6.517 0c-.186 0-.186-.28 0-.28h6.518c.093.093.093.28 0 .28z" fill="#913D6D"/><path d="M105.093 20.277l-.279 1.116c-.093.28-.093.651-.28.93 0 .093-.093 0-.093 0 0-.279.093-.65.187-.93.093-.372.186-.744.279-1.023.093-.186.186-.186.186-.093z" fill="#637BA8"/><path d="M105.093 20.37c-.745-.093-1.397-.372-2.048-.558-.559-.186-1.211-.279-1.769-.558-.094-.093 0-.186.093-.186.745.093 1.396.372 2.048.558.559.186 1.211.372 1.769.651.093 0 0 .093-.093.093zm-.465 2.046c-.932.372-2.235.651-3.259.651-.093 0-.187-.186-.093-.186.465-.186.931-.186 1.489-.279.559-.093 1.211-.186 1.769-.372.094-.093.187.093.094.186z" fill="#637BA8"/><path d="M101.276 19.069c.093 1.301 0 2.603 0 3.812 0 .186-.28.186-.28 0 0-1.302-.093-2.604 0-3.813.093-.093.186-.093.28 0z" fill="#637BA8"/><path d="M45.875 33.111c-.187.465-.28 1.116-.559 1.488 0 .093-.186 0-.186 0 0-.465.28-1.023.465-1.488.093-.186.28-.093.28 0z" fill="#862511"/><path d="M45.688 33.205c-.558-.186-1.117-.28-1.676-.372-.093 0-.093-.187 0-.187.652 0 1.21.187 1.676.559.093 0 .093-.093 0 0z" fill="#862511"/><path d="M44.944 34.971c-.56-.186-1.118-.279-1.77-.372-.093 0-.093-.093-.093-.186.186-.372.373-.65.559-1.023l.28-.837c0-.093.185 0 .185 0 0 .651-.372 1.488-.744 2.046 0-.093-.093-.093-.093-.186.558.093 1.21.28 1.769.465 0-.093 0 .093-.093.093z" fill="#862511"/><path d="M112.635 22.23c.186.558.279 1.116.559 1.581 0 .093 0 .186-.093.186-.745.093-1.49.186-2.328.28-.093 0-.186-.187 0-.187.745-.093 1.583-.186 2.328-.279 0 .093-.094.093-.094.186-.279-.558-.465-1.116-.372-1.767 0 0-.093 0 0 0z" fill="#913D6D"/><path d="M112.635 22.324c-.652 0-1.397.093-2.048.279-.187 0-.187-.186-.094-.186.745-.187 1.397-.28 2.142-.187.093 0 .093.094 0 .094zm-1.862 1.859c-.186-.186-.279-.558-.373-.837-.093-.279-.279-.65-.279-.93 0-.093.093-.093.093 0 .186.28.279.651.373.93.186.186.372.558.186.837 0 0 .093 0 0 0z" fill="#913D6D"/><path d="M71.48 33.297c-4.283-.186-11.173.186-14.711-2.604-2.887-2.232-3.445-6.696-3.073-10.137.372-3.813 1.955-7.532 4.47-10.415 1.303-1.581 2.979-2.883 4.841-3.906 1.024-.558 2.235-1.023 3.352-1.395.559-.186 7.449-1.953 4.004-4.278-.28-.186 0-.651.28-.465 1.396.93 2.42 1.953 1.116 3.255-1.396 1.395-4.655 1.674-6.424 2.418-2.607 1.023-4.935 2.604-6.797 4.743-3.445 3.998-5.214 9.857-4.004 15.158 1.862 7.72 10.708 6.696 16.946 7.44.093 0 .093.186 0 .186zm1.21-22.784c2.7 2.232 6.053 2.046 9.312 2.604 2.7.464 5.307 1.394 7.542 2.79 2.886 1.86 6.61 5.486 5.028 9.3-.094.278-.56.185-.466-.094 2.42-6.23-7.17-10.508-11.732-11.345-3.445-.838-7.076-.466-9.683-3.255-.094 0-.094 0 0 0z" fill="#7D82AC"/><defs><radialGradient id="paint0_radial" cx="0" cy="0" r="1" gradientUnits="userSpaceOnUse" gradientTransform="matrix(-8.83779 0 0 -8.82715 46.213 79.768)"><stop offset=".005" stop-color="#fff"/><stop offset=".116" stop-color="#EAEAEA"/><stop offset=".346" stop-color="#B4B4B4"/><stop offset=".673" stop-color="#5D5D5D"/><stop offset="1"/></radialGradient><radialGradient id="paint1_radial" cx="0" cy="0" r="1" gradientUnits="userSpaceOnUse" gradientTransform="matrix(-12.4274 0 0 -12.4124 51.254 60.364)"><stop offset=".005" stop-color="#fff"/><stop offset=".116" stop-color="#EAEAEA"/><stop offset=".346" stop-color="#B4B4B4"/><stop offset=".673" stop-color="#5D5D5D"/><stop offset="1"/></radialGradient><radialGradient id="paint2_radial" cx="0" cy="0" r="1" gradientUnits="userSpaceOnUse" gradientTransform="matrix(-6.36384 0 0 -6.35617 58.449 69.97)"><stop offset=".005" stop-color="#fff"/><stop offset=".116" stop-color="#EAEAEA"/><stop offset=".346" stop-color="#B4B4B4"/><stop offset=".673" stop-color="#5D5D5D"/><stop offset="1"/></radialGradient><radialGradient id="paint3_radial" cx="0" cy="0" r="1" gradientUnits="userSpaceOnUse" gradientTransform="matrix(-11.9558 0 0 -11.9414 32.63 61.026)"><stop offset=".005" stop-color="#fff"/><stop offset=".116" stop-color="#EAEAEA"/><stop offset=".346" stop-color="#B4B4B4"/><stop offset=".673" stop-color="#5D5D5D"/><stop offset="1"/></radialGradient><radialGradient id="paint4_radial" cx="0" cy="0" r="1" gradientUnits="userSpaceOnUse" gradientTransform="matrix(-11.5611 0 0 -11.5472 28.297 56.855)"><stop offset=".005" stop-color="#fff"/><stop offset=".116" stop-color="#EAEAEA"/><stop offset=".346" stop-color="#B4B4B4"/><stop offset=".673" stop-color="#5D5D5D"/><stop offset="1"/></radialGradient><radialGradient id="paint5_radial" cx="0" cy="0" r="1" gradientUnits="userSpaceOnUse" gradientTransform="matrix(-7.50426 0 0 -7.49523 27.363 71.208)"><stop offset=".005" stop-color="#fff"/><stop offset=".116" stop-color="#EAEAEA"/><stop offset=".346" stop-color="#B4B4B4"/><stop offset=".673" stop-color="#5D5D5D"/><stop offset="1"/></radialGradient><radialGradient id="paint6_radial" cx="0" cy="0" r="1" gradientUnits="userSpaceOnUse" gradientTransform="matrix(-7.93164 0 0 -7.92209 48.704 78.034)"><stop offset=".005" stop-color="#fff"/><stop offset=".116" stop-color="#EAEAEA"/><stop offset=".346" stop-color="#B4B4B4"/><stop offset=".673" stop-color="#5D5D5D"/><stop offset="1"/></radialGradient><radialGradient id="paint7_radial" cx="0" cy="0" r="1" gradientUnits="userSpaceOnUse" gradientTransform="matrix(-8.6444 0 0 -8.634 11.631 64.056)"><stop offset=".005" stop-color="#fff"/><stop offset=".116" stop-color="#EAEAEA"/><stop offset=".346" stop-color="#B4B4B4"/><stop offset=".673" stop-color="#5D5D5D"/><stop offset="1"/></radialGradient><radialGradient id="paint8_radial" cx="0" cy="0" r="1" gradientUnits="userSpaceOnUse" gradientTransform="matrix(-23.7027 0 0 -23.6742 32.164 35.004)"><stop stop-color="#fff"/><stop offset=".157" stop-color="#C2C2C2"/><stop offset=".325" stop-color="#878787"/><stop offset=".487" stop-color="#575757"/><stop offset=".64" stop-color="#313131"/><stop offset=".78" stop-color="#161616"/><stop offset=".905" stop-color="#060606"/><stop offset="1"/></radialGradient><radialGradient id="paint9_radial" cx="0" cy="0" r="1" gradientUnits="userSpaceOnUse" gradientTransform="matrix(-10.1066 0 0 -10.0944 54.961 45.05)"><stop stop-color="#fff"/><stop offset=".157" stop-color="#C2C2C2"/><stop offset=".325" stop-color="#878787"/><stop offset=".487" stop-color="#575757"/><stop offset=".64" stop-color="#313131"/><stop offset=".78" stop-color="#161616"/><stop offset=".905" stop-color="#060606"/><stop offset="1"/></radialGradient><radialGradient id="paint10_radial" cx="0" cy="0" r="1" gradientUnits="userSpaceOnUse" gradientTransform="matrix(-36.5462 0 0 -36.5021 99.436 43.738)"><stop stop-color="#fff"/><stop offset=".157" stop-color="#C2C2C2"/><stop offset=".325" stop-color="#878787"/><stop offset=".487" stop-color="#575757"/><stop offset=".64" stop-color="#313131"/><stop offset=".78" stop-color="#161616"/><stop offset=".905" stop-color="#060606"/><stop offset="1"/></radialGradient></defs></svg>