<svg width="132" height="121" fill="none" xmlns="http://www.w3.org/2000/svg"><path d="M3.18 33.764s-.891 9.726-.891 17.405c0 7.68 1.399 19.198 1.399 19.198l2.67 21.117.636 4.735 8.902 1.408 38.787 6.655 37.643 8.319 28.613 7.679s4.959 0 6.74-1.792c1.78-1.792 2.416-2.687 2.416-2.687l-.509-3.84-2.67-2.688s1.526-3.839 1.526-4.479v-6.143l-1.399-.64s1.78-6.527 1.399-12.67c-.509-6.143-.89-9.215-.89-9.215s-.891-8.063 0-11.902c.89-3.84 1.526-8.575 1.526-10.623s-1.399-7.935-1.399-7.935l-46.544-8.063L8.52 27.748s-5.086-.511-5.34 6.016z" fill="#F3F8EA"/><path d="M7.884 38.115c-.127 0-.254 0-.254-.128v.512c0-.128.127-.256.254-.384zm-.254-.256h-.508c.127 0 .254.127.508.127v-.127z" fill="#F6D39B"/><path d="M126.534 106.202c-1.271 1.28-4.832 2.048-6.613 2.688-.127 0-.254.128-.381.128-2.671.767-7.885-1.152-10.682-1.792-3.688-.768-7.376-1.408-11.064-2.304-3.561-.896-30.521-6.527-39.296-8.447-7.884-1.792-15.769-3.2-23.653-4.863-4.96-1.024-9.92-1.92-14.88-2.944-1.652-.384-4.45-.256-5.85-1.152-2.161-1.407-2.543-5.887-2.924-8.19-1.145-8.831-1.017-18.046 1.653-26.493 2.67-8.575 7.885-16.51 15.388-21.245C22 28.516 15.133 26.597 8.139 26.213c-1.145-.128-2.29-.128-3.307.512-1.526.895-1.907 3.071-2.034 4.863-.636 8.703-2.035 18.301-.89 27.004 1.271 9.471 2.924 18.942 4.578 28.284.89 5.12 5.214 3.968 9.665 4.608 4.578.768 9.156 1.536 13.734 2.176l25.434 4.99 26.451 5.248 7.376 2.688 9.284 1.92 16.277 2.431c1.654.512 4.706 1.664 6.232.64.763-.512 1.399-1.408 2.289-1.536.508-.128 1.017.128 1.399.128.89 0 2.034 0 2.416-1.023.127-.512.254-1.024.254-1.408.127-1.536.509-2.944 1.018-4.352-.382 1.024-.891 2.048-1.781 2.816z" fill="#F6D39B"/><path d="M116.742 45.794s1.653 21.757 2.289 29.308c.509 7.679.255 35.067.255 35.067l8.138-2.559 1.145-8.32h-1.908s2.289-4.479 2.162-12.286c-.127-7.806-2.162-19.453-1.271-22.909.89-3.455 1.653-6.527 1.526-10.622 0-4.096-.891-9.087-.891-9.087l-11.445 1.408z" fill="#F6D39B"/><path d="M5.595 90.332s5.087.256 11.191 1.152a388.006 388.006 0 0112.336 2.048l28.232 5.375 20.093 4.223 21.237 4.736 18.567 3.583 2.925.64 2.289-1.792 4.451-1.152s3.179 2.048 3.179 3.584v3.84l-3.561 2.943-3.815.64h-1.78l-31.284-7.679-30.902-7.039-26.833-5.119-24.926-4.096-1.399-5.887z" fill="#C37B51"/><path d="M6.74 92.252l19.838 2.687 45.273 8.703s18.948 3.84 22.255 4.736c3.306.895 26.833 6.015 26.833 6.015s1.526-1.92 3.561-2.432a86.215 86.215 0 013.687-.896l-1.144-.768h-3.942l-3.434 1.536-8.648-1.408-18.82-3.199-17.169-4.736-21.364-4.223-33.573-6.4-14.498-1.535 1.145 1.92z" fill="#915B3A"/><path d="M120.176 112.217c.508 1.792.636 3.712.636 5.631 0 .64 0 1.28.381 1.792.636.768 2.035.384 2.925 0l4.197-1.92c.508-.256 1.144-.512 1.271-1.024.128-.512 0-.895 0-1.407s.255-1.024.255-1.664c.127-1.28-1.018-2.304-2.162-3.072-.509-.384-.89-.64-1.526-.768-.382 0-.763 0-1.272.128-.89.128-1.78 0-2.671.256-1.144.384-2.161 1.28-2.416 2.432l.382-.384z" fill="#AC6D47"/><path opacity=".54" d="M31.538 96.091l1.399 1.408c-.509-.384-1.399 0-1.399.768 3.052 2.56 7.503 2.176 11.445 2.688 3.053.384 5.978 1.535 8.775 2.431a146.966 146.966 0 0027.723 6.143c-.381-.256-.763-.511-1.144-.895.381.128.763-.384.763-.768.127-2.048-2.29-3.072-4.197-3.456-8.393-1.92-16.913-3.839-25.307-5.76-6.104-1.407-12.335-2.815-18.566-3.199l.508.64z" fill="#D19977"/><path d="M49.088 1.512c-7.122 4.736-14.752 8.959-22.382 12.926-3.943 2.048-7.758 4.224-11.954 5.76-2.035.767-4.197 1.28-6.359 1.407-1.017 0-1.78-.128-2.798-.128-.635 0-2.797.128-3.306.512 2.035-1.92 3.942-1.791 6.613-2.175a37.047 37.047 0 007.63-1.92c3.942-1.536 7.63-3.584 11.445-5.503C34.972 8.679 41.84 4.84 48.833 1c.255-.129.636.255.255.511z" fill="#965C2E"/><path d="M130.222 116.696c-2.035 2.432-6.231 4.992-9.538 4.096-.254-.128-.381-.512 0-.64 1.526-.384 2.925-.384 4.451-.896 1.781-.64 3.18-1.792 4.451-3.072.509-.511 1.018.128.636.512z" fill="#6E4E40"/><path d="M120.43 120.408c-4.705-.512-9.538-2.176-14.116-3.328l-14.116-3.455c-9.41-2.304-18.82-4.352-28.231-6.271a858.628 858.628 0 00-57.1-9.983c-1.017-.128-.636-1.792.382-1.664 30.012 4.352 59.897 10.111 89.273 17.406 4.07 1.024 8.139 2.048 12.336 3.199 3.942 1.024 8.011 1.92 11.826 3.584.255.128 0 .512-.254.512z" fill="#6B4327"/><path d="M127.043 110.554c-1.145 0-2.162-.128-3.306.128-.891.256-1.654.896-2.671.896-.254 0-.382-.256-.254-.512.508-.896 2.034-1.28 3.052-1.409 1.144-.256 2.289-.256 3.433.129.127.256 0 .768-.254.768z" fill="#6E4E40"/><path d="M120.176 112.217c-3.561-.128-7.122-1.024-10.555-1.536-3.815-.64-7.631-1.28-11.446-2.047-3.56-.64-6.994-1.152-10.428-2.176-3.56-1.024-7.121-2.176-10.81-3.072-14.75-3.327-29.757-5.887-44.636-8.575-8.52-1.535-17.04-3.071-25.561-4.223-.763-.128-.509-1.28.254-1.152 19.203 2.56 38.024 6.783 56.973 10.367 4.705.896 9.41 1.663 14.115 2.687 4.579 1.024 9.03 2.688 13.608 3.712 4.578 1.024 9.283 1.792 13.988 2.687 4.833.896 9.92 1.408 14.498 2.944.254 0 .254.384 0 .384z" fill="#C37B51"/><path d="M121.066 115.545c.127.895.127 1.791 0 2.559 0 .768.127 1.536 0 2.304 0 .384-.509.256-.636 0-.127-.896.127-1.792.127-2.688 0-.768 0-1.535.127-2.303.128 0 .382 0 .382.128z" fill="#6E4E40"/><path d="M129.586 33.38c.382.895.891 1.535 1.145 2.56.254.895.381 1.919.254 2.815 0 .896-.127 1.792-.636 2.56-.381.768-.89 1.535-1.144 2.431-.255 1.536-.127 3.328-.127 4.864.127 2.687.381 5.375.127 8.19-.382 3.456-1.272 6.784-1.653 10.367-.382 4.224.763 8.063 1.017 12.158.254 4.224.254 8.575 0 12.799-.127 1.407.127 7.039-2.035 7.295v-1.152h1.908c.381 0 .508.256.636.512.254 1.664.254 3.327.127 4.991-.255 1.792-1.653 4.096-1.018 5.759.509 1.408.891.896 1.908 1.792.254.256.382.384.509.64.508 1.024 0 2.304-.127 3.456 0 .767-1.145.767-1.145 0 0-.64.254-1.28.254-1.792-.127-1.792-.636-1.664-1.653-2.176-.763-.384-1.526-.896-1.653-1.792-.127-1.279 1.017-2.943 1.272-4.095.635-2.176.635-4.352.254-6.655.254.128.381.384.636.512h-1.908c-.763 0-.763-1.024 0-1.152.636-.128.89-3.84.89-4.352.255-2.431.255-4.863.255-7.294 0-3.712.254-7.935-.636-11.647-.763-3.2-.89-6.015-.382-9.215.509-3.967 1.654-7.807 1.781-11.774.127-3.2-.636-6.271-.255-9.47.128-1.153.382-2.305.891-3.328.763-1.28 1.017-2.304 1.144-3.712.127-1.408-.127-2.816-.636-4.095z" fill="#C7AC7F"/><path d="M6.486 91.868v-1.28a6.18 6.18 0 01-.89-.384c-.51 1.024-.764 2.304-.636 3.456.127 1.151.508 2.431 1.271 3.327.127 0 .382.256.509.128v-.128c.127 0 .127.128.254.128.255 0 .509 0 .763-.256-.89-1.536-1.271-3.328-1.271-4.991z" fill="#935D3C"/><path d="M3.306 51.681c-.381-9.854-.89-20.349 5.087-28.54.636-.896.89-2.176 0-2.815-.508-.256-1.017-.256-1.526-.128-1.526.255-3.18.64-4.45 1.535C-.89 24.293.253 33.123.126 36.835 0 42.85.127 48.865.636 55.01c.89 12.03 3.942 23.165 6.104 34.811-2.416-12.542-2.925-25.34-3.434-38.139z" fill="#C37B51"/><path d="M1.908 25.7c-.128.257-.128.385-.255.64-.508 1.536-.508 3.2-.381 4.864 9.029-4.735 16.15-2.176 25.56-.384 9.284 1.792 18.44 3.584 27.724 5.375 16.023 3.072 32.047 6.272 48.07 8.96 2.925.511 9.029.127 11.446 1.535 2.924 1.792 3.306 7.423 3.688 10.495V49.76c0-.767 0-1.663.508-2.303 1.526-2.176 8.012 1.024 9.538-1.792 0 0 2.162-4.095.763-7.551-1.399-3.456-108.73-18.046-108.73-18.046-5.469-.767-15.134-.511-17.931 5.632z" fill="#D19977"/><path d="M56.718 2.792l-7.249-1.536-12.208 7.04-17.168 9.342-11.7 3.327 5.468 1.92 35.862 8.831 33.828 6.143c14.497 2.432 28.867 4.864 43.492 5.247.509 0 .89 0 1.272-.255.254-.128.508-.512.635-.768.891-1.536 1.399-3.2 1.272-4.992-.381-6.91-8.012-8.959-13.098-11.134-6.868-2.816-13.608-5.887-20.348-9.087-4.96-2.432-10.555-3.584-15.769-5.375-8.011-2.944-16.15-5.887-24.29-8.703z" fill="#AF6F48"/><path d="M56.336 3.688l-6.104-1.28-10.428 6.016-14.624 7.935-10.047 2.815 4.578 1.664 30.648 7.551 28.868 5.247c12.335 2.048 24.544 4.096 37.134 4.48.381 0 .763 0 1.144-.256.255-.128.382-.384.509-.64.763-1.28 1.272-2.688 1.144-4.224-.381-5.887-6.74-7.55-11.191-9.47-5.849-2.432-11.572-5.12-17.295-7.807-4.196-2.048-8.902-2.944-13.353-4.608a2110.618 2110.618 0 00-20.983-7.423z" fill="#C37B51"/><path d="M99.447 40.547c2.798.512 5.468 1.024 8.139 1.664 6.104 1.407 14.497 1.791 20.729 1.28-6.232-2.048-13.989-1.536-20.475-2.56-5.722-.896-11.445-1.408-17.295-2.304-3.942-.64-7.884-1.152-11.7-1.664-8.138-1.152-16.15-2.943-24.162-4.607C38.278 28.772 22 24.42 5.723 20.453c-.51-.128-.636.64-.128.768a1250.402 1250.402 0 0027.724 6.911c15.769 3.84 31.792 7.68 47.943 9.855 6.104.768 12.208 1.536 18.185 2.56z" fill="#965C2E"/><path d="M12.844 52.833L118.777 72.67s1.144 11.903.89 14.718l-.254 2.816L10.555 68.447c-.127 0-.127-10.11 2.29-15.614z" fill="#BDA0B1"/><path d="M125.898 88.156c-6.358 2.944-10.3.384-16.786.128 2.416.128 4.96.128 7.376.256.381 0 .89 0 1.272-.256.508-.256.635-.896.89-1.408 1.144-4.095 1.144-8.446 0-12.414-.127-.384-.255-.768-.509-1.024-.381-.384-1.017-.512-1.653-.64-3.434-.384-6.74-1.151-10.047-2.303 6.74 1.024 13.226 2.047 19.712.128 1.526 4.735 2.034 9.854 1.653 14.718 0 .64-.127 1.28-.509 1.663-.381.64-.89.896-1.399 1.152z" fill="#A38B9A"/><path opacity=".25" d="M92.961 15.078l-40.44 17.15 32.047 79.093 34.463 8.703s3.942 2.432 7.503-.512 5.85-4.607 3.561-6.783c-2.289-2.176-3.561-.896-2.671-5.247 1.018-4.352 1.145-8.32 1.145-8.32s-1.78-.767-.89-4.35c.89-3.712.508-12.287-.509-19.966s1.272-10.75 1.272-15.87c0-5.12-.127-16.254-.127-16.254s6.612-9.214-5.469-14.846c-12.081-5.63-29.885-12.798-29.885-12.798z" fill="#AF6F48"/><path d="M5.85 20.453s7.757-.895 16.786-5.119C31.666 11.111 45.654 2.92 45.654 2.92s4.324-2.944 7.63-1.152C56.464 3.56 84.95 13.287 84.95 13.287L47.434 31.715 5.85 20.453z" fill="url(#paint0_radial)"/><path d="M25.943 61.024c.381-.896 0-1.792-.89-1.792s-1.272.896-.89 1.664v.128c.38.64 1.398.64 1.78 0zm7.757-.896h.127c.636-.128 1.272-.256 1.653-.768.382-.384.764-1.152.764-1.664-.128-1.407-1.018-2.303-2.417-2.431H33.7c-1.272-.128-2.543 1.28-2.416 2.431.127 1.152 1.144 2.688 2.416 2.432zm9.919 8.958c.762 0 .762-1.151 0-1.151-.763-.128-.763 1.151 0 1.151zm-10.428 6.016c2.798 0 2.798-4.48 0-4.48-2.797.129-2.797 4.48 0 4.48zm24.926-2.815c1.017 0 1.017-1.536 0-1.536-.89 0-.89 1.536 0 1.536zm-6.74-2.944c2.543 0 2.543-3.968 0-3.968-2.544-.128-2.544 3.968 0 3.968zm15.514-1.664c0 .128 0 .128.127.256a.396.396 0 00.763 0c0-.128 0-.128.127-.256.254-.768-1.144-.768-1.017 0zm14.498 12.798c2.416 0 2.416-3.84 0-3.84s-2.416 3.84 0 3.84zm16.023-4.478c1.018 0 1.018-1.537 0-1.537-1.017 0-1.017 1.537 0 1.537zm-12.335-6.144c2.925 0 2.925-4.48 0-4.48s-2.925 4.48 0 4.48z" fill="#F3F8EA"/><path d="M88.002 68.831c-.255-.256-.636-.384-.89-.128 0 0-.128 0-.128.128a.602.602 0 000 1.024s.128 0 .128.128c.254.129.635.129.89-.128l.127-.128c.127-.256.127-.64-.127-.896zm2.925 15.485c.127 0 .127-.127 0 0 0-.127 0 0 0 0z" fill="#F3F8EA"/><path d="M90.926 83.933h-.254c-.254 0-.254.512 0 .512h.254c.508.256.508-.64 0-.512zm-6.994-4.223c1.145 0 1.145-1.664 0-1.664-1.017 0-1.017 1.664 0 1.664zm23.908-2.048c1.018 0 1.908-.896 1.908-1.92s-.89-1.92-1.908-1.92c-1.017 0-1.907.896-1.907 1.92s.89 1.92 1.907 1.92zm1.145 2.048c1.017 0 1.017-1.664 0-1.664-1.145 0-1.145 1.664 0 1.664zm-11.573 2.943c.381 0 .381-.64 0-.64-.381-.128-.381.64 0 .64zm8.139-10.751c1.653 0 1.653-2.56 0-2.56-1.653.129-1.653 2.56 0 2.56zM11.318 61.153c1.272 0 1.272-1.92 0-1.92s-1.272 1.92 0 1.92z" fill="#F3F8EA"/><path d="M7.885 87.388S4.832 63.711 6.23 51.81c.509-3.967 3.307-19.71 9.157-19.453 7.375.256 14.624.512 22 .768-6.104-1.408-12.208-2.688-18.312-4.096-2.798-.64-5.596-1.28-8.394-.896-2.67.256-4.832.256-6.358 2.816-1.908 3.2-1.4 6.911-1.145 10.367.255 4.479-.636 36.73 4.706 46.073z" fill="#CFB384"/><path d="M8.393 24.677c.255-1.152-1.399-1.536-2.162-1.536-1.653 0-6.613 2.688-3.433 4.096.89.383 2.034-.128 2.67-.768.382-.512 2.798-1.28 2.798-1.408.127-.256.127-.384.127-.384zm17.423 1.28c.635.256 1.271.512 2.034.64.127 0 .255-.256.127-.384-.508-.384-1.399-.512-2.034-.64-.255 0-.382.256-.128.384zM38.024 28.9c1.526.385 3.306 1.025 4.96.897.127 0 .127-.128 0-.256-1.527-.64-3.307-.769-4.96-1.025-.127 0-.127.385 0 .385zm8.139 2.048c1.271.512 2.67.768 4.07 1.024 1.398.256 2.797.896 4.196.896.381 0 .636-.512.254-.768-1.272-.64-2.798-.64-4.197-.896-1.398-.256-2.797-.64-4.196-.64-.254 0-.254.256-.127.384zm11.954 2.304v.255c0 .64 1.016.64.89 0v-.255c-.128-.512-.89-.512-.89 0zm4.451 1.151l.254.256a.282.282 0 00.38-.384l-.253-.255c-.254-.384-.636 0-.381.383zm3.052.64h.254c.254 0 .254-.383 0-.383h-.254c-.382-.256-.382.511 0 .383zm1.399.385c.763.128 1.398.384 2.161.512.51.128 1.145.384 1.654.256.127 0 .254-.256.127-.384-.509-.384-1.017-.384-1.653-.512-.763-.128-1.4-.384-2.162-.512-.382-.257-.636.512-.127.64zm5.849.896c2.544.512 5.342 1.408 8.012 1.28.127 0 .127-.128 0-.128-2.416-1.024-5.341-1.024-7.884-1.537-.255 0-.382.385-.128.385zm10.047 1.536c10.3 3.327 21.873 5.246 32.683 5.758 1.017 0 1.017-1.535 0-1.535-11.064-.512-21.746-3.072-32.683-4.352-.127-.128-.127.128 0 .128zm36.752 5.758c.762 0 .762-1.151 0-1.151-.636 0-.636 1.15 0 1.15zM9.538 92.764c.381 0 .508 0 .763-.384v-.256c-.127-.256-.382-.384-.763-.384-.636 0-.636 1.024 0 1.024zm3.306.256c.382 0 .636 0 .89-.384.127-.128 0-.384-.127-.384-.381-.128-.636 0-1.017.256-.255.256 0 .512.254.512zm2.671 0c.38 0 .38-.512 0-.512-.255-.128-.255.511 0 .511zm6.485.512c.763.256 1.526.64 2.29.128.127-.128.127-.256 0-.384-.636-.256-1.4-.128-2.162-.256-.382.128-.382.384-.128.512zm3.943.64c.254.384.763.64 1.271.512.255-.128.255-.384 0-.512-.381-.128-.636-.128-1.017-.384-.127-.128-.509.128-.254.384zm3.942 1.023c1.526 0 3.052.257 4.578.385 1.145.128 2.29.64 3.56.512.128 0 .128-.128 0-.128-2.161-1.409-5.722-1.28-8.138-1.153-.127 0-.127.384 0 .384zm9.029 1.152a5.072 5.072 0 001.908.384c.127 0 .254-.256.127-.256a5.24 5.24 0 00-2.035-.384c-.127-.128-.127.128 0 .256zm4.069.768c.128 0 .128-.127 0 0 0-.127 0 0 0 0zm3.434 1.28c.636.256 1.145.512 1.78.64.128 0 .382-.128.51-.384v-.256c0-.256-.255-.384-.51-.384-.508 0-1.144.128-1.653 0-.254.128-.254.384-.127.384zm5.85 1.152c.381.256.509.384 1.017.256.255-.128.382-.384.255-.512-.255-.384-.382-.384-.89-.512-.51-.128-.89.512-.382.768zm68.29 15.615c1.272 0 1.272-2.049 0-2.049-1.271 0-1.399 2.049 0 2.049z" fill="#F6D39B"/><defs><radialGradient id="paint0_radial" cx="0" cy="0" r="1" gradientUnits="userSpaceOnUse" gradientTransform="matrix(55.6765 0 0 56.0323 53.183 -23.556)"><stop stop-color="#fff"/><stop offset=".157" stop-color="#C2C2C2"/><stop offset=".325" stop-color="#878787"/><stop offset=".487" stop-color="#575757"/><stop offset=".64" stop-color="#313131"/><stop offset=".78" stop-color="#161616"/><stop offset=".905" stop-color="#060606"/><stop offset="1"/></radialGradient></defs></svg>