<svg width="180" height="179" fill="none" xmlns="http://www.w3.org/2000/svg"><g clip-path="url(#clip0)"><path d="M44.354 165.173a290.21 290.21 0 0194.677-4.332c2.104.249 2.085-3.06 0-3.309a293.174 293.174 0 00-95.633 4.457c-2.075.44-1.195 3.624.88 3.184h.076z" fill="#F23D71"/><path d="M90.689 63.08c.803-5.566 8.128-25.563 14.134-22.733l10.73 4.945a4.665 4.665 0 012.333 2.63c.89 2.075-.545 6.866-2.754 10.376l12.796-8.894-23.908-37.68-36.293 23 22.952 40.07c1.33-3.423-.612-7.21.01-11.715zm10.883 27.666h4.781c-3.089-2.314-5.508-5.346-8.97-6.015l4.189 6.015zm-45.312-4.6c-4.36-.344-9.82-2.62-10.911-4.868a4.715 4.715 0 01-.46-3.49l2.114-11.954c1.77-6.389 21.69 1.166 26.424 4.198 3.49 2.266 5.661 6.015 8.865 7.746L56.987 41.543 20.714 64.57l16.583 26.175h26.978l7-3.978c-4.084.22-7.65.028-15.014-.622zm51.977-10.73c4.447-.698 7.985-.832 15.932-.842 4.371 0 10.004 1.741 11.295 3.826a4.784 4.784 0 01.765 3.433l-.756 8.865h18.706l-19.337-30.392-26.605 15.11z" fill="#3FBEE0"/><path d="M66.704 32.926c-.249-.468-.545-.334-.956-.124-1.473.794-6.829 4.189-9.133 5.738-.44.335-1.272.67-.813 1.3l1.186 1.693 10.74-6.818-1.024-1.789zm69.64 26.529c.468-.24.334-.545.124-.956-.784-1.502-4.17-6.962-5.738-9.315-.325-.459-.66-1.3-1.291-.851l-1.53 1.061 6.933 10.912 1.502-.851zM85.41 78.696c1.549-1.08 3.127-2.161 4.657-3.242a.959.959 0 01.411-.153l.22-.507-22.952-40.07-10.758 6.819 25.304 36.235a7.65 7.65 0 003.118.918z" fill="#fff"/><path d="M114.425 59.33c-6.953 9.621-8.397 11.094-15.856 17.95 4.217-.86 7.096-1.453 9.668-1.864l26.605-15.11-6.924-10.921-12.786 8.913c-.229.344-.459.698-.707 1.033zM85.85 84.912c-.98.364-2.002.602-3.042.708-5.26.602-8.53.956-11.533 1.148l-7 3.978h18.342c.717-1.349 1.54-2.869 2.496-4.629.249-.45.488-.841.736-1.205zm9.084-.248l-2.457 1.702a6.78 6.78 0 000 4.38h9.056l-4.208-6.015a7.578 7.578 0 00-2.39-.067z" fill="#fff"/><path d="M66.407 82.015c-8.501-1.569-17.27-3.204-20.322-2.286a1.08 1.08 0 00-.736 1.52c1.09 2.248 6.55 4.524 10.912 4.868 7.363.65 10.93.842 15.014.622l4.657-2.62c-2.677-.546-5.508-1.349-9.525-2.104zm19.366 2.649a30.607 30.607 0 01-9.84-.545l-4.658 2.64c3.003-.163 6.273-.546 11.533-1.148a12.313 12.313 0 003.041-.708.543.543 0 010-.077l-.076-.162z" fill="#DBDBDB"/><path d="M48.017 68.444c-2.649 6.58 19.07 10.73 26.356 10.424 2.967.154 5.918.53 8.827 1.129l.46-.258-1.368-1.913c-3.204-1.731-5.375-5.48-8.865-7.746-4.734-3.08-24.655-10.635-26.424-4.246L44.89 77.788a4.715 4.715 0 00.459 3.462 3.828 3.828 0 01-.277-1.043c-.335-2.2 1.424-7.268 2.945-11.763z" fill="#fff"/><path d="M83.2 79.997l.68.124a.996.996 0 01.392-.64l1.138-.785a7.65 7.65 0 01-3.118-.956l1.367 1.913-.459.344z" fill="#fff"/><path d="M46.085 79.729c3.051-.956 11.82.717 20.322 2.286 4.017.755 6.848 1.558 9.564 2.113l7.23-4.131a58.988 58.988 0 00-8.827-1.129c-7.288.306-29.006-3.825-26.357-10.424-1.52 4.495-3.28 9.564-2.945 11.792.045.349.138.69.277 1.014a1.08 1.08 0 01.736-1.521z" fill="#fff"/><path d="M83.88 80.121l-.68-.124-7.268 4.122c3.23.709 6.553.89 9.841.535-1.215-1.654-2.161-3.48-1.894-4.533z" fill="#fff"/><path d="M116.232 47.443c-2.687 1.712-7.201 9.401-11.572 16.86-.43.727-.812 1.406-1.176 2.066l11.648-8.071c2.209-3.51 3.644-8.301 2.754-10.376a1.074 1.074 0 00-1.201-.675c-.164.03-.319.097-.453.196z" fill="#DBDBDB"/><path d="M96.77 77.692c.316-.086.642-.172.957-.24l.803-.171c7.46-6.857 8.904-8.33 15.856-17.95.249-.335.478-.689.708-1.052l-11.648 8.09c-2.592 4.763-3.844 7.89-6.675 11.323z" fill="#DBDBDB"/><path d="M93.615 73.226a36.93 36.93 0 013.443-4.963c5.001-5.308 16.085-24.444 9.381-26.778 4.39 1.798 9.372 3.826 10.845 5.5.241.267.444.566.602.889a4.665 4.665 0 00-2.333-2.63l-10.73-4.944c-6.006-2.87-13.331 17.166-14.134 22.732-.622 4.523 1.32 8.31 0 11.734l.19.334 2.736-1.874z" fill="#fff"/><path d="M92.027 75.846c.479-.803 1.024-1.711 1.588-2.62L90.85 75.13l-.191-.335-.22.507a2.151 2.151 0 011.587.545zm14.412-34.332c6.694 2.305-4.38 21.441-9.381 26.777a36.947 36.947 0 00-3.443 4.964l9.869-6.857c.363-.66.746-1.34 1.176-2.066 4.371-7.46 8.885-15.148 11.572-16.86a1.077 1.077 0 011.372.057c.124.11.22.248.282.402a3.865 3.865 0 00-.602-.89c-1.473-1.74-6.455-3.729-10.845-5.527z" fill="#fff"/><path d="M94.533 78.562a11.16 11.16 0 012.238-.87c2.869-3.433 4.083-6.56 6.694-11.323l-9.85 6.857c-.564.956-1.11 1.817-1.588 2.62a12.43 12.43 0 012.506 2.716z" fill="#fff"/><path d="M114.425 79.586c8.607.813 17.481 1.654 20.446.478a1.095 1.095 0 00.692-.663 1.095 1.095 0 00-.099-.953c-1.291-2.133-6.924-3.912-11.294-3.826-7.948 0-11.476.144-15.933.842l-4.877 2.773c3.156.22 6.302.89 11.065 1.349zm-16.937-1.311a28.985 28.985 0 015.872-.086l4.877-2.773c-2.572.411-5.451.956-9.668 1.865l-1.081.994z" fill="#DBDBDB"/><path d="M96.77 77.692c-.21.258-.42.507-.65.765a55.72 55.72 0 011.368-.182l1.08-.956-.803.172a5.386 5.386 0 00-.994.201z" fill="#DBDBDB"/><path d="M94.677 78.715l1.482-.258c.23-.258.44-.507.65-.765-.775.209-1.525.5-2.238.87.03.055.065.106.106.153z" fill="#DBDBDB"/><path d="M106.764 83.43c-1.912.268-6.914-.163-9.917-.43 0 .19 0 .325-.076.382l-.23.163.823 1.186c3.462.669 5.881 3.7 8.97 6.015h27.734c.334-6.216-20.342-8.224-27.304-7.316zm28.7-4.982c.166.32.288.66.363 1.013.507 2.085-.641 6.867-1.712 11.285h1.358l.756-8.865a4.784 4.784 0 00-.765-3.433z" fill="#fff"/><path d="M97.364 84.73l-.775-1.185-1.607 1.119a7.578 7.578 0 012.382.067zm38.434-5.269a4.017 4.017 0 00-.363-1.013 1.09 1.09 0 01-.593 1.616c-2.965 1.176-11.839.334-20.446-.478-4.782-.46-7.909-1.129-11.065-1.397l-6.809 3.826c.132.307.231.628.296.956 3.003.268 8.043.698 9.918.43 6.962-.956 27.637 1.1 27.303 7.316h.048c1.099-4.39 2.247-9.171 1.711-11.256z" fill="#fff"/><path d="M97.488 78.275l-.841.785c-.402.363-.794.679-1.167.956.413.657.784 1.341 1.11 2.046l6.808-3.825a28.988 28.988 0 00-5.91.038z" fill="#fff"/><path d="M95.164 79.5l.316.516c.373-.277.765-.593 1.166-.956l.842-.785c-.44 0-.899.115-1.368.182a45.63 45.63 0 01-.956 1.043z" fill="#fff"/><path d="M95.164 79.5c.335-.354.65-.699.956-1.043l-1.444.258c.144.259.316.526.488.784z" fill="#fff"/><path d="M83.258 90.746h1.166c.077-.325.163-.65.259-.956l-1.425.956zm3.051-5.384l-.373-.478h-.086c-.25.363-.488.755-.737 1.205-.956 1.769-1.779 3.28-2.496 4.628h.64l1.426-.956a30 30 0 011.626-4.4z" fill="#DBDBDB"/><path d="M85.85 84.912h.085a.537.537 0 00-.086 0z" fill="#DBDBDB"/><path d="M89.895 90.746h.45l-.326-.564c-.124.19-.124.382-.124.564zm2.582-4.38l-1.913 1.339c-.162.765-.344 1.616-.535 2.477l.325.564h2.209a6.78 6.78 0 01-.086-4.38z" fill="#fff"/><path d="M88.651 87.867a8.292 8.292 0 01-.545-.487l-3.423 2.38c-.096.336-.182.66-.258.957h5.47c0-.181.076-.373.124-.564l-1.368-2.286z" fill="#fff"/><path d="M88.652 87.867l1.329 2.315c.191-.861.373-1.712.535-2.477l-.956.631c-.105.096-.45-.086-.908-.469zm-3.969 1.893l3.423-2.38a19.927 19.927 0 01-1.798-2.018 29.974 29.974 0 00-1.625 4.399z" fill="#fff"/><path d="M92.974 83.688l-.535-1.616-.794.679 1.33.937zm.316.938a9.07 9.07 0 00-.813 1.74l2.458-1.702a8.748 8.748 0 00-1.53.315l-.115-.353zm-5.47-6.112l.66 2.736c.105-.182.2-.354.325-.546l2.046 1.502-2.869-4.017a8.11 8.11 0 002.496-2.869.956.956 0 00-.411.153c-1.53 1.081-3.108 2.162-4.657 3.242a8.924 8.924 0 002.41-.2zm-1.923 6.322l.144-.201h-.268l.124.2z" fill="#F2F2F2"/><path d="M83.88 80.121c1.463.258 2.534.46 2.658.469 1.176.124 1.616.516 1.779.956.057-.086.105-.182.162-.277l-.66-2.764c-.79.17-1.602.23-2.41.182l-1.138.784c-.21.157-.351.39-.392.65z" fill="#F2F2F2"/><path d="M87.523 82.962l.794-1.406c-.163-.45-.603-.842-1.78-.957-.123 0-1.195-.21-2.658-.468-.267 1.052.68 2.869 1.913 4.542h.268a9.959 9.959 0 011.463-1.712zm.459-4.772l2.87 4.016.774.555.793-.68-.162-.468c-.391.13-.809.159-1.215.086-.172-.631-2.218-.89-.669-3.108.086-.105.746-1.243 1.635-2.735a2.152 2.152 0 00-1.549-.545 8.11 8.11 0 01-2.477 2.878z" fill="#F2F2F2"/><path d="M94.045 78.84l.488-.278a12.433 12.433 0 00-2.506-2.716c-.889 1.492-1.549 2.63-1.635 2.735-1.55 2.22.497 2.477.67 3.108.405.073.823.044 1.214-.086l-.727-2.19c.89-.23 1.712-.41 2.496-.573z" fill="#F2F2F2"/><path d="M94.045 78.84l.593-.125a.871.871 0 01-.105-.153l-.488.278zm2.544 4.705l.23-.163c.086-.057.105-.191.076-.382l-.736-.067.43.612z" fill="#F2F2F2"/><path d="M94.495 82.799c-1.244 0-1.703-.411-1.913-.88l-.182.153.536 1.616.612.43c-.115.173-.2.345-.297.508l.115.353c.5-.15 1.012-.256 1.53-.315l1.693-1.12-.43-.611c-.957-.086-1.569-.144-1.664-.134z" fill="#F2F2F2"/><path d="M92.276 81.603l.163.469.181-.153a1.779 1.779 0 01-.096-.373l-.248.057z" fill="#F2F2F2"/><path d="M92.371 80.437s.374-.794 1.674-1.597c-.784.162-1.606.344-2.496.573l.727 2.19.249-.057c-.058-.45.019-.899-.154-1.11zm3.739 2.496l.737.067a4.785 4.785 0 00-.296-.957l-.756.421.316.469z" fill="#F2F2F2"/><path d="M93.338 81.25l-.718.66c.172.468.631.86 1.913.88.096 0 .708 0 1.616.133l-.315-.45.755-.42a18.028 18.028 0 00-1.071-2.047c-.673.502-1.405.92-2.18 1.244z" fill="#F2F2F2"/><path d="M93.337 81.25a10.25 10.25 0 002.143-1.244l-.316-.516a32.529 32.529 0 01-1.827 1.76zm-.717.67l.718-.67c-.265.113-.536.21-.813.287.017.13.05.258.095.382z" fill="#F2F2F2"/><path d="M94.676 78.715l-.593.125c-1.3.803-1.711 1.578-1.673 1.597.172.21.096.66.153 1.11.277-.078.549-.174.813-.288a41.15 41.15 0 001.826-1.76 5.347 5.347 0 01-.526-.784zm-8.042 5.853c-.21.105-.44.21-.698.316l.372.478c.115-.258.259-.526.383-.794h-.057zm-.564.067l-.144.2a9.45 9.45 0 00.698-.315l-.554.115z" fill="#F2F2F2"/><path d="M87.523 82.961a9.966 9.966 0 00-1.454 1.674l.593-.067h.077c.22-.545.487-1.071.784-1.607zm5.451.727l-1.33-.956-.229.2-.564-.726-2.066-1.463c-.124.191-.22.363-.325.545l.201.851c.257-.173.552-.282.86-.316.364.536 2.391.125 1.646 2.726 0 .124-.306 1.434-.67 3.165l1.913-1.338a9.07 9.07 0 01.813-1.741l-.249-.947z" fill="#F2F2F2"/><path d="M88.393 82.302a3.24 3.24 0 01.287-.173l-.2-.88c-.058.096-.106.192-.163.278.076.25.102.514.076.775z" fill="#F2F2F2"/><path d="M88.393 82.302a2.007 2.007 0 00-.076-.746l-.794 1.406c.272-.243.563-.463.87-.66zm3.022.65l.23-.201-.794-.545.564.746zm2.171 1.167l-.612-.43.316.956c.095-.182.181-.354.296-.526zm-5.48 3.261c.205.191.386.354.546.487l-.354-.612-.192.125z" fill="#F2F2F2"/><path d="M89.541 81.814a1.913 1.913 0 00-.86.315l.497 2.095c-.89.143-1.703.248-2.487.344-.124.268-.268.536-.382.794a19.927 19.927 0 001.797 2.018l.192-.125.354.612c.459.383.803.565.956.469l.956-.631c.364-1.731.622-3.041.67-3.166.698-2.6-1.34-2.19-1.693-2.725z" fill="#F2F2F2"/><path d="M88.45 83.162a3.977 3.977 0 01-1.74 1.406c.784-.096 1.597-.2 2.487-.344l-.498-2.095a3.25 3.25 0 00-.287.172c-.038.345-.086.65.039.861z" fill="#F2F2F2"/><path d="M86.71 84.53a3.978 3.978 0 001.74-1.368c-.124-.172-.076-.478-.057-.822a6.973 6.973 0 00-.87.66 21.45 21.45 0 00-.813 1.53z" fill="#F2F2F2"/><path d="M40.816 90.746l-17.644-30.44 87.647-46.353 43.36 76.793" stroke="#F23D71" stroke-width=".75" stroke-miterlimit="10"/><path d="M9.248 54.243c.076-.153-.058-.182-.153-.22a.134.134 0 01-.096-.153c0-.134-.153-.143-.124-.296.028-.154-.163-.25-.278-.373-.114-.125-.124-.488-.277-.67-.153-.182-.67-.526-.794-.928 0-.047-.076-.086-.057-.153.02-.067.096-.134 0-.172-.096-.038-.124 0-.105-.105.019-.105.23-.143.258-.2.029-.058-.277 0-.297-.096-.019-.096.154-.192.087-.259a.153.153 0 010-.086c-.067-.2-.259-.382-.259-.612 0-.23.134-.44 0-.64-.134-.201.172-.144.201-.21.029-.068-.191-.106.058-.154.183-.033.37-.033.554 0 .201.058.182.172.192.258.018.16.018.32 0 .479 0 .19.296.306.19.516-.104.21 0 .23.077.344.077.115.22.182.058.373-.163.191 0 .144.086.21.086.068.181.135.153.24-.029.105.076.162.095.239.02.076.345.2.46.325.114.124 0 .296 0 .44 0 .143.19.258.277.392a2.4 2.4 0 01.086.277s.095.048.067.115c-.029.067.21.153.268.258.057.105 0 .134 0 .163 0 .029.114 0 .152 0 .039 0 .134.095 0 .287-.162.459-.994.64-.88.41zM8.78 43.876a.278.278 0 01-.087.144c-.105.143-.287.239-.277.411.01.172.153.478 0 .64-.153.163-.144.202-.23.307-.086.105.067.296-.134.401-.2.106-.048.115 0 .182.048.067 0 .134 0 .2v.25c0 .248-.095.478-.095.726v.172c0 .058.373.383-.297.326-.27.01-.537-.053-.774-.182-.077-.096 0-.191 0-.287 0-.096-.106-.182-.125-.277-.019-.096.344-.612.125-.631a.163.163 0 00.105 0 1.971 1.971 0 01-.201-.393c-.172-.105 0-.181.105-.248-.2-.201 0-.364.115-.507l.23-.2c.057 0 .286-.068.162-.154a1.596 1.596 0 00-.23-.143c-.076-.048.077-.134.163-.134.086 0 0-.067-.057-.115-.058-.048-.106-.143-.086-.191a.842.842 0 01.095-.21s.115 0 .153-.068c.038-.067 0-.124.067-.181.067-.058.22-.21.153-.373s-.076-.096 0-.086c.077.01.115-.058.144-.096.028-.038.124-.105.19-.153a.152.152 0 01.087 0 .86.86 0 01.535.287c.101.145.167.312.192.488a.23.23 0 01-.029.095zm6.349-3.126c.086-.173.143-.364.22-.546.076-.182-.105-.124-.105-.182 0-.057.057-.143 0-.172-.058-.029-.115-.067-.077-.143.038-.077-.306 0 0-.335-.143.057-.105 0 0-.134-.239.124-.172-.048-.239-.096-.067-.047-.258 0-.316-.21-.057-.21 0-.105-.105-.048-.105.058-.2.096-.287.058a1.16 1.16 0 00-.19-.086s-.116-.144-.163 0c-.134.325-.307.23-.498.086-.191-.144-.153-.096-.191 0-.038.095 0 .239-.115 0-.115-.24-.306-.957-.181-.823-.096-.124.152-.21.162-.22.01-.01.306 0 .297-.067.401.086.774-.095 1.195 0 .124 0 .24.067.354.115.115.048.143.201.258.172.115-.028.124-.057.163-.048.038.01 0 .22.066.306.067.087.115.087.163.144.048.057.278-.105.364-.077.086.03.066.087 0 .192a.598.598 0 00-.086.134h.085c.297 0 .153.248.24.372a.708.708 0 01.172.402c0 .163-.192.325-.077.45.115.124.125.105.105.153-.019.047-.172 0-.076.086.516.191-.21.315-.096.468.115.153-.153.46-.248.507-.096.048-.297 0-.612-.23-.316-.229-.21-.162-.182-.229zm-5.116 1.596c-.077 0-.125 0 0-.248v-.077a.23.23 0 01-.354-.124v-.172c.15-.196.323-.373.516-.526.067 0 .067 0 .096.057.029.057.172 0 .258 0 .086 0 .23.077.277.22.048.143 0 .296.192.239.191-.057.048 0 .067 0 .08.034.157.076.23.124.066.062.127.129.181.201 0 .058.153.24.258.172.105-.067.144 0 .21 0 0 .105.048.067.115 0s.115 0 .192 0h.086a.153.153 0 00.162-.057c.115-.115.191 0 .287.057.096.058.086 0 .124 0h.086c.158.067.321.118.488.153 0 0 0-.067.077-.086.076-.019 0 0 .057 0s.134.278.115.077c-.02-.201.057-.134.076-.172a.525.525 0 01.087-.22l.105.067c.14.196.267.4.382.612a.4.4 0 01.067.172h-.048c-.047 0 0 .067 0 .124a.407.407 0 010 .163s-.067 0-.086-.115c0 .23-.306.163-.43.191-.124.029-.105.172-.191.192-.263.04-.531.04-.794 0a1.74 1.74 0 00-.956-.087c-.106 0-.173-.105-.21-.277-.04-.172-.077-.134-.202.048-.124.182-.057.048-.057-.058 0-.105-.067 0-.105 0a.897.897 0 01-.756-.286c-.067-.077-.239 0-.363 0-.125 0 0-.106 0-.125 0-.019-.163-.21-.24-.239zm-1.76-1.453c0-.21-.354-.182-.258-.46v-.2c0-.038-.048-.115-.086-.163-.038-.048 0-.21-.134-.277-.134-.067-.163 0-.2 0-.04 0 0-.115 0-.182 0-.067-.24-.191-.087-.44.153-.248-.306.067-.268 0a.45.45 0 01.058-.086c.057-.105-.182-.067-.21-.134a.698.698 0 00-.135-.296c0-.058-.19-.067-.19-.153s.324-.258.219-.306c-.105-.048-.287 0-.344 0-.058 0 0-.067 0-.134s.076-.124.076-.134c0-.01-.153 0-.191 0-.038 0 .057-.067.105-.105.048-.038 0-.067-.086-.096-.086-.028 0-.105-.105-.143-.105-.039 0-.125-.048-.182-.048-.057 0 0 0 0s.086-.124 0-.143c-.287-.048-.239-.46-.143-.632a.756.756 0 01.468-.23.335.335 0 01.192 0c.277.125.258.307.286.508-.124.373.498.459.345.85 0 .077.287.144.114.24-.172.096.02.124.02.134.344.076.325.344.459.535.133.192.23.45.45.603 0 0-.077.105-.058.124.019.02.315 0 .392 0 .076 0 .105.153 0 .316-.105.162 0 .124.057.2.058.077 0 .182 0 .23 0 .048.144.048.182.105.038.058-.851.842-.88.65zm-1.559-9.21c-.022.11-.057.215-.105.316 0 .086-.067.153 0 .248.067.096.105.23.01.23-.096 0 0 .277-.058.42-.057.144-.191.383 0 .565-.048.067-.191.143-.105.2.086.058.124.116.115.182-.01.067-.067.134 0 .163.067.029 0 .105 0 .153l.143.23c.014.12.014.242 0 .363 0 .096-.162.24 0 .306.163.067-.134.124-.478.2h-.363c-.067-.22-.115-.449-.182-.669a.412.412 0 010-.105c0-.076.095-.153 0-.22-.096-.067-.153-.095-.144-.143.01-.048.21-.124.24-.182.028-.057-.096-.105-.067-.162.028-.058 0-.096-.096-.144-.096-.048-.163-.057 0-.134.162-.076 0-.115-.124-.172-.125-.057 0-.105.067-.172.066-.067 0-.143 0-.22 0-.077.22-.105.095-.153-.124-.048-.057 0-.067 0h.067c-.315-.172 0-.344-.057-.517-.058-.172-.077-.086-.058-.114.02-.029.134-.058.173-.096.038-.038 0-.105 0-.162 0-.058-.058-.058.162-.106.22-.047-.124-.172-.124-.2 0-.03 0-.115.181-.144-.133 0-.105-.067-.057-.096a.613.613 0 01.689 0 .268.268 0 01.143.106.421.421 0 010 .23z" fill="#F23D71"/><path d="M8.1 42.375c-.162-.316.24-.507.44-.631.2-.125.2 0 .22-.077l.057-.22c0-.048.153 0 .144-.095-.01-.096-.105-.182-.096-.25.01-.066.21-.315.316-.468.105-.153.325 0 .258-.23-.067-.229.296.106.277 0a1.737 1.737 0 00-.095-.18c-.058-.125.143 0 .153-.058.01-.058 0-.411.296-.373a.458.458 0 00.354 0c.057 0 0-.297.077-.278.076.02.468.46.497.584.029.124 0 .182-.125.182-.124 0 0 .095 0 .153 0 .057-.124.172-.19.258-.068.086-.144.047-.211.067-.067.019-.067.076 0 .248s-.077 0-.105.058a.287.287 0 01-.173.067c-.162 0-.41 0-.325.181.086.182 0 .144 0 .163 0 .019-.248 0-.21 0 .038 0 .057.124 0 .153-.057.029 0 .143 0 .248 0 .106 0 .23-.105.259-.105.028 0 .134-.058.172a.535.535 0 00-.306.239c0 .096-.267.143-.124.316.143.172-.87-.326-.966-.488zm-.134-14.211a1.26 1.26 0 01-.306.22c-.086 0 0 .143 0 .21s-.077.364-.153.536c-.077.172-.21.296-.268.468-.057.172 0 .172 0 .259 0 .086-.086.22-.115.334-.028.115-.162 0-.306 0-.545-.076-.602-.468-.592-.526 0-.306.286-.612.353-.908 0-.086-.134-.249 0-.268.08.013.16.013.24 0 .086-.076-.201-.335.066-.306-.162-.134-.114-.172-.047-.22.067-.048.057-.555.392-.411.145.032.286.08.42.143.066.059.127.123.182.192.058.124.191.239.134.277zm4.409 11.285c-.134 0-.268.067-.402.086a.68.68 0 00-.392.153s-.115 0-.076.114c.038.115.057.125 0 .125a3.261 3.261 0 01-.689-.765c-.249-.44.134-.048.115-.21-.02-.163.162 0 .162-.068 0-.067.192 0 .23 0 .038 0 .095-.2.23-.153a.526.526 0 00.238.067c.067 0 .048-.143.086-.21.039-.067.163 0 .259 0 .095 0 .143-.44.354.162.21.603-.058.68-.115.699zm2.075 2.113c0-.067.153 0 .21 0 .058 0 0-.124.086-.086.205.094.395.216.565.363v.345c0 .01-.125.593-.469.267.057.067-.124 0-.354-.468a.77.77 0 010-.105l-.038-.316zM6.053 36.15c0-.049.125-.144 0-.144-.258 0-.162-.077-.153-.134.01-.058.077-.105.173-.163.1-.05.206-.085.315-.105a.504.504 0 01.21 0c.104.033.204.078.297.134v.201c0 .029.057.086-.268.172l-.296.096c-.07.01-.14.01-.21 0a1.072 1.072 0 01-.211-.087l.143.03zm.134-5.28c-.133 0-.363-.124-.344-.172.02-.048.058 0 .105 0 .22-.067.058-.172.086-.277.03-.105.278-.115.622 0 .344.114.21.277.24.363.028.086 0 .134-.106.153a3.475 3.475 0 01-.603-.067zm1.731 17.31s-.181.076.067.096c0 0-.115.114-.105.124.01.01 0 0 0 .048 0 .047 0 0-.096.057a1.46 1.46 0 01-.41 0c-.431-.086-.747-.24-.278-.411.166-.042.34-.042.507 0a.43.43 0 01.315.086z" fill="#F23D71"/><path d="M9.668 41.084h-.105a1.693 1.693 0 01-.488.325c-.181.077 0-.134 0-.172 0-.038-.047 0-.057 0-.01 0 .316-.497.507-.564a.114.114 0 01.095 0s.115.057.144.114a.402.402 0 01-.096.297zm152.009 22.368c.153-.105.057-.23 0-.334a.196.196 0 01-.033-.11c0-.04.011-.078.033-.11.076-.134-.067-.259 0-.402.067-.144-.058-.373-.134-.574-.077-.2 0-.631-.105-.956a10.937 10.937 0 01-.775-1.234c0-.057-.076-.115-.057-.181.019-.067.086-.154 0-.21-.086-.058-.144-.068-.115-.125.029-.058.21-.172.239-.249.029-.076-.287 0-.316-.105-.028-.105.125-.24 0-.316a.27.27 0 01-.076-.105c-.124-.239-.354-.43-.411-.708-.058-.277 0-.545-.259-.745-.057-.058.115-.23.106-.316-.01-.086-.239-.057 0-.2a1.04 1.04 0 01.526-.183c.229 0 .277.173.325.287.108.204.2.415.277.632.077.248.402.392.364.698-.039.306.133.315.181.478.048.162.268.268.134.526s.067.21.124.306c.058.095.201.23.182.373-.019.143.086.23.115.354.029.124.325.401.44.621.115.22 0 .44 0 .65.035.239.096.473.182.699v.44c0 .143.066.124 0 .19-.067.068.114.355.114.536 0 .182-.095.153-.076.22.019.067.095.096.124.153a.24.24 0 01-.124.354c-.392.23-1.205-.21-.985-.354zm-5.719-13.149c.062.057.116.12.162.191.144.201.211.46.412.584.201.124.64.21.755.506.115.297.153.325.22.488.067.163.373.22.364.488 0 .105.086.153.181.181.096.03.125.154.192.22.087.078.17.162.248.25.23.267.402.583.603.86.039.076.087.146.143.21.048.058.631.249 0 .526-.354.172-.641.306-.784.249-.144-.058-.115-.21-.21-.287-.096-.077-.211-.124-.297-.191s-.249-.804-.421-.68c0 0 .067-.057.067-.076 0-.019 0 0 0 0s-.421-.143-.411-.153c-.201 0-.163-.153-.143-.296-.306 0-.364-.24-.412-.478l-.076-.354c0-.096.086-.316-.067-.278a1.86 1.86 0 00-.258.115c-.086 0-.106-.153-.077-.239.029-.086-.067 0-.143 0-.077 0-.192 0-.239-.048a1.887 1.887 0 01-.173-.21 1.222 1.222 0 010-.191c0-.077-.114-.115-.162-.173-.048-.057-.172-.325-.373-.344h-.105c.019 0 0-.143-.067-.191a.861.861 0 01-.125-.268.143.143 0 010-.096.646.646 0 01.45-.42c.217-.029.438.001.641.086.036 0 .071.007.105.019zm-6.541 7.182a3.316 3.316 0 01-.718-.956c-.067-.125-.248-.144-.315-.259-.067-.114-.086-.267-.239-.325a.323.323 0 01-.22-.306c0-.172-.469-.306-.125-.621-.153 0-.134-.106 0-.23-.287 0-.191-.249-.258-.373s-.306-.392-.239-.67a.162.162 0 00-.076-.2.472.472 0 01-.268-.46v-.391c0-.096.095-.249 0-.316a.605.605 0 01-.242-.73.603.603 0 01.156-.226.293.293 0 00.057-.354c-.057-.076-.21-.191 0-.22.21-.029.956.163.823.22.153 0 .124.239.143.258.019.02-.057.325 0 .325-.124.44.134.842.258 1.253 0 .124.067.249.105.363.039.115 0 .278.077.335.076.058.134 0 .162.077.029.076-.086.2-.114.306-.029.105.076.143.095.22.019.076.287 0 .364.067.076.067.048.086 0 .172s-.096.086-.105.124c-.01.038 0 0 .076 0 .296 0 .134.268.239.402.074.143.12.299.134.459 0 .153 0 .392.153.459s.163 0 .182.067c.019.067-.096.153 0 .115.487-.22.105.392.334.41.23.02.383.374.45.47.067.095 0 .325-.335.554a.357.357 0 01-.282.12.364.364 0 01-.272-.14z" fill="#F23D71"/><path d="M154.227 51.823c0-.095 0-.162.21-.19.058 0 .096 0 .067-.068a.337.337 0 01-.057-.468.188.188 0 01.162-.077c.251.017.496.075.727.172.058.058 0 .105 0 .153s.077.21.125.325a.512.512 0 01-.096.526c-.105.153-.277.259-.163.44v.096c0 .029 0 .268-.067.392-.03.132-.075.26-.133.383 0 .095-.211.325-.134.459.04.097.063.2.067.306-.115.095-.077.105 0 .2.076.096-.067.21-.077.335a.384.384 0 010 .144.469.469 0 000 .277c.077.21-.067.363-.182.516a.718.718 0 00-.105.23.494.494 0 01-.057.153 5.068 5.068 0 01-.593.688s0 .144-.057.201a.298.298 0 00-.087.125c-.019.047-.286-.115-.2.076.086.191-.067.23-.096.297a.944.944 0 01-.23.401s-.105.086-.2 0a2.977 2.977 0 01-.412-.593c0-.076-.076-.153-.067-.172.01-.019 0 0 .058 0 .057 0 0-.076 0-.134a.308.308 0 01-.048-.153s.067 0 .105.096c0-.22.249-.24.345-.354.095-.115 0-.2 0-.268 0-.067.353-.574.439-.727.231-.299.334-.677.287-1.051 0-.115.115-.192.278-.278.162-.086.143-.124-.058-.23-.201-.105 0-.19.067-.286a.156.156 0 000-.134 1.64 1.64 0 01.096-1.004c.048-.125-.096-.278-.134-.412-.038-.133.105 0 .115-.076.009-.077.105-.21.105-.316zm.143-2.868c.144-.21-.114-.46.144-.66.095-.077.115-.134.095-.22-.019-.086 0-.163 0-.24 0-.076.106-.248.067-.382-.038-.134-.124-.124-.134-.182-.009-.057.058-.134.106-.19.047-.058-.096-.374.162-.546.105-.077-.296-.134-.22-.2l.086-.058c.106-.086-.124-.191-.105-.287a1.183 1.183 0 000-.411c0-.096-.134-.182-.105-.278.029-.095.402-.134.325-.239-.076-.105-.277-.124-.296-.2-.019-.077 0-.096.067-.144.067-.048.095 0 .086 0-.01 0-.163 0-.192-.057-.028-.058.077 0 .144-.077.067-.077 0-.096-.058-.153-.057-.057 0-.153 0-.22v-.23c0-.076 0 0 0 0s.125-.124.048-.172c-.258-.162-.124-.65 0-.832a.651.651 0 01.555-.124c.071 0 .14.027.191.077a.86.86 0 01.174.378.86.86 0 01-.021.415v.058c-.229.44.335.87 0 1.3-.057.077.201.345 0 .383 0 0-.105 0-.095.057.286.316.143.65.153.957-.02.36-.02.72 0 1.08 0 0-.125.058-.115.096.009.038.258.258.277.392a.394.394 0 01-.162.392c-.115.086-.058.182-.096.277-.038.096-.163.153-.182.24-.019.086.067.181.058.277-.01.095-1.062-.105-.957-.277zm.306-12.767c.02.155.02.312 0 .468a.542.542 0 00.058.344c.067.115.172.22.105.364-.067.143.057.382.067.593.009.21-.115.554.162.774 0 0-.172.22-.076.287a.322.322 0 01.143.258c0 .058-.057.182 0 .22.058.039 0 .153.048.22s0 .192 0 .278c.019.171.019.344 0 .516 0 .134-.162.316 0 .42.163.106-.143.163-.497.202-.163 0-.335 0-.354-.086l-.182-.87a.645.645 0 010-.125c0-.096.077-.2 0-.287-.076-.086-.162-.105-.162-.172 0-.067.21-.163.229-.24.019-.076-.105-.133-.086-.2a.144.144 0 00-.02-.11.142.142 0 00-.094-.062c-.144-.067-.163-.057-.058-.172.105-.115-.048-.144-.143-.201-.096-.057 0-.124 0-.22v-.277c0-.096.201-.172.057-.21h-.067.058c-.345-.154-.134-.412-.201-.622 0 0-.096-.086-.086-.134.009-.048.114-.105.143-.163.029-.057 0-.143-.086-.191-.086-.048-.067-.057.124-.172.192-.115-.124-.105-.143-.134-.019-.029 0-.153.115-.24-.134 0-.125 0-.086-.095a.523.523 0 01.602-.344.232.232 0 01.182.086.778.778 0 01.248.297zm-.66 14.105c-.382.096-.554-.353-.726-.583-.058-.067-.058-.2-.134-.23l-.268-.057c-.067 0-.096-.163-.153-.143-.057.019-.182.124-.258.114a5.984 5.984 0 01-.631-.19c-.134 0-.23-.288-.383-.144-.153.143-.076-.316-.191-.249a1.47 1.47 0 00-.115.182c-.076.114-.096-.115-.163-.086-.066.028-.353.267-.554.057a.48.48 0 00-.373-.182c-.086 0-.163.278-.268.201a.737.737 0 01-.143-.746.268.268 0 01.334-.114c.067 0 .067-.096.125-.144.057-.048.363-.076.526-.096a.94.94 0 01.334.106c.125.047.163 0 .287-.163.125-.163.144.048.191.067.088.03.169.075.24.134.143.162.296.401.506.258.211-.143.173-.067.23 0 .057.067.096.258.115.22.019-.038.153-.067.201 0 .047.067.21 0 .334 0a.325.325 0 01.411.134c.058.095.211 0 .278.105.106.162.242.301.401.411.134.077.211.354.45.258.239-.095-.411.833-.603.88zm-.525-19.346c.018.171.018.345 0 .516 0 .105.124.144.153.24.112.236.211.478.296.726.067.249.057.516.115.775 0 .105.134.2.172.306.038.105.057.334.115.497.057.163-.134.115-.278.172a.63.63 0 01-.803-.268c-.153-.354-.134-.86-.296-1.214 0-.105-.268-.153-.153-.306.114-.153.143-.163.153-.22.009-.058-.393-.182-.192-.364-.21 0-.21-.066-.201-.162.01-.096-.382-.564 0-.727a1.333 1.333 0 01.67-.105c.067.057.249.038.249.134zm-6.217 18.495c.181-.192.387-.36.612-.497.23-.099.451-.217.66-.354.058 0 .163 0 .163-.134v-.153s.488.68.535.89c.125.478-.153 0-.191.19-.038.192-.182 0-.182.068 0 .067-.21 0-.267 0-.058 0-.096.23-.239.22-.144-.01-.23 0-.287 0-.058 0 0 .172 0 .258 0 .086-.163.105-.258.162-.096.058.143.479-.431.192a.523.523 0 01-.271-.392.53.53 0 01.156-.45zm4.304 9.038c-.096.047-.249-.125-.335-.163-.086-.038-.22.057-.277-.048a1.063 1.063 0 01.057-.679c.048-.077.086-.086.115-.086.029 0 .22-.096.22-.115 0-.019.449-.335.622.096 0-.077.143.067.076.583a.256.256 0 01-.048.125c-.132.11-.277.207-.43.286zm2.974-16.23c0-.066.134-.162 0-.181-.258-.058-.153-.134-.134-.201.019-.067.086-.124.191-.182.102-.038.208-.06.316-.067a.342.342 0 01.21 0c.106.07.203.154.287.249.048.048 0 .105 0 .153v.153c0 .048 0 .124-.287.153-.105 0-.191 0-.306.057a.672.672 0 01-.21 0 1.249 1.249 0 01-.201-.172l.134.038zm-.689-6.904h-.401s0-.067.067-.105c.162-.182 0-.23-.058-.373-.057-.144.182-.268.565-.287.382-.02.325.248.401.334.077.087.096.163 0 .25-.18.09-.374.151-.574.18zm6.006 19.997c.048 0-.105.181.125.086v.2h.076s0 .058-.057.115a1.102 1.102 0 01-.383.153c-.44.067-.813.058-.497-.353a.888.888 0 01.401-.287.405.405 0 01.335.086zm-4.676-4.897h-.105a1.583 1.583 0 01-.545-.22c-.173-.124.105-.105.105-.2v-.077a.879.879 0 01.755 0s.077.077.067.105c.01.086.01.173 0 .258a.308.308 0 01-.277.134zm10.845 33.347a1.194 1.194 0 100-2.388 1.194 1.194 0 000 2.388zm10.137-22.406a1.195 1.195 0 100-2.39 1.195 1.195 0 000 2.39zm-4.266 53.334a1.197 1.197 0 001.196-1.195 1.2 1.2 0 00-1.196-1.196 1.195 1.195 0 000 2.391zm-8.004 19.232a1.195 1.195 0 100-2.39 1.195 1.195 0 000 2.39zm14.928-34.935h-.535a1.198 1.198 0 00-1.196 1.196 1.195 1.195 0 001.196 1.195h.535a1.2 1.2 0 001.196-1.195 1.196 1.196 0 00-1.196-1.196zM19.834 85.4a1.195 1.195 0 100-2.39 1.195 1.195 0 000 2.39zM7.43 98.607v.535a1.195 1.195 0 002.391 0v-.535a1.196 1.196 0 00-2.39 0zM4.887 82.206a1.196 1.196 0 100-2.392 1.196 1.196 0 000 2.392zm-3.73 36.273a1.196 1.196 0 100-2.392 1.196 1.196 0 000 2.392zm17.606 19.194a1.196 1.196 0 100-2.392 1.196 1.196 0 000 2.392zM71.925.918c-.2.096-.172.306-.153.478a.44.44 0 01-.105.316c-.143.162-.086.382-.23.545-.143.163-.114.564-.152.87 0 .46-.354.86-.345 1.32 0 .727.153 1.454.096 2.152v.287c0 .086-.153.172-.105.286.048.115.105.163.057.24-.048.076-.22.105-.325.2-.105.096.249.21.249.316 0 .105-.201.268-.134.42a.558.558 0 010 .173c0 .402.191.794.181 1.186-.069.382-.046.775.067 1.147 0 .115-.162.259-.162.383s.23.191 0 .287a.803.803 0 01-.564 0 .679.679 0 01-.278-.564 5.984 5.984 0 01-.115-1.014c0-.383-.296-.765-.153-1.157.048-.25.048-.506 0-.756 0-.296-.143-.516.077-.794.22-.277 0-.325 0-.487a1.423 1.423 0 010-.603c.038-.179.057-.362.057-.545.067-.344-.134-.717-.124-1.08.052-.306.155-.6.306-.87a9.28 9.28 0 00.182-1.034c0-.2.153-.392.21-.583.057-.191 0-.21.077-.277.239-.21.076-.517.162-.765.086-.25.163-.173.172-.268.01-.096 0-.182 0-.258a.43.43 0 01.297-.44c.555-.182 1.033.765.755.89zM76.43 20.37a1.861 1.861 0 01-.22-.258 2.707 2.707 0 00-.612-.775c-.354-.23-.842-.363-1.062-.736-.134-.22-.296-.412-.43-.622-.134-.21-.517-.325-.603-.66a.4.4 0 00-.287-.248c-.134-.048-.191-.22-.287-.316a4.778 4.778 0 01-.382-.383c-.33-.41-.627-.844-.89-1.3l-.19-.325c-.058-.086-.737-.574-.068-.727.392-.086.698-.172.86-.058.163.115.144.316.25.45.105.134.267.21.382.325.115.115.411 1.09.603.956 0 0-.058.067 0 .086.057.02 0 0 0 0 .181.073.357.16.526.259.239 0 .239.21.267.382.383.058.526.364.67.67l.22.45c.057.114 0 .372.181.353l.287-.096c.096 0 .182.21.172.306-.01.096.096.058.182.058a.45.45 0 01.325.105c.103.098.2.204.287.316.048.057 0 .172.077.239.076.066.162.172.248.258.086.086.287.468.545.564 0 0 .154 0 .144.057-.01.058 0 .192.115.268.076.127.136.261.181.402a.201.201 0 010 .134c-.057.277-.41.306-.535.296a2.593 2.593 0 01-.775-.325.689.689 0 01-.181-.105zm-4.486 1.128a7.063 7.063 0 00-.726 1.148c-.087.153 0 .335-.058.488-.057.153-.153.306-.086.478a.498.498 0 010 .45c-.105.2.23.583-.2.755.143.086.085.172 0 .277-.087.105 0 0 0 0 .277.143.114.373.181.545.067.172.296.545.268.87a.249.249 0 00.124.249.814.814 0 01.43.478l.24.383c.066.086.086.287.239.277a.956.956 0 01.87.555.306.306 0 00.344.162c.105 0 .22-.162.24.058.018.22-.192.956-.326.794v-.058c.067.191-.411 0-.45 0-.21 0-.506-.316-.535-.249a7.86 7.86 0 01-1.73-1.463 4.606 4.606 0 01-.307-.564c-.076-.153-.057-.411-.182-.526-.124-.115-.143-.096-.181-.163-.039-.067.067-.296.095-.44.029-.143-.076-.248-.076-.382s-.306-.22-.306-.335a.21.21 0 010-.268s.124-.066.143-.105c.02-.038 0-.076-.057-.114-.258-.268 0-.507 0-.765a2.01 2.01 0 01.057-.756c.105-.24.344-.44.325-.708 0-.095-.057-.21 0-.296.058-.086.192 0 .115-.115-.373-.44.402-.507.42-.774.02-.268.508-.756.67-.842.163-.086.373 0 .526.392a.498.498 0 01-.067.564z" fill="#F23D71"/><path d="M83.114 21.67c.106.077.192.153.067.373v.115c.268 0 .478.297.517.488a.2.2 0 01-.058.2 1.568 1.568 0 01-.67.335c-.085 0-.095-.105-.133-.172-.038-.067-.239-.172-.383-.23a.87.87 0 01-.449-.554c-.076-.23-.105-.459-.363-.507a.191.191 0 01-.115-.067 5.005 5.005 0 01-.402-.373c-.124-.133-.268-.239-.392-.382-.124-.144-.306-.411-.497-.43a2.234 2.234 0 01-.383-.125s-.105-.115-.23-.124c-.124-.01-.248-.172-.353-.172a.773.773 0 01-.172-.096.536.536 0 00-.325 0 .956.956 0 01-.622-.23.88.88 0 00-.268-.085.614.614 0 01-.191 0 6.8 6.8 0 00-.956-.316c-.077 0-.153.048-.23.067a1.052 1.052 0 00-.172 0c-.067 0-.124-.297-.21-.096-.087.201-.23.124-.297.163a2.785 2.785 0 01-.401.22c-.058 0-.115 0-.182-.086a3.626 3.626 0 01-.201-.689v-.191c0-.02 0 0 .076 0 .077 0 0-.067.058-.134a.363.363 0 01.057-.172s.086.057.086.134c.192-.24.612-.096.851-.105.13-.067.269-.115.412-.144h.66c.272.03.54.084.803.163a13.8 13.8 0 001.712.535c.172 0 .287.21.363.43.077.22.144.21.344.087.201-.125.259.105.354.258a.306.306 0 00.172.114c.507.182.945.516 1.253.957.115.153.373.172.564.268.192.095 0 .133 0 .181.09.14.192.272.306.392zm2.324 3.768c0 .364.344.641.201 1.024a.478.478 0 000 .363c.01.124.01.249 0 .373.057.2 0 .383.057.583.058.201.153.153.182.24a.517.517 0 01-.067.305c-.105.287.172.565-.067.852-.115.114.297.162.23.277-.067.115-.067.057-.086.086-.02.029.124.296.114.44-.014.21-.014.42 0 .631 0 .134.125.287.077.42-.048.135-.411.183-.344.345.067.163.267.21.277.335.01.124 0 .153-.096.2-.095.049-.105.049-.086.077.02.029.144.058.172.105.03.048-.076.067-.153.096-.076.029 0 .143 0 .24v.343c0 .115 0 .23-.076.345a.095.095 0 010 .067c-.105.057-.163.153-.096.239.21.306-.076.956-.277 1.233 0 .067-.249.182-.574 0a.259.259 0 01-.153-.172c-.09-.382-.06-.783.086-1.147v-.087c.364-.583-.153-1.271.21-1.845.068-.105-.171-.507 0-.536.058 0 .115-.057.096-.086a3.012 3.012 0 01-.162-1.386 7.186 7.186 0 00-.201-1.502s.115-.105.096-.153c-.02-.048-.335-.287-.393-.459a.727.727 0 010-.564c.077-.153 0-.258 0-.402 0-.143.086-.258.058-.382a2.06 2.06 0 00-.191-.345c.019-.19 1.157-.459 1.166-.153zm-3.031 18.62c.025-.23.07-.457.133-.679a1.36 1.36 0 00.077-.516.746.746 0 010-.555c.2-.287.124-.564.2-.87.077-.306.355-.727.202-1.157.086-.125.267-.23.22-.373a.488.488 0 010-.402c0-.086.143-.24.086-.325-.058-.086 0-.23.067-.325.067-.096.067-.268.105-.412a3.98 3.98 0 01.268-.707c.086-.172.296-.354.23-.555-.068-.2.21-.163.544-.077.172 0 .306.163.287.268-.086.44-.2.86-.296 1.282.004.063.004.127 0 .191-.048.124-.172.23-.134.392.038.163.086.22 0 .306s-.268.134-.325.24c-.058.104 0 .22 0 .305a.25.25 0 000 .287c.095.153.114.153 0 .258-.115.105 0 .22 0 .335 0 .115 0 .191-.134.297-.134.105-.077.258-.105.401-.03.144-.25.144-.144.268l.057.057h-.076c.258.354 0 .632-.057.957 0 .067.057.153 0 .22-.058.067-.144.105-.192.162a.258.258 0 000 .306c.096.182.048.105-.172.201-.076 0 .077.191.086.24.01.047 0 .21-.181.296.133 0 .105.105.057.162-.048.057-.23.526-.68.287a.294.294 0 01-.142-.191 1.265 1.265 0 01.019-.574zm-3.615-22.732c.478.191.583.956.64 1.377 0 .134-.057.277 0 .383l.201.392v.325c0 .067.22.143.268.268.11.375.159.766.144 1.157 0 .239-.24.459-.125.708.115.248-.325.153-.277.315a.957.957 0 00.143.21c.096.154-.162.144-.172.259 0 .335 0 .736-.382.899-.199.055-.38.16-.526.306-.096.105-.096.42-.259.45-.315 0-.478-.46-.459-.613a.392.392 0 01.24-.315c.076 0 0-.125 0-.201.059-.176.146-.34.258-.488a3.03 3.03 0 01.239-.268c.086-.124.076-.172-.077-.334-.153-.163.067-.134.096-.182a.958.958 0 01.134-.258c.162-.163.382-.44.172-.632a.268.268 0 01-.086-.258s.191-.239.143-.248c-.22 0-.134-.115-.143-.192a.615.615 0 00-.22-.325.469.469 0 01-.2-.478c0-.124-.163-.191-.163-.316a1.56 1.56 0 00-.173-.688c-.086-.172-.086-.507-.363-.555-.277-.048.689-.784.947-.698zm5.642 30.526a2.402 2.402 0 01-.354-.698c0-.153-.22-.172-.315-.297a6.827 6.827 0 01-.67-1.032 6.96 6.96 0 01-.335-1.158c0-.172-.172-.315-.229-.487-.057-.172-.077-.526-.144-.775-.066-.248.134-.143.278-.2.507-.182.803.449.832.535.085.28.155.564.21.851.072.285.174.56.306.822.096.144.345.182.287.393a.574.574 0 00-.067.315c0 .2.488.144.373.42.21 0 .249 0 .287.164.038.162.756.526.545.841a.86.86 0 01-.315.277.833.833 0 01-.278.067c-.162.01-.334.086-.41-.038zm-9.142-23.201c.264.02.53.02.793 0 .276-.005.547-.07.794-.19.067 0 .191 0 .191-.135v-.162c0-.01.584.612.632.822.114.497-.249.105-.345.297-.095.191-.277 0-.315.095-.038.096-.306 0-.43 0-.125 0-.307.24-.517.163a.958.958 0 00-.382-.105c-.125 0-.192.134-.316.181-.124.048-.306 0-.45-.095-.143-.096-.621.335-.516-.316a.698.698 0 01.86-.555zm-1.445-8.549c-.057.076-.248 0-.344 0-.095 0-.134.172-.248.134a1.01 1.01 0 01-.46-.507.19.19 0 01.058-.172s.21-.268.22-.287c.086-.172.708-.708.956-.287 0-.076.182.048.134.574a.22.22 0 010 .124l-.316.421zm11.438 15.502c-.047.086-.2.182-.114.249.086.067.086.239 0 .334a.391.391 0 01-.259.182.649.649 0 01-.325 0 .344.344 0 01-.181-.143 3.215 3.215 0 01-.163-.45v-.22a.956.956 0 00.057-.22c0-.105 0-.181.335-.114h.306c.105 0 .191.057.2.086.049.096.09.195.125.296h.02zM82.98 45.53c.144.058.393.106.393.192 0 .086-.058.086-.096.134-.191.21 0 .335 0 .535 0 .201-.21.335-.593.278-.382-.058-.316-.45-.363-.603a.296.296 0 01.067-.363c.184-.096.385-.154.593-.172zM70.768 13.044c0-.057.134-.2-.115-.181v-.268c0-.02-.067-.058-.076-.096-.01-.038 0-.086.067-.134a.698.698 0 01.411 0c.488.096.842.268.507.689a.64.64 0 01-.45.23.488.488 0 01-.344-.24zM83.717 23.87l.086-.067a1.12 1.12 0 01.621-.057c.23.047 0 .19.058.315.057.125.067.058.076.096.01.038-.382.488-.621.42-.067 0-.115 0-.134-.076-.07-.1-.13-.205-.182-.316a.335.335 0 01.096-.315z" fill="#F23D71"/><path d="M22.65 115V96.516h6.475c2.243 0 3.944.431 5.103 1.294 1.16.855 1.74 2.112 1.74 3.771 0 .906-.233 1.705-.699 2.399-.465.686-1.112 1.19-1.942 1.511.948.237 1.693.715 2.235 1.435.55.719.825 1.599.825 2.64 0 1.778-.567 3.123-1.702 4.038-1.134.914-2.75 1.379-4.85 1.396H22.65zm3.809-8.049v4.989h3.263c.897 0 1.595-.211 2.094-.634.508-.432.762-1.024.762-1.778 0-1.692-.876-2.551-2.628-2.577h-3.49zm0-2.691h2.818c1.922-.034 2.882-.8 2.882-2.298 0-.838-.245-1.439-.736-1.803-.483-.372-1.248-.558-2.298-.558h-2.666v4.659zm27.98 1.917c0 1.819-.321 3.415-.964 4.786-.644 1.371-1.566 2.429-2.768 3.174-1.193.745-2.564 1.117-4.113 1.117-1.532 0-2.899-.368-4.1-1.105-1.203-.736-2.134-1.785-2.794-3.148-.66-1.371-.994-2.945-1.003-4.723v-.914c0-1.819.326-3.419.978-4.799.66-1.388 1.587-2.45 2.78-3.186 1.202-.745 2.573-1.117 4.113-1.117 1.54 0 2.908.372 4.1 1.117 1.203.736 2.13 1.798 2.781 3.186.66 1.38.99 2.975.99 4.787v.825zm-3.859-.838c0-1.938-.347-3.411-1.04-4.418-.695-1.007-1.685-1.51-2.972-1.51-1.278 0-2.264.498-2.958 1.497-.694.99-1.045 2.446-1.053 4.367v.902c0 1.887.347 3.351 1.04 4.392.695 1.041 1.693 1.562 2.997 1.562 1.278 0 2.26-.499 2.945-1.498.686-1.007 1.033-2.472 1.041-4.393v-.901zm12.962-2.45l3.466-6.373h4.38l-5.383 9.166L71.527 115h-4.43l-3.555-6.475L59.987 115h-4.43l5.522-9.318-5.383-9.166h4.38l3.466 6.373zM77.507 115h-3.809V96.516h3.809V115zm18.573 0h-3.808l-7.415-12.162V115H81.05V96.516h3.808l7.427 12.187V96.516h3.796V115zm17.951-2.336c-.685.821-1.654 1.46-2.907 1.917-1.253.449-2.641.673-4.164.673-1.6 0-3.005-.347-4.215-1.041-1.202-.703-2.133-1.718-2.793-3.047-.651-1.329-.986-2.89-1.003-4.685v-1.256c0-1.845.31-3.441.927-4.787.626-1.354 1.523-2.386 2.691-3.097 1.177-.72 2.552-1.08 4.126-1.08 2.192 0 3.906.526 5.142 1.575 1.236 1.041 1.968 2.56 2.196 4.558h-3.707c-.169-1.058-.546-1.833-1.13-2.324-.575-.49-1.371-.736-2.386-.736-1.295 0-2.281.487-2.958 1.46s-1.02 2.421-1.029 4.342v1.18c0 1.939.368 3.403 1.105 4.393.736.99 1.815 1.485 3.237 1.485 1.43 0 2.45-.304 3.06-.914v-3.186h-3.466v-2.806h7.274v7.376zm3.098 2.336V96.516h5.687c1.625 0 3.077.368 4.355 1.104 1.286.728 2.289 1.769 3.009 3.123.719 1.346 1.079 2.878 1.079 4.596v.85c0 1.719-.356 3.246-1.067 4.583a7.55 7.55 0 01-2.983 3.111c-1.286.736-2.738 1.109-4.355 1.117h-5.725zm3.809-15.4v12.34h1.84c1.49 0 2.628-.486 3.415-1.46.787-.973 1.189-2.365 1.206-4.176v-.978c0-1.879-.389-3.301-1.168-4.265-.778-.974-1.917-1.46-3.415-1.46h-1.878zm23.257 11.591h-6.677l-1.27 3.809h-4.05l6.881-18.484h3.529L149.527 115h-4.049l-1.283-3.809zm-5.649-3.085h4.621l-2.323-6.918-2.298 6.918zm17.177-3.262l3.846-8.328h4.164l-6.068 11.781V115h-3.872v-6.703l-6.068-11.781h4.176l3.822 8.328z" fill="#FF1A56"/><path d="M82.174 118.193a7.35 7.35 0 01-1.001 3.736 10.297 10.297 0 01-2.564 3.003 12.603 12.603 0 01-3.49 2.002c-1.287.472-2.556.691-3.81.659h-.39v-.44a10.073 10.073 0 003.027-1.172 9.932 9.932 0 002.49-2.075 9.47 9.47 0 001.685-2.734 8.125 8.125 0 00.635-3.174c0-.732-.09-1.424-.269-2.075a4.667 4.667 0 00-.83-1.685 3.969 3.969 0 00-1.44-1.123c-.57-.276-1.254-.415-2.051-.415-1.14 0-2.295.171-3.467.513a15.899 15.899 0 00-3.393 1.44 18.29 18.29 0 00-3.076 2.198 16.742 16.742 0 00-2.49 2.783 13.745 13.745 0 00-1.66 3.222 10.316 10.316 0 00-.611 3.492c0 1.269.179 2.368.537 3.296a8.49 8.49 0 001.49 2.417 9.67 9.67 0 002.196 1.757c.83.489 1.717.936 2.661 1.343a55.22 55.22 0 002.881 1.099 51.74 51.74 0 012.906 1.098c.944.391 1.83.83 2.66 1.319a8.994 8.994 0 012.174 1.709 6.956 6.956 0 011.489 2.343c.374.896.561 1.954.561 3.174 0 1.335-.276 2.523-.83 3.565a7.823 7.823 0 01-2.148 2.612 9.258 9.258 0 01-3.076 1.611 11.476 11.476 0 01-3.565.562c-1.318 0-2.539-.228-3.662-.684a10.515 10.515 0 01-3.027-1.806 12.41 12.41 0 01-2.344-2.613 14.826 14.826 0 01-1.611-3.051l.366-.196c.488.863 1.05 1.709 1.684 2.539a12.764 12.764 0 002.149 2.246 10.407 10.407 0 002.637 1.612c.976.407 2.034.61 3.174.61.927 0 1.79-.13 2.587-.39a6.216 6.216 0 002.076-1.124 5.018 5.018 0 001.367-1.806c.342-.716.513-1.53.513-2.442 0-1.334-.285-2.433-.855-3.295a7.614 7.614 0 00-2.246-2.198c-.928-.602-1.986-1.115-3.174-1.538a235.24 235.24 0 00-3.662-1.269 47.379 47.379 0 01-3.638-1.465 12.9 12.9 0 01-3.174-2.075c-.927-.83-1.676-1.856-2.246-3.077-.57-1.237-.854-2.75-.854-4.541 0-1.627.252-3.157.757-4.589a15.18 15.18 0 012.075-3.98 16.877 16.877 0 013.15-3.223 20.48 20.48 0 013.881-2.441 20.77 20.77 0 014.37-1.514 19.773 19.773 0 014.566-.537c1.09 0 2.116.13 3.076.391.976.26 1.815.667 2.514 1.221.717.537 1.278 1.237 1.685 2.099.423.863.635 1.888.635 3.076zm11.28 14.014a.716.716 0 01-.196.488.631.631 0 01-.464.196c-.147 0-.301-.041-.464-.122a13.73 13.73 0 00-.561-.318 3.227 3.227 0 00-.709-.293 2.58 2.58 0 00-.903-.146 3.36 3.36 0 00-2.148.757 6.668 6.668 0 00-1.587 1.831 9.894 9.894 0 00-.977 2.343c-.228.83-.341 1.579-.341 2.246 0 .472.04.936.122 1.392.081.44.22.846.415 1.221.211.358.496.651.854.879.358.211.814.317 1.367.317.586 0 1.148-.106 1.685-.317a7.065 7.065 0 001.514-.879 7.52 7.52 0 01.244-1.636c.162-.586.366-1.156.61-1.709.244-.57.52-1.107.83-1.611.326-.505.66-.952 1.001-1.343l.318.195a9.904 9.904 0 00-.391 1.709 12.592 12.592 0 00-.122 1.734c0 .586.049 1.139.146 1.66.098.521.269.976.513 1.367a2.7 2.7 0 001 .903c.424.212.97.318 1.637.318.814 0 1.562-.188 2.246-.562a6.928 6.928 0 001.806-1.416l.196.098a7.685 7.685 0 01-1.148 1.636c-.472.52-1 .992-1.587 1.416-.57.406-1.18.732-1.83.976a5.469 5.469 0 01-1.93.366c-.895 0-1.627-.26-2.197-.781-.57-.504-.96-1.147-1.172-1.929a10.365 10.365 0 01-2.294 1.734 5.406 5.406 0 01-2.637.683c-.684 0-1.294-.13-1.831-.39a3.835 3.835 0 01-1.319-1.001 4.574 4.574 0 01-.83-1.49 6.226 6.226 0 01-.268-1.831c0-.732.114-1.481.342-2.246.244-.781.57-1.546.976-2.295.423-.748.92-1.456 1.49-2.124a11.764 11.764 0 011.855-1.757 9.336 9.336 0 012.148-1.197 6.247 6.247 0 012.295-.439c.18 0 .399.024.66.073.26.033.512.098.756.195.244.098.448.236.61.415a.926.926 0 01.27.684zm19.652 10.107c-.52 1.075-1.253 1.929-2.197 2.564-.944.618-2.018.928-3.222.928-.993 0-1.88-.301-2.662-.904-.781-.602-1.473-1.391-2.075-2.368a17.542 17.542 0 01-1.513-3.296 37.839 37.839 0 01-1.026-3.759 40.7 40.7 0 01-.586-3.663 33.047 33.047 0 01-.17-3.1c0-1.074.056-2.254.17-3.54.114-1.286.301-2.58.562-3.882.26-1.318.594-2.596 1.001-3.833.423-1.237.927-2.328 1.513-3.272.603-.96 1.294-1.725 2.076-2.294.781-.586 1.676-.879 2.685-.879.863 0 1.563.252 2.1.756.537.505.96 1.132 1.269 1.88.309.733.513 1.514.611 2.344.114.83.17 1.571.17 2.222 0 1.758-.211 3.491-.634 5.2a23.787 23.787 0 01-1.709 4.81 21.73 21.73 0 01-2.539 4.101c-.977 1.221-2.027 2.246-3.15 3.076.228 1.091.497 2.157.806 3.199a14.73 14.73 0 001.172 2.758c.456.798.976 1.449 1.562 1.953a3.167 3.167 0 002.051.733c.765 0 1.424-.155 1.978-.464.553-.309 1.066-.765 1.538-1.367l.219.097zm-10.058-15.063c-.016.358-.025.798-.025 1.318.017.521.041 1.099.074 1.734.049.618.114 1.286.195 2.002.081.716.187 1.448.317 2.197a15.917 15.917 0 002.784-3.247 18.607 18.607 0 001.879-3.833 22.21 22.21 0 001.05-4.346c.228-1.53.342-3.117.342-4.761 0-.211-.008-.488-.024-.83a9.81 9.81 0 00-.293-2.27 3.999 3.999 0 00-.367-1.05 2.057 2.057 0 00-.585-.781 1.176 1.176 0 00-.831-.318c-.618 0-1.163.31-1.635.928-.456.602-.855 1.375-1.197 2.319a24.225 24.225 0 00-.83 3.125 54.969 54.969 0 00-.512 3.296 43.057 43.057 0 00-.269 2.808c-.049.83-.073 1.4-.073 1.709zm25.317 14.258a9.569 9.569 0 01-1.538 1.733 9.901 9.901 0 01-1.953 1.392c-.7.39-1.44.7-2.222.928a8.113 8.113 0 01-2.319.341 10.58 10.58 0 01-3.101-.439 6.966 6.966 0 01-2.514-1.294 6.112 6.112 0 01-1.685-2.197c-.407-.896-.61-1.937-.61-3.125 0-1.172.211-2.263.635-3.272a8.39 8.39 0 011.782-2.661 8.495 8.495 0 012.685-1.807 8.288 8.288 0 013.296-.659c.554 0 1.066.082 1.538.244.489.147.912.375 1.27.684.358.293.635.659.83 1.099.212.439.317.944.317 1.513 0 .684-.138 1.286-.415 1.807a4.679 4.679 0 01-1.098 1.367 6.354 6.354 0 01-1.563.977c-.569.26-1.172.472-1.806.634a15.03 15.03 0 01-1.856.367c-.602.065-1.156.097-1.66.097h-.586c.212 1.481.798 2.613 1.758 3.394.96.781 2.287 1.172 3.979 1.172 1.205 0 2.377-.212 3.516-.635a10.898 10.898 0 003.125-1.758l.195.098zm-12.646-3.003h.61a6.49 6.49 0 001.807-.269 5.667 5.667 0 001.66-.83c.504-.374.919-.83 1.245-1.367.326-.537.488-1.147.488-1.831 0-.667-.146-1.221-.439-1.66-.277-.44-.765-.659-1.465-.659-.716 0-1.326.219-1.831.659a4.914 4.914 0 00-1.196 1.587 8.1 8.1 0 00-.684 1.977 9.92 9.92 0 00-.195 1.831v.562z" fill="#43BDE2"/><rect opacity=".3" x="165" y="8" width="5" height="5" rx="2.5" fill="#fff"/><rect opacity=".6" x="172" y="162" width="5" height="5" rx="2.5" fill="#fff"/><rect opacity=".6" x="5" y="169" width="3" height="3" rx="1.5" fill="#fff"/><rect opacity=".4" x="149" y="19" width="3" height="3" rx="1.5" fill="#fff"/><rect opacity=".3" x="12" y="8" width="10" height="10" rx="5" fill="#fff"/></g><defs><clipPath id="clip0"><path fill="#fff" d="M0 0h180v178.489H0z"/></clipPath></defs></svg>